<?xml version="1.0" encoding="UTF-8" standalone="no"?>
<!DOCTYPE svg PUBLIC "-//W3C//DTD SVG 1.1//EN"
 "http://www.w3.org/Graphics/SVG/1.1/DTD/svg11.dtd">
<!-- Generated by graphviz version 2.38.0 (20140413.2041)
 -->
<!-- Title: C:/Users/osyri/Desktop/IVY&#45;Inventory&#45;Manager/src/ivy/interface/InterfaceCLI.hpp Pages: 1 -->
<!--zoomable 397 -->
<svg id="main" version="1.1" xmlns="http://www.w3.org/2000/svg" xmlns:xlink="http://www.w3.org/1999/xlink" xml:space="preserve" onload="init(evt)">
<style type="text/css"><![CDATA[
.edge:hover path { stroke: red; }
.edge:hover polygon { stroke: red; fill: red; }
]]></style>
<script type="text/javascript"><![CDATA[
var edges = document.getElementsByTagName('g');
if (edges && edges.length) {
  for (var i=0;i<edges.length;i++) {
    if (edges[i].id.substr(0,4)=='edge') {
      edges[i].setAttribute('class','edge');
    }
  }
}
]]></script>
        <defs>
                <circle id="rim" cx="0" cy="0" r="7"/>
                <circle id="rim2" cx="0" cy="0" r="3.5"/>
                <g id="zoomPlus">
                        <use xlink:href="#rim" fill="#404040">
                                <set attributeName="fill" to="#808080" begin="zoomplus.mouseover" end="zoomplus.mouseout"/>
                        </use>
                        <path d="M-4,0h8M0,-4v8" fill="none" stroke="white" stroke-width="1.5" pointer-events="none"/>
                </g>
                <g id="zoomMin">
                        <use xlink:href="#rim" fill="#404040">
                                <set attributeName="fill" to="#808080" begin="zoomminus.mouseover" end="zoomminus.mouseout"/>
                        </use>
                        <path d="M-4,0h8" fill="none" stroke="white" stroke-width="1.5" pointer-events="none"/>
                </g>
                <g id="dirArrow">
                        <path fill="none" stroke="white" stroke-width="1.5" d="M0,-3.0v7 M-2.5,-0.5L0,-3.0L2.5,-0.5"/>
                </g>
               <g id="resetDef">
                       <use xlink:href="#rim2" fill="#404040">
                               <set attributeName="fill" to="#808080" begin="reset.mouseover" end="reset.mouseout"/>
                       </use>
               </g>
        </defs>

<script type="text/javascript">
var viewWidth = 584;
var viewHeight = 397;
var sectionId = 'dynsection-0';
</script>
<script xlink:href="svgpan.js"/>
<svg id="graph" class="graph">
<g id="viewport">
<title>C:/Users/osyri/Desktop/IVY&#45;Inventory&#45;Manager/src/ivy/interface/InterfaceCLI.hpp</title>
<polygon fill="white" stroke="none" points="-4,4 -4,-393 580.295,-393 580.295,4 -4,4"/>
<!-- Node0 -->
<g id="node1" class="node"><title>Node0</title>
<g id="a_node1"><a xlink:title=" ">
<polygon fill="#bfbfbf" stroke="black" points="273.295,-347.5 273.295,-388.5 433.295,-388.5 433.295,-347.5 273.295,-347.5"/>
<text text-anchor="start" x="281.295" y="-376.5" font-family="Helvetica,sans-Serif" font-size="10.00">C:/Users/osyri/Desktop</text>
<text text-anchor="start" x="281.295" y="-365.5" font-family="Helvetica,sans-Serif" font-size="10.00">/IVY&#45;Inventory&#45;Manager</text>
<text text-anchor="middle" x="353.295" y="-354.5" font-family="Helvetica,sans-Serif" font-size="10.00">/src/ivy/interface/InterfaceCLI.hpp</text>
</a>
</g>
</g>
<!-- Node1 -->
<g id="node2" class="node"><title>Node1</title>
<g id="a_node2"><a xlink:title=" ">
<polygon fill="white" stroke="#bfbfbf" points="377.295,-179.5 377.295,-198.5 431.295,-198.5 431.295,-179.5 377.295,-179.5"/>
<text text-anchor="middle" x="404.295" y="-186.5" font-family="Helvetica,sans-Serif" font-size="10.00">iostream</text>
</a>
</g>
</g>
<!-- Node0&#45;&gt;Node1 -->
<g id="edge1" class="edge"><title>Node0&#45;&gt;Node1</title>
<path fill="none" stroke="midnightblue" d="M408.545,-347.443C448.076,-330.052 497.929,-300.274 519.295,-255 535.772,-220.085 480.848,-202.982 441.304,-195.363"/>
<polygon fill="midnightblue" stroke="midnightblue" points="441.845,-191.904 431.385,-193.583 440.609,-198.794 441.845,-191.904"/>
</g>
<!-- Node2 -->
<g id="node3" class="node"><title>Node2</title>
<g id="a_node3"><a xlink:title=" ">
<polygon fill="white" stroke="#bfbfbf" points="454.795,-67.5 454.795,-86.5 495.795,-86.5 495.795,-67.5 454.795,-67.5"/>
<text text-anchor="middle" x="475.295" y="-74.5" font-family="Helvetica,sans-Serif" font-size="10.00">string</text>
</a>
</g>
</g>
<!-- Node0&#45;&gt;Node2 -->
<g id="edge2" class="edge"><title>Node0&#45;&gt;Node2</title>
<path fill="none" stroke="midnightblue" d="M433.488,-356.531C497.42,-343.155 576.295,-313.062 576.295,-246 576.295,-246 576.295,-246 576.295,-188 576.295,-143.593 531.082,-109.367 501.157,-91.5772"/>
<polygon fill="midnightblue" stroke="midnightblue" points="502.847,-88.5119 492.428,-86.5909 499.375,-94.5901 502.847,-88.5119"/>
</g>
<!-- Node3 -->
<g id="node4" class="node"><title>Node3</title>
<g id="a_node4"><a xlink:title=" ">
<polygon fill="white" stroke="#bfbfbf" points="188.295,-235.5 188.295,-254.5 244.295,-254.5 244.295,-235.5 188.295,-235.5"/>
<text text-anchor="middle" x="216.295" y="-242.5" font-family="Helvetica,sans-Serif" font-size="10.00">algorithm</text>
</a>
</g>
</g>
<!-- Node0&#45;&gt;Node3 -->
<g id="edge3" class="edge"><title>Node0&#45;&gt;Node3</title>
<path fill="none" stroke="midnightblue" d="M325.443,-347.483C311.224,-337.136 293.894,-323.919 279.295,-311 261.752,-295.476 243.279,-275.992 230.906,-262.424"/>
<polygon fill="midnightblue" stroke="midnightblue" points="233.351,-259.909 224.054,-254.828 228.154,-264.598 233.351,-259.909"/>
</g>
<!-- Node4 -->
<g id="node5" class="node"><title>Node4</title>
<g id="a_node5"><a xlink:title=" ">
<polygon fill="white" stroke="#bfbfbf" points="470.295,-235.5 470.295,-254.5 510.295,-254.5 510.295,-235.5 470.295,-235.5"/>
<text text-anchor="middle" x="490.295" y="-242.5" font-family="Helvetica,sans-Serif" font-size="10.00">limits</text>
</a>
</g>
</g>
<!-- Node0&#45;&gt;Node4 -->
<g id="edge4" class="edge"><title>Node0&#45;&gt;Node4</title>
<path fill="none" stroke="midnightblue" d="M380.704,-347.383C394.712,-337.009 411.812,-323.799 426.295,-311 443.984,-295.368 462.772,-275.902 475.382,-262.367"/>
<polygon fill="midnightblue" stroke="midnightblue" points="478.161,-264.517 482.37,-254.794 473.016,-259.77 478.161,-264.517"/>
</g>
<!-- Node5 -->
<g id="node6" class="node"><title>Node5</title>
<g id="a_node6"><a xlink:href="_ivy_manager_8hpp.html" target="_top" xlink:title=" ">
<polygon fill="white" stroke="black" points="28.7949,-235.5 28.7949,-254.5 169.795,-254.5 169.795,-235.5 28.7949,-235.5"/>
<text text-anchor="middle" x="99.2949" y="-242.5" font-family="Helvetica,sans-Serif" font-size="10.00">ivy_manager/IvyManager.hpp</text>
</a>
</g>
</g>
<!-- Node0&#45;&gt;Node5 -->
<g id="edge5" class="edge"><title>Node0&#45;&gt;Node5</title>
<path fill="none" stroke="midnightblue" d="M312.203,-347.425C259.88,-322.499 170.933,-280.127 126.394,-258.91"/>
<polygon fill="midnightblue" stroke="midnightblue" points="127.872,-255.737 117.339,-254.596 124.862,-262.057 127.872,-255.737"/>
</g>
<!-- Node7 -->
<g id="node8" class="node"><title>Node7</title>
<g id="a_node8"><a xlink:href="_ivy_log_8hpp.html" target="_top" xlink:title=" ">
<polygon fill="white" stroke="black" points="162.295,-67.5 162.295,-86.5 240.295,-86.5 240.295,-67.5 162.295,-67.5"/>
<text text-anchor="middle" x="201.295" y="-74.5" font-family="Helvetica,sans-Serif" font-size="10.00">log/IvyLog.hpp</text>
</a>
</g>
</g>
<!-- Node0&#45;&gt;Node7 -->
<g id="edge19" class="edge"><title>Node0&#45;&gt;Node7</title>
<path fill="none" stroke="midnightblue" d="M273.194,-355.923C169.044,-339.229 0.294865,-303.335 0.294865,-246 0.294865,-246 0.294865,-246 0.294865,-188 0.294865,-157.641 -0.884596,-143.73 21.2949,-123 40.0949,-105.428 105.544,-92.2615 152.089,-84.8459"/>
<polygon fill="midnightblue" stroke="midnightblue" points="152.658,-88.2995 162.003,-83.307 151.585,-81.3823 152.658,-88.2995"/>
</g>
<!-- Node14 -->
<g id="node15" class="node"><title>Node14</title>
<g id="a_node15"><a xlink:href="_locadora_c_l_i_8hpp.html" target="_top" xlink:title=" ">
<polygon fill="white" stroke="black" points="288.795,-291.5 288.795,-310.5 417.795,-310.5 417.795,-291.5 288.795,-291.5"/>
<text text-anchor="middle" x="353.295" y="-298.5" font-family="Helvetica,sans-Serif" font-size="10.00">locadora/LocadoraCLI.hpp</text>
</a>
</g>
</g>
<!-- Node0&#45;&gt;Node14 -->
<g id="edge20" class="edge"><title>Node0&#45;&gt;Node14</title>
<path fill="none" stroke="midnightblue" d="M353.295,-347.498C353.295,-339.065 353.295,-329.235 353.295,-320.874"/>
<polygon fill="midnightblue" stroke="midnightblue" points="356.795,-320.652 353.295,-310.652 349.795,-320.653 356.795,-320.652"/>
</g>
<!-- Node6 -->
<g id="node7" class="node"><title>Node6</title>
<g id="a_node7"><a xlink:href="_produto_8hpp.html" target="_top" xlink:title=" ">
<polygon fill="white" stroke="black" points="30.2949,-123.5 30.2949,-142.5 134.295,-142.5 134.295,-123.5 30.2949,-123.5"/>
<text text-anchor="middle" x="82.2949" y="-130.5" font-family="Helvetica,sans-Serif" font-size="10.00">produto/Produto.hpp</text>
</a>
</g>
</g>
<!-- Node5&#45;&gt;Node6 -->
<g id="edge6" class="edge"><title>Node5&#45;&gt;Node6</title>
<path fill="none" stroke="midnightblue" d="M97.9609,-235.368C95.2175,-217.617 88.8888,-176.666 85.169,-152.597"/>
<polygon fill="midnightblue" stroke="midnightblue" points="88.609,-151.94 83.6226,-142.591 81.6911,-153.009 88.609,-151.94"/>
</g>
<!-- Node5&#45;&gt;Node7 -->
<g id="edge18" class="edge"><title>Node5&#45;&gt;Node7</title>
<path fill="none" stroke="midnightblue" d="M104.779,-235.075C121.043,-208.606 169.215,-130.209 190.72,-95.2097"/>
<polygon fill="midnightblue" stroke="midnightblue" points="193.777,-96.9206 196.03,-86.5681 187.813,-93.2559 193.777,-96.9206"/>
</g>
<!-- Node12 -->
<g id="node13" class="node"><title>Node12</title>
<g id="a_node13"><a xlink:href="_vetor_8hpp.html" target="_top" xlink:title=" ">
<polygon fill="white" stroke="black" points="160.295,-179.5 160.295,-198.5 242.295,-198.5 242.295,-179.5 160.295,-179.5"/>
<text text-anchor="middle" x="201.295" y="-186.5" font-family="Helvetica,sans-Serif" font-size="10.00">vetor/Vetor.hpp</text>
</a>
</g>
</g>
<!-- Node5&#45;&gt;Node12 -->
<g id="edge12" class="edge"><title>Node5&#45;&gt;Node12</title>
<path fill="none" stroke="midnightblue" d="M115.683,-235.324C131.966,-226.703 157.162,-213.364 176.011,-203.386"/>
<polygon fill="midnightblue" stroke="midnightblue" points="177.747,-206.427 184.947,-198.655 174.472,-200.24 177.747,-206.427"/>
</g>
<!-- Node6&#45;&gt;Node7 -->
<g id="edge7" class="edge"><title>Node6&#45;&gt;Node7</title>
<path fill="none" stroke="midnightblue" d="M101.151,-123.444C120.561,-114.636 151.025,-100.812 173.259,-90.722"/>
<polygon fill="midnightblue" stroke="midnightblue" points="174.867,-93.836 182.527,-86.5164 171.975,-87.4615 174.867,-93.836"/>
</g>
<!-- Node11 -->
<g id="node12" class="node"><title>Node11</title>
<g id="a_node12"><a xlink:title=" ">
<polygon fill="white" stroke="#bfbfbf" points="57.7949,-67.5 57.7949,-86.5 106.795,-86.5 106.795,-67.5 57.7949,-67.5"/>
<text text-anchor="middle" x="82.2949" y="-74.5" font-family="Helvetica,sans-Serif" font-size="10.00">fstream</text>
</a>
</g>
</g>
<!-- Node6&#45;&gt;Node11 -->
<g id="edge11" class="edge"><title>Node6&#45;&gt;Node11</title>
<path fill="none" stroke="midnightblue" d="M82.2949,-123.083C82.2949,-116.006 82.2949,-105.861 82.2949,-96.9865"/>
<polygon fill="midnightblue" stroke="midnightblue" points="85.795,-96.751 82.2949,-86.7511 78.795,-96.7511 85.795,-96.751"/>
</g>
<!-- Node8 -->
<g id="node9" class="node"><title>Node8</title>
<g id="a_node9"><a xlink:title=" ">
<polygon fill="white" stroke="#bfbfbf" points="53.7949,-6 53.7949,-25 138.795,-25 138.795,-6 53.7949,-6"/>
<text text-anchor="middle" x="96.2949" y="-13" font-family="Helvetica,sans-Serif" font-size="10.00">spdlog/spdlog.h</text>
</a>
</g>
</g>
<!-- Node7&#45;&gt;Node8 -->
<g id="edge8" class="edge"><title>Node7&#45;&gt;Node8</title>
<path fill="none" stroke="midnightblue" d="M186.251,-67.4751C169.019,-57.7106 140.555,-41.5807 120.261,-30.0808"/>
<polygon fill="midnightblue" stroke="midnightblue" points="121.737,-26.8942 111.311,-25.0091 118.286,-32.9843 121.737,-26.8942"/>
</g>
<!-- Node9 -->
<g id="node10" class="node"><title>Node9</title>
<g id="a_node10"><a xlink:title=" ">
<polygon fill="white" stroke="#bfbfbf" points="156.795,-6 156.795,-25 245.795,-25 245.795,-6 156.795,-6"/>
<text text-anchor="middle" x="201.295" y="-13" font-family="Helvetica,sans-Serif" font-size="10.00">spdlog/fmt/ostr.h</text>
</a>
</g>
</g>
<!-- Node7&#45;&gt;Node9 -->
<g id="edge9" class="edge"><title>Node7&#45;&gt;Node9</title>
<path fill="none" stroke="midnightblue" d="M201.295,-67.4751C201.295,-59.0803 201.295,-45.9806 201.295,-35.1631"/>
<polygon fill="midnightblue" stroke="midnightblue" points="204.795,-35.0091 201.295,-25.0091 197.795,-35.0091 204.795,-35.0091"/>
</g>
<!-- Node10 -->
<g id="node11" class="node"><title>Node10</title>
<g id="a_node11"><a xlink:title=" ">
<polygon fill="white" stroke="#bfbfbf" points="263.795,-0.5 263.795,-30.5 364.795,-30.5 364.795,-0.5 263.795,-0.5"/>
<text text-anchor="start" x="271.795" y="-18.5" font-family="Helvetica,sans-Serif" font-size="10.00">spdlog/sinks/stdout</text>
<text text-anchor="middle" x="314.295" y="-7.5" font-family="Helvetica,sans-Serif" font-size="10.00">_color_sinks.h</text>
</a>
</g>
</g>
<!-- Node7&#45;&gt;Node10 -->
<g id="edge10" class="edge"><title>Node7&#45;&gt;Node10</title>
<path fill="none" stroke="midnightblue" d="M217.485,-67.4751C233.361,-59.1154 258.098,-46.0902 278.592,-35.2991"/>
<polygon fill="midnightblue" stroke="midnightblue" points="280.445,-38.279 287.663,-30.523 277.184,-32.0852 280.445,-38.279"/>
</g>
<!-- Node12&#45;&gt;Node6 -->
<g id="edge13" class="edge"><title>Node12&#45;&gt;Node6</title>
<path fill="none" stroke="midnightblue" d="M182.439,-179.444C163.029,-170.636 132.565,-156.812 110.33,-146.722"/>
<polygon fill="midnightblue" stroke="midnightblue" points="111.615,-143.462 101.063,-142.516 108.723,-149.836 111.615,-143.462"/>
</g>
<!-- Node12&#45;&gt;Node7 -->
<g id="edge14" class="edge"><title>Node12&#45;&gt;Node7</title>
<path fill="none" stroke="midnightblue" d="M201.295,-179.368C201.295,-161.617 201.295,-120.666 201.295,-96.5974"/>
<polygon fill="midnightblue" stroke="midnightblue" points="204.795,-96.5914 201.295,-86.5914 197.795,-96.5915 204.795,-96.5914"/>
</g>
<!-- Node13 -->
<g id="node14" class="node"><title>Node13</title>
<g id="a_node14"><a xlink:href="_jogo_8hpp.html" target="_top" xlink:title=" ">
<polygon fill="white" stroke="black" points="331.295,-123.5 331.295,-142.5 447.295,-142.5 447.295,-123.5 331.295,-123.5"/>
<text text-anchor="middle" x="389.295" y="-130.5" font-family="Helvetica,sans-Serif" font-size="10.00">locadora/jogo/Jogo.hpp</text>
</a>
</g>
</g>
<!-- Node12&#45;&gt;Node13 -->
<g id="edge15" class="edge"><title>Node12&#45;&gt;Node13</title>
<path fill="none" stroke="midnightblue" d="M231.084,-179.444C263.124,-170.241 314.228,-155.562 349.648,-145.388"/>
<polygon fill="midnightblue" stroke="midnightblue" points="351,-148.641 359.645,-142.516 349.067,-141.913 351,-148.641"/>
</g>
<!-- Node13&#45;&gt;Node2 -->
<g id="edge16" class="edge"><title>Node13&#45;&gt;Node2</title>
<path fill="none" stroke="midnightblue" d="M403.112,-123.324C416.528,-114.9 437.119,-101.971 452.88,-92.0741"/>
<polygon fill="midnightblue" stroke="midnightblue" points="454.904,-94.9364 461.512,-86.6545 451.182,-89.0081 454.904,-94.9364"/>
</g>
<!-- Node13&#45;&gt;Node7 -->
<g id="edge17" class="edge"><title>Node13&#45;&gt;Node7</title>
<path fill="none" stroke="midnightblue" d="M359.506,-123.444C327.466,-114.241 276.361,-99.5617 240.942,-89.3879"/>
<polygon fill="midnightblue" stroke="midnightblue" points="241.522,-85.9132 230.945,-86.5164 239.59,-92.6412 241.522,-85.9132"/>
</g>
<!-- Node14&#45;&gt;Node1 -->
<g id="edge21" class="edge"><title>Node14&#45;&gt;Node1</title>
<path fill="none" stroke="midnightblue" d="M360.574,-291.197C367.486,-282.471 377.763,-268.491 384.295,-255 391.53,-240.056 396.851,-221.916 400.178,-208.601"/>
<polygon fill="midnightblue" stroke="midnightblue" points="403.618,-209.263 402.502,-198.727 396.804,-207.659 403.618,-209.263"/>
</g>
<!-- Node14&#45;&gt;Node2 -->
<g id="edge22" class="edge"><title>Node14&#45;&gt;Node2</title>
<path fill="none" stroke="midnightblue" d="M364.097,-291.339C374.501,-282.718 390.371,-268.815 402.295,-255 421.948,-232.23 427.514,-226.227 440.295,-199 456.499,-164.48 466.868,-120.844 471.832,-96.5283"/>
<polygon fill="midnightblue" stroke="midnightblue" points="475.3,-97.0286 473.786,-86.5426 468.431,-95.6845 475.3,-97.0286"/>
</g>
<!-- Node14&#45;&gt;Node3 -->
<g id="edge23" class="edge"><title>Node14&#45;&gt;Node3</title>
<path fill="none" stroke="midnightblue" d="M331.587,-291.444C308.94,-282.517 273.223,-268.439 247.543,-258.317"/>
<polygon fill="midnightblue" stroke="midnightblue" points="248.488,-254.927 237.901,-254.516 245.921,-261.44 248.488,-254.927"/>
</g>
<!-- Node14&#45;&gt;Node4 -->
<g id="edge24" class="edge"><title>Node14&#45;&gt;Node4</title>
<path fill="none" stroke="midnightblue" d="M375.003,-291.444C398.049,-282.36 434.632,-267.94 460.397,-257.785"/>
<polygon fill="midnightblue" stroke="midnightblue" points="462.008,-260.912 470.028,-253.988 459.441,-254.399 462.008,-260.912"/>
</g>
<!-- Node14&#45;&gt;Node7 -->
<g id="edge30" class="edge"><title>Node14&#45;&gt;Node7</title>
<path fill="none" stroke="midnightblue" d="M337.411,-291.366C323.818,-283.356 304.422,-270.375 291.295,-255 285.57,-248.295 231.51,-139.251 210.031,-95.7315"/>
<polygon fill="midnightblue" stroke="midnightblue" points="213.097,-94.0354 205.535,-86.6147 206.819,-97.1314 213.097,-94.0354"/>
</g>
<!-- Node15 -->
<g id="node16" class="node"><title>Node15</title>
<g id="a_node16"><a xlink:href="_locadora_8hpp.html" target="_top" xlink:title=" ">
<polygon fill="white" stroke="black" points="300.795,-235.5 300.795,-254.5 375.795,-254.5 375.795,-235.5 300.795,-235.5"/>
<text text-anchor="middle" x="338.295" y="-242.5" font-family="Helvetica,sans-Serif" font-size="10.00">Locadora.hpp</text>
</a>
</g>
</g>
<!-- Node14&#45;&gt;Node15 -->
<g id="edge25" class="edge"><title>Node14&#45;&gt;Node15</title>
<path fill="none" stroke="midnightblue" d="M350.818,-291.083C348.808,-283.849 345.908,-273.409 343.405,-264.397"/>
<polygon fill="midnightblue" stroke="midnightblue" points="346.775,-263.449 340.726,-254.751 340.03,-265.323 346.775,-263.449"/>
</g>
<!-- Node15&#45;&gt;Node1 -->
<g id="edge29" class="edge"><title>Node15&#45;&gt;Node1</title>
<path fill="none" stroke="midnightblue" d="M348.899,-235.324C358.751,-227.263 373.646,-215.077 385.51,-205.369"/>
<polygon fill="midnightblue" stroke="midnightblue" points="387.975,-207.875 393.498,-198.834 383.542,-202.457 387.975,-207.875"/>
</g>
<!-- Node15&#45;&gt;Node7 -->
<g id="edge28" class="edge"><title>Node15&#45;&gt;Node7</title>
<path fill="none" stroke="midnightblue" d="M336.006,-235.366C329.972,-214 311.814,-157.865 279.295,-123 266.402,-109.177 248.289,-98.3736 232.763,-90.8205"/>
<polygon fill="midnightblue" stroke="midnightblue" points="234.045,-87.5576 223.499,-86.5398 231.109,-93.9119 234.045,-87.5576"/>
</g>
<!-- Node15&#45;&gt;Node12 -->
<g id="edge27" class="edge"><title>Node15&#45;&gt;Node12</title>
<path fill="none" stroke="midnightblue" d="M316.587,-235.444C293.94,-226.517 258.223,-212.439 232.543,-202.317"/>
<polygon fill="midnightblue" stroke="midnightblue" points="233.488,-198.927 222.901,-198.516 230.921,-205.44 233.488,-198.927"/>
</g>
<!-- Node15&#45;&gt;Node13 -->
<g id="edge26" class="edge"><title>Node15&#45;&gt;Node13</title>
<path fill="none" stroke="midnightblue" d="M342.359,-235.163C348.116,-222.653 358.982,-199.067 368.295,-179 372.475,-169.993 377.144,-159.983 381.017,-151.694"/>
<polygon fill="midnightblue" stroke="midnightblue" points="384.193,-153.163 385.258,-142.622 377.852,-150.198 384.193,-153.163"/>
</g>
</g>
</svg>
        <g id="navigator" transform="translate(0 0)" fill="#404254">
                <rect fill="#f2f5e9" fill-opacity="0.5" stroke="#606060" stroke-width=".5" x="0" y="0" width="60" height="60"/>
                <use id="zoomplus" xlink:href="#zoomPlus" x="17" y="9" onmousedown="handleZoom(evt,'in')"/>
                <use id="zoomminus" xlink:href="#zoomMin" x="42" y="9" onmousedown="handleZoom(evt,'out')"/>
                <use id="reset" xlink:href="#resetDef" x="30" y="36" onmousedown="handleReset()"/>
                <g id="arrowUp" xlink:href="#dirArrow" transform="translate(30 24)" onmousedown="handlePan(0,-1)">
                  <use xlink:href="#rim" fill="#404040">
                        <set attributeName="fill" to="#808080" begin="arrowUp.mouseover" end="arrowUp.mouseout"/>
                  </use>
                  <path fill="none" stroke="white" stroke-width="1.5" d="M0,-3.0v7 M-2.5,-0.5L0,-3.0L2.5,-0.5"/>
                </g>
                <g id="arrowRight" xlink:href="#dirArrow" transform="rotate(90) translate(36 -43)" onmousedown="handlePan(1,0)">
                  <use xlink:href="#rim" fill="#404040">
                        <set attributeName="fill" to="#808080" begin="arrowRight.mouseover" end="arrowRight.mouseout"/>
                  </use>
                  <path fill="none" stroke="white" stroke-width="1.5" d="M0,-3.0v7 M-2.5,-0.5L0,-3.0L2.5,-0.5"/>
                </g>
                <g id="arrowDown" xlink:href="#dirArrow" transform="rotate(180) translate(-30 -48)" onmousedown="handlePan(0,1)">
                  <use xlink:href="#rim" fill="#404040">
                        <set attributeName="fill" to="#808080" begin="arrowDown.mouseover" end="arrowDown.mouseout"/>
                  </use>
                  <path fill="none" stroke="white" stroke-width="1.5" d="M0,-3.0v7 M-2.5,-0.5L0,-3.0L2.5,-0.5"/>
                </g>
                <g id="arrowLeft" xlink:href="#dirArrow" transform="rotate(270) translate(-36 17)" onmousedown="handlePan(-1,0)">
                  <use xlink:href="#rim" fill="#404040">
                        <set attributeName="fill" to="#808080" begin="arrowLeft.mouseover" end="arrowLeft.mouseout"/>
                  </use>
                  <path fill="none" stroke="white" stroke-width="1.5" d="M0,-3.0v7 M-2.5,-0.5L0,-3.0L2.5,-0.5"/>
                </g>
        </g>
        <svg viewBox="0 0 15 15" width="100%" height="30px" preserveAspectRatio="xMaxYMin meet">
         <g id="arrow_out" transform="scale(0.3 0.3)">
          <a xlink:href="_interface_c_l_i_8hpp__incl_org.svg" target="_base">
           <rect id="button" ry="5" rx="5" y="6" x="6" height="38" width="38"
                fill="#f2f5e9" fill-opacity="0.5" stroke="#606060" stroke-width="1.0"/>
           <path id="arrow"
             d="M 11.500037,31.436501 C 11.940474,20.09759 22.043105,11.32322 32.158766,21.979434 L 37.068811,17.246167 C 37.068811,17.246167 37.088388,32 37.088388,32 L 22.160133,31.978069 C 22.160133,31.978069 26.997745,27.140456 26.997745,27.140456 C 18.528582,18.264221 13.291696,25.230495 11.500037,31.436501 z"
             style="fill:#404040;"/>
          </a>
         </g>
        </svg>
</svg>
