<?xml version="1.0" encoding="UTF-8" standalone="no"?>
<!DOCTYPE svg PUBLIC "-//W3C//DTD SVG 1.1//EN"
 "http://www.w3.org/Graphics/SVG/1.1/DTD/svg11.dtd">
<!-- Generated by graphviz version 2.38.0 (20140413.2041)
 -->
<!-- Title: C:/Users/osyri/Desktop/IVY&#45;Inventory&#45;Manager/src/ivy/interface/InterfaceGUI.hpp Pages: 1 -->
<!--zoomable 341 -->
<svg id="main" version="1.1" xmlns="http://www.w3.org/2000/svg" xmlns:xlink="http://www.w3.org/1999/xlink" xml:space="preserve" onload="init(evt)">
<style type="text/css"><![CDATA[
.edge:hover path { stroke: red; }
.edge:hover polygon { stroke: red; fill: red; }
]]></style>
<script type="text/javascript"><![CDATA[
var edges = document.getElementsByTagName('g');
if (edges && edges.length) {
  for (var i=0;i<edges.length;i++) {
    if (edges[i].id.substr(0,4)=='edge') {
      edges[i].setAttribute('class','edge');
    }
  }
}
]]></script>
        <defs>
                <circle id="rim" cx="0" cy="0" r="7"/>
                <circle id="rim2" cx="0" cy="0" r="3.5"/>
                <g id="zoomPlus">
                        <use xlink:href="#rim" fill="#404040">
                                <set attributeName="fill" to="#808080" begin="zoomplus.mouseover" end="zoomplus.mouseout"/>
                        </use>
                        <path d="M-4,0h8M0,-4v8" fill="none" stroke="white" stroke-width="1.5" pointer-events="none"/>
                </g>
                <g id="zoomMin">
                        <use xlink:href="#rim" fill="#404040">
                                <set attributeName="fill" to="#808080" begin="zoomminus.mouseover" end="zoomminus.mouseout"/>
                        </use>
                        <path d="M-4,0h8" fill="none" stroke="white" stroke-width="1.5" pointer-events="none"/>
                </g>
                <g id="dirArrow">
                        <path fill="none" stroke="white" stroke-width="1.5" d="M0,-3.0v7 M-2.5,-0.5L0,-3.0L2.5,-0.5"/>
                </g>
               <g id="resetDef">
                       <use xlink:href="#rim2" fill="#404040">
                               <set attributeName="fill" to="#808080" begin="reset.mouseover" end="reset.mouseout"/>
                       </use>
               </g>
        </defs>

<script type="text/javascript">
var viewWidth = 1963;
var viewHeight = 341;
var sectionId = 'dynsection-0';
</script>
<script xlink:href="svgpan.js"/>
<svg id="graph" class="graph">
<g id="viewport">
<title>C:/Users/osyri/Desktop/IVY&#45;Inventory&#45;Manager/src/ivy/interface/InterfaceGUI.hpp</title>
<polygon fill="white" stroke="none" points="-4,4 -4,-337 1959,-337 1959,4 -4,4"/>
<!-- Node0 -->
<g id="node1" class="node"><title>Node0</title>
<g id="a_node1"><a xlink:title=" ">
<polygon fill="#bfbfbf" stroke="black" points="261,-291.5 261,-332.5 423,-332.5 423,-291.5 261,-291.5"/>
<text text-anchor="start" x="269" y="-320.5" font-family="Helvetica,sans-Serif" font-size="10.00">C:/Users/osyri/Desktop</text>
<text text-anchor="start" x="269" y="-309.5" font-family="Helvetica,sans-Serif" font-size="10.00">/IVY&#45;Inventory&#45;Manager</text>
<text text-anchor="middle" x="342" y="-298.5" font-family="Helvetica,sans-Serif" font-size="10.00">/src/ivy/interface/InterfaceGUI.hpp</text>
</a>
</g>
</g>
<!-- Node1 -->
<g id="node2" class="node"><title>Node1</title>
<g id="a_node2"><a xlink:href="_ivy_manager_8hpp.html" target="_top" xlink:title=" ">
<polygon fill="white" stroke="black" points="141.5,-235.5 141.5,-254.5 282.5,-254.5 282.5,-235.5 141.5,-235.5"/>
<text text-anchor="middle" x="212" y="-242.5" font-family="Helvetica,sans-Serif" font-size="10.00">ivy_manager/IvyManager.hpp</text>
</a>
</g>
</g>
<!-- Node0&#45;&gt;Node1 -->
<g id="edge1" class="edge"><title>Node0&#45;&gt;Node1</title>
<path fill="none" stroke="midnightblue" d="M302.996,-291.498C282.106,-281.053 256.928,-268.464 238.356,-259.178"/>
<polygon fill="midnightblue" stroke="midnightblue" points="239.815,-255.994 229.305,-254.652 236.684,-262.255 239.815,-255.994"/>
</g>
<!-- Node3 -->
<g id="node4" class="node"><title>Node3</title>
<g id="a_node4"><a xlink:href="_ivy_log_8hpp.html" target="_top" xlink:title=" ">
<polygon fill="white" stroke="black" points="227,-67.5 227,-86.5 305,-86.5 305,-67.5 227,-67.5"/>
<text text-anchor="middle" x="266" y="-74.5" font-family="Helvetica,sans-Serif" font-size="10.00">log/IvyLog.hpp</text>
</a>
</g>
</g>
<!-- Node0&#45;&gt;Node3 -->
<g id="edge27" class="edge"><title>Node0&#45;&gt;Node3</title>
<path fill="none" stroke="midnightblue" d="M335.729,-291.497C324.73,-257.332 301.209,-184.444 281,-123 278.102,-114.188 274.85,-104.419 272.117,-96.2404"/>
<polygon fill="midnightblue" stroke="midnightblue" points="275.39,-94.9915 268.896,-86.62 268.752,-97.2139 275.39,-94.9915"/>
</g>
<!-- Node11 -->
<g id="node12" class="node"><title>Node11</title>
<g id="a_node12"><a xlink:href="include__nana_8hpp.html" target="_top" xlink:title=" ">
<polygon fill="white" stroke="black" points="1027.5,-235.5 1027.5,-254.5 1146.5,-254.5 1146.5,-235.5 1027.5,-235.5"/>
<text text-anchor="middle" x="1087" y="-242.5" font-family="Helvetica,sans-Serif" font-size="10.00">forms/include_nana.hpp</text>
</a>
</g>
</g>
<!-- Node0&#45;&gt;Node11 -->
<g id="edge15" class="edge"><title>Node0&#45;&gt;Node11</title>
<path fill="none" stroke="midnightblue" d="M423.146,-303.92C570.313,-291.08 878.787,-264.166 1017.19,-252.091"/>
<polygon fill="midnightblue" stroke="midnightblue" points="1017.6,-255.569 1027.25,-251.213 1016.99,-248.595 1017.6,-255.569"/>
</g>
<!-- Node2 -->
<g id="node3" class="node"><title>Node2</title>
<g id="a_node3"><a xlink:href="_produto_8hpp.html" target="_top" xlink:title=" ">
<polygon fill="white" stroke="black" points="0,-123.5 0,-142.5 104,-142.5 104,-123.5 0,-123.5"/>
<text text-anchor="middle" x="52" y="-130.5" font-family="Helvetica,sans-Serif" font-size="10.00">produto/Produto.hpp</text>
</a>
</g>
</g>
<!-- Node1&#45;&gt;Node2 -->
<g id="edge2" class="edge"><title>Node1&#45;&gt;Node2</title>
<path fill="none" stroke="midnightblue" d="M199.33,-235.398C186.031,-226.36 164.521,-211.717 146,-199 120.725,-181.645 91.7131,-161.558 72.6851,-148.361"/>
<polygon fill="midnightblue" stroke="midnightblue" points="74.6616,-145.473 64.4503,-142.648 70.6712,-151.224 74.6616,-145.473"/>
</g>
<!-- Node1&#45;&gt;Node3 -->
<g id="edge14" class="edge"><title>Node1&#45;&gt;Node3</title>
<path fill="none" stroke="midnightblue" d="M219.902,-235.25C227.422,-226.564 238.65,-212.614 246,-199 258.555,-175.744 261.489,-169.041 266,-143 268.652,-127.692 268.451,-110.05 267.699,-97.0119"/>
<polygon fill="midnightblue" stroke="midnightblue" points="271.181,-96.6289 266.955,-86.9134 264.2,-97.1438 271.181,-96.6289"/>
</g>
<!-- Node8 -->
<g id="node9" class="node"><title>Node8</title>
<g id="a_node9"><a xlink:href="_vetor_8hpp.html" target="_top" xlink:title=" ">
<polygon fill="white" stroke="black" points="155,-179.5 155,-198.5 237,-198.5 237,-179.5 155,-179.5"/>
<text text-anchor="middle" x="196" y="-186.5" font-family="Helvetica,sans-Serif" font-size="10.00">vetor/Vetor.hpp</text>
</a>
</g>
</g>
<!-- Node1&#45;&gt;Node8 -->
<g id="edge8" class="edge"><title>Node1&#45;&gt;Node8</title>
<path fill="none" stroke="midnightblue" d="M209.358,-235.083C207.214,-227.849 204.121,-217.409 201.451,-208.397"/>
<polygon fill="midnightblue" stroke="midnightblue" points="204.79,-207.345 198.593,-198.751 198.078,-209.333 204.79,-207.345"/>
</g>
<!-- Node2&#45;&gt;Node3 -->
<g id="edge3" class="edge"><title>Node2&#45;&gt;Node3</title>
<path fill="none" stroke="midnightblue" d="M85.9089,-123.444C122.849,-114.122 182.054,-99.1828 222.418,-88.9972"/>
<polygon fill="midnightblue" stroke="midnightblue" points="223.41,-92.3568 232.25,-86.5164 221.697,-85.5695 223.41,-92.3568"/>
</g>
<!-- Node7 -->
<g id="node8" class="node"><title>Node7</title>
<g id="a_node8"><a xlink:title=" ">
<polygon fill="white" stroke="#bfbfbf" points="27.5,-67.5 27.5,-86.5 76.5,-86.5 76.5,-67.5 27.5,-67.5"/>
<text text-anchor="middle" x="52" y="-74.5" font-family="Helvetica,sans-Serif" font-size="10.00">fstream</text>
</a>
</g>
</g>
<!-- Node2&#45;&gt;Node7 -->
<g id="edge7" class="edge"><title>Node2&#45;&gt;Node7</title>
<path fill="none" stroke="midnightblue" d="M52,-123.083C52,-116.006 52,-105.861 52,-96.9865"/>
<polygon fill="midnightblue" stroke="midnightblue" points="55.5001,-96.751 52,-86.7511 48.5001,-96.7511 55.5001,-96.751"/>
</g>
<!-- Node4 -->
<g id="node5" class="node"><title>Node4</title>
<g id="a_node5"><a xlink:title=" ">
<polygon fill="white" stroke="#bfbfbf" points="118.5,-6 118.5,-25 203.5,-25 203.5,-6 118.5,-6"/>
<text text-anchor="middle" x="161" y="-13" font-family="Helvetica,sans-Serif" font-size="10.00">spdlog/spdlog.h</text>
</a>
</g>
</g>
<!-- Node3&#45;&gt;Node4 -->
<g id="edge4" class="edge"><title>Node3&#45;&gt;Node4</title>
<path fill="none" stroke="midnightblue" d="M250.956,-67.4751C233.725,-57.7106 205.26,-41.5807 184.966,-30.0808"/>
<polygon fill="midnightblue" stroke="midnightblue" points="186.442,-26.8942 176.016,-25.0091 182.991,-32.9843 186.442,-26.8942"/>
</g>
<!-- Node5 -->
<g id="node6" class="node"><title>Node5</title>
<g id="a_node6"><a xlink:title=" ">
<polygon fill="white" stroke="#bfbfbf" points="221.5,-6 221.5,-25 310.5,-25 310.5,-6 221.5,-6"/>
<text text-anchor="middle" x="266" y="-13" font-family="Helvetica,sans-Serif" font-size="10.00">spdlog/fmt/ostr.h</text>
</a>
</g>
</g>
<!-- Node3&#45;&gt;Node5 -->
<g id="edge5" class="edge"><title>Node3&#45;&gt;Node5</title>
<path fill="none" stroke="midnightblue" d="M266,-67.4751C266,-59.0803 266,-45.9806 266,-35.1631"/>
<polygon fill="midnightblue" stroke="midnightblue" points="269.5,-35.0091 266,-25.0091 262.5,-35.0091 269.5,-35.0091"/>
</g>
<!-- Node6 -->
<g id="node7" class="node"><title>Node6</title>
<g id="a_node7"><a xlink:title=" ">
<polygon fill="white" stroke="#bfbfbf" points="328.5,-0.5 328.5,-30.5 429.5,-30.5 429.5,-0.5 328.5,-0.5"/>
<text text-anchor="start" x="336.5" y="-18.5" font-family="Helvetica,sans-Serif" font-size="10.00">spdlog/sinks/stdout</text>
<text text-anchor="middle" x="379" y="-7.5" font-family="Helvetica,sans-Serif" font-size="10.00">_color_sinks.h</text>
</a>
</g>
</g>
<!-- Node3&#45;&gt;Node6 -->
<g id="edge6" class="edge"><title>Node3&#45;&gt;Node6</title>
<path fill="none" stroke="midnightblue" d="M282.19,-67.4751C298.067,-59.1154 322.803,-46.0902 343.298,-35.2991"/>
<polygon fill="midnightblue" stroke="midnightblue" points="345.15,-38.279 352.368,-30.523 341.889,-32.0852 345.15,-38.279"/>
</g>
<!-- Node8&#45;&gt;Node2 -->
<g id="edge9" class="edge"><title>Node8&#45;&gt;Node2</title>
<path fill="none" stroke="midnightblue" d="M173.183,-179.444C149.168,-170.438 111.171,-156.189 84.1308,-146.049"/>
<polygon fill="midnightblue" stroke="midnightblue" points="85.3027,-142.751 74.7105,-142.516 82.8448,-149.305 85.3027,-142.751"/>
</g>
<!-- Node8&#45;&gt;Node3 -->
<g id="edge10" class="edge"><title>Node8&#45;&gt;Node3</title>
<path fill="none" stroke="midnightblue" d="M209.646,-179.254C221.199,-171.172 237.374,-158.148 247,-143 255.966,-128.891 260.834,-110.403 263.389,-96.7527"/>
<polygon fill="midnightblue" stroke="midnightblue" points="266.886,-97.0581 265.032,-86.6267 259.976,-95.9373 266.886,-97.0581"/>
</g>
<!-- Node9 -->
<g id="node10" class="node"><title>Node9</title>
<g id="a_node10"><a xlink:href="_jogo_8hpp.html" target="_top" xlink:title=" ">
<polygon fill="white" stroke="black" points="122,-123.5 122,-142.5 238,-142.5 238,-123.5 122,-123.5"/>
<text text-anchor="middle" x="180" y="-130.5" font-family="Helvetica,sans-Serif" font-size="10.00">locadora/jogo/Jogo.hpp</text>
</a>
</g>
</g>
<!-- Node8&#45;&gt;Node9 -->
<g id="edge11" class="edge"><title>Node8&#45;&gt;Node9</title>
<path fill="none" stroke="midnightblue" d="M193.358,-179.083C191.214,-171.849 188.121,-161.409 185.451,-152.397"/>
<polygon fill="midnightblue" stroke="midnightblue" points="188.79,-151.345 182.593,-142.751 182.078,-153.333 188.79,-151.345"/>
</g>
<!-- Node9&#45;&gt;Node3 -->
<g id="edge13" class="edge"><title>Node9&#45;&gt;Node3</title>
<path fill="none" stroke="midnightblue" d="M193.817,-123.324C207.233,-114.9 227.824,-101.971 243.586,-92.0741"/>
<polygon fill="midnightblue" stroke="midnightblue" points="245.609,-94.9364 252.217,-86.6545 241.887,-89.0081 245.609,-94.9364"/>
</g>
<!-- Node10 -->
<g id="node11" class="node"><title>Node10</title>
<g id="a_node11"><a xlink:title=" ">
<polygon fill="white" stroke="#bfbfbf" points="159.5,-67.5 159.5,-86.5 200.5,-86.5 200.5,-67.5 159.5,-67.5"/>
<text text-anchor="middle" x="180" y="-74.5" font-family="Helvetica,sans-Serif" font-size="10.00">string</text>
</a>
</g>
</g>
<!-- Node9&#45;&gt;Node10 -->
<g id="edge12" class="edge"><title>Node9&#45;&gt;Node10</title>
<path fill="none" stroke="midnightblue" d="M180,-123.083C180,-116.006 180,-105.861 180,-96.9865"/>
<polygon fill="midnightblue" stroke="midnightblue" points="183.5,-96.751 180,-86.7511 176.5,-96.7511 183.5,-96.751"/>
</g>
<!-- Node12 -->
<g id="node13" class="node"><title>Node12</title>
<g id="a_node13"><a xlink:title=" ">
<polygon fill="white" stroke="#bfbfbf" points="1867,-179.5 1867,-198.5 1955,-198.5 1955,-179.5 1867,-179.5"/>
<text text-anchor="middle" x="1911" y="-186.5" font-family="Helvetica,sans-Serif" font-size="10.00">nana/gui/wvl.hpp</text>
</a>
</g>
</g>
<!-- Node11&#45;&gt;Node12 -->
<g id="edge16" class="edge"><title>Node11&#45;&gt;Node12</title>
<path fill="none" stroke="midnightblue" d="M1146.68,-242.749C1274.87,-239.58 1586.16,-229.296 1856.79,-199.01"/>
<polygon fill="midnightblue" stroke="midnightblue" points="1857.26,-202.479 1866.81,-197.878 1856.48,-195.524 1857.26,-202.479"/>
</g>
<!-- Node13 -->
<g id="node14" class="node"><title>Node13</title>
<g id="a_node14"><a xlink:title=" ">
<polygon fill="white" stroke="#bfbfbf" points="370.5,-179.5 370.5,-198.5 505.5,-198.5 505.5,-179.5 370.5,-179.5"/>
<text text-anchor="middle" x="438" y="-186.5" font-family="Helvetica,sans-Serif" font-size="10.00">nana/gui/widgets/group.hpp</text>
</a>
</g>
</g>
<!-- Node11&#45;&gt;Node13 -->
<g id="edge17" class="edge"><title>Node11&#45;&gt;Node13</title>
<path fill="none" stroke="midnightblue" d="M1027.23,-240.046C924.867,-233.109 709.166,-217.777 515.663,-199.028"/>
<polygon fill="midnightblue" stroke="midnightblue" points="515.883,-195.533 505.591,-198.047 515.204,-202.5 515.883,-195.533"/>
</g>
<!-- Node14 -->
<g id="node15" class="node"><title>Node14</title>
<g id="a_node15"><a xlink:title=" ">
<polygon fill="white" stroke="#bfbfbf" points="524,-179.5 524,-198.5 622,-198.5 622,-179.5 524,-179.5"/>
<text text-anchor="middle" x="573" y="-186.5" font-family="Helvetica,sans-Serif" font-size="10.00">nana/gui/place.hpp</text>
</a>
</g>
</g>
<!-- Node11&#45;&gt;Node14 -->
<g id="edge18" class="edge"><title>Node11&#45;&gt;Node14</title>
<path fill="none" stroke="midnightblue" d="M1027.49,-239.19C942.276,-232.067 780.339,-217.658 632.208,-199.089"/>
<polygon fill="midnightblue" stroke="midnightblue" points="632.38,-195.583 622.021,-197.803 631.503,-202.528 632.38,-195.583"/>
</g>
<!-- Node15 -->
<g id="node16" class="node"><title>Node15</title>
<g id="a_node16"><a xlink:title=" ">
<polygon fill="white" stroke="#bfbfbf" points="640,-179.5 640,-198.5 778,-198.5 778,-179.5 640,-179.5"/>
<text text-anchor="middle" x="709" y="-186.5" font-family="Helvetica,sans-Serif" font-size="10.00">nana/gui/widgets/button.hpp</text>
</a>
</g>
</g>
<!-- Node11&#45;&gt;Node15 -->
<g id="edge19" class="edge"><title>Node11&#45;&gt;Node15</title>
<path fill="none" stroke="midnightblue" d="M1027.1,-235.444C959.643,-225.806 850.144,-210.163 778.847,-199.978"/>
<polygon fill="midnightblue" stroke="midnightblue" points="779.009,-196.466 768.615,-198.516 778.019,-203.396 779.009,-196.466"/>
</g>
<!-- Node16 -->
<g id="node17" class="node"><title>Node16</title>
<g id="a_node17"><a xlink:title=" ">
<polygon fill="white" stroke="#bfbfbf" points="796,-179.5 796,-198.5 926,-198.5 926,-179.5 796,-179.5"/>
<text text-anchor="middle" x="861" y="-186.5" font-family="Helvetica,sans-Serif" font-size="10.00">nana/gui/widgets/form.hpp</text>
</a>
</g>
</g>
<!-- Node11&#45;&gt;Node16 -->
<g id="edge20" class="edge"><title>Node11&#45;&gt;Node16</title>
<path fill="none" stroke="midnightblue" d="M1051.19,-235.444C1012.01,-226.083 949.123,-211.056 906.485,-200.868"/>
<polygon fill="midnightblue" stroke="midnightblue" points="907.182,-197.436 896.643,-198.516 905.556,-204.245 907.182,-197.436"/>
</g>
<!-- Node17 -->
<g id="node18" class="node"><title>Node17</title>
<g id="a_node18"><a xlink:title=" ">
<polygon fill="white" stroke="#bfbfbf" points="944.5,-179.5 944.5,-198.5 1075.5,-198.5 1075.5,-179.5 944.5,-179.5"/>
<text text-anchor="middle" x="1010" y="-186.5" font-family="Helvetica,sans-Serif" font-size="10.00">nana/gui/widgets/label.hpp</text>
</a>
</g>
</g>
<!-- Node11&#45;&gt;Node17 -->
<g id="edge21" class="edge"><title>Node11&#45;&gt;Node17</title>
<path fill="none" stroke="midnightblue" d="M1074.63,-235.324C1062.84,-227.058 1044.87,-214.453 1030.86,-204.632"/>
<polygon fill="midnightblue" stroke="midnightblue" points="1032.54,-201.531 1022.34,-198.655 1028.52,-207.262 1032.54,-201.531"/>
</g>
<!-- Node18 -->
<g id="node19" class="node"><title>Node18</title>
<g id="a_node19"><a xlink:title=" ">
<polygon fill="white" stroke="#bfbfbf" points="1093.5,-179.5 1093.5,-198.5 1236.5,-198.5 1236.5,-179.5 1093.5,-179.5"/>
<text text-anchor="middle" x="1165" y="-186.5" font-family="Helvetica,sans-Serif" font-size="10.00">nana/gui/widgets/textbox.hpp</text>
</a>
</g>
</g>
<!-- Node11&#45;&gt;Node18 -->
<g id="edge22" class="edge"><title>Node11&#45;&gt;Node18</title>
<path fill="none" stroke="midnightblue" d="M1099.53,-235.324C1111.59,-226.979 1130.03,-214.212 1144.27,-204.352"/>
<polygon fill="midnightblue" stroke="midnightblue" points="1146.27,-207.224 1152.5,-198.655 1142.28,-201.469 1146.27,-207.224"/>
</g>
<!-- Node19 -->
<g id="node20" class="node"><title>Node19</title>
<g id="a_node20"><a xlink:title=" ">
<polygon fill="white" stroke="#bfbfbf" points="1255,-179.5 1255,-198.5 1401,-198.5 1401,-179.5 1255,-179.5"/>
<text text-anchor="middle" x="1328" y="-186.5" font-family="Helvetica,sans-Serif" font-size="10.00">nana/gui/widgets/combox.hpp</text>
</a>
</g>
</g>
<!-- Node11&#45;&gt;Node19 -->
<g id="edge23" class="edge"><title>Node11&#45;&gt;Node19</title>
<path fill="none" stroke="midnightblue" d="M1125.19,-235.444C1167.14,-226.043 1234.59,-210.929 1280.07,-200.739"/>
<polygon fill="midnightblue" stroke="midnightblue" points="1281,-204.118 1289.99,-198.516 1279.47,-197.288 1281,-204.118"/>
</g>
<!-- Node20 -->
<g id="node21" class="node"><title>Node20</title>
<g id="a_node21"><a xlink:title=" ">
<polygon fill="white" stroke="#bfbfbf" points="1419,-179.5 1419,-198.5 1553,-198.5 1553,-179.5 1419,-179.5"/>
<text text-anchor="middle" x="1486" y="-186.5" font-family="Helvetica,sans-Serif" font-size="10.00">nana/gui/widgets/scroll.hpp</text>
</a>
</g>
</g>
<!-- Node11&#45;&gt;Node20 -->
<g id="edge24" class="edge"><title>Node11&#45;&gt;Node20</title>
<path fill="none" stroke="midnightblue" d="M1146.73,-235.916C1217.79,-226.3 1336.37,-210.251 1412.85,-199.9"/>
<polygon fill="midnightblue" stroke="midnightblue" points="1413.45,-203.351 1422.89,-198.541 1412.51,-196.414 1413.45,-203.351"/>
</g>
<!-- Node21 -->
<g id="node22" class="node"><title>Node21</title>
<g id="a_node22"><a xlink:title=" ">
<polygon fill="white" stroke="#bfbfbf" points="1571,-179.5 1571,-198.5 1691,-198.5 1691,-179.5 1571,-179.5"/>
<text text-anchor="middle" x="1631" y="-186.5" font-family="Helvetica,sans-Serif" font-size="10.00">nana/paint/graphics.hpp</text>
</a>
</g>
</g>
<!-- Node11&#45;&gt;Node21 -->
<g id="edge25" class="edge"><title>Node11&#45;&gt;Node21</title>
<path fill="none" stroke="midnightblue" d="M1146.68,-239.026C1234.83,-231.528 1405.28,-216.457 1560.6,-199.124"/>
<polygon fill="midnightblue" stroke="midnightblue" points="1561.26,-202.572 1570.8,-197.979 1560.48,-195.615 1561.26,-202.572"/>
</g>
<!-- Node22 -->
<g id="node23" class="node"><title>Node22</title>
<g id="a_node23"><a xlink:title=" ">
<polygon fill="white" stroke="#bfbfbf" points="1709,-179.5 1709,-198.5 1849,-198.5 1849,-179.5 1709,-179.5"/>
<text text-anchor="middle" x="1779" y="-186.5" font-family="Helvetica,sans-Serif" font-size="10.00">nana/gui/widgets/listbox.hpp</text>
</a>
</g>
</g>
<!-- Node11&#45;&gt;Node22 -->
<g id="edge26" class="edge"><title>Node11&#45;&gt;Node22</title>
<path fill="none" stroke="midnightblue" d="M1146.67,-240.418C1254.58,-233.766 1489.61,-218.478 1698.56,-199.1"/>
<polygon fill="midnightblue" stroke="midnightblue" points="1699.17,-202.559 1708.8,-198.145 1698.52,-195.589 1699.17,-202.559"/>
</g>
</g>
</svg>
        <g id="navigator" transform="translate(0 0)" fill="#404254">
                <rect fill="#f2f5e9" fill-opacity="0.5" stroke="#606060" stroke-width=".5" x="0" y="0" width="60" height="60"/>
                <use id="zoomplus" xlink:href="#zoomPlus" x="17" y="9" onmousedown="handleZoom(evt,'in')"/>
                <use id="zoomminus" xlink:href="#zoomMin" x="42" y="9" onmousedown="handleZoom(evt,'out')"/>
                <use id="reset" xlink:href="#resetDef" x="30" y="36" onmousedown="handleReset()"/>
                <g id="arrowUp" xlink:href="#dirArrow" transform="translate(30 24)" onmousedown="handlePan(0,-1)">
                  <use xlink:href="#rim" fill="#404040">
                        <set attributeName="fill" to="#808080" begin="arrowUp.mouseover" end="arrowUp.mouseout"/>
                  </use>
                  <path fill="none" stroke="white" stroke-width="1.5" d="M0,-3.0v7 M-2.5,-0.5L0,-3.0L2.5,-0.5"/>
                </g>
                <g id="arrowRight" xlink:href="#dirArrow" transform="rotate(90) translate(36 -43)" onmousedown="handlePan(1,0)">
                  <use xlink:href="#rim" fill="#404040">
                        <set attributeName="fill" to="#808080" begin="arrowRight.mouseover" end="arrowRight.mouseout"/>
                  </use>
                  <path fill="none" stroke="white" stroke-width="1.5" d="M0,-3.0v7 M-2.5,-0.5L0,-3.0L2.5,-0.5"/>
                </g>
                <g id="arrowDown" xlink:href="#dirArrow" transform="rotate(180) translate(-30 -48)" onmousedown="handlePan(0,1)">
                  <use xlink:href="#rim" fill="#404040">
                        <set attributeName="fill" to="#808080" begin="arrowDown.mouseover" end="arrowDown.mouseout"/>
                  </use>
                  <path fill="none" stroke="white" stroke-width="1.5" d="M0,-3.0v7 M-2.5,-0.5L0,-3.0L2.5,-0.5"/>
                </g>
                <g id="arrowLeft" xlink:href="#dirArrow" transform="rotate(270) translate(-36 17)" onmousedown="handlePan(-1,0)">
                  <use xlink:href="#rim" fill="#404040">
                        <set attributeName="fill" to="#808080" begin="arrowLeft.mouseover" end="arrowLeft.mouseout"/>
                  </use>
                  <path fill="none" stroke="white" stroke-width="1.5" d="M0,-3.0v7 M-2.5,-0.5L0,-3.0L2.5,-0.5"/>
                </g>
        </g>
        <svg viewBox="0 0 15 15" width="100%" height="30px" preserveAspectRatio="xMaxYMin meet">
         <g id="arrow_out" transform="scale(0.3 0.3)">
          <a xlink:href="_interface_g_u_i_8hpp__incl_org.svg" target="_base">
           <rect id="button" ry="5" rx="5" y="6" x="6" height="38" width="38"
                fill="#f2f5e9" fill-opacity="0.5" stroke="#606060" stroke-width="1.0"/>
           <path id="arrow"
             d="M 11.500037,31.436501 C 11.940474,20.09759 22.043105,11.32322 32.158766,21.979434 L 37.068811,17.246167 C 37.068811,17.246167 37.088388,32 37.088388,32 L 22.160133,31.978069 C 22.160133,31.978069 26.997745,27.140456 26.997745,27.140456 C 18.528582,18.264221 13.291696,25.230495 11.500037,31.436501 z"
             style="fill:#404040;"/>
          </a>
         </g>
        </svg>
</svg>
