<?xml version="1.0" encoding="UTF-8" standalone="no"?>
<!DOCTYPE svg PUBLIC "-//W3C//DTD SVG 1.1//EN"
 "http://www.w3.org/Graphics/SVG/1.1/DTD/svg11.dtd">
<!-- Generated by graphviz version 2.38.0 (20140413.2041)
 -->
<!-- Title: C:/Users/osyri/Desktop/IVY&#45;Inventory&#45;Manager/src/ivy/interface/InterfaceCLI.hpp Pages: 1 -->
<svg width="304pt" height="206pt"
 viewBox="0.00 0.00 304.00 206.00" xmlns="http://www.w3.org/2000/svg" xmlns:xlink="http://www.w3.org/1999/xlink">
<g id="graph0" class="graph" transform="scale(1 1) rotate(0) translate(4 202)">
<title>C:/Users/osyri/Desktop/IVY&#45;Inventory&#45;Manager/src/ivy/interface/InterfaceCLI.hpp</title>
<polygon fill="white" stroke="none" points="-4,4 -4,-202 300,-202 300,4 -4,4"/>
<!-- Node16 -->
<g id="node1" class="node"><title>Node16</title>
<g id="a_node1"><a xlink:title=" ">
<polygon fill="#bfbfbf" stroke="black" points="78,-156.5 78,-197.5 238,-197.5 238,-156.5 78,-156.5"/>
<text text-anchor="start" x="86" y="-185.5" font-family="Helvetica,sans-Serif" font-size="10.00">C:/Users/osyri/Desktop</text>
<text text-anchor="start" x="86" y="-174.5" font-family="Helvetica,sans-Serif" font-size="10.00">/IVY&#45;Inventory&#45;Manager</text>
<text text-anchor="middle" x="158" y="-163.5" font-family="Helvetica,sans-Serif" font-size="10.00">/src/ivy/interface/InterfaceCLI.hpp</text>
</a>
</g>
</g>
<!-- Node17 -->
<g id="node2" class="node"><title>Node17</title>
<g id="a_node2"><a xlink:href="_interface_c_l_i_8cpp.html" target="_top" xlink:title=" ">
<polygon fill="white" stroke="black" points="0,-78.5 0,-119.5 160,-119.5 160,-78.5 0,-78.5"/>
<text text-anchor="start" x="8" y="-107.5" font-family="Helvetica,sans-Serif" font-size="10.00">C:/Users/osyri/Desktop</text>
<text text-anchor="start" x="8" y="-96.5" font-family="Helvetica,sans-Serif" font-size="10.00">/IVY&#45;Inventory&#45;Manager</text>
<text text-anchor="middle" x="80" y="-85.5" font-family="Helvetica,sans-Serif" font-size="10.00">/src/ivy/interface/InterfaceCLI.cpp</text>
</a>
</g>
</g>
<!-- Node16&#45;&gt;Node17 -->
<g id="edge1" class="edge"><title>Node16&#45;&gt;Node17</title>
<path fill="none" stroke="midnightblue" d="M130.499,-149.204C120.453,-139.416 109.29,-128.539 100.019,-119.506"/>
<polygon fill="midnightblue" stroke="midnightblue" points="128.308,-151.956 137.913,-156.428 133.193,-146.943 128.308,-151.956"/>
</g>
<!-- Node18 -->
<g id="node3" class="node"><title>Node18</title>
<g id="a_node3"><a xlink:href="ivy_8hpp.html" target="_top" xlink:title=" ">
<polygon fill="white" stroke="black" points="178,-78.5 178,-119.5 296,-119.5 296,-78.5 178,-78.5"/>
<text text-anchor="start" x="186" y="-107.5" font-family="Helvetica,sans-Serif" font-size="10.00">C:/Users/osyri/Desktop</text>
<text text-anchor="start" x="186" y="-96.5" font-family="Helvetica,sans-Serif" font-size="10.00">/IVY&#45;Inventory&#45;Manager</text>
<text text-anchor="middle" x="237" y="-85.5" font-family="Helvetica,sans-Serif" font-size="10.00">/src/ivy/ivy.hpp</text>
</a>
</g>
</g>
<!-- Node16&#45;&gt;Node18 -->
<g id="edge2" class="edge"><title>Node16&#45;&gt;Node18</title>
<path fill="none" stroke="midnightblue" d="M185.555,-149.492C195.806,-139.629 207.243,-128.627 216.724,-119.506"/>
<polygon fill="midnightblue" stroke="midnightblue" points="183.125,-146.973 178.344,-156.428 187.978,-152.017 183.125,-146.973"/>
</g>
<!-- Node19 -->
<g id="node4" class="node"><title>Node19</title>
<g id="a_node4"><a xlink:href="main_8cpp.html" target="_top" xlink:title=" ">
<polygon fill="white" stroke="black" points="178,-0.5 178,-41.5 296,-41.5 296,-0.5 178,-0.5"/>
<text text-anchor="start" x="186" y="-29.5" font-family="Helvetica,sans-Serif" font-size="10.00">C:/Users/osyri/Desktop</text>
<text text-anchor="start" x="186" y="-18.5" font-family="Helvetica,sans-Serif" font-size="10.00">/IVY&#45;Inventory&#45;Manager</text>
<text text-anchor="middle" x="237" y="-7.5" font-family="Helvetica,sans-Serif" font-size="10.00">/src/main.cpp</text>
</a>
</g>
</g>
<!-- Node18&#45;&gt;Node19 -->
<g id="edge3" class="edge"><title>Node18&#45;&gt;Node19</title>
<path fill="none" stroke="midnightblue" d="M237,-68.2965C237,-59.3009 237,-49.6532 237,-41.5056"/>
<polygon fill="midnightblue" stroke="midnightblue" points="233.5,-68.4281 237,-78.4281 240.5,-68.4281 233.5,-68.4281"/>
</g>
</g>
</svg>
