<?xml version="1.0" encoding="UTF-8" standalone="no"?>
<!DOCTYPE svg PUBLIC "-//W3C//DTD SVG 1.1//EN"
 "http://www.w3.org/Graphics/SVG/1.1/DTD/svg11.dtd">
<!-- Generated by graphviz version 2.38.0 (20140413.2041)
 -->
<!-- Title: C:/Users/osyri/Desktop/IVY&#45;Inventory&#45;Manager/src/ivy/ivy_manager/IvyManager.hpp Pages: 1 -->
<svg width="653pt" height="284pt"
 viewBox="0.00 0.00 652.50 284.00" xmlns="http://www.w3.org/2000/svg" xmlns:xlink="http://www.w3.org/1999/xlink">
<g id="graph0" class="graph" transform="scale(1 1) rotate(0) translate(4 280)">
<title>C:/Users/osyri/Desktop/IVY&#45;Inventory&#45;Manager/src/ivy/ivy_manager/IvyManager.hpp</title>
<polygon fill="white" stroke="none" points="-4,4 -4,-280 648.5,-280 648.5,4 -4,4"/>
<!-- Node10 -->
<g id="node1" class="node"><title>Node10</title>
<g id="a_node1"><a xlink:title=" ">
<polygon fill="#bfbfbf" stroke="black" points="227.5,-234.5 227.5,-275.5 402.5,-275.5 402.5,-234.5 227.5,-234.5"/>
<text text-anchor="start" x="235.5" y="-263.5" font-family="Helvetica,sans-Serif" font-size="10.00">C:/Users/osyri/Desktop</text>
<text text-anchor="start" x="235.5" y="-252.5" font-family="Helvetica,sans-Serif" font-size="10.00">/IVY&#45;Inventory&#45;Manager</text>
<text text-anchor="middle" x="315" y="-241.5" font-family="Helvetica,sans-Serif" font-size="10.00">/src/ivy/ivy_manager/IvyManager.hpp</text>
</a>
</g>
</g>
<!-- Node11 -->
<g id="node2" class="node"><title>Node11</title>
<g id="a_node2"><a xlink:href="_interface_c_l_i_8hpp.html" target="_top" xlink:title=" ">
<polygon fill="white" stroke="black" points="73,-156.5 73,-197.5 233,-197.5 233,-156.5 73,-156.5"/>
<text text-anchor="start" x="81" y="-185.5" font-family="Helvetica,sans-Serif" font-size="10.00">C:/Users/osyri/Desktop</text>
<text text-anchor="start" x="81" y="-174.5" font-family="Helvetica,sans-Serif" font-size="10.00">/IVY&#45;Inventory&#45;Manager</text>
<text text-anchor="middle" x="153" y="-163.5" font-family="Helvetica,sans-Serif" font-size="10.00">/src/ivy/interface/InterfaceCLI.hpp</text>
</a>
</g>
</g>
<!-- Node10&#45;&gt;Node11 -->
<g id="edge1" class="edge"><title>Node10&#45;&gt;Node11</title>
<path fill="none" stroke="midnightblue" d="M263.946,-230.049C241.602,-219.566 215.72,-207.424 194.578,-197.506"/>
<polygon fill="midnightblue" stroke="midnightblue" points="262.741,-233.349 273.281,-234.428 265.714,-227.012 262.741,-233.349"/>
</g>
<!-- Node13 -->
<g id="node4" class="node"><title>Node13</title>
<g id="a_node4"><a xlink:href="ivy_8hpp.html" target="_top" xlink:title=" ">
<polygon fill="white" stroke="black" points="178,-78.5 178,-119.5 296,-119.5 296,-78.5 178,-78.5"/>
<text text-anchor="start" x="186" y="-107.5" font-family="Helvetica,sans-Serif" font-size="10.00">C:/Users/osyri/Desktop</text>
<text text-anchor="start" x="186" y="-96.5" font-family="Helvetica,sans-Serif" font-size="10.00">/IVY&#45;Inventory&#45;Manager</text>
<text text-anchor="middle" x="237" y="-85.5" font-family="Helvetica,sans-Serif" font-size="10.00">/src/ivy/ivy.hpp</text>
</a>
</g>
</g>
<!-- Node10&#45;&gt;Node13 -->
<g id="edge7" class="edge"><title>Node10&#45;&gt;Node13</title>
<path fill="none" stroke="midnightblue" d="M296.25,-225.777C290.742,-217.029 284.889,-207.254 280,-198 266.027,-171.551 252.622,-139.609 244.597,-119.544"/>
<polygon fill="midnightblue" stroke="midnightblue" points="293.468,-227.924 301.809,-234.457 299.362,-224.148 293.468,-227.924"/>
</g>
<!-- Node15 -->
<g id="node6" class="node"><title>Node15</title>
<g id="a_node6"><a xlink:href="_interface_g_u_i_8hpp.html" target="_top" xlink:title=" ">
<polygon fill="white" stroke="black" points="289,-156.5 289,-197.5 451,-197.5 451,-156.5 289,-156.5"/>
<text text-anchor="start" x="297" y="-185.5" font-family="Helvetica,sans-Serif" font-size="10.00">C:/Users/osyri/Desktop</text>
<text text-anchor="start" x="297" y="-174.5" font-family="Helvetica,sans-Serif" font-size="10.00">/IVY&#45;Inventory&#45;Manager</text>
<text text-anchor="middle" x="370" y="-163.5" font-family="Helvetica,sans-Serif" font-size="10.00">/src/ivy/interface/InterfaceGUI.hpp</text>
</a>
</g>
</g>
<!-- Node10&#45;&gt;Node15 -->
<g id="edge5" class="edge"><title>Node10&#45;&gt;Node15</title>
<path fill="none" stroke="midnightblue" d="M335.229,-226.048C342.091,-216.566 349.603,-206.185 355.884,-197.506"/>
<polygon fill="midnightblue" stroke="midnightblue" points="332.191,-224.275 329.164,-234.428 337.862,-228.379 332.191,-224.275"/>
</g>
<!-- Node17 -->
<g id="node8" class="node"><title>Node17</title>
<g id="a_node8"><a xlink:href="_ivy_manager_8cpp.html" target="_top" xlink:title=" ">
<polygon fill="white" stroke="black" points="469.5,-156.5 469.5,-197.5 644.5,-197.5 644.5,-156.5 469.5,-156.5"/>
<text text-anchor="start" x="477.5" y="-185.5" font-family="Helvetica,sans-Serif" font-size="10.00">C:/Users/osyri/Desktop</text>
<text text-anchor="start" x="477.5" y="-174.5" font-family="Helvetica,sans-Serif" font-size="10.00">/IVY&#45;Inventory&#45;Manager</text>
<text text-anchor="middle" x="557" y="-163.5" font-family="Helvetica,sans-Serif" font-size="10.00">/src/ivy/ivy_manager/IvyManager.cpp</text>
</a>
</g>
</g>
<!-- Node10&#45;&gt;Node17 -->
<g id="edge8" class="edge"><title>Node10&#45;&gt;Node17</title>
<path fill="none" stroke="midnightblue" d="M387.269,-231.304C421.525,-220.546 462.038,-207.823 494.89,-197.506"/>
<polygon fill="midnightblue" stroke="midnightblue" points="385.813,-228.093 377.321,-234.428 387.91,-234.771 385.813,-228.093"/>
</g>
<!-- Node12 -->
<g id="node3" class="node"><title>Node12</title>
<g id="a_node3"><a xlink:href="_interface_c_l_i_8cpp.html" target="_top" xlink:title=" ">
<polygon fill="white" stroke="black" points="0,-78.5 0,-119.5 160,-119.5 160,-78.5 0,-78.5"/>
<text text-anchor="start" x="8" y="-107.5" font-family="Helvetica,sans-Serif" font-size="10.00">C:/Users/osyri/Desktop</text>
<text text-anchor="start" x="8" y="-96.5" font-family="Helvetica,sans-Serif" font-size="10.00">/IVY&#45;Inventory&#45;Manager</text>
<text text-anchor="middle" x="80" y="-85.5" font-family="Helvetica,sans-Serif" font-size="10.00">/src/ivy/interface/InterfaceCLI.cpp</text>
</a>
</g>
</g>
<!-- Node11&#45;&gt;Node12 -->
<g id="edge2" class="edge"><title>Node11&#45;&gt;Node12</title>
<path fill="none" stroke="midnightblue" d="M127.262,-149.204C117.86,-139.416 107.412,-128.539 98.7356,-119.506"/>
<polygon fill="midnightblue" stroke="midnightblue" points="124.749,-151.641 134.201,-156.428 129.798,-146.792 124.749,-151.641"/>
</g>
<!-- Node11&#45;&gt;Node13 -->
<g id="edge3" class="edge"><title>Node11&#45;&gt;Node13</title>
<path fill="none" stroke="midnightblue" d="M182.299,-149.492C193.199,-139.629 205.359,-128.627 215.441,-119.506"/>
<polygon fill="midnightblue" stroke="midnightblue" points="179.699,-147.124 174.632,-156.428 184.396,-152.314 179.699,-147.124"/>
</g>
<!-- Node14 -->
<g id="node5" class="node"><title>Node14</title>
<g id="a_node5"><a xlink:href="main_8cpp.html" target="_top" xlink:title=" ">
<polygon fill="white" stroke="black" points="178,-0.5 178,-41.5 296,-41.5 296,-0.5 178,-0.5"/>
<text text-anchor="start" x="186" y="-29.5" font-family="Helvetica,sans-Serif" font-size="10.00">C:/Users/osyri/Desktop</text>
<text text-anchor="start" x="186" y="-18.5" font-family="Helvetica,sans-Serif" font-size="10.00">/IVY&#45;Inventory&#45;Manager</text>
<text text-anchor="middle" x="237" y="-7.5" font-family="Helvetica,sans-Serif" font-size="10.00">/src/main.cpp</text>
</a>
</g>
</g>
<!-- Node13&#45;&gt;Node14 -->
<g id="edge4" class="edge"><title>Node13&#45;&gt;Node14</title>
<path fill="none" stroke="midnightblue" d="M237,-68.2965C237,-59.3009 237,-49.6532 237,-41.5056"/>
<polygon fill="midnightblue" stroke="midnightblue" points="233.5,-68.4281 237,-78.4281 240.5,-68.4281 233.5,-68.4281"/>
</g>
<!-- Node16 -->
<g id="node7" class="node"><title>Node16</title>
<g id="a_node7"><a xlink:href="_interface_g_u_i_8cpp.html" target="_top" xlink:title=" ">
<polygon fill="white" stroke="black" points="314,-78.5 314,-119.5 476,-119.5 476,-78.5 314,-78.5"/>
<text text-anchor="start" x="322" y="-107.5" font-family="Helvetica,sans-Serif" font-size="10.00">C:/Users/osyri/Desktop</text>
<text text-anchor="start" x="322" y="-96.5" font-family="Helvetica,sans-Serif" font-size="10.00">/IVY&#45;Inventory&#45;Manager</text>
<text text-anchor="middle" x="395" y="-85.5" font-family="Helvetica,sans-Serif" font-size="10.00">/src/ivy/interface/InterfaceGUI.cpp</text>
</a>
</g>
</g>
<!-- Node15&#45;&gt;Node16 -->
<g id="edge6" class="edge"><title>Node15&#45;&gt;Node16</title>
<path fill="none" stroke="midnightblue" d="M379.578,-146.882C382.592,-137.721 385.845,-127.83 388.584,-119.506"/>
<polygon fill="midnightblue" stroke="midnightblue" points="376.238,-145.835 376.438,-156.428 382.888,-148.023 376.238,-145.835"/>
</g>
</g>
</svg>
