<?xml version="1.0" encoding="UTF-8" standalone="no"?>
<!DOCTYPE svg PUBLIC "-//W3C//DTD SVG 1.1//EN"
 "http://www.w3.org/Graphics/SVG/1.1/DTD/svg11.dtd">
<!-- Generated by graphviz version 2.38.0 (20140413.2041)
 -->
<!-- Title: C:/Users/osyri/Desktop/IVY&#45;Inventory&#45;Manager/src/ivy/ivy_manager/IvyManager.hpp Pages: 1 -->
<svg width="324pt" height="285pt"
 viewBox="0.00 0.00 323.50 285.00" xmlns="http://www.w3.org/2000/svg" xmlns:xlink="http://www.w3.org/1999/xlink">
<g id="graph0" class="graph" transform="scale(1 1) rotate(0) translate(4 281)">
<title>C:/Users/osyri/Desktop/IVY&#45;Inventory&#45;Manager/src/ivy/ivy_manager/IvyManager.hpp</title>
<polygon fill="white" stroke="none" points="-4,4 -4,-281 319.5,-281 319.5,4 -4,4"/>
<!-- Node0 -->
<g id="node1" class="node"><title>Node0</title>
<g id="a_node1"><a xlink:title=" ">
<polygon fill="#bfbfbf" stroke="black" points="44.5,-235.5 44.5,-276.5 219.5,-276.5 219.5,-235.5 44.5,-235.5"/>
<text text-anchor="start" x="52.5" y="-264.5" font-family="Helvetica,sans-Serif" font-size="10.00">C:/Users/osyri/Desktop</text>
<text text-anchor="start" x="52.5" y="-253.5" font-family="Helvetica,sans-Serif" font-size="10.00">/IVY&#45;Inventory&#45;Manager</text>
<text text-anchor="middle" x="132" y="-242.5" font-family="Helvetica,sans-Serif" font-size="10.00">/src/ivy/ivy_manager/IvyManager.hpp</text>
</a>
</g>
</g>
<!-- Node1 -->
<g id="node2" class="node"><title>Node1</title>
<g id="a_node2"><a xlink:href="_produto_8hpp.html" target="_top" xlink:title=" ">
<polygon fill="white" stroke="black" points="0,-123.5 0,-142.5 104,-142.5 104,-123.5 0,-123.5"/>
<text text-anchor="middle" x="52" y="-130.5" font-family="Helvetica,sans-Serif" font-size="10.00">produto/Produto.hpp</text>
</a>
</g>
</g>
<!-- Node0&#45;&gt;Node1 -->
<g id="edge1" class="edge"><title>Node0&#45;&gt;Node1</title>
<path fill="none" stroke="midnightblue" d="M118.969,-235.29C103.472,-211.852 77.8678,-173.125 63.2165,-150.965"/>
<polygon fill="midnightblue" stroke="midnightblue" points="66.1041,-148.986 57.6693,-142.575 60.2649,-152.847 66.1041,-148.986"/>
</g>
<!-- Node2 -->
<g id="node3" class="node"><title>Node2</title>
<g id="a_node3"><a xlink:href="_ivy_log_8hpp.html" target="_top" xlink:title=" ">
<polygon fill="white" stroke="black" points="113,-67.5 113,-86.5 191,-86.5 191,-67.5 113,-67.5"/>
<text text-anchor="middle" x="152" y="-74.5" font-family="Helvetica,sans-Serif" font-size="10.00">log/IvyLog.hpp</text>
</a>
</g>
</g>
<!-- Node0&#45;&gt;Node2 -->
<g id="edge13" class="edge"><title>Node0&#45;&gt;Node2</title>
<path fill="none" stroke="midnightblue" d="M134.217,-235.382C138.092,-201.082 146.05,-130.658 149.866,-96.8828"/>
<polygon fill="midnightblue" stroke="midnightblue" points="153.385,-96.9136 151.03,-86.5838 146.429,-96.1276 153.385,-96.9136"/>
</g>
<!-- Node7 -->
<g id="node8" class="node"><title>Node7</title>
<g id="a_node8"><a xlink:href="_vetor_8hpp.html" target="_top" xlink:title=" ">
<polygon fill="white" stroke="black" points="160,-179.5 160,-198.5 242,-198.5 242,-179.5 160,-179.5"/>
<text text-anchor="middle" x="201" y="-186.5" font-family="Helvetica,sans-Serif" font-size="10.00">vetor/Vetor.hpp</text>
</a>
</g>
</g>
<!-- Node0&#45;&gt;Node7 -->
<g id="edge7" class="edge"><title>Node0&#45;&gt;Node7</title>
<path fill="none" stroke="midnightblue" d="M152.702,-235.498C162.874,-225.915 174.962,-214.528 184.501,-205.543"/>
<polygon fill="midnightblue" stroke="midnightblue" points="186.936,-208.057 191.815,-198.652 182.136,-202.962 186.936,-208.057"/>
</g>
<!-- Node1&#45;&gt;Node2 -->
<g id="edge2" class="edge"><title>Node1&#45;&gt;Node2</title>
<path fill="none" stroke="midnightblue" d="M68.0667,-123.324C83.9578,-114.743 108.507,-101.486 126.958,-91.5224"/>
<polygon fill="midnightblue" stroke="midnightblue" points="128.837,-94.4857 135.973,-86.6545 125.511,-88.3264 128.837,-94.4857"/>
</g>
<!-- Node6 -->
<g id="node7" class="node"><title>Node6</title>
<g id="a_node7"><a xlink:title=" ">
<polygon fill="white" stroke="#bfbfbf" points="27.5,-67.5 27.5,-86.5 76.5,-86.5 76.5,-67.5 27.5,-67.5"/>
<text text-anchor="middle" x="52" y="-74.5" font-family="Helvetica,sans-Serif" font-size="10.00">fstream</text>
</a>
</g>
</g>
<!-- Node1&#45;&gt;Node6 -->
<g id="edge6" class="edge"><title>Node1&#45;&gt;Node6</title>
<path fill="none" stroke="midnightblue" d="M52,-123.083C52,-116.006 52,-105.861 52,-96.9865"/>
<polygon fill="midnightblue" stroke="midnightblue" points="55.5001,-96.751 52,-86.7511 48.5001,-96.7511 55.5001,-96.751"/>
</g>
<!-- Node3 -->
<g id="node4" class="node"><title>Node3</title>
<g id="a_node4"><a xlink:title=" ">
<polygon fill="white" stroke="#bfbfbf" points="4.5,-6 4.5,-25 89.5,-25 89.5,-6 4.5,-6"/>
<text text-anchor="middle" x="47" y="-13" font-family="Helvetica,sans-Serif" font-size="10.00">spdlog/spdlog.h</text>
</a>
</g>
</g>
<!-- Node2&#45;&gt;Node3 -->
<g id="edge3" class="edge"><title>Node2&#45;&gt;Node3</title>
<path fill="none" stroke="midnightblue" d="M136.956,-67.4751C119.725,-57.7106 91.2601,-41.5807 70.9661,-30.0808"/>
<polygon fill="midnightblue" stroke="midnightblue" points="72.4418,-26.8942 62.016,-25.0091 68.9907,-32.9843 72.4418,-26.8942"/>
</g>
<!-- Node4 -->
<g id="node5" class="node"><title>Node4</title>
<g id="a_node5"><a xlink:title=" ">
<polygon fill="white" stroke="#bfbfbf" points="107.5,-6 107.5,-25 196.5,-25 196.5,-6 107.5,-6"/>
<text text-anchor="middle" x="152" y="-13" font-family="Helvetica,sans-Serif" font-size="10.00">spdlog/fmt/ostr.h</text>
</a>
</g>
</g>
<!-- Node2&#45;&gt;Node4 -->
<g id="edge4" class="edge"><title>Node2&#45;&gt;Node4</title>
<path fill="none" stroke="midnightblue" d="M152,-67.4751C152,-59.0803 152,-45.9806 152,-35.1631"/>
<polygon fill="midnightblue" stroke="midnightblue" points="155.5,-35.0091 152,-25.0091 148.5,-35.0091 155.5,-35.0091"/>
</g>
<!-- Node5 -->
<g id="node6" class="node"><title>Node5</title>
<g id="a_node6"><a xlink:title=" ">
<polygon fill="white" stroke="#bfbfbf" points="214.5,-0.5 214.5,-30.5 315.5,-30.5 315.5,-0.5 214.5,-0.5"/>
<text text-anchor="start" x="222.5" y="-18.5" font-family="Helvetica,sans-Serif" font-size="10.00">spdlog/sinks/stdout</text>
<text text-anchor="middle" x="265" y="-7.5" font-family="Helvetica,sans-Serif" font-size="10.00">_color_sinks.h</text>
</a>
</g>
</g>
<!-- Node2&#45;&gt;Node5 -->
<g id="edge5" class="edge"><title>Node2&#45;&gt;Node5</title>
<path fill="none" stroke="midnightblue" d="M168.19,-67.4751C184.067,-59.1154 208.803,-46.0902 229.298,-35.2991"/>
<polygon fill="midnightblue" stroke="midnightblue" points="231.15,-38.279 238.368,-30.523 227.889,-32.0852 231.15,-38.279"/>
</g>
<!-- Node7&#45;&gt;Node1 -->
<g id="edge8" class="edge"><title>Node7&#45;&gt;Node1</title>
<path fill="none" stroke="midnightblue" d="M177.391,-179.444C152.542,-170.438 113.226,-156.189 85.2464,-146.049"/>
<polygon fill="midnightblue" stroke="midnightblue" points="86.0932,-142.633 75.499,-142.516 83.7081,-149.214 86.0932,-142.633"/>
</g>
<!-- Node7&#45;&gt;Node2 -->
<g id="edge9" class="edge"><title>Node7&#45;&gt;Node2</title>
<path fill="none" stroke="midnightblue" d="M197.155,-179.368C189.176,-161.456 170.675,-119.923 159.995,-95.9482"/>
<polygon fill="midnightblue" stroke="midnightblue" points="163.093,-94.3019 155.827,-86.5914 156.699,-97.1503 163.093,-94.3019"/>
</g>
<!-- Node8 -->
<g id="node9" class="node"><title>Node8</title>
<g id="a_node9"><a xlink:href="_jogo_8hpp.html" target="_top" xlink:title=" ">
<polygon fill="white" stroke="black" points="198,-123.5 198,-142.5 314,-142.5 314,-123.5 198,-123.5"/>
<text text-anchor="middle" x="256" y="-130.5" font-family="Helvetica,sans-Serif" font-size="10.00">locadora/jogo/Jogo.hpp</text>
</a>
</g>
</g>
<!-- Node7&#45;&gt;Node8 -->
<g id="edge10" class="edge"><title>Node7&#45;&gt;Node8</title>
<path fill="none" stroke="midnightblue" d="M210.082,-179.083C218.171,-171.141 230.195,-159.335 239.91,-149.797"/>
<polygon fill="midnightblue" stroke="midnightblue" points="242.403,-152.254 247.087,-142.751 237.499,-147.26 242.403,-152.254"/>
</g>
<!-- Node8&#45;&gt;Node2 -->
<g id="edge12" class="edge"><title>Node8&#45;&gt;Node2</title>
<path fill="none" stroke="midnightblue" d="M239.291,-123.324C222.688,-114.703 196.998,-101.364 177.78,-91.3855"/>
<polygon fill="midnightblue" stroke="midnightblue" points="179.156,-88.1565 168.668,-86.6545 175.93,-94.3689 179.156,-88.1565"/>
</g>
<!-- Node9 -->
<g id="node10" class="node"><title>Node9</title>
<g id="a_node10"><a xlink:title=" ">
<polygon fill="white" stroke="#bfbfbf" points="235.5,-67.5 235.5,-86.5 276.5,-86.5 276.5,-67.5 235.5,-67.5"/>
<text text-anchor="middle" x="256" y="-74.5" font-family="Helvetica,sans-Serif" font-size="10.00">string</text>
</a>
</g>
</g>
<!-- Node8&#45;&gt;Node9 -->
<g id="edge11" class="edge"><title>Node8&#45;&gt;Node9</title>
<path fill="none" stroke="midnightblue" d="M256,-123.083C256,-116.006 256,-105.861 256,-96.9865"/>
<polygon fill="midnightblue" stroke="midnightblue" points="259.5,-96.751 256,-86.7511 252.5,-96.7511 259.5,-96.751"/>
</g>
</g>
</svg>
