<?xml version="1.0" encoding="UTF-8" standalone="no"?>
<!DOCTYPE svg PUBLIC "-//W3C//DTD SVG 1.1//EN"
 "http://www.w3.org/Graphics/SVG/1.1/DTD/svg11.dtd">
<!-- Generated by graphviz version 2.38.0 (20140413.2041)
 -->
<!-- Title: C:/Users/osyri/Desktop/IVY&#45;Inventory&#45;Manager/src/ivy/log/IvyLog.hpp Pages: 1 -->
<!--zoomable 618 -->
<svg id="main" version="1.1" xmlns="http://www.w3.org/2000/svg" xmlns:xlink="http://www.w3.org/1999/xlink" xml:space="preserve" onload="init(evt)">
<style type="text/css"><![CDATA[
.edge:hover path { stroke: red; }
.edge:hover polygon { stroke: red; fill: red; }
]]></style>
<script type="text/javascript"><![CDATA[
var edges = document.getElementsByTagName('g');
if (edges && edges.length) {
  for (var i=0;i<edges.length;i++) {
    if (edges[i].id.substr(0,4)=='edge') {
      edges[i].setAttribute('class','edge');
    }
  }
}
]]></script>
        <defs>
                <circle id="rim" cx="0" cy="0" r="7"/>
                <circle id="rim2" cx="0" cy="0" r="3.5"/>
                <g id="zoomPlus">
                        <use xlink:href="#rim" fill="#404040">
                                <set attributeName="fill" to="#808080" begin="zoomplus.mouseover" end="zoomplus.mouseout"/>
                        </use>
                        <path d="M-4,0h8M0,-4v8" fill="none" stroke="white" stroke-width="1.5" pointer-events="none"/>
                </g>
                <g id="zoomMin">
                        <use xlink:href="#rim" fill="#404040">
                                <set attributeName="fill" to="#808080" begin="zoomminus.mouseover" end="zoomminus.mouseout"/>
                        </use>
                        <path d="M-4,0h8" fill="none" stroke="white" stroke-width="1.5" pointer-events="none"/>
                </g>
                <g id="dirArrow">
                        <path fill="none" stroke="white" stroke-width="1.5" d="M0,-3.0v7 M-2.5,-0.5L0,-3.0L2.5,-0.5"/>
                </g>
               <g id="resetDef">
                       <use xlink:href="#rim2" fill="#404040">
                               <set attributeName="fill" to="#808080" begin="reset.mouseover" end="reset.mouseout"/>
                       </use>
               </g>
        </defs>

<script type="text/javascript">
var viewWidth = 1191;
var viewHeight = 618;
var sectionId = 'dynsection-1';
</script>
<script xlink:href="svgpan.js"/>
<svg id="graph" class="graph">
<g id="viewport">
<title>C:/Users/osyri/Desktop/IVY&#45;Inventory&#45;Manager/src/ivy/log/IvyLog.hpp</title>
<polygon fill="white" stroke="none" points="-4,4 -4,-614 1187,-614 1187,4 -4,4"/>
<!-- Node4 -->
<g id="node1" class="node"><title>Node4</title>
<g id="a_node1"><a xlink:title=" ">
<polygon fill="#bfbfbf" stroke="black" points="567,-568.5 567,-609.5 685,-609.5 685,-568.5 567,-568.5"/>
<text text-anchor="start" x="575" y="-597.5" font-family="Helvetica,sans-Serif" font-size="10.00">C:/Users/osyri/Desktop</text>
<text text-anchor="start" x="575" y="-586.5" font-family="Helvetica,sans-Serif" font-size="10.00">/IVY&#45;Inventory&#45;Manager</text>
<text text-anchor="middle" x="626" y="-575.5" font-family="Helvetica,sans-Serif" font-size="10.00">/src/ivy/log/IvyLog.hpp</text>
</a>
</g>
</g>
<!-- Node5 -->
<g id="node2" class="node"><title>Node5</title>
<g id="a_node2"><a xlink:href="_interface_c_l_i_8hpp.html" target="_top" xlink:title=" ">
<polygon fill="white" stroke="black" points="0,-156.5 0,-197.5 160,-197.5 160,-156.5 0,-156.5"/>
<text text-anchor="start" x="8" y="-185.5" font-family="Helvetica,sans-Serif" font-size="10.00">C:/Users/osyri/Desktop</text>
<text text-anchor="start" x="8" y="-174.5" font-family="Helvetica,sans-Serif" font-size="10.00">/IVY&#45;Inventory&#45;Manager</text>
<text text-anchor="middle" x="80" y="-163.5" font-family="Helvetica,sans-Serif" font-size="10.00">/src/ivy/interface/InterfaceCLI.hpp</text>
</a>
</g>
</g>
<!-- Node4&#45;&gt;Node5 -->
<g id="edge1" class="edge"><title>Node4&#45;&gt;Node5</title>
<path fill="none" stroke="midnightblue" d="M556.749,-583.166C397.922,-570.181 21,-527.752 21,-417.5 21,-417.5 21,-417.5 21,-332 21,-287.633 22.483,-274.762 40,-234 45.6135,-220.937 54.6514,-207.918 62.7171,-197.725"/>
<polygon fill="midnightblue" stroke="midnightblue" points="556.641,-586.668 566.888,-583.979 557.2,-579.691 556.641,-586.668"/>
</g>
<!-- Node7 -->
<g id="node4" class="node"><title>Node7</title>
<g id="a_node4"><a xlink:href="ivy_8hpp.html" target="_top" xlink:title=" ">
<polygon fill="white" stroke="black" points="444,-78.5 444,-119.5 562,-119.5 562,-78.5 444,-78.5"/>
<text text-anchor="start" x="452" y="-107.5" font-family="Helvetica,sans-Serif" font-size="10.00">C:/Users/osyri/Desktop</text>
<text text-anchor="start" x="452" y="-96.5" font-family="Helvetica,sans-Serif" font-size="10.00">/IVY&#45;Inventory&#45;Manager</text>
<text text-anchor="middle" x="503" y="-85.5" font-family="Helvetica,sans-Serif" font-size="10.00">/src/ivy/ivy.hpp</text>
</a>
</g>
</g>
<!-- Node4&#45;&gt;Node7 -->
<g id="edge28" class="edge"><title>Node4&#45;&gt;Node7</title>
<path fill="none" stroke="midnightblue" d="M695.11,-579.768C746.168,-571.952 816.497,-557.488 874,-532 954.937,-496.125 1037,-506.032 1037,-417.5 1037,-417.5 1037,-417.5 1037,-254 1037,-209.633 1050.65,-186.04 1018,-156 984.991,-125.628 690.668,-108.585 562.36,-102.541"/>
<polygon fill="midnightblue" stroke="midnightblue" points="694.543,-576.314 685.165,-581.244 695.57,-583.238 694.543,-576.314"/>
</g>
<!-- Node9 -->
<g id="node6" class="node"><title>Node9</title>
<g id="a_node6"><a xlink:href="_interface_g_u_i_8hpp.html" target="_top" xlink:title=" ">
<polygon fill="white" stroke="black" points="847,-234.5 847,-275.5 1009,-275.5 1009,-234.5 847,-234.5"/>
<text text-anchor="start" x="855" y="-263.5" font-family="Helvetica,sans-Serif" font-size="10.00">C:/Users/osyri/Desktop</text>
<text text-anchor="start" x="855" y="-252.5" font-family="Helvetica,sans-Serif" font-size="10.00">/IVY&#45;Inventory&#45;Manager</text>
<text text-anchor="middle" x="928" y="-241.5" font-family="Helvetica,sans-Serif" font-size="10.00">/src/ivy/interface/InterfaceGUI.hpp</text>
</a>
</g>
</g>
<!-- Node4&#45;&gt;Node9 -->
<g id="edge5" class="edge"><title>Node4&#45;&gt;Node9</title>
<path fill="none" stroke="midnightblue" d="M695.36,-580.355C737.85,-573.093 791.796,-559.044 833,-532 875.303,-504.235 884.272,-489.596 904,-443 928.183,-385.882 929.715,-310.859 928.878,-275.737"/>
<polygon fill="midnightblue" stroke="midnightblue" points="694.685,-576.919 685.374,-581.974 695.806,-583.829 694.685,-576.919"/>
</g>
<!-- Node11 -->
<g id="node8" class="node"><title>Node11</title>
<g id="a_node8"><a xlink:href="_vetor_8hpp.html" target="_top" xlink:title=" ">
<polygon fill="white" stroke="black" points="512,-396 512,-437 630,-437 630,-396 512,-396"/>
<text text-anchor="start" x="520" y="-425" font-family="Helvetica,sans-Serif" font-size="10.00">C:/Users/osyri/Desktop</text>
<text text-anchor="start" x="520" y="-414" font-family="Helvetica,sans-Serif" font-size="10.00">/IVY&#45;Inventory&#45;Manager</text>
<text text-anchor="middle" x="571" y="-403" font-family="Helvetica,sans-Serif" font-size="10.00">/src/ivy/vetor/Vetor.hpp</text>
</a>
</g>
</g>
<!-- Node4&#45;&gt;Node11 -->
<g id="edge7" class="edge"><title>Node4&#45;&gt;Node11</title>
<path fill="none" stroke="midnightblue" d="M616.597,-558.851C605.386,-524.096 586.957,-466.967 577.32,-437.092"/>
<polygon fill="midnightblue" stroke="midnightblue" points="613.29,-559.999 619.691,-568.441 619.952,-557.85 613.29,-559.999"/>
</g>
<!-- Node12 -->
<g id="node9" class="node"><title>Node12</title>
<g id="a_node9"><a xlink:href="_ivy_manager_8hpp.html" target="_top" xlink:title=" ">
<polygon fill="white" stroke="black" points="686.5,-312.5 686.5,-353.5 861.5,-353.5 861.5,-312.5 686.5,-312.5"/>
<text text-anchor="start" x="694.5" y="-341.5" font-family="Helvetica,sans-Serif" font-size="10.00">C:/Users/osyri/Desktop</text>
<text text-anchor="start" x="694.5" y="-330.5" font-family="Helvetica,sans-Serif" font-size="10.00">/IVY&#45;Inventory&#45;Manager</text>
<text text-anchor="middle" x="774" y="-319.5" font-family="Helvetica,sans-Serif" font-size="10.00">/src/ivy/ivy_manager/IvyManager.hpp</text>
</a>
</g>
</g>
<!-- Node4&#45;&gt;Node12 -->
<g id="edge27" class="edge"><title>Node4&#45;&gt;Node12</title>
<path fill="none" stroke="midnightblue" d="M626.655,-558.396C629.002,-516.782 638.679,-440.445 677,-390 688.88,-374.361 706.485,-362.346 723.448,-353.529"/>
<polygon fill="midnightblue" stroke="midnightblue" points="623.157,-558.284 626.195,-568.434 630.15,-558.604 623.157,-558.284"/>
</g>
<!-- Node14 -->
<g id="node11" class="node"><title>Node14</title>
<g id="a_node11"><a xlink:href="_locadora_8hpp.html" target="_top" xlink:title=" ">
<polygon fill="white" stroke="black" points="232.5,-312.5 232.5,-353.5 381.5,-353.5 381.5,-312.5 232.5,-312.5"/>
<text text-anchor="start" x="240.5" y="-341.5" font-family="Helvetica,sans-Serif" font-size="10.00">C:/Users/osyri/Desktop</text>
<text text-anchor="start" x="240.5" y="-330.5" font-family="Helvetica,sans-Serif" font-size="10.00">/IVY&#45;Inventory&#45;Manager</text>
<text text-anchor="middle" x="307" y="-319.5" font-family="Helvetica,sans-Serif" font-size="10.00">/src/ivy/locadora/Locadora.hpp</text>
</a>
</g>
</g>
<!-- Node4&#45;&gt;Node14 -->
<g id="edge34" class="edge"><title>Node4&#45;&gt;Node14</title>
<path fill="none" stroke="midnightblue" d="M556.72,-576.96C514.493,-568.454 460.313,-554.289 416,-532 359.2,-503.43 331.636,-500.26 304,-443 290.176,-414.358 295.788,-376.366 301.28,-353.631"/>
<polygon fill="midnightblue" stroke="midnightblue" points="556.148,-580.415 566.634,-578.898 557.491,-573.545 556.148,-580.415"/>
</g>
<!-- Node15 -->
<g id="node12" class="node"><title>Node15</title>
<g id="a_node12"><a xlink:href="_locadora_c_l_i_8hpp.html" target="_top" xlink:title=" ">
<polygon fill="white" stroke="black" points="49.5,-234.5 49.5,-275.5 212.5,-275.5 212.5,-234.5 49.5,-234.5"/>
<text text-anchor="start" x="57.5" y="-263.5" font-family="Helvetica,sans-Serif" font-size="10.00">C:/Users/osyri/Desktop</text>
<text text-anchor="start" x="57.5" y="-252.5" font-family="Helvetica,sans-Serif" font-size="10.00">/IVY&#45;Inventory&#45;Manager</text>
<text text-anchor="middle" x="131" y="-241.5" font-family="Helvetica,sans-Serif" font-size="10.00">/src/ivy/locadora/LocadoraCLI.hpp</text>
</a>
</g>
</g>
<!-- Node4&#45;&gt;Node15 -->
<g id="edge35" class="edge"><title>Node4&#45;&gt;Node15</title>
<path fill="none" stroke="midnightblue" d="M556.772,-581.286C479.896,-572.778 361.654,-556.239 324,-532 222.476,-466.646 159.16,-327.142 138.47,-275.636"/>
<polygon fill="midnightblue" stroke="midnightblue" points="556.546,-584.782 566.866,-582.384 557.303,-577.823 556.546,-584.782"/>
</g>
<!-- Node19 -->
<g id="node16" class="node"><title>Node19</title>
<g id="a_node16"><a xlink:href="_produto_8hpp.html" target="_top" xlink:title=" ">
<polygon fill="white" stroke="black" points="686,-485 686,-526 824,-526 824,-485 686,-485"/>
<text text-anchor="start" x="694" y="-514" font-family="Helvetica,sans-Serif" font-size="10.00">C:/Users/osyri/Desktop</text>
<text text-anchor="start" x="694" y="-503" font-family="Helvetica,sans-Serif" font-size="10.00">/IVY&#45;Inventory&#45;Manager</text>
<text text-anchor="middle" x="755" y="-492" font-family="Helvetica,sans-Serif" font-size="10.00">/src/ivy/produto/Produto.hpp</text>
</a>
</g>
</g>
<!-- Node4&#45;&gt;Node19 -->
<g id="edge22" class="edge"><title>Node4&#45;&gt;Node19</title>
<path fill="none" stroke="midnightblue" d="M665.528,-563.027C684.283,-551.178 706.37,-537.224 723.906,-526.144"/>
<polygon fill="midnightblue" stroke="midnightblue" points="663.483,-560.179 656.899,-568.479 667.222,-566.096 663.483,-560.179"/>
</g>
<!-- Node21 -->
<g id="node18" class="node"><title>Node21</title>
<g id="a_node18"><a xlink:href="_jogo_8hpp.html" target="_top" xlink:title=" ">
<polygon fill="white" stroke="black" points="425,-479.5 425,-531.5 543,-531.5 543,-479.5 425,-479.5"/>
<text text-anchor="start" x="433" y="-519.5" font-family="Helvetica,sans-Serif" font-size="10.00">C:/Users/osyri/Desktop</text>
<text text-anchor="start" x="433" y="-508.5" font-family="Helvetica,sans-Serif" font-size="10.00">/IVY&#45;Inventory&#45;Manager</text>
<text text-anchor="start" x="433" y="-497.5" font-family="Helvetica,sans-Serif" font-size="10.00">/src/ivy/locadora/jogo</text>
<text text-anchor="middle" x="484" y="-486.5" font-family="Helvetica,sans-Serif" font-size="10.00">/Jogo.hpp</text>
</a>
</g>
</g>
<!-- Node4&#45;&gt;Node21 -->
<g id="edge29" class="edge"><title>Node4&#45;&gt;Node21</title>
<path fill="none" stroke="midnightblue" d="M583.096,-563.375C565.563,-553.312 545.305,-541.685 527.691,-531.576"/>
<polygon fill="midnightblue" stroke="midnightblue" points="581.572,-566.536 591.987,-568.479 585.057,-560.465 581.572,-566.536"/>
</g>
<!-- Node23 -->
<g id="node20" class="node"><title>Node23</title>
<g id="a_node20"><a xlink:href="_ivy_log_8cpp.html" target="_top" xlink:title=" ">
<polygon fill="white" stroke="black" points="1065,-485 1065,-526 1183,-526 1183,-485 1065,-485"/>
<text text-anchor="start" x="1073" y="-514" font-family="Helvetica,sans-Serif" font-size="10.00">C:/Users/osyri/Desktop</text>
<text text-anchor="start" x="1073" y="-503" font-family="Helvetica,sans-Serif" font-size="10.00">/IVY&#45;Inventory&#45;Manager</text>
<text text-anchor="middle" x="1124" y="-492" font-family="Helvetica,sans-Serif" font-size="10.00">/src/ivy/log/IvyLog.cpp</text>
</a>
</g>
</g>
<!-- Node4&#45;&gt;Node23 -->
<g id="edge36" class="edge"><title>Node4&#45;&gt;Node23</title>
<path fill="none" stroke="midnightblue" d="M695.146,-583.267C779.907,-576.467 927.506,-561.376 1051,-532 1057.92,-530.353 1065.11,-528.296 1072.15,-526.068"/>
<polygon fill="midnightblue" stroke="midnightblue" points="694.821,-579.782 685.126,-584.056 695.37,-586.76 694.821,-579.782"/>
</g>
<!-- Node6 -->
<g id="node3" class="node"><title>Node6</title>
<g id="a_node3"><a xlink:href="_interface_c_l_i_8cpp.html" target="_top" xlink:title=" ">
<polygon fill="white" stroke="black" points="0,-78.5 0,-119.5 160,-119.5 160,-78.5 0,-78.5"/>
<text text-anchor="start" x="8" y="-107.5" font-family="Helvetica,sans-Serif" font-size="10.00">C:/Users/osyri/Desktop</text>
<text text-anchor="start" x="8" y="-96.5" font-family="Helvetica,sans-Serif" font-size="10.00">/IVY&#45;Inventory&#45;Manager</text>
<text text-anchor="middle" x="80" y="-85.5" font-family="Helvetica,sans-Serif" font-size="10.00">/src/ivy/interface/InterfaceCLI.cpp</text>
</a>
</g>
</g>
<!-- Node5&#45;&gt;Node6 -->
<g id="edge2" class="edge"><title>Node5&#45;&gt;Node6</title>
<path fill="none" stroke="midnightblue" d="M80,-146.297C80,-137.301 80,-127.653 80,-119.506"/>
<polygon fill="midnightblue" stroke="midnightblue" points="76.5001,-146.428 80,-156.428 83.5001,-146.428 76.5001,-146.428"/>
</g>
<!-- Node5&#45;&gt;Node7 -->
<g id="edge3" class="edge"><title>Node5&#45;&gt;Node7</title>
<path fill="none" stroke="midnightblue" d="M169.865,-155.878C271.89,-136.078 379.208,-118.875 443.998,-108.889"/>
<polygon fill="midnightblue" stroke="midnightblue" points="169.154,-152.451 160.01,-157.803 170.495,-159.321 169.154,-152.451"/>
</g>
<!-- Node8 -->
<g id="node5" class="node"><title>Node8</title>
<g id="a_node5"><a xlink:href="main_8cpp.html" target="_top" xlink:title=" ">
<polygon fill="white" stroke="black" points="444,-0.5 444,-41.5 562,-41.5 562,-0.5 444,-0.5"/>
<text text-anchor="start" x="452" y="-29.5" font-family="Helvetica,sans-Serif" font-size="10.00">C:/Users/osyri/Desktop</text>
<text text-anchor="start" x="452" y="-18.5" font-family="Helvetica,sans-Serif" font-size="10.00">/IVY&#45;Inventory&#45;Manager</text>
<text text-anchor="middle" x="503" y="-7.5" font-family="Helvetica,sans-Serif" font-size="10.00">/src/main.cpp</text>
</a>
</g>
</g>
<!-- Node7&#45;&gt;Node8 -->
<g id="edge4" class="edge"><title>Node7&#45;&gt;Node8</title>
<path fill="none" stroke="midnightblue" d="M503,-68.2965C503,-59.3009 503,-49.6532 503,-41.5056"/>
<polygon fill="midnightblue" stroke="midnightblue" points="499.5,-68.4281 503,-78.4281 506.5,-68.4281 499.5,-68.4281"/>
</g>
<!-- Node10 -->
<g id="node7" class="node"><title>Node10</title>
<g id="a_node7"><a xlink:href="_interface_g_u_i_8cpp.html" target="_top" xlink:title=" ">
<polygon fill="white" stroke="black" points="847,-156.5 847,-197.5 1009,-197.5 1009,-156.5 847,-156.5"/>
<text text-anchor="start" x="855" y="-185.5" font-family="Helvetica,sans-Serif" font-size="10.00">C:/Users/osyri/Desktop</text>
<text text-anchor="start" x="855" y="-174.5" font-family="Helvetica,sans-Serif" font-size="10.00">/IVY&#45;Inventory&#45;Manager</text>
<text text-anchor="middle" x="928" y="-163.5" font-family="Helvetica,sans-Serif" font-size="10.00">/src/ivy/interface/InterfaceGUI.cpp</text>
</a>
</g>
</g>
<!-- Node9&#45;&gt;Node10 -->
<g id="edge6" class="edge"><title>Node9&#45;&gt;Node10</title>
<path fill="none" stroke="midnightblue" d="M928,-224.297C928,-215.301 928,-205.653 928,-197.506"/>
<polygon fill="midnightblue" stroke="midnightblue" points="924.5,-224.428 928,-234.428 931.5,-224.428 924.5,-224.428"/>
</g>
<!-- Node11&#45;&gt;Node7 -->
<g id="edge8" class="edge"><title>Node11&#45;&gt;Node7</title>
<path fill="none" stroke="midnightblue" d="M554.732,-386.768C549.634,-376.679 544.445,-365.091 541,-354 514.679,-269.264 506.317,-162.783 503.898,-119.567"/>
<polygon fill="midnightblue" stroke="midnightblue" points="551.786,-388.687 559.532,-395.916 557.985,-385.435 551.786,-388.687"/>
</g>
<!-- Node11&#45;&gt;Node12 -->
<g id="edge9" class="edge"><title>Node11&#45;&gt;Node12</title>
<path fill="none" stroke="midnightblue" d="M629.266,-392.108C659.709,-379.885 696.535,-365.1 725.422,-353.503"/>
<polygon fill="midnightblue" stroke="midnightblue" points="627.6,-389.005 619.624,-395.979 630.208,-395.501 627.6,-389.005"/>
</g>
<!-- Node11&#45;&gt;Node14 -->
<g id="edge14" class="edge"><title>Node11&#45;&gt;Node14</title>
<path fill="none" stroke="midnightblue" d="M502.151,-394.246C461.334,-381.645 409.977,-365.79 370.194,-353.509"/>
<polygon fill="midnightblue" stroke="midnightblue" points="501.166,-397.604 511.753,-397.21 503.231,-390.916 501.166,-397.604"/>
</g>
<!-- Node18 -->
<g id="node15" class="node"><title>Node18</title>
<g id="a_node15"><a xlink:href="_vetor_8cpp.html" target="_top" xlink:title=" ">
<polygon fill="white" stroke="black" points="550,-312.5 550,-353.5 668,-353.5 668,-312.5 550,-312.5"/>
<text text-anchor="start" x="558" y="-341.5" font-family="Helvetica,sans-Serif" font-size="10.00">C:/Users/osyri/Desktop</text>
<text text-anchor="start" x="558" y="-330.5" font-family="Helvetica,sans-Serif" font-size="10.00">/IVY&#45;Inventory&#45;Manager</text>
<text text-anchor="middle" x="609" y="-319.5" font-family="Helvetica,sans-Serif" font-size="10.00">/src/ivy/vetor/Vetor.cpp</text>
</a>
</g>
</g>
<!-- Node11&#45;&gt;Node18 -->
<g id="edge21" class="edge"><title>Node11&#45;&gt;Node18</title>
<path fill="none" stroke="midnightblue" d="M584.492,-386.563C589.595,-375.619 595.278,-363.43 599.886,-353.547"/>
<polygon fill="midnightblue" stroke="midnightblue" points="581.252,-385.229 580.199,-395.771 587.597,-388.187 581.252,-385.229"/>
</g>
<!-- Node12&#45;&gt;Node5 -->
<g id="edge10" class="edge"><title>Node12&#45;&gt;Node5</title>
<path fill="none" stroke="midnightblue" d="M688.551,-309.892C584.04,-282.917 417.341,-240.124 388,-234 291.441,-213.845 265.827,-216.821 169,-198 166.046,-197.426 163.041,-196.827 160.007,-196.21"/>
<polygon fill="midnightblue" stroke="midnightblue" points="687.907,-313.34 698.464,-312.451 689.656,-306.563 687.907,-313.34"/>
</g>
<!-- Node12&#45;&gt;Node7 -->
<g id="edge12" class="edge"><title>Node12&#45;&gt;Node7</title>
<path fill="none" stroke="midnightblue" d="M688.648,-309.57C654.283,-299.32 619.578,-287.03 606,-276 558.076,-237.068 567.229,-209.264 536,-156 528.923,-143.929 520.959,-130.413 514.628,-119.684"/>
<polygon fill="midnightblue" stroke="midnightblue" points="687.733,-312.949 698.314,-312.404 689.703,-306.232 687.733,-312.949"/>
</g>
<!-- Node12&#45;&gt;Node9 -->
<g id="edge11" class="edge"><title>Node12&#45;&gt;Node9</title>
<path fill="none" stroke="midnightblue" d="M822.818,-307.908C843.993,-297.458 868.467,-285.38 888.476,-275.506"/>
<polygon fill="midnightblue" stroke="midnightblue" points="821.077,-304.864 813.659,-312.428 824.175,-311.141 821.077,-304.864"/>
</g>
<!-- Node13 -->
<g id="node10" class="node"><title>Node13</title>
<g id="a_node10"><a xlink:href="_ivy_manager_8cpp.html" target="_top" xlink:title=" ">
<polygon fill="white" stroke="black" points="615.5,-234.5 615.5,-275.5 790.5,-275.5 790.5,-234.5 615.5,-234.5"/>
<text text-anchor="start" x="623.5" y="-263.5" font-family="Helvetica,sans-Serif" font-size="10.00">C:/Users/osyri/Desktop</text>
<text text-anchor="start" x="623.5" y="-252.5" font-family="Helvetica,sans-Serif" font-size="10.00">/IVY&#45;Inventory&#45;Manager</text>
<text text-anchor="middle" x="703" y="-241.5" font-family="Helvetica,sans-Serif" font-size="10.00">/src/ivy/ivy_manager/IvyManager.cpp</text>
</a>
</g>
</g>
<!-- Node12&#45;&gt;Node13 -->
<g id="edge13" class="edge"><title>Node12&#45;&gt;Node13</title>
<path fill="none" stroke="midnightblue" d="M748.698,-304.916C739.624,-295.203 729.578,-284.45 721.222,-275.506"/>
<polygon fill="midnightblue" stroke="midnightblue" points="746.332,-307.51 755.716,-312.428 751.447,-302.731 746.332,-307.51"/>
</g>
<!-- Node14&#45;&gt;Node7 -->
<g id="edge15" class="edge"><title>Node14&#45;&gt;Node7</title>
<path fill="none" stroke="midnightblue" d="M349.988,-306.798C363.03,-298.009 376.844,-287.452 388,-276 413.088,-250.248 467.664,-159.906 491.488,-119.633"/>
<polygon fill="midnightblue" stroke="midnightblue" points="348.016,-303.906 341.565,-312.31 351.849,-309.763 348.016,-303.906"/>
</g>
<!-- Node14&#45;&gt;Node15 -->
<g id="edge16" class="edge"><title>Node14&#45;&gt;Node15</title>
<path fill="none" stroke="midnightblue" d="M252.183,-308.329C227.762,-297.783 199.346,-285.513 176.171,-275.506"/>
<polygon fill="midnightblue" stroke="midnightblue" points="251.107,-311.677 261.676,-312.428 253.883,-305.25 251.107,-311.677"/>
</g>
<!-- Node17 -->
<g id="node14" class="node"><title>Node17</title>
<g id="a_node14"><a xlink:href="_locadora_8cpp.html" target="_top" xlink:title=" ">
<polygon fill="white" stroke="black" points="230.5,-234.5 230.5,-275.5 379.5,-275.5 379.5,-234.5 230.5,-234.5"/>
<text text-anchor="start" x="238.5" y="-263.5" font-family="Helvetica,sans-Serif" font-size="10.00">C:/Users/osyri/Desktop</text>
<text text-anchor="start" x="238.5" y="-252.5" font-family="Helvetica,sans-Serif" font-size="10.00">/IVY&#45;Inventory&#45;Manager</text>
<text text-anchor="middle" x="305" y="-241.5" font-family="Helvetica,sans-Serif" font-size="10.00">/src/ivy/locadora/Locadora.cpp</text>
</a>
</g>
</g>
<!-- Node14&#45;&gt;Node17 -->
<g id="edge20" class="edge"><title>Node14&#45;&gt;Node17</title>
<path fill="none" stroke="midnightblue" d="M306.218,-302.297C305.982,-293.301 305.728,-283.653 305.513,-275.506"/>
<polygon fill="midnightblue" stroke="midnightblue" points="302.723,-302.524 306.485,-312.428 309.721,-302.339 302.723,-302.524"/>
</g>
<!-- Node15&#45;&gt;Node5 -->
<g id="edge17" class="edge"><title>Node15&#45;&gt;Node5</title>
<path fill="none" stroke="midnightblue" d="M112.242,-226.048C105.88,-216.566 98.9133,-206.185 93.0893,-197.506"/>
<polygon fill="midnightblue" stroke="midnightblue" points="109.388,-228.075 117.866,-234.428 115.2,-224.174 109.388,-228.075"/>
</g>
<!-- Node15&#45;&gt;Node7 -->
<g id="edge18" class="edge"><title>Node15&#45;&gt;Node7</title>
<path fill="none" stroke="midnightblue" d="M222.459,-232.909C277.181,-219.888 338.324,-204.474 350,-198 373.644,-184.891 371.972,-171.672 394,-156 413.762,-141.94 437.539,-129.297 457.836,-119.598"/>
<polygon fill="midnightblue" stroke="midnightblue" points="221.607,-229.514 212.684,-235.226 223.222,-236.325 221.607,-229.514"/>
</g>
<!-- Node16 -->
<g id="node13" class="node"><title>Node16</title>
<g id="a_node13"><a xlink:href="_locadora_c_l_i_8cpp.html" target="_top" xlink:title=" ">
<polygon fill="white" stroke="black" points="178.5,-156.5 178.5,-197.5 341.5,-197.5 341.5,-156.5 178.5,-156.5"/>
<text text-anchor="start" x="186.5" y="-185.5" font-family="Helvetica,sans-Serif" font-size="10.00">C:/Users/osyri/Desktop</text>
<text text-anchor="start" x="186.5" y="-174.5" font-family="Helvetica,sans-Serif" font-size="10.00">/IVY&#45;Inventory&#45;Manager</text>
<text text-anchor="middle" x="260" y="-163.5" font-family="Helvetica,sans-Serif" font-size="10.00">/src/ivy/locadora/LocadoraCLI.cpp</text>
</a>
</g>
</g>
<!-- Node15&#45;&gt;Node16 -->
<g id="edge19" class="edge"><title>Node15&#45;&gt;Node16</title>
<path fill="none" stroke="midnightblue" d="M173.09,-229.203C190.548,-218.918 210.507,-207.159 226.892,-197.506"/>
<polygon fill="midnightblue" stroke="midnightblue" points="171.06,-226.336 164.221,-234.428 174.613,-232.368 171.06,-226.336"/>
</g>
<!-- Node19&#45;&gt;Node7 -->
<g id="edge24" class="edge"><title>Node19&#45;&gt;Node7</title>
<path fill="none" stroke="midnightblue" d="M809.975,-479.537C825.334,-470.111 840.638,-457.963 851,-443 884.494,-394.634 891.232,-366.867 870,-312 869.471,-310.634 800.185,-234.862 799,-234 724.521,-179.842 624.662,-140.265 562.079,-118.696"/>
<polygon fill="midnightblue" stroke="midnightblue" points="807.852,-476.723 800.963,-484.772 811.368,-482.776 807.852,-476.723"/>
</g>
<!-- Node19&#45;&gt;Node11 -->
<g id="edge23" class="edge"><title>Node19&#45;&gt;Node11</title>
<path fill="none" stroke="midnightblue" d="M704.576,-480.658C675.642,-466.977 639.76,-450.011 612.473,-437.11"/>
<polygon fill="midnightblue" stroke="midnightblue" points="703.17,-483.865 713.707,-484.976 706.163,-477.537 703.17,-483.865"/>
</g>
<!-- Node19&#45;&gt;Node12 -->
<g id="edge25" class="edge"><title>Node19&#45;&gt;Node12</title>
<path fill="none" stroke="midnightblue" d="M801.211,-478.909C813.874,-469.413 826.025,-457.383 833,-443 843.279,-421.806 842.297,-411.643 833,-390 826.813,-375.597 814.899,-363.156 803.388,-353.683"/>
<polygon fill="midnightblue" stroke="midnightblue" points="799.028,-476.165 792.864,-484.782 803.057,-481.889 799.028,-476.165"/>
</g>
<!-- Node20 -->
<g id="node17" class="node"><title>Node20</title>
<g id="a_node17"><a xlink:href="_produto_8cpp.html" target="_top" xlink:title=" ">
<polygon fill="white" stroke="black" points="686,-396 686,-437 824,-437 824,-396 686,-396"/>
<text text-anchor="start" x="694" y="-425" font-family="Helvetica,sans-Serif" font-size="10.00">C:/Users/osyri/Desktop</text>
<text text-anchor="start" x="694" y="-414" font-family="Helvetica,sans-Serif" font-size="10.00">/IVY&#45;Inventory&#45;Manager</text>
<text text-anchor="middle" x="755" y="-403" font-family="Helvetica,sans-Serif" font-size="10.00">/src/ivy/produto/Produto.cpp</text>
</a>
</g>
</g>
<!-- Node19&#45;&gt;Node20 -->
<g id="edge26" class="edge"><title>Node19&#45;&gt;Node20</title>
<path fill="none" stroke="midnightblue" d="M755,-474.441C755,-462.101 755,-448.162 755,-437.164"/>
<polygon fill="midnightblue" stroke="midnightblue" points="751.5,-474.758 755,-484.758 758.5,-474.758 751.5,-474.758"/>
</g>
<!-- Node21&#45;&gt;Node7 -->
<g id="edge31" class="edge"><title>Node21&#45;&gt;Node7</title>
<path fill="none" stroke="midnightblue" d="M484,-469.325C484,-434.851 484,-380.811 484,-334 484,-334 484,-334 484,-254 484,-205.51 493.393,-149.074 498.971,-119.839"/>
<polygon fill="midnightblue" stroke="midnightblue" points="480.5,-469.367 484,-479.367 487.5,-469.367 480.5,-469.367"/>
</g>
<!-- Node21&#45;&gt;Node11 -->
<g id="edge30" class="edge"><title>Node21&#45;&gt;Node11</title>
<path fill="none" stroke="midnightblue" d="M516.319,-472.181C528.108,-460.392 541.072,-447.428 551.418,-437.082"/>
<polygon fill="midnightblue" stroke="midnightblue" points="513.76,-469.79 509.164,-479.336 518.71,-474.74 513.76,-469.79"/>
</g>
<!-- Node21&#45;&gt;Node14 -->
<g id="edge32" class="edge"><title>Node21&#45;&gt;Node14</title>
<path fill="none" stroke="midnightblue" d="M414.916,-492.548C384.35,-483.8 350.526,-468.758 329,-443 307.831,-417.669 305.127,-377.545 305.664,-353.692"/>
<polygon fill="midnightblue" stroke="midnightblue" points="414.141,-495.964 424.706,-495.173 415.954,-489.202 414.141,-495.964"/>
</g>
<!-- Node22 -->
<g id="node19" class="node"><title>Node22</title>
<g id="a_node19"><a xlink:href="_jogo_8cpp.html" target="_top" xlink:title=" ">
<polygon fill="white" stroke="black" points="338,-390.5 338,-442.5 456,-442.5 456,-390.5 338,-390.5"/>
<text text-anchor="start" x="346" y="-430.5" font-family="Helvetica,sans-Serif" font-size="10.00">C:/Users/osyri/Desktop</text>
<text text-anchor="start" x="346" y="-419.5" font-family="Helvetica,sans-Serif" font-size="10.00">/IVY&#45;Inventory&#45;Manager</text>
<text text-anchor="start" x="346" y="-408.5" font-family="Helvetica,sans-Serif" font-size="10.00">/src/ivy/locadora/jogo</text>
<text text-anchor="middle" x="397" y="-397.5" font-family="Helvetica,sans-Serif" font-size="10.00">/Jogo.cpp</text>
</a>
</g>
</g>
<!-- Node21&#45;&gt;Node22 -->
<g id="edge33" class="edge"><title>Node21&#45;&gt;Node22</title>
<path fill="none" stroke="midnightblue" d="M451.577,-472.077C441.835,-462.335 431.3,-451.8 422.107,-442.607"/>
<polygon fill="midnightblue" stroke="midnightblue" points="449.29,-474.74 458.836,-479.336 454.24,-469.79 449.29,-474.74"/>
</g>
</g>
</svg>
        <g id="navigator" transform="translate(0 0)" fill="#404254">
                <rect fill="#f2f5e9" fill-opacity="0.5" stroke="#606060" stroke-width=".5" x="0" y="0" width="60" height="60"/>
                <use id="zoomplus" xlink:href="#zoomPlus" x="17" y="9" onmousedown="handleZoom(evt,'in')"/>
                <use id="zoomminus" xlink:href="#zoomMin" x="42" y="9" onmousedown="handleZoom(evt,'out')"/>
                <use id="reset" xlink:href="#resetDef" x="30" y="36" onmousedown="handleReset()"/>
                <g id="arrowUp" xlink:href="#dirArrow" transform="translate(30 24)" onmousedown="handlePan(0,-1)">
                  <use xlink:href="#rim" fill="#404040">
                        <set attributeName="fill" to="#808080" begin="arrowUp.mouseover" end="arrowUp.mouseout"/>
                  </use>
                  <path fill="none" stroke="white" stroke-width="1.5" d="M0,-3.0v7 M-2.5,-0.5L0,-3.0L2.5,-0.5"/>
                </g>
                <g id="arrowRight" xlink:href="#dirArrow" transform="rotate(90) translate(36 -43)" onmousedown="handlePan(1,0)">
                  <use xlink:href="#rim" fill="#404040">
                        <set attributeName="fill" to="#808080" begin="arrowRight.mouseover" end="arrowRight.mouseout"/>
                  </use>
                  <path fill="none" stroke="white" stroke-width="1.5" d="M0,-3.0v7 M-2.5,-0.5L0,-3.0L2.5,-0.5"/>
                </g>
                <g id="arrowDown" xlink:href="#dirArrow" transform="rotate(180) translate(-30 -48)" onmousedown="handlePan(0,1)">
                  <use xlink:href="#rim" fill="#404040">
                        <set attributeName="fill" to="#808080" begin="arrowDown.mouseover" end="arrowDown.mouseout"/>
                  </use>
                  <path fill="none" stroke="white" stroke-width="1.5" d="M0,-3.0v7 M-2.5,-0.5L0,-3.0L2.5,-0.5"/>
                </g>
                <g id="arrowLeft" xlink:href="#dirArrow" transform="rotate(270) translate(-36 17)" onmousedown="handlePan(-1,0)">
                  <use xlink:href="#rim" fill="#404040">
                        <set attributeName="fill" to="#808080" begin="arrowLeft.mouseover" end="arrowLeft.mouseout"/>
                  </use>
                  <path fill="none" stroke="white" stroke-width="1.5" d="M0,-3.0v7 M-2.5,-0.5L0,-3.0L2.5,-0.5"/>
                </g>
        </g>
        <svg viewBox="0 0 15 15" width="100%" height="30px" preserveAspectRatio="xMaxYMin meet">
         <g id="arrow_out" transform="scale(0.3 0.3)">
          <a xlink:href="_ivy_log_8hpp__dep__incl_org.svg" target="_base">
           <rect id="button" ry="5" rx="5" y="6" x="6" height="38" width="38"
                fill="#f2f5e9" fill-opacity="0.5" stroke="#606060" stroke-width="1.0"/>
           <path id="arrow"
             d="M 11.500037,31.436501 C 11.940474,20.09759 22.043105,11.32322 32.158766,21.979434 L 37.068811,17.246167 C 37.068811,17.246167 37.088388,32 37.088388,32 L 22.160133,31.978069 C 22.160133,31.978069 26.997745,27.140456 26.997745,27.140456 C 18.528582,18.264221 13.291696,25.230495 11.500037,31.436501 z"
             style="fill:#404040;"/>
          </a>
         </g>
        </svg>
</svg>
