<?xml version="1.0" encoding="UTF-8" standalone="no"?>
<!DOCTYPE svg PUBLIC "-//W3C//DTD SVG 1.1//EN"
 "http://www.w3.org/Graphics/SVG/1.1/DTD/svg11.dtd">
<!-- Generated by graphviz version 2.38.0 (20140413.2041)
 -->
<!-- Title: C:/Users/osyri/Desktop/IVY&#45;Inventory&#45;Manager/src/ivy/locadora/jogo/Jogo.cpp Pages: 1 -->
<svg width="319pt" height="240pt"
 viewBox="0.00 0.00 319.00 240.00" xmlns="http://www.w3.org/2000/svg" xmlns:xlink="http://www.w3.org/1999/xlink">
<g id="graph0" class="graph" transform="scale(1 1) rotate(0) translate(4 236)">
<title>C:/Users/osyri/Desktop/IVY&#45;Inventory&#45;Manager/src/ivy/locadora/jogo/Jogo.cpp</title>
<polygon fill="white" stroke="none" points="-4,4 -4,-236 315,-236 315,4 -4,4"/>
<!-- Node0 -->
<g id="node1" class="node"><title>Node0</title>
<g id="a_node1"><a xlink:title=" ">
<polygon fill="#bfbfbf" stroke="black" points="49.5,-179.5 49.5,-231.5 167.5,-231.5 167.5,-179.5 49.5,-179.5"/>
<text text-anchor="start" x="57.5" y="-219.5" font-family="Helvetica,sans-Serif" font-size="10.00">C:/Users/osyri/Desktop</text>
<text text-anchor="start" x="57.5" y="-208.5" font-family="Helvetica,sans-Serif" font-size="10.00">/IVY&#45;Inventory&#45;Manager</text>
<text text-anchor="start" x="57.5" y="-197.5" font-family="Helvetica,sans-Serif" font-size="10.00">/src/ivy/locadora/jogo</text>
<text text-anchor="middle" x="108.5" y="-186.5" font-family="Helvetica,sans-Serif" font-size="10.00">/Jogo.cpp</text>
</a>
</g>
</g>
<!-- Node1 -->
<g id="node2" class="node"><title>Node1</title>
<g id="a_node2"><a xlink:href="_jogo_8hpp.html" target="_top" xlink:title=" ">
<polygon fill="white" stroke="black" points="80.5,-123.5 80.5,-142.5 136.5,-142.5 136.5,-123.5 80.5,-123.5"/>
<text text-anchor="middle" x="108.5" y="-130.5" font-family="Helvetica,sans-Serif" font-size="10.00">Jogo.hpp</text>
</a>
</g>
</g>
<!-- Node0&#45;&gt;Node1 -->
<g id="edge1" class="edge"><title>Node0&#45;&gt;Node1</title>
<path fill="none" stroke="midnightblue" d="M108.5,-179.446C108.5,-170.73 108.5,-161.104 108.5,-152.964"/>
<polygon fill="midnightblue" stroke="midnightblue" points="112,-152.695 108.5,-142.695 105,-152.696 112,-152.695"/>
</g>
<!-- Node2 -->
<g id="node3" class="node"><title>Node2</title>
<g id="a_node3"><a xlink:title=" ">
<polygon fill="white" stroke="#bfbfbf" points="49,-67.5 49,-86.5 90,-86.5 90,-67.5 49,-67.5"/>
<text text-anchor="middle" x="69.5" y="-74.5" font-family="Helvetica,sans-Serif" font-size="10.00">string</text>
</a>
</g>
</g>
<!-- Node1&#45;&gt;Node2 -->
<g id="edge2" class="edge"><title>Node1&#45;&gt;Node2</title>
<path fill="none" stroke="midnightblue" d="M102.06,-123.083C96.5511,-115.455 88.4688,-104.264 81.735,-94.9408"/>
<polygon fill="midnightblue" stroke="midnightblue" points="84.5126,-92.8087 75.8202,-86.7511 78.8378,-96.9071 84.5126,-92.8087"/>
</g>
<!-- Node3 -->
<g id="node4" class="node"><title>Node3</title>
<g id="a_node4"><a xlink:href="_ivy_log_8hpp.html" target="_top" xlink:title=" ">
<polygon fill="white" stroke="black" points="108.5,-67.5 108.5,-86.5 186.5,-86.5 186.5,-67.5 108.5,-67.5"/>
<text text-anchor="middle" x="147.5" y="-74.5" font-family="Helvetica,sans-Serif" font-size="10.00">log/IvyLog.hpp</text>
</a>
</g>
</g>
<!-- Node1&#45;&gt;Node3 -->
<g id="edge3" class="edge"><title>Node1&#45;&gt;Node3</title>
<path fill="none" stroke="midnightblue" d="M114.94,-123.083C120.449,-115.455 128.531,-104.264 135.265,-94.9408"/>
<polygon fill="midnightblue" stroke="midnightblue" points="138.162,-96.9071 141.18,-86.7511 132.487,-92.8087 138.162,-96.9071"/>
</g>
<!-- Node4 -->
<g id="node5" class="node"><title>Node4</title>
<g id="a_node5"><a xlink:title=" ">
<polygon fill="white" stroke="#bfbfbf" points="0,-6 0,-25 85,-25 85,-6 0,-6"/>
<text text-anchor="middle" x="42.5" y="-13" font-family="Helvetica,sans-Serif" font-size="10.00">spdlog/spdlog.h</text>
</a>
</g>
</g>
<!-- Node3&#45;&gt;Node4 -->
<g id="edge4" class="edge"><title>Node3&#45;&gt;Node4</title>
<path fill="none" stroke="midnightblue" d="M132.456,-67.4751C115.225,-57.7106 86.7601,-41.5807 66.4661,-30.0808"/>
<polygon fill="midnightblue" stroke="midnightblue" points="67.9418,-26.8942 57.516,-25.0091 64.4907,-32.9843 67.9418,-26.8942"/>
</g>
<!-- Node5 -->
<g id="node6" class="node"><title>Node5</title>
<g id="a_node6"><a xlink:title=" ">
<polygon fill="white" stroke="#bfbfbf" points="103,-6 103,-25 192,-25 192,-6 103,-6"/>
<text text-anchor="middle" x="147.5" y="-13" font-family="Helvetica,sans-Serif" font-size="10.00">spdlog/fmt/ostr.h</text>
</a>
</g>
</g>
<!-- Node3&#45;&gt;Node5 -->
<g id="edge5" class="edge"><title>Node3&#45;&gt;Node5</title>
<path fill="none" stroke="midnightblue" d="M147.5,-67.4751C147.5,-59.0803 147.5,-45.9806 147.5,-35.1631"/>
<polygon fill="midnightblue" stroke="midnightblue" points="151,-35.0091 147.5,-25.0091 144,-35.0091 151,-35.0091"/>
</g>
<!-- Node6 -->
<g id="node7" class="node"><title>Node6</title>
<g id="a_node7"><a xlink:title=" ">
<polygon fill="white" stroke="#bfbfbf" points="210,-0.5 210,-30.5 311,-30.5 311,-0.5 210,-0.5"/>
<text text-anchor="start" x="218" y="-18.5" font-family="Helvetica,sans-Serif" font-size="10.00">spdlog/sinks/stdout</text>
<text text-anchor="middle" x="260.5" y="-7.5" font-family="Helvetica,sans-Serif" font-size="10.00">_color_sinks.h</text>
</a>
</g>
</g>
<!-- Node3&#45;&gt;Node6 -->
<g id="edge6" class="edge"><title>Node3&#45;&gt;Node6</title>
<path fill="none" stroke="midnightblue" d="M163.69,-67.4751C179.567,-59.1154 204.303,-46.0902 224.798,-35.2991"/>
<polygon fill="midnightblue" stroke="midnightblue" points="226.65,-38.279 233.868,-30.523 223.389,-32.0852 226.65,-38.279"/>
</g>
</g>
</svg>
