<?xml version="1.0" encoding="UTF-8" standalone="no"?>
<!DOCTYPE svg PUBLIC "-//W3C//DTD SVG 1.1//EN"
 "http://www.w3.org/Graphics/SVG/1.1/DTD/svg11.dtd">
<!-- Generated by graphviz version 2.38.0 (20140413.2041)
 -->
<!-- Title: C:/Users/osyri/Desktop/IVY&#45;Inventory&#45;Manager/src/ivy/locadora/jogo/Jogo.hpp Pages: 1 -->
<!--zoomable 540 -->
<svg id="main" version="1.1" xmlns="http://www.w3.org/2000/svg" xmlns:xlink="http://www.w3.org/1999/xlink" xml:space="preserve" onload="init(evt)">
<style type="text/css"><![CDATA[
.edge:hover path { stroke: red; }
.edge:hover polygon { stroke: red; fill: red; }
]]></style>
<script type="text/javascript"><![CDATA[
var edges = document.getElementsByTagName('g');
if (edges && edges.length) {
  for (var i=0;i<edges.length;i++) {
    if (edges[i].id.substr(0,4)=='edge') {
      edges[i].setAttribute('class','edge');
    }
  }
}
]]></script>
        <defs>
                <circle id="rim" cx="0" cy="0" r="7"/>
                <circle id="rim2" cx="0" cy="0" r="3.5"/>
                <g id="zoomPlus">
                        <use xlink:href="#rim" fill="#404040">
                                <set attributeName="fill" to="#808080" begin="zoomplus.mouseover" end="zoomplus.mouseout"/>
                        </use>
                        <path d="M-4,0h8M0,-4v8" fill="none" stroke="white" stroke-width="1.5" pointer-events="none"/>
                </g>
                <g id="zoomMin">
                        <use xlink:href="#rim" fill="#404040">
                                <set attributeName="fill" to="#808080" begin="zoomminus.mouseover" end="zoomminus.mouseout"/>
                        </use>
                        <path d="M-4,0h8" fill="none" stroke="white" stroke-width="1.5" pointer-events="none"/>
                </g>
                <g id="dirArrow">
                        <path fill="none" stroke="white" stroke-width="1.5" d="M0,-3.0v7 M-2.5,-0.5L0,-3.0L2.5,-0.5"/>
                </g>
               <g id="resetDef">
                       <use xlink:href="#rim2" fill="#404040">
                               <set attributeName="fill" to="#808080" begin="reset.mouseover" end="reset.mouseout"/>
                       </use>
               </g>
        </defs>

<script type="text/javascript">
var viewWidth = 904;
var viewHeight = 540;
var sectionId = 'dynsection-1';
</script>
<script xlink:href="svgpan.js"/>
<svg id="graph" class="graph">
<g id="viewport">
<title>C:/Users/osyri/Desktop/IVY&#45;Inventory&#45;Manager/src/ivy/locadora/jogo/Jogo.hpp</title>
<polygon fill="white" stroke="none" points="-4,4 -4,-536 899.606,-536 899.606,4 -4,4"/>
<!-- Node6 -->
<g id="node1" class="node"><title>Node6</title>
<g id="a_node1"><a xlink:title=" ">
<polygon fill="#bfbfbf" stroke="black" points="318.106,-479.5 318.106,-531.5 436.106,-531.5 436.106,-479.5 318.106,-479.5"/>
<text text-anchor="start" x="326.106" y="-519.5" font-family="Helvetica,sans-Serif" font-size="10.00">C:/Users/osyri/Desktop</text>
<text text-anchor="start" x="326.106" y="-508.5" font-family="Helvetica,sans-Serif" font-size="10.00">/IVY&#45;Inventory&#45;Manager</text>
<text text-anchor="start" x="326.106" y="-497.5" font-family="Helvetica,sans-Serif" font-size="10.00">/src/ivy/locadora/jogo</text>
<text text-anchor="middle" x="377.106" y="-486.5" font-family="Helvetica,sans-Serif" font-size="10.00">/Jogo.hpp</text>
</a>
</g>
</g>
<!-- Node7 -->
<g id="node2" class="node"><title>Node7</title>
<g id="a_node2"><a xlink:href="_vetor_8hpp.html" target="_top" xlink:title=" ">
<polygon fill="white" stroke="black" points="275.106,-396 275.106,-437 393.106,-437 393.106,-396 275.106,-396"/>
<text text-anchor="start" x="283.106" y="-425" font-family="Helvetica,sans-Serif" font-size="10.00">C:/Users/osyri/Desktop</text>
<text text-anchor="start" x="283.106" y="-414" font-family="Helvetica,sans-Serif" font-size="10.00">/IVY&#45;Inventory&#45;Manager</text>
<text text-anchor="middle" x="334.106" y="-403" font-family="Helvetica,sans-Serif" font-size="10.00">/src/ivy/vetor/Vetor.hpp</text>
</a>
</g>
</g>
<!-- Node6&#45;&gt;Node7 -->
<g id="edge1" class="edge"><title>Node6&#45;&gt;Node7</title>
<path fill="none" stroke="midnightblue" d="M360.138,-470.169C354.584,-458.933 348.608,-446.842 343.784,-437.082"/>
<polygon fill="midnightblue" stroke="midnightblue" points="357.1,-471.922 364.668,-479.336 363.375,-468.82 357.1,-471.922"/>
</g>
<!-- Node8 -->
<g id="node3" class="node"><title>Node8</title>
<g id="a_node3"><a xlink:href="ivy_8hpp.html" target="_top" xlink:title=" ">
<polygon fill="white" stroke="black" points="391.106,-78.5 391.106,-119.5 509.106,-119.5 509.106,-78.5 391.106,-78.5"/>
<text text-anchor="start" x="399.106" y="-107.5" font-family="Helvetica,sans-Serif" font-size="10.00">C:/Users/osyri/Desktop</text>
<text text-anchor="start" x="399.106" y="-96.5" font-family="Helvetica,sans-Serif" font-size="10.00">/IVY&#45;Inventory&#45;Manager</text>
<text text-anchor="middle" x="450.106" y="-85.5" font-family="Helvetica,sans-Serif" font-size="10.00">/src/ivy/ivy.hpp</text>
</a>
</g>
</g>
<!-- Node6&#45;&gt;Node8 -->
<g id="edge20" class="edge"><title>Node6&#45;&gt;Node8</title>
<path fill="none" stroke="midnightblue" d="M307.533,-503.173C198.604,-496.997 0.105808,-467.437 0.105808,-334 0.105808,-334 0.105808,-334 0.105808,-254 0.105808,-207.898 -1.58712,-185.18 34.1058,-156 47.7699,-144.829 279.036,-118.491 390.699,-106.342"/>
<polygon fill="midnightblue" stroke="midnightblue" points="307.618,-506.682 317.785,-503.7 307.978,-499.691 307.618,-506.682"/>
</g>
<!-- Node16 -->
<g id="node11" class="node"><title>Node16</title>
<g id="a_node11"><a xlink:href="_locadora_8hpp.html" target="_top" xlink:title=" ">
<polygon fill="white" stroke="black" points="455.606,-312.5 455.606,-353.5 604.606,-353.5 604.606,-312.5 455.606,-312.5"/>
<text text-anchor="start" x="463.606" y="-341.5" font-family="Helvetica,sans-Serif" font-size="10.00">C:/Users/osyri/Desktop</text>
<text text-anchor="start" x="463.606" y="-330.5" font-family="Helvetica,sans-Serif" font-size="10.00">/IVY&#45;Inventory&#45;Manager</text>
<text text-anchor="middle" x="530.106" y="-319.5" font-family="Helvetica,sans-Serif" font-size="10.00">/src/ivy/locadora/Locadora.hpp</text>
</a>
</g>
</g>
<!-- Node6&#45;&gt;Node16 -->
<g id="edge21" class="edge"><title>Node6&#45;&gt;Node16</title>
<path fill="none" stroke="midnightblue" d="M390.444,-470.128C401.162,-445.711 418.06,-413.26 440.106,-390 454.031,-375.308 472.606,-362.902 489.264,-353.531"/>
<polygon fill="midnightblue" stroke="midnightblue" points="387.199,-468.815 386.504,-479.387 393.64,-471.556 387.199,-468.815"/>
</g>
<!-- Node21 -->
<g id="node16" class="node"><title>Node21</title>
<g id="a_node16"><a xlink:href="_jogo_8cpp.html" target="_top" xlink:title=" ">
<polygon fill="white" stroke="black" points="449.106,-390.5 449.106,-442.5 567.106,-442.5 567.106,-390.5 449.106,-390.5"/>
<text text-anchor="start" x="457.106" y="-430.5" font-family="Helvetica,sans-Serif" font-size="10.00">C:/Users/osyri/Desktop</text>
<text text-anchor="start" x="457.106" y="-419.5" font-family="Helvetica,sans-Serif" font-size="10.00">/IVY&#45;Inventory&#45;Manager</text>
<text text-anchor="start" x="457.106" y="-408.5" font-family="Helvetica,sans-Serif" font-size="10.00">/src/ivy/locadora/jogo</text>
<text text-anchor="middle" x="508.106" y="-397.5" font-family="Helvetica,sans-Serif" font-size="10.00">/Jogo.cpp</text>
</a>
</g>
</g>
<!-- Node6&#45;&gt;Node21 -->
<g id="edge22" class="edge"><title>Node6&#45;&gt;Node21</title>
<path fill="none" stroke="midnightblue" d="M423.352,-473.787C438.722,-463.579 455.645,-452.341 470.3,-442.607"/>
<polygon fill="midnightblue" stroke="midnightblue" points="421.39,-470.888 414.996,-479.336 425.263,-476.719 421.39,-470.888"/>
</g>
<!-- Node7&#45;&gt;Node8 -->
<g id="edge2" class="edge"><title>Node7&#45;&gt;Node8</title>
<path fill="none" stroke="midnightblue" d="M273.31,-392.053C168.993,-348.518 -25.2874,-250.966 57.1058,-156 67.9453,-143.506 283.588,-118.253 390.732,-106.407"/>
<polygon fill="midnightblue" stroke="midnightblue" points="272.227,-395.392 282.806,-395.97 274.897,-388.921 272.227,-395.392"/>
</g>
<!-- Node10 -->
<g id="node5" class="node"><title>Node10</title>
<g id="a_node5"><a xlink:href="_ivy_manager_8hpp.html" target="_top" xlink:title=" ">
<polygon fill="white" stroke="black" points="246.606,-234.5 246.606,-275.5 421.606,-275.5 421.606,-234.5 246.606,-234.5"/>
<text text-anchor="start" x="254.606" y="-263.5" font-family="Helvetica,sans-Serif" font-size="10.00">C:/Users/osyri/Desktop</text>
<text text-anchor="start" x="254.606" y="-252.5" font-family="Helvetica,sans-Serif" font-size="10.00">/IVY&#45;Inventory&#45;Manager</text>
<text text-anchor="middle" x="334.106" y="-241.5" font-family="Helvetica,sans-Serif" font-size="10.00">/src/ivy/ivy_manager/IvyManager.hpp</text>
</a>
</g>
</g>
<!-- Node7&#45;&gt;Node10 -->
<g id="edge4" class="edge"><title>Node7&#45;&gt;Node10</title>
<path fill="none" stroke="midnightblue" d="M320.18,-386.364C316.085,-376.342 312.157,-364.897 310.106,-354 306.653,-335.655 306.353,-330.285 310.106,-312 312.7,-299.359 318.273,-286.048 323.395,-275.577"/>
<polygon fill="midnightblue" stroke="midnightblue" points="317.092,-388.042 324.266,-395.838 323.519,-385.27 317.092,-388.042"/>
</g>
<!-- Node7&#45;&gt;Node16 -->
<g id="edge12" class="edge"><title>Node7&#45;&gt;Node16</title>
<path fill="none" stroke="midnightblue" d="M390.362,-392.108C419.756,-379.885 455.312,-365.1 483.203,-353.503"/>
<polygon fill="midnightblue" stroke="midnightblue" points="388.942,-388.907 381.053,-395.979 391.63,-395.371 388.942,-388.907"/>
</g>
<!-- Node20 -->
<g id="node15" class="node"><title>Node20</title>
<g id="a_node15"><a xlink:href="_vetor_8cpp.html" target="_top" xlink:title=" ">
<polygon fill="white" stroke="black" points="319.106,-312.5 319.106,-353.5 437.106,-353.5 437.106,-312.5 319.106,-312.5"/>
<text text-anchor="start" x="327.106" y="-341.5" font-family="Helvetica,sans-Serif" font-size="10.00">C:/Users/osyri/Desktop</text>
<text text-anchor="start" x="327.106" y="-330.5" font-family="Helvetica,sans-Serif" font-size="10.00">/IVY&#45;Inventory&#45;Manager</text>
<text text-anchor="middle" x="378.106" y="-319.5" font-family="Helvetica,sans-Serif" font-size="10.00">/src/ivy/vetor/Vetor.cpp</text>
</a>
</g>
</g>
<!-- Node7&#45;&gt;Node20 -->
<g id="edge19" class="edge"><title>Node7&#45;&gt;Node20</title>
<path fill="none" stroke="midnightblue" d="M349.549,-386.894C355.504,-375.865 362.163,-363.53 367.553,-353.547"/>
<polygon fill="midnightblue" stroke="midnightblue" points="346.428,-385.309 344.757,-395.771 352.588,-388.634 346.428,-385.309"/>
</g>
<!-- Node9 -->
<g id="node4" class="node"><title>Node9</title>
<g id="a_node4"><a xlink:href="main_8cpp.html" target="_top" xlink:title=" ">
<polygon fill="white" stroke="black" points="391.106,-0.5 391.106,-41.5 509.106,-41.5 509.106,-0.5 391.106,-0.5"/>
<text text-anchor="start" x="399.106" y="-29.5" font-family="Helvetica,sans-Serif" font-size="10.00">C:/Users/osyri/Desktop</text>
<text text-anchor="start" x="399.106" y="-18.5" font-family="Helvetica,sans-Serif" font-size="10.00">/IVY&#45;Inventory&#45;Manager</text>
<text text-anchor="middle" x="450.106" y="-7.5" font-family="Helvetica,sans-Serif" font-size="10.00">/src/main.cpp</text>
</a>
</g>
</g>
<!-- Node8&#45;&gt;Node9 -->
<g id="edge3" class="edge"><title>Node8&#45;&gt;Node9</title>
<path fill="none" stroke="midnightblue" d="M450.106,-68.2965C450.106,-59.3009 450.106,-49.6532 450.106,-41.5056"/>
<polygon fill="midnightblue" stroke="midnightblue" points="446.606,-68.4281 450.106,-78.4281 453.606,-68.4281 446.606,-68.4281"/>
</g>
<!-- Node10&#45;&gt;Node8 -->
<g id="edge10" class="edge"><title>Node10&#45;&gt;Node8</title>
<path fill="none" stroke="midnightblue" d="M394.074,-229.386C407.714,-221.233 420.883,-210.863 430.106,-198 446.8,-174.715 450.283,-140.734 450.649,-119.519"/>
<polygon fill="midnightblue" stroke="midnightblue" points="392.092,-226.485 385.08,-234.428 395.514,-232.591 392.092,-226.485"/>
</g>
<!-- Node11 -->
<g id="node6" class="node"><title>Node11</title>
<g id="a_node6"><a xlink:href="_interface_c_l_i_8hpp.html" target="_top" xlink:title=" ">
<polygon fill="white" stroke="black" points="516.106,-156.5 516.106,-197.5 676.106,-197.5 676.106,-156.5 516.106,-156.5"/>
<text text-anchor="start" x="524.106" y="-185.5" font-family="Helvetica,sans-Serif" font-size="10.00">C:/Users/osyri/Desktop</text>
<text text-anchor="start" x="524.106" y="-174.5" font-family="Helvetica,sans-Serif" font-size="10.00">/IVY&#45;Inventory&#45;Manager</text>
<text text-anchor="middle" x="596.106" y="-163.5" font-family="Helvetica,sans-Serif" font-size="10.00">/src/ivy/interface/InterfaceCLI.hpp</text>
</a>
</g>
</g>
<!-- Node10&#45;&gt;Node11 -->
<g id="edge5" class="edge"><title>Node10&#45;&gt;Node11</title>
<path fill="none" stroke="midnightblue" d="M411.394,-231.58C448.681,-220.764 492.99,-207.911 528.863,-197.506"/>
<polygon fill="midnightblue" stroke="midnightblue" points="410.206,-228.281 401.577,-234.428 412.157,-235.004 410.206,-228.281"/>
</g>
<!-- Node13 -->
<g id="node8" class="node"><title>Node13</title>
<g id="a_node8"><a xlink:href="_interface_g_u_i_8hpp.html" target="_top" xlink:title=" ">
<polygon fill="white" stroke="black" points="66.1058,-156.5 66.1058,-197.5 228.106,-197.5 228.106,-156.5 66.1058,-156.5"/>
<text text-anchor="start" x="74.1058" y="-185.5" font-family="Helvetica,sans-Serif" font-size="10.00">C:/Users/osyri/Desktop</text>
<text text-anchor="start" x="74.1058" y="-174.5" font-family="Helvetica,sans-Serif" font-size="10.00">/IVY&#45;Inventory&#45;Manager</text>
<text text-anchor="middle" x="147.106" y="-163.5" font-family="Helvetica,sans-Serif" font-size="10.00">/src/ivy/interface/InterfaceGUI.hpp</text>
</a>
</g>
</g>
<!-- Node10&#45;&gt;Node13 -->
<g id="edge8" class="edge"><title>Node10&#45;&gt;Node13</title>
<path fill="none" stroke="midnightblue" d="M276.551,-230.609C250.45,-220.001 219.941,-207.602 195.1,-197.506"/>
<polygon fill="midnightblue" stroke="midnightblue" points="275.367,-233.905 285.949,-234.428 278.002,-227.421 275.367,-233.905"/>
</g>
<!-- Node15 -->
<g id="node10" class="node"><title>Node15</title>
<g id="a_node10"><a xlink:href="_ivy_manager_8cpp.html" target="_top" xlink:title=" ">
<polygon fill="white" stroke="black" points="246.606,-156.5 246.606,-197.5 421.606,-197.5 421.606,-156.5 246.606,-156.5"/>
<text text-anchor="start" x="254.606" y="-185.5" font-family="Helvetica,sans-Serif" font-size="10.00">C:/Users/osyri/Desktop</text>
<text text-anchor="start" x="254.606" y="-174.5" font-family="Helvetica,sans-Serif" font-size="10.00">/IVY&#45;Inventory&#45;Manager</text>
<text text-anchor="middle" x="334.106" y="-163.5" font-family="Helvetica,sans-Serif" font-size="10.00">/src/ivy/ivy_manager/IvyManager.cpp</text>
</a>
</g>
</g>
<!-- Node10&#45;&gt;Node15 -->
<g id="edge11" class="edge"><title>Node10&#45;&gt;Node15</title>
<path fill="none" stroke="midnightblue" d="M334.106,-224.297C334.106,-215.301 334.106,-205.653 334.106,-197.506"/>
<polygon fill="midnightblue" stroke="midnightblue" points="330.606,-224.428 334.106,-234.428 337.606,-224.428 330.606,-224.428"/>
</g>
<!-- Node11&#45;&gt;Node8 -->
<g id="edge7" class="edge"><title>Node11&#45;&gt;Node8</title>
<path fill="none" stroke="midnightblue" d="M549.554,-151.768C529.541,-141.35 506.461,-129.336 487.577,-119.506"/>
<polygon fill="midnightblue" stroke="midnightblue" points="548.021,-154.915 558.507,-156.428 551.253,-148.706 548.021,-154.915"/>
</g>
<!-- Node12 -->
<g id="node7" class="node"><title>Node12</title>
<g id="a_node7"><a xlink:href="_interface_c_l_i_8cpp.html" target="_top" xlink:title=" ">
<polygon fill="white" stroke="black" points="527.106,-78.5 527.106,-119.5 687.106,-119.5 687.106,-78.5 527.106,-78.5"/>
<text text-anchor="start" x="535.106" y="-107.5" font-family="Helvetica,sans-Serif" font-size="10.00">C:/Users/osyri/Desktop</text>
<text text-anchor="start" x="535.106" y="-96.5" font-family="Helvetica,sans-Serif" font-size="10.00">/IVY&#45;Inventory&#45;Manager</text>
<text text-anchor="middle" x="607.106" y="-85.5" font-family="Helvetica,sans-Serif" font-size="10.00">/src/ivy/interface/InterfaceCLI.cpp</text>
</a>
</g>
</g>
<!-- Node11&#45;&gt;Node12 -->
<g id="edge6" class="edge"><title>Node11&#45;&gt;Node12</title>
<path fill="none" stroke="midnightblue" d="M600.405,-146.297C601.707,-137.301 603.103,-127.653 604.283,-119.506"/>
<polygon fill="midnightblue" stroke="midnightblue" points="596.907,-146.03 598.939,-156.428 603.835,-147.033 596.907,-146.03"/>
</g>
<!-- Node14 -->
<g id="node9" class="node"><title>Node14</title>
<g id="a_node9"><a xlink:href="_interface_g_u_i_8cpp.html" target="_top" xlink:title=" ">
<polygon fill="white" stroke="black" points="66.1058,-78.5 66.1058,-119.5 228.106,-119.5 228.106,-78.5 66.1058,-78.5"/>
<text text-anchor="start" x="74.1058" y="-107.5" font-family="Helvetica,sans-Serif" font-size="10.00">C:/Users/osyri/Desktop</text>
<text text-anchor="start" x="74.1058" y="-96.5" font-family="Helvetica,sans-Serif" font-size="10.00">/IVY&#45;Inventory&#45;Manager</text>
<text text-anchor="middle" x="147.106" y="-85.5" font-family="Helvetica,sans-Serif" font-size="10.00">/src/ivy/interface/InterfaceGUI.cpp</text>
</a>
</g>
</g>
<!-- Node13&#45;&gt;Node14 -->
<g id="edge9" class="edge"><title>Node13&#45;&gt;Node14</title>
<path fill="none" stroke="midnightblue" d="M147.106,-146.297C147.106,-137.301 147.106,-127.653 147.106,-119.506"/>
<polygon fill="midnightblue" stroke="midnightblue" points="143.606,-146.428 147.106,-156.428 150.606,-146.428 143.606,-146.428"/>
</g>
<!-- Node16&#45;&gt;Node8 -->
<g id="edge13" class="edge"><title>Node16&#45;&gt;Node8</title>
<path fill="none" stroke="midnightblue" d="M517.754,-303.127C514.18,-294.459 510.366,-284.89 507.106,-276 486.54,-219.912 465.769,-152.418 455.947,-119.7"/>
<polygon fill="midnightblue" stroke="midnightblue" points="514.563,-304.568 521.646,-312.448 521.022,-301.871 514.563,-304.568"/>
</g>
<!-- Node17 -->
<g id="node12" class="node"><title>Node17</title>
<g id="a_node12"><a xlink:href="_locadora_c_l_i_8hpp.html" target="_top" xlink:title=" ">
<polygon fill="white" stroke="black" points="516.606,-234.5 516.606,-275.5 679.606,-275.5 679.606,-234.5 516.606,-234.5"/>
<text text-anchor="start" x="524.606" y="-263.5" font-family="Helvetica,sans-Serif" font-size="10.00">C:/Users/osyri/Desktop</text>
<text text-anchor="start" x="524.606" y="-252.5" font-family="Helvetica,sans-Serif" font-size="10.00">/IVY&#45;Inventory&#45;Manager</text>
<text text-anchor="middle" x="598.106" y="-241.5" font-family="Helvetica,sans-Serif" font-size="10.00">/src/ivy/locadora/LocadoraCLI.hpp</text>
</a>
</g>
</g>
<!-- Node16&#45;&gt;Node17 -->
<g id="edge14" class="edge"><title>Node16&#45;&gt;Node17</title>
<path fill="none" stroke="midnightblue" d="M554.339,-304.916C563.03,-295.203 572.65,-284.45 580.653,-275.506"/>
<polygon fill="midnightblue" stroke="midnightblue" points="551.677,-302.642 547.617,-312.428 556.894,-307.309 551.677,-302.642"/>
</g>
<!-- Node19 -->
<g id="node14" class="node"><title>Node19</title>
<g id="a_node14"><a xlink:href="_locadora_8cpp.html" target="_top" xlink:title=" ">
<polygon fill="white" stroke="black" points="697.606,-234.5 697.606,-275.5 846.606,-275.5 846.606,-234.5 697.606,-234.5"/>
<text text-anchor="start" x="705.606" y="-263.5" font-family="Helvetica,sans-Serif" font-size="10.00">C:/Users/osyri/Desktop</text>
<text text-anchor="start" x="705.606" y="-252.5" font-family="Helvetica,sans-Serif" font-size="10.00">/IVY&#45;Inventory&#45;Manager</text>
<text text-anchor="middle" x="772.106" y="-241.5" font-family="Helvetica,sans-Serif" font-size="10.00">/src/ivy/locadora/Locadora.cpp</text>
</a>
</g>
</g>
<!-- Node16&#45;&gt;Node19 -->
<g id="edge18" class="edge"><title>Node16&#45;&gt;Node19</title>
<path fill="none" stroke="midnightblue" d="M602.375,-309.304C636.631,-298.546 677.143,-285.823 709.996,-275.506"/>
<polygon fill="midnightblue" stroke="midnightblue" points="600.919,-306.093 592.427,-312.428 603.016,-312.771 600.919,-306.093"/>
</g>
<!-- Node17&#45;&gt;Node8 -->
<g id="edge16" class="edge"><title>Node17&#45;&gt;Node8</title>
<path fill="none" stroke="midnightblue" d="M655.319,-228.774C667.239,-220.728 678.252,-210.562 685.106,-198 694.046,-181.613 696.832,-170.524 685.106,-156 637.408,-96.9247 591.688,-138.725 518.106,-120 515.244,-119.272 512.321,-118.504 509.373,-117.711"/>
<polygon fill="midnightblue" stroke="midnightblue" points="653.157,-225.998 646.526,-234.262 656.863,-231.937 653.157,-225.998"/>
</g>
<!-- Node17&#45;&gt;Node11 -->
<g id="edge15" class="edge"><title>Node17&#45;&gt;Node11</title>
<path fill="none" stroke="midnightblue" d="M597.324,-224.297C597.087,-215.301 596.834,-205.653 596.619,-197.506"/>
<polygon fill="midnightblue" stroke="midnightblue" points="593.829,-224.524 597.591,-234.428 600.826,-224.339 593.829,-224.524"/>
</g>
<!-- Node18 -->
<g id="node13" class="node"><title>Node18</title>
<g id="a_node13"><a xlink:href="_locadora_c_l_i_8cpp.html" target="_top" xlink:title=" ">
<polygon fill="white" stroke="black" points="732.606,-156.5 732.606,-197.5 895.606,-197.5 895.606,-156.5 732.606,-156.5"/>
<text text-anchor="start" x="740.606" y="-185.5" font-family="Helvetica,sans-Serif" font-size="10.00">C:/Users/osyri/Desktop</text>
<text text-anchor="start" x="740.606" y="-174.5" font-family="Helvetica,sans-Serif" font-size="10.00">/IVY&#45;Inventory&#45;Manager</text>
<text text-anchor="middle" x="814.106" y="-163.5" font-family="Helvetica,sans-Serif" font-size="10.00">/src/ivy/locadora/LocadoraCLI.cpp</text>
</a>
</g>
</g>
<!-- Node17&#45;&gt;Node18 -->
<g id="edge17" class="edge"><title>Node17&#45;&gt;Node18</title>
<path fill="none" stroke="midnightblue" d="M663.399,-231.026C693.807,-220.328 729.598,-207.734 758.669,-197.506"/>
<polygon fill="midnightblue" stroke="midnightblue" points="662.003,-227.807 653.731,-234.428 664.326,-234.411 662.003,-227.807"/>
</g>
</g>
</svg>
        <g id="navigator" transform="translate(0 0)" fill="#404254">
                <rect fill="#f2f5e9" fill-opacity="0.5" stroke="#606060" stroke-width=".5" x="0" y="0" width="60" height="60"/>
                <use id="zoomplus" xlink:href="#zoomPlus" x="17" y="9" onmousedown="handleZoom(evt,'in')"/>
                <use id="zoomminus" xlink:href="#zoomMin" x="42" y="9" onmousedown="handleZoom(evt,'out')"/>
                <use id="reset" xlink:href="#resetDef" x="30" y="36" onmousedown="handleReset()"/>
                <g id="arrowUp" xlink:href="#dirArrow" transform="translate(30 24)" onmousedown="handlePan(0,-1)">
                  <use xlink:href="#rim" fill="#404040">
                        <set attributeName="fill" to="#808080" begin="arrowUp.mouseover" end="arrowUp.mouseout"/>
                  </use>
                  <path fill="none" stroke="white" stroke-width="1.5" d="M0,-3.0v7 M-2.5,-0.5L0,-3.0L2.5,-0.5"/>
                </g>
                <g id="arrowRight" xlink:href="#dirArrow" transform="rotate(90) translate(36 -43)" onmousedown="handlePan(1,0)">
                  <use xlink:href="#rim" fill="#404040">
                        <set attributeName="fill" to="#808080" begin="arrowRight.mouseover" end="arrowRight.mouseout"/>
                  </use>
                  <path fill="none" stroke="white" stroke-width="1.5" d="M0,-3.0v7 M-2.5,-0.5L0,-3.0L2.5,-0.5"/>
                </g>
                <g id="arrowDown" xlink:href="#dirArrow" transform="rotate(180) translate(-30 -48)" onmousedown="handlePan(0,1)">
                  <use xlink:href="#rim" fill="#404040">
                        <set attributeName="fill" to="#808080" begin="arrowDown.mouseover" end="arrowDown.mouseout"/>
                  </use>
                  <path fill="none" stroke="white" stroke-width="1.5" d="M0,-3.0v7 M-2.5,-0.5L0,-3.0L2.5,-0.5"/>
                </g>
                <g id="arrowLeft" xlink:href="#dirArrow" transform="rotate(270) translate(-36 17)" onmousedown="handlePan(-1,0)">
                  <use xlink:href="#rim" fill="#404040">
                        <set attributeName="fill" to="#808080" begin="arrowLeft.mouseover" end="arrowLeft.mouseout"/>
                  </use>
                  <path fill="none" stroke="white" stroke-width="1.5" d="M0,-3.0v7 M-2.5,-0.5L0,-3.0L2.5,-0.5"/>
                </g>
        </g>
        <svg viewBox="0 0 15 15" width="100%" height="30px" preserveAspectRatio="xMaxYMin meet">
         <g id="arrow_out" transform="scale(0.3 0.3)">
          <a xlink:href="_jogo_8hpp__dep__incl_org.svg" target="_base">
           <rect id="button" ry="5" rx="5" y="6" x="6" height="38" width="38"
                fill="#f2f5e9" fill-opacity="0.5" stroke="#606060" stroke-width="1.0"/>
           <path id="arrow"
             d="M 11.500037,31.436501 C 11.940474,20.09759 22.043105,11.32322 32.158766,21.979434 L 37.068811,17.246167 C 37.068811,17.246167 37.088388,32 37.088388,32 L 22.160133,31.978069 C 22.160133,31.978069 26.997745,27.140456 26.997745,27.140456 C 18.528582,18.264221 13.291696,25.230495 11.500037,31.436501 z"
             style="fill:#404040;"/>
          </a>
         </g>
        </svg>
</svg>
