<?xml version="1.0" encoding="UTF-8" standalone="no"?>
<!DOCTYPE svg PUBLIC "-//W3C//DTD SVG 1.1//EN"
 "http://www.w3.org/Graphics/SVG/1.1/DTD/svg11.dtd">
<!-- Generated by graphviz version 2.38.0 (20140413.2041)
 -->
<!-- Title: C:/Users/osyri/Desktop/IVY&#45;Inventory&#45;Manager/src/ivy/locadora/Locadora.hpp Pages: 1 -->
<svg width="319pt" height="285pt"
 viewBox="0.00 0.00 319.00 285.00" xmlns="http://www.w3.org/2000/svg" xmlns:xlink="http://www.w3.org/1999/xlink">
<g id="graph0" class="graph" transform="scale(1 1) rotate(0) translate(4 281)">
<title>C:/Users/osyri/Desktop/IVY&#45;Inventory&#45;Manager/src/ivy/locadora/Locadora.hpp</title>
<polygon fill="white" stroke="none" points="-4,4 -4,-281 315,-281 315,4 -4,4"/>
<!-- Node0 -->
<g id="node1" class="node"><title>Node0</title>
<g id="a_node1"><a xlink:title=" ">
<polygon fill="#bfbfbf" stroke="black" points="84,-235.5 84,-276.5 233,-276.5 233,-235.5 84,-235.5"/>
<text text-anchor="start" x="92" y="-264.5" font-family="Helvetica,sans-Serif" font-size="10.00">C:/Users/osyri/Desktop</text>
<text text-anchor="start" x="92" y="-253.5" font-family="Helvetica,sans-Serif" font-size="10.00">/IVY&#45;Inventory&#45;Manager</text>
<text text-anchor="middle" x="158.5" y="-242.5" font-family="Helvetica,sans-Serif" font-size="10.00">/src/ivy/locadora/Locadora.hpp</text>
</a>
</g>
</g>
<!-- Node1 -->
<g id="node2" class="node"><title>Node1</title>
<g id="a_node2"><a xlink:href="_jogo_8hpp.html" target="_top" xlink:title=" ">
<polygon fill="white" stroke="black" points="19,-123.5 19,-142.5 96,-142.5 96,-123.5 19,-123.5"/>
<text text-anchor="middle" x="57.5" y="-130.5" font-family="Helvetica,sans-Serif" font-size="10.00">jogo/Jogo.hpp</text>
</a>
</g>
</g>
<!-- Node0&#45;&gt;Node1 -->
<g id="edge1" class="edge"><title>Node0&#45;&gt;Node1</title>
<path fill="none" stroke="midnightblue" d="M141.499,-235.404C132.264,-224.701 120.684,-211.182 110.5,-199 96.993,-182.844 81.8319,-164.197 71.1965,-151.03"/>
<polygon fill="midnightblue" stroke="midnightblue" points="73.6336,-148.476 64.6326,-142.888 68.1839,-152.87 73.6336,-148.476"/>
</g>
<!-- Node3 -->
<g id="node4" class="node"><title>Node3</title>
<g id="a_node4"><a xlink:href="_ivy_log_8hpp.html" target="_top" xlink:title=" ">
<polygon fill="white" stroke="black" points="108.5,-67.5 108.5,-86.5 186.5,-86.5 186.5,-67.5 108.5,-67.5"/>
<text text-anchor="middle" x="147.5" y="-74.5" font-family="Helvetica,sans-Serif" font-size="10.00">log/IvyLog.hpp</text>
</a>
</g>
</g>
<!-- Node0&#45;&gt;Node3 -->
<g id="edge13" class="edge"><title>Node0&#45;&gt;Node3</title>
<path fill="none" stroke="midnightblue" d="M151.869,-235.299C148.641,-224.681 145.115,-211.274 143.5,-199 138.763,-163.004 142.239,-120.496 145.002,-96.6512"/>
<polygon fill="midnightblue" stroke="midnightblue" points="148.497,-96.9118 146.262,-86.5554 141.551,-96.045 148.497,-96.9118"/>
</g>
<!-- Node7 -->
<g id="node8" class="node"><title>Node7</title>
<g id="a_node8"><a xlink:href="_vetor_8hpp.html" target="_top" xlink:title=" ">
<polygon fill="white" stroke="black" points="152.5,-179.5 152.5,-198.5 234.5,-198.5 234.5,-179.5 152.5,-179.5"/>
<text text-anchor="middle" x="193.5" y="-186.5" font-family="Helvetica,sans-Serif" font-size="10.00">vetor/Vetor.hpp</text>
</a>
</g>
</g>
<!-- Node0&#45;&gt;Node7 -->
<g id="edge7" class="edge"><title>Node0&#45;&gt;Node7</title>
<path fill="none" stroke="midnightblue" d="M169.001,-235.498C173.8,-226.586 179.439,-216.113 184.097,-207.464"/>
<polygon fill="midnightblue" stroke="midnightblue" points="187.182,-209.117 188.841,-198.652 181.018,-205.798 187.182,-209.117"/>
</g>
<!-- Node10 -->
<g id="node11" class="node"><title>Node10</title>
<g id="a_node11"><a xlink:title=" ">
<polygon fill="white" stroke="#bfbfbf" points="252.5,-179.5 252.5,-198.5 306.5,-198.5 306.5,-179.5 252.5,-179.5"/>
<text text-anchor="middle" x="279.5" y="-186.5" font-family="Helvetica,sans-Serif" font-size="10.00">iostream</text>
</a>
</g>
</g>
<!-- Node0&#45;&gt;Node10 -->
<g id="edge14" class="edge"><title>Node0&#45;&gt;Node10</title>
<path fill="none" stroke="midnightblue" d="M194.804,-235.498C214.069,-225.149 237.253,-212.695 254.491,-203.435"/>
<polygon fill="midnightblue" stroke="midnightblue" points="256.24,-206.468 263.393,-198.652 252.927,-200.302 256.24,-206.468"/>
</g>
<!-- Node2 -->
<g id="node3" class="node"><title>Node2</title>
<g id="a_node3"><a xlink:title=" ">
<polygon fill="white" stroke="#bfbfbf" points="37,-67.5 37,-86.5 78,-86.5 78,-67.5 37,-67.5"/>
<text text-anchor="middle" x="57.5" y="-74.5" font-family="Helvetica,sans-Serif" font-size="10.00">string</text>
</a>
</g>
</g>
<!-- Node1&#45;&gt;Node2 -->
<g id="edge2" class="edge"><title>Node1&#45;&gt;Node2</title>
<path fill="none" stroke="midnightblue" d="M57.5,-123.083C57.5,-116.006 57.5,-105.861 57.5,-96.9865"/>
<polygon fill="midnightblue" stroke="midnightblue" points="61.0001,-96.751 57.5,-86.7511 54.0001,-96.7511 61.0001,-96.751"/>
</g>
<!-- Node1&#45;&gt;Node3 -->
<g id="edge3" class="edge"><title>Node1&#45;&gt;Node3</title>
<path fill="none" stroke="midnightblue" d="M71.9601,-123.324C85.9996,-114.9 107.548,-101.971 124.043,-92.0741"/>
<polygon fill="midnightblue" stroke="midnightblue" points="126.302,-94.8007 133.076,-86.6545 122.7,-88.7983 126.302,-94.8007"/>
</g>
<!-- Node4 -->
<g id="node5" class="node"><title>Node4</title>
<g id="a_node5"><a xlink:title=" ">
<polygon fill="white" stroke="#bfbfbf" points="0,-6 0,-25 85,-25 85,-6 0,-6"/>
<text text-anchor="middle" x="42.5" y="-13" font-family="Helvetica,sans-Serif" font-size="10.00">spdlog/spdlog.h</text>
</a>
</g>
</g>
<!-- Node3&#45;&gt;Node4 -->
<g id="edge4" class="edge"><title>Node3&#45;&gt;Node4</title>
<path fill="none" stroke="midnightblue" d="M132.456,-67.4751C115.225,-57.7106 86.7601,-41.5807 66.4661,-30.0808"/>
<polygon fill="midnightblue" stroke="midnightblue" points="67.9418,-26.8942 57.516,-25.0091 64.4907,-32.9843 67.9418,-26.8942"/>
</g>
<!-- Node5 -->
<g id="node6" class="node"><title>Node5</title>
<g id="a_node6"><a xlink:title=" ">
<polygon fill="white" stroke="#bfbfbf" points="103,-6 103,-25 192,-25 192,-6 103,-6"/>
<text text-anchor="middle" x="147.5" y="-13" font-family="Helvetica,sans-Serif" font-size="10.00">spdlog/fmt/ostr.h</text>
</a>
</g>
</g>
<!-- Node3&#45;&gt;Node5 -->
<g id="edge5" class="edge"><title>Node3&#45;&gt;Node5</title>
<path fill="none" stroke="midnightblue" d="M147.5,-67.4751C147.5,-59.0803 147.5,-45.9806 147.5,-35.1631"/>
<polygon fill="midnightblue" stroke="midnightblue" points="151,-35.0091 147.5,-25.0091 144,-35.0091 151,-35.0091"/>
</g>
<!-- Node6 -->
<g id="node7" class="node"><title>Node6</title>
<g id="a_node7"><a xlink:title=" ">
<polygon fill="white" stroke="#bfbfbf" points="210,-0.5 210,-30.5 311,-30.5 311,-0.5 210,-0.5"/>
<text text-anchor="start" x="218" y="-18.5" font-family="Helvetica,sans-Serif" font-size="10.00">spdlog/sinks/stdout</text>
<text text-anchor="middle" x="260.5" y="-7.5" font-family="Helvetica,sans-Serif" font-size="10.00">_color_sinks.h</text>
</a>
</g>
</g>
<!-- Node3&#45;&gt;Node6 -->
<g id="edge6" class="edge"><title>Node3&#45;&gt;Node6</title>
<path fill="none" stroke="midnightblue" d="M163.69,-67.4751C179.567,-59.1154 204.303,-46.0902 224.798,-35.2991"/>
<polygon fill="midnightblue" stroke="midnightblue" points="226.65,-38.279 233.868,-30.523 223.389,-32.0852 226.65,-38.279"/>
</g>
<!-- Node7&#45;&gt;Node1 -->
<g id="edge12" class="edge"><title>Node7&#45;&gt;Node1</title>
<path fill="none" stroke="midnightblue" d="M171.95,-179.444C149.469,-170.517 114.012,-156.439 88.5201,-146.317"/>
<polygon fill="midnightblue" stroke="midnightblue" points="89.5346,-142.954 78.9488,-142.516 86.9513,-149.46 89.5346,-142.954"/>
</g>
<!-- Node7&#45;&gt;Node3 -->
<g id="edge11" class="edge"><title>Node7&#45;&gt;Node3</title>
<path fill="none" stroke="midnightblue" d="M189.89,-179.368C182.4,-161.456 165.032,-119.923 155.006,-95.9482"/>
<polygon fill="midnightblue" stroke="midnightblue" points="158.18,-94.4669 151.093,-86.5914 151.722,-97.1676 158.18,-94.4669"/>
</g>
<!-- Node8 -->
<g id="node9" class="node"><title>Node8</title>
<g id="a_node9"><a xlink:href="_produto_8hpp.html" target="_top" xlink:title=" ">
<polygon fill="white" stroke="black" points="190.5,-123.5 190.5,-142.5 294.5,-142.5 294.5,-123.5 190.5,-123.5"/>
<text text-anchor="middle" x="242.5" y="-130.5" font-family="Helvetica,sans-Serif" font-size="10.00">produto/Produto.hpp</text>
</a>
</g>
</g>
<!-- Node7&#45;&gt;Node8 -->
<g id="edge8" class="edge"><title>Node7&#45;&gt;Node8</title>
<path fill="none" stroke="midnightblue" d="M201.591,-179.083C208.655,-171.298 219.088,-159.801 227.649,-150.367"/>
<polygon fill="midnightblue" stroke="midnightblue" points="230.431,-152.509 234.559,-142.751 225.247,-147.805 230.431,-152.509"/>
</g>
<!-- Node8&#45;&gt;Node3 -->
<g id="edge9" class="edge"><title>Node8&#45;&gt;Node3</title>
<path fill="none" stroke="midnightblue" d="M227.237,-123.324C212.279,-114.822 189.245,-101.729 171.773,-91.7975"/>
<polygon fill="midnightblue" stroke="midnightblue" points="173.149,-88.5534 162.726,-86.6545 169.69,-94.639 173.149,-88.5534"/>
</g>
<!-- Node9 -->
<g id="node10" class="node"><title>Node9</title>
<g id="a_node10"><a xlink:title=" ">
<polygon fill="white" stroke="#bfbfbf" points="218,-67.5 218,-86.5 267,-86.5 267,-67.5 218,-67.5"/>
<text text-anchor="middle" x="242.5" y="-74.5" font-family="Helvetica,sans-Serif" font-size="10.00">fstream</text>
</a>
</g>
</g>
<!-- Node8&#45;&gt;Node9 -->
<g id="edge10" class="edge"><title>Node8&#45;&gt;Node9</title>
<path fill="none" stroke="midnightblue" d="M242.5,-123.083C242.5,-116.006 242.5,-105.861 242.5,-96.9865"/>
<polygon fill="midnightblue" stroke="midnightblue" points="246,-96.751 242.5,-86.7511 239,-96.7511 246,-96.751"/>
</g>
</g>
</svg>
