<?xml version="1.0" encoding="UTF-8" standalone="no"?>
<!DOCTYPE svg PUBLIC "-//W3C//DTD SVG 1.1//EN"
 "http://www.w3.org/Graphics/SVG/1.1/DTD/svg11.dtd">
<!-- Generated by graphviz version 2.38.0 (20140413.2041)
 -->
<!-- Title: C:/Users/osyri/Desktop/IVY&#45;Inventory&#45;Manager/src/ivy/locadora/Locadora.hpp Pages: 1 -->
<svg width="456pt" height="362pt"
 viewBox="0.00 0.00 455.50 362.00" xmlns="http://www.w3.org/2000/svg" xmlns:xlink="http://www.w3.org/1999/xlink">
<g id="graph0" class="graph" transform="scale(1 1) rotate(0) translate(4 358)">
<title>C:/Users/osyri/Desktop/IVY&#45;Inventory&#45;Manager/src/ivy/locadora/Locadora.hpp</title>
<polygon fill="white" stroke="none" points="-4,4 -4,-358 451.5,-358 451.5,4 -4,4"/>
<!-- Node11 -->
<g id="node1" class="node"><title>Node11</title>
<g id="a_node1"><a xlink:title=" ">
<polygon fill="#bfbfbf" stroke="black" points="93.5,-312.5 93.5,-353.5 242.5,-353.5 242.5,-312.5 93.5,-312.5"/>
<text text-anchor="start" x="101.5" y="-341.5" font-family="Helvetica,sans-Serif" font-size="10.00">C:/Users/osyri/Desktop</text>
<text text-anchor="start" x="101.5" y="-330.5" font-family="Helvetica,sans-Serif" font-size="10.00">/IVY&#45;Inventory&#45;Manager</text>
<text text-anchor="middle" x="168" y="-319.5" font-family="Helvetica,sans-Serif" font-size="10.00">/src/ivy/locadora/Locadora.hpp</text>
</a>
</g>
</g>
<!-- Node12 -->
<g id="node2" class="node"><title>Node12</title>
<g id="a_node2"><a xlink:href="ivy_8hpp.html" target="_top" xlink:title=" ">
<polygon fill="white" stroke="black" points="0,-78.5 0,-119.5 118,-119.5 118,-78.5 0,-78.5"/>
<text text-anchor="start" x="8" y="-107.5" font-family="Helvetica,sans-Serif" font-size="10.00">C:/Users/osyri/Desktop</text>
<text text-anchor="start" x="8" y="-96.5" font-family="Helvetica,sans-Serif" font-size="10.00">/IVY&#45;Inventory&#45;Manager</text>
<text text-anchor="middle" x="59" y="-85.5" font-family="Helvetica,sans-Serif" font-size="10.00">/src/ivy/ivy.hpp</text>
</a>
</g>
</g>
<!-- Node11&#45;&gt;Node12 -->
<g id="edge1" class="edge"><title>Node11&#45;&gt;Node12</title>
<path fill="none" stroke="midnightblue" d="M109.882,-307.187C97.1061,-299.069 85.0129,-288.766 77,-276 46.1379,-226.832 51.0346,-154.333 55.7116,-119.752"/>
<polygon fill="midnightblue" stroke="midnightblue" points="108.406,-310.381 118.795,-312.462 111.972,-304.357 108.406,-310.381"/>
</g>
<!-- Node14 -->
<g id="node4" class="node"><title>Node14</title>
<g id="a_node4"><a xlink:href="_locadora_c_l_i_8hpp.html" target="_top" xlink:title=" ">
<polygon fill="white" stroke="black" points="86.5,-234.5 86.5,-275.5 249.5,-275.5 249.5,-234.5 86.5,-234.5"/>
<text text-anchor="start" x="94.5" y="-263.5" font-family="Helvetica,sans-Serif" font-size="10.00">C:/Users/osyri/Desktop</text>
<text text-anchor="start" x="94.5" y="-252.5" font-family="Helvetica,sans-Serif" font-size="10.00">/IVY&#45;Inventory&#45;Manager</text>
<text text-anchor="middle" x="168" y="-241.5" font-family="Helvetica,sans-Serif" font-size="10.00">/src/ivy/locadora/LocadoraCLI.hpp</text>
</a>
</g>
</g>
<!-- Node11&#45;&gt;Node14 -->
<g id="edge3" class="edge"><title>Node11&#45;&gt;Node14</title>
<path fill="none" stroke="midnightblue" d="M168,-302.297C168,-293.301 168,-283.653 168,-275.506"/>
<polygon fill="midnightblue" stroke="midnightblue" points="164.5,-302.428 168,-312.428 171.5,-302.428 164.5,-302.428"/>
</g>
<!-- Node18 -->
<g id="node8" class="node"><title>Node18</title>
<g id="a_node8"><a xlink:href="_locadora_8cpp.html" target="_top" xlink:title=" ">
<polygon fill="white" stroke="black" points="267.5,-234.5 267.5,-275.5 416.5,-275.5 416.5,-234.5 267.5,-234.5"/>
<text text-anchor="start" x="275.5" y="-263.5" font-family="Helvetica,sans-Serif" font-size="10.00">C:/Users/osyri/Desktop</text>
<text text-anchor="start" x="275.5" y="-252.5" font-family="Helvetica,sans-Serif" font-size="10.00">/IVY&#45;Inventory&#45;Manager</text>
<text text-anchor="middle" x="342" y="-241.5" font-family="Helvetica,sans-Serif" font-size="10.00">/src/ivy/locadora/Locadora.cpp</text>
</a>
</g>
</g>
<!-- Node11&#45;&gt;Node18 -->
<g id="edge9" class="edge"><title>Node11&#45;&gt;Node18</title>
<path fill="none" stroke="midnightblue" d="M222.194,-308.329C246.338,-297.783 274.431,-285.513 297.343,-275.506"/>
<polygon fill="midnightblue" stroke="midnightblue" points="220.572,-305.218 212.809,-312.428 223.374,-311.633 220.572,-305.218"/>
</g>
<!-- Node13 -->
<g id="node3" class="node"><title>Node13</title>
<g id="a_node3"><a xlink:href="main_8cpp.html" target="_top" xlink:title=" ">
<polygon fill="white" stroke="black" points="0,-0.5 0,-41.5 118,-41.5 118,-0.5 0,-0.5"/>
<text text-anchor="start" x="8" y="-29.5" font-family="Helvetica,sans-Serif" font-size="10.00">C:/Users/osyri/Desktop</text>
<text text-anchor="start" x="8" y="-18.5" font-family="Helvetica,sans-Serif" font-size="10.00">/IVY&#45;Inventory&#45;Manager</text>
<text text-anchor="middle" x="59" y="-7.5" font-family="Helvetica,sans-Serif" font-size="10.00">/src/main.cpp</text>
</a>
</g>
</g>
<!-- Node12&#45;&gt;Node13 -->
<g id="edge2" class="edge"><title>Node12&#45;&gt;Node13</title>
<path fill="none" stroke="midnightblue" d="M59,-68.2965C59,-59.3009 59,-49.6532 59,-41.5056"/>
<polygon fill="midnightblue" stroke="midnightblue" points="55.5001,-68.4281 59,-78.4281 62.5001,-68.4281 55.5001,-68.4281"/>
</g>
<!-- Node14&#45;&gt;Node12 -->
<g id="edge7" class="edge"><title>Node14&#45;&gt;Node12</title>
<path fill="none" stroke="midnightblue" d="M128.092,-228.496C116.899,-219.87 105.484,-209.48 97,-198 79.2134,-173.932 68.6207,-140.482 63.3043,-119.548"/>
<polygon fill="midnightblue" stroke="midnightblue" points="126.035,-231.328 136.158,-234.456 130.195,-225.698 126.035,-231.328"/>
</g>
<!-- Node15 -->
<g id="node5" class="node"><title>Node15</title>
<g id="a_node5"><a xlink:href="_interface_c_l_i_8hpp.html" target="_top" xlink:title=" ">
<polygon fill="white" stroke="black" points="106,-156.5 106,-197.5 266,-197.5 266,-156.5 106,-156.5"/>
<text text-anchor="start" x="114" y="-185.5" font-family="Helvetica,sans-Serif" font-size="10.00">C:/Users/osyri/Desktop</text>
<text text-anchor="start" x="114" y="-174.5" font-family="Helvetica,sans-Serif" font-size="10.00">/IVY&#45;Inventory&#45;Manager</text>
<text text-anchor="middle" x="186" y="-163.5" font-family="Helvetica,sans-Serif" font-size="10.00">/src/ivy/interface/InterfaceCLI.hpp</text>
</a>
</g>
</g>
<!-- Node14&#45;&gt;Node15 -->
<g id="edge4" class="edge"><title>Node14&#45;&gt;Node15</title>
<path fill="none" stroke="midnightblue" d="M174.966,-224.59C177.116,-215.511 179.43,-205.742 181.38,-197.506"/>
<polygon fill="midnightblue" stroke="midnightblue" points="171.534,-223.891 172.635,-234.428 178.346,-225.504 171.534,-223.891"/>
</g>
<!-- Node17 -->
<g id="node7" class="node"><title>Node17</title>
<g id="a_node7"><a xlink:href="_locadora_c_l_i_8cpp.html" target="_top" xlink:title=" ">
<polygon fill="white" stroke="black" points="284.5,-156.5 284.5,-197.5 447.5,-197.5 447.5,-156.5 284.5,-156.5"/>
<text text-anchor="start" x="292.5" y="-185.5" font-family="Helvetica,sans-Serif" font-size="10.00">C:/Users/osyri/Desktop</text>
<text text-anchor="start" x="292.5" y="-174.5" font-family="Helvetica,sans-Serif" font-size="10.00">/IVY&#45;Inventory&#45;Manager</text>
<text text-anchor="middle" x="366" y="-163.5" font-family="Helvetica,sans-Serif" font-size="10.00">/src/ivy/locadora/LocadoraCLI.cpp</text>
</a>
</g>
</g>
<!-- Node14&#45;&gt;Node17 -->
<g id="edge8" class="edge"><title>Node14&#45;&gt;Node17</title>
<path fill="none" stroke="midnightblue" d="M228.577,-230.748C256.293,-220.11 288.765,-207.646 315.183,-197.506"/>
<polygon fill="midnightblue" stroke="midnightblue" points="227.072,-227.577 218.99,-234.428 229.58,-234.112 227.072,-227.577"/>
</g>
<!-- Node15&#45;&gt;Node12 -->
<g id="edge6" class="edge"><title>Node15&#45;&gt;Node12</title>
<path fill="none" stroke="midnightblue" d="M144.563,-151.203C127.375,-140.918 107.726,-129.159 91.5948,-119.506"/>
<polygon fill="midnightblue" stroke="midnightblue" points="142.916,-154.296 153.294,-156.428 146.511,-148.29 142.916,-154.296"/>
</g>
<!-- Node16 -->
<g id="node6" class="node"><title>Node16</title>
<g id="a_node6"><a xlink:href="_interface_c_l_i_8cpp.html" target="_top" xlink:title=" ">
<polygon fill="white" stroke="black" points="136,-78.5 136,-119.5 296,-119.5 296,-78.5 136,-78.5"/>
<text text-anchor="start" x="144" y="-107.5" font-family="Helvetica,sans-Serif" font-size="10.00">C:/Users/osyri/Desktop</text>
<text text-anchor="start" x="144" y="-96.5" font-family="Helvetica,sans-Serif" font-size="10.00">/IVY&#45;Inventory&#45;Manager</text>
<text text-anchor="middle" x="216" y="-85.5" font-family="Helvetica,sans-Serif" font-size="10.00">/src/ivy/interface/InterfaceCLI.cpp</text>
</a>
</g>
</g>
<!-- Node15&#45;&gt;Node16 -->
<g id="edge5" class="edge"><title>Node15&#45;&gt;Node16</title>
<path fill="none" stroke="midnightblue" d="M197.494,-146.882C201.11,-137.721 205.014,-127.83 208.3,-119.506"/>
<polygon fill="midnightblue" stroke="midnightblue" points="194.142,-145.841 193.726,-156.428 200.653,-148.412 194.142,-145.841"/>
</g>
</g>
</svg>
