<?xml version="1.0" encoding="UTF-8" standalone="no"?>
<!DOCTYPE svg PUBLIC "-//W3C//DTD SVG 1.1//EN"
 "http://www.w3.org/Graphics/SVG/1.1/DTD/svg11.dtd">
<!-- Generated by graphviz version 2.38.0 (20140413.2041)
 -->
<!-- Title: C:/Users/osyri/Desktop/IVY&#45;Inventory&#45;Manager/src/ivy/locadora/LocadoraCLI.cpp Pages: 1 -->
<svg width="470pt" height="397pt"
 viewBox="0.00 0.00 469.50 397.00" xmlns="http://www.w3.org/2000/svg" xmlns:xlink="http://www.w3.org/1999/xlink">
<g id="graph0" class="graph" transform="scale(1 1) rotate(0) translate(4 393)">
<title>C:/Users/osyri/Desktop/IVY&#45;Inventory&#45;Manager/src/ivy/locadora/LocadoraCLI.cpp</title>
<polygon fill="white" stroke="none" points="-4,4 -4,-393 465.5,-393 465.5,4 -4,4"/>
<!-- Node0 -->
<g id="node1" class="node"><title>Node0</title>
<g id="a_node1"><a xlink:title=" ">
<polygon fill="#bfbfbf" stroke="black" points="184,-347.5 184,-388.5 347,-388.5 347,-347.5 184,-347.5"/>
<text text-anchor="start" x="192" y="-376.5" font-family="Helvetica,sans-Serif" font-size="10.00">C:/Users/osyri/Desktop</text>
<text text-anchor="start" x="192" y="-365.5" font-family="Helvetica,sans-Serif" font-size="10.00">/IVY&#45;Inventory&#45;Manager</text>
<text text-anchor="middle" x="265.5" y="-354.5" font-family="Helvetica,sans-Serif" font-size="10.00">/src/ivy/locadora/LocadoraCLI.cpp</text>
</a>
</g>
</g>
<!-- Node1 -->
<g id="node2" class="node"><title>Node1</title>
<g id="a_node2"><a xlink:href="_locadora_c_l_i_8hpp.html" target="_top" xlink:title=" ">
<polygon fill="white" stroke="black" points="221,-291.5 221,-310.5 310,-310.5 310,-291.5 221,-291.5"/>
<text text-anchor="middle" x="265.5" y="-298.5" font-family="Helvetica,sans-Serif" font-size="10.00">LocadoraCLI.hpp</text>
</a>
</g>
</g>
<!-- Node0&#45;&gt;Node1 -->
<g id="edge1" class="edge"><title>Node0&#45;&gt;Node1</title>
<path fill="none" stroke="midnightblue" d="M265.5,-347.498C265.5,-339.065 265.5,-329.235 265.5,-320.874"/>
<polygon fill="midnightblue" stroke="midnightblue" points="269,-320.652 265.5,-310.652 262,-320.653 269,-320.652"/>
</g>
<!-- Node2 -->
<g id="node3" class="node"><title>Node2</title>
<g id="a_node3"><a xlink:title=" ">
<polygon fill="white" stroke="#bfbfbf" points="61.5,-179.5 61.5,-198.5 115.5,-198.5 115.5,-179.5 61.5,-179.5"/>
<text text-anchor="middle" x="88.5" y="-186.5" font-family="Helvetica,sans-Serif" font-size="10.00">iostream</text>
</a>
</g>
</g>
<!-- Node1&#45;&gt;Node2 -->
<g id="edge2" class="edge"><title>Node1&#45;&gt;Node2</title>
<path fill="none" stroke="midnightblue" d="M241.522,-291.388C220.65,-283.393 189.987,-270.42 165.5,-255 142.767,-240.685 119.6,-220.155 104.7,-206.017"/>
<polygon fill="midnightblue" stroke="midnightblue" points="106.954,-203.328 97.3283,-198.901 102.092,-208.364 106.954,-203.328"/>
</g>
<!-- Node3 -->
<g id="node4" class="node"><title>Node3</title>
<g id="a_node4"><a xlink:title=" ">
<polygon fill="white" stroke="#bfbfbf" points="0,-67.5 0,-86.5 41,-86.5 41,-67.5 0,-67.5"/>
<text text-anchor="middle" x="20.5" y="-74.5" font-family="Helvetica,sans-Serif" font-size="10.00">string</text>
</a>
</g>
</g>
<!-- Node1&#45;&gt;Node3 -->
<g id="edge3" class="edge"><title>Node1&#45;&gt;Node3</title>
<path fill="none" stroke="midnightblue" d="M233.576,-291.48C206.671,-283.711 167.547,-271.013 135.5,-255 95.693,-235.109 85.4118,-228.951 52.5,-199 28.6784,-177.321 17.3577,-173.324 6.5,-143 0.973104,-127.564 5.88835,-109.248 11.3602,-95.9996"/>
<polygon fill="midnightblue" stroke="midnightblue" points="14.6789,-97.1601 15.679,-86.6125 8.31966,-94.2343 14.6789,-97.1601"/>
</g>
<!-- Node4 -->
<g id="node5" class="node"><title>Node4</title>
<g id="a_node5"><a xlink:title=" ">
<polygon fill="white" stroke="#bfbfbf" points="347.5,-235.5 347.5,-254.5 403.5,-254.5 403.5,-235.5 347.5,-235.5"/>
<text text-anchor="middle" x="375.5" y="-242.5" font-family="Helvetica,sans-Serif" font-size="10.00">algorithm</text>
</a>
</g>
</g>
<!-- Node1&#45;&gt;Node4 -->
<g id="edge4" class="edge"><title>Node1&#45;&gt;Node4</title>
<path fill="none" stroke="midnightblue" d="M283.173,-291.324C300.894,-282.625 328.403,-269.12 348.788,-259.113"/>
<polygon fill="midnightblue" stroke="midnightblue" points="350.436,-262.203 357.87,-254.655 347.351,-255.919 350.436,-262.203"/>
</g>
<!-- Node5 -->
<g id="node6" class="node"><title>Node5</title>
<g id="a_node6"><a xlink:title=" ">
<polygon fill="white" stroke="#bfbfbf" points="421.5,-235.5 421.5,-254.5 461.5,-254.5 461.5,-235.5 421.5,-235.5"/>
<text text-anchor="middle" x="441.5" y="-242.5" font-family="Helvetica,sans-Serif" font-size="10.00">limits</text>
</a>
</g>
</g>
<!-- Node1&#45;&gt;Node5 -->
<g id="edge5" class="edge"><title>Node1&#45;&gt;Node5</title>
<path fill="none" stroke="midnightblue" d="M293.417,-291.489C321.088,-283.045 364.935,-269.645 411.552,-255.285"/>
<polygon fill="midnightblue" stroke="midnightblue" points="412.696,-258.594 421.222,-252.304 410.634,-251.905 412.696,-258.594"/>
</g>
<!-- Node6 -->
<g id="node7" class="node"><title>Node6</title>
<g id="a_node7"><a xlink:href="_locadora_8hpp.html" target="_top" xlink:title=" ">
<polygon fill="white" stroke="black" points="175,-235.5 175,-254.5 250,-254.5 250,-235.5 175,-235.5"/>
<text text-anchor="middle" x="212.5" y="-242.5" font-family="Helvetica,sans-Serif" font-size="10.00">Locadora.hpp</text>
</a>
</g>
</g>
<!-- Node1&#45;&gt;Node6 -->
<g id="edge6" class="edge"><title>Node1&#45;&gt;Node6</title>
<path fill="none" stroke="midnightblue" d="M256.748,-291.083C249.03,-283.22 237.595,-271.569 228.283,-262.081"/>
<polygon fill="midnightblue" stroke="midnightblue" points="230.592,-259.436 221.089,-254.751 225.596,-264.34 230.592,-259.436"/>
</g>
<!-- Node8 -->
<g id="node9" class="node"><title>Node8</title>
<g id="a_node9"><a xlink:href="_ivy_log_8hpp.html" target="_top" xlink:title=" ">
<polygon fill="white" stroke="black" points="205.5,-67.5 205.5,-86.5 283.5,-86.5 283.5,-67.5 205.5,-67.5"/>
<text text-anchor="middle" x="244.5" y="-74.5" font-family="Helvetica,sans-Serif" font-size="10.00">log/IvyLog.hpp</text>
</a>
</g>
</g>
<!-- Node1&#45;&gt;Node8 -->
<g id="edge21" class="edge"><title>Node1&#45;&gt;Node8</title>
<path fill="none" stroke="midnightblue" d="M268.602,-291.218C277.41,-264.871 300.608,-184.521 279.5,-123 275.781,-112.161 268.267,-101.922 261.151,-93.9566"/>
<polygon fill="midnightblue" stroke="midnightblue" points="263.501,-91.3498 254.056,-86.5497 258.446,-96.1922 263.501,-91.3498"/>
</g>
<!-- Node6&#45;&gt;Node2 -->
<g id="edge20" class="edge"><title>Node6&#45;&gt;Node2</title>
<path fill="none" stroke="midnightblue" d="M192.852,-235.444C172.535,-226.596 140.597,-212.687 117.402,-202.586"/>
<polygon fill="midnightblue" stroke="midnightblue" points="118.622,-199.3 108.056,-198.516 115.827,-205.718 118.622,-199.3"/>
</g>
<!-- Node7 -->
<g id="node8" class="node"><title>Node7</title>
<g id="a_node8"><a xlink:href="_jogo_8hpp.html" target="_top" xlink:title=" ">
<polygon fill="white" stroke="black" points="16,-123.5 16,-142.5 93,-142.5 93,-123.5 16,-123.5"/>
<text text-anchor="middle" x="54.5" y="-130.5" font-family="Helvetica,sans-Serif" font-size="10.00">jogo/Jogo.hpp</text>
</a>
</g>
</g>
<!-- Node6&#45;&gt;Node7 -->
<g id="edge7" class="edge"><title>Node6&#45;&gt;Node7</title>
<path fill="none" stroke="midnightblue" d="M201.279,-235.347C184.716,-222.66 152.644,-198.41 124.5,-179 108.942,-168.27 91.0067,-156.756 77.1855,-148.061"/>
<polygon fill="midnightblue" stroke="midnightblue" points="78.6881,-144.873 68.3541,-142.536 74.9754,-150.807 78.6881,-144.873"/>
</g>
<!-- Node6&#45;&gt;Node8 -->
<g id="edge19" class="edge"><title>Node6&#45;&gt;Node8</title>
<path fill="none" stroke="midnightblue" d="M227.452,-235.474C239.432,-227.702 255.373,-215.002 262.5,-199 277.704,-164.862 263.503,-120.487 253.137,-96.0766"/>
<polygon fill="midnightblue" stroke="midnightblue" points="256.19,-94.332 248.895,-86.649 249.807,-97.2045 256.19,-94.332"/>
</g>
<!-- Node12 -->
<g id="node13" class="node"><title>Node12</title>
<g id="a_node13"><a xlink:href="_vetor_8hpp.html" target="_top" xlink:title=" ">
<polygon fill="white" stroke="black" points="171.5,-179.5 171.5,-198.5 253.5,-198.5 253.5,-179.5 171.5,-179.5"/>
<text text-anchor="middle" x="212.5" y="-186.5" font-family="Helvetica,sans-Serif" font-size="10.00">vetor/Vetor.hpp</text>
</a>
</g>
</g>
<!-- Node6&#45;&gt;Node12 -->
<g id="edge13" class="edge"><title>Node6&#45;&gt;Node12</title>
<path fill="none" stroke="midnightblue" d="M212.5,-235.083C212.5,-228.006 212.5,-217.861 212.5,-208.986"/>
<polygon fill="midnightblue" stroke="midnightblue" points="216,-208.751 212.5,-198.751 209,-208.751 216,-208.751"/>
</g>
<!-- Node7&#45;&gt;Node3 -->
<g id="edge8" class="edge"><title>Node7&#45;&gt;Node3</title>
<path fill="none" stroke="midnightblue" d="M48.8856,-123.083C44.1326,-115.534 37.1819,-104.495 31.3484,-95.2298"/>
<polygon fill="midnightblue" stroke="midnightblue" points="34.2999,-93.3486 26.0099,-86.7511 28.3763,-97.0783 34.2999,-93.3486"/>
</g>
<!-- Node7&#45;&gt;Node8 -->
<g id="edge9" class="edge"><title>Node7&#45;&gt;Node8</title>
<path fill="none" stroke="midnightblue" d="M84.6061,-123.444C117.126,-114.201 169.079,-99.4356 204.891,-89.2572"/>
<polygon fill="midnightblue" stroke="midnightblue" points="205.873,-92.617 214.535,-86.5164 203.959,-85.8837 205.873,-92.617"/>
</g>
<!-- Node9 -->
<g id="node10" class="node"><title>Node9</title>
<g id="a_node10"><a xlink:title=" ">
<polygon fill="white" stroke="#bfbfbf" points="97,-6 97,-25 182,-25 182,-6 97,-6"/>
<text text-anchor="middle" x="139.5" y="-13" font-family="Helvetica,sans-Serif" font-size="10.00">spdlog/spdlog.h</text>
</a>
</g>
</g>
<!-- Node8&#45;&gt;Node9 -->
<g id="edge10" class="edge"><title>Node8&#45;&gt;Node9</title>
<path fill="none" stroke="midnightblue" d="M229.456,-67.4751C212.225,-57.7106 183.76,-41.5807 163.466,-30.0808"/>
<polygon fill="midnightblue" stroke="midnightblue" points="164.942,-26.8942 154.516,-25.0091 161.491,-32.9843 164.942,-26.8942"/>
</g>
<!-- Node10 -->
<g id="node11" class="node"><title>Node10</title>
<g id="a_node11"><a xlink:title=" ">
<polygon fill="white" stroke="#bfbfbf" points="200,-6 200,-25 289,-25 289,-6 200,-6"/>
<text text-anchor="middle" x="244.5" y="-13" font-family="Helvetica,sans-Serif" font-size="10.00">spdlog/fmt/ostr.h</text>
</a>
</g>
</g>
<!-- Node8&#45;&gt;Node10 -->
<g id="edge11" class="edge"><title>Node8&#45;&gt;Node10</title>
<path fill="none" stroke="midnightblue" d="M244.5,-67.4751C244.5,-59.0803 244.5,-45.9806 244.5,-35.1631"/>
<polygon fill="midnightblue" stroke="midnightblue" points="248,-35.0091 244.5,-25.0091 241,-35.0091 248,-35.0091"/>
</g>
<!-- Node11 -->
<g id="node12" class="node"><title>Node11</title>
<g id="a_node12"><a xlink:title=" ">
<polygon fill="white" stroke="#bfbfbf" points="307,-0.5 307,-30.5 408,-30.5 408,-0.5 307,-0.5"/>
<text text-anchor="start" x="315" y="-18.5" font-family="Helvetica,sans-Serif" font-size="10.00">spdlog/sinks/stdout</text>
<text text-anchor="middle" x="357.5" y="-7.5" font-family="Helvetica,sans-Serif" font-size="10.00">_color_sinks.h</text>
</a>
</g>
</g>
<!-- Node8&#45;&gt;Node11 -->
<g id="edge12" class="edge"><title>Node8&#45;&gt;Node11</title>
<path fill="none" stroke="midnightblue" d="M260.69,-67.4751C276.567,-59.1154 301.303,-46.0902 321.798,-35.2991"/>
<polygon fill="midnightblue" stroke="midnightblue" points="323.65,-38.279 330.868,-30.523 320.389,-32.0852 323.65,-38.279"/>
</g>
<!-- Node12&#45;&gt;Node7 -->
<g id="edge18" class="edge"><title>Node12&#45;&gt;Node7</title>
<path fill="none" stroke="midnightblue" d="M187.464,-179.444C160.884,-170.359 118.691,-155.939 88.9766,-145.783"/>
<polygon fill="midnightblue" stroke="midnightblue" points="90.013,-142.439 79.4184,-142.516 87.7491,-149.062 90.013,-142.439"/>
</g>
<!-- Node12&#45;&gt;Node8 -->
<g id="edge17" class="edge"><title>Node12&#45;&gt;Node8</title>
<path fill="none" stroke="midnightblue" d="M215.011,-179.368C220.198,-161.537 232.196,-120.295 239.185,-96.2717"/>
<polygon fill="midnightblue" stroke="midnightblue" points="242.568,-97.1711 242.001,-86.5914 235.847,-95.2157 242.568,-97.1711"/>
</g>
<!-- Node13 -->
<g id="node14" class="node"><title>Node13</title>
<g id="a_node14"><a xlink:href="_produto_8hpp.html" target="_top" xlink:title=" ">
<polygon fill="white" stroke="black" points="111.5,-123.5 111.5,-142.5 215.5,-142.5 215.5,-123.5 111.5,-123.5"/>
<text text-anchor="middle" x="163.5" y="-130.5" font-family="Helvetica,sans-Serif" font-size="10.00">produto/Produto.hpp</text>
</a>
</g>
</g>
<!-- Node12&#45;&gt;Node13 -->
<g id="edge14" class="edge"><title>Node12&#45;&gt;Node13</title>
<path fill="none" stroke="midnightblue" d="M204.409,-179.083C197.345,-171.298 186.912,-159.801 178.351,-150.367"/>
<polygon fill="midnightblue" stroke="midnightblue" points="180.753,-147.805 171.441,-142.751 175.569,-152.509 180.753,-147.805"/>
</g>
<!-- Node13&#45;&gt;Node8 -->
<g id="edge15" class="edge"><title>Node13&#45;&gt;Node8</title>
<path fill="none" stroke="midnightblue" d="M176.514,-123.324C189.032,-114.979 208.182,-102.212 222.971,-92.3524"/>
<polygon fill="midnightblue" stroke="midnightblue" points="225.139,-95.1137 231.518,-86.6545 221.256,-89.2894 225.139,-95.1137"/>
</g>
<!-- Node14 -->
<g id="node15" class="node"><title>Node14</title>
<g id="a_node15"><a xlink:title=" ">
<polygon fill="white" stroke="#bfbfbf" points="138,-67.5 138,-86.5 187,-86.5 187,-67.5 138,-67.5"/>
<text text-anchor="middle" x="162.5" y="-74.5" font-family="Helvetica,sans-Serif" font-size="10.00">fstream</text>
</a>
</g>
</g>
<!-- Node13&#45;&gt;Node14 -->
<g id="edge16" class="edge"><title>Node13&#45;&gt;Node14</title>
<path fill="none" stroke="midnightblue" d="M163.335,-123.083C163.204,-116.006 163.016,-105.861 162.852,-96.9865"/>
<polygon fill="midnightblue" stroke="midnightblue" points="166.347,-96.6845 162.662,-86.7511 159.348,-96.8142 166.347,-96.6845"/>
</g>
</g>
</svg>
