<?xml version="1.0" encoding="UTF-8" standalone="no"?>
<!DOCTYPE svg PUBLIC "-//W3C//DTD SVG 1.1//EN"
 "http://www.w3.org/Graphics/SVG/1.1/DTD/svg11.dtd">
<!-- Generated by graphviz version 2.38.0 (20140413.2041)
 -->
<!-- Title: C:/Users/osyri/Desktop/IVY&#45;Inventory&#45;Manager/src/ivy/produto/Produto.cpp Pages: 1 -->
<svg width="353pt" height="229pt"
 viewBox="0.00 0.00 353.00 229.00" xmlns="http://www.w3.org/2000/svg" xmlns:xlink="http://www.w3.org/1999/xlink">
<g id="graph0" class="graph" transform="scale(1 1) rotate(0) translate(4 225)">
<title>C:/Users/osyri/Desktop/IVY&#45;Inventory&#45;Manager/src/ivy/produto/Produto.cpp</title>
<polygon fill="white" stroke="none" points="-4,4 -4,-225 349,-225 349,4 -4,4"/>
<!-- Node0 -->
<g id="node1" class="node"><title>Node0</title>
<g id="a_node1"><a xlink:title=" ">
<polygon fill="#bfbfbf" stroke="black" points="192.5,-179.5 192.5,-220.5 330.5,-220.5 330.5,-179.5 192.5,-179.5"/>
<text text-anchor="start" x="200.5" y="-208.5" font-family="Helvetica,sans-Serif" font-size="10.00">C:/Users/osyri/Desktop</text>
<text text-anchor="start" x="200.5" y="-197.5" font-family="Helvetica,sans-Serif" font-size="10.00">/IVY&#45;Inventory&#45;Manager</text>
<text text-anchor="middle" x="261.5" y="-186.5" font-family="Helvetica,sans-Serif" font-size="10.00">/src/ivy/produto/Produto.cpp</text>
</a>
</g>
</g>
<!-- Node1 -->
<g id="node2" class="node"><title>Node1</title>
<g id="a_node2"><a xlink:href="_produto_8hpp.html" target="_top" xlink:title=" ">
<polygon fill="white" stroke="black" points="154,-123.5 154,-142.5 223,-142.5 223,-123.5 154,-123.5"/>
<text text-anchor="middle" x="188.5" y="-130.5" font-family="Helvetica,sans-Serif" font-size="10.00">Produto.hpp</text>
</a>
</g>
</g>
<!-- Node0&#45;&gt;Node1 -->
<g id="edge1" class="edge"><title>Node0&#45;&gt;Node1</title>
<path fill="none" stroke="midnightblue" d="M239.598,-179.498C228.836,-169.915 216.047,-158.528 205.956,-149.543"/>
<polygon fill="midnightblue" stroke="midnightblue" points="208.013,-146.689 198.217,-142.652 203.358,-151.916 208.013,-146.689"/>
</g>
<!-- Node7 -->
<g id="node8" class="node"><title>Node7</title>
<g id="a_node8"><a xlink:title=" ">
<polygon fill="white" stroke="#bfbfbf" points="241,-123.5 241,-142.5 282,-142.5 282,-123.5 241,-123.5"/>
<text text-anchor="middle" x="261.5" y="-130.5" font-family="Helvetica,sans-Serif" font-size="10.00">string</text>
</a>
</g>
</g>
<!-- Node0&#45;&gt;Node7 -->
<g id="edge7" class="edge"><title>Node0&#45;&gt;Node7</title>
<path fill="none" stroke="midnightblue" d="M261.5,-179.498C261.5,-171.065 261.5,-161.235 261.5,-152.874"/>
<polygon fill="midnightblue" stroke="midnightblue" points="265,-152.652 261.5,-142.652 258,-152.653 265,-152.652"/>
</g>
<!-- Node8 -->
<g id="node9" class="node"><title>Node8</title>
<g id="a_node9"><a xlink:title=" ">
<polygon fill="white" stroke="#bfbfbf" points="300,-123.5 300,-142.5 345,-142.5 345,-123.5 300,-123.5"/>
<text text-anchor="middle" x="322.5" y="-130.5" font-family="Helvetica,sans-Serif" font-size="10.00">cstdlib</text>
</a>
</g>
</g>
<!-- Node0&#45;&gt;Node8 -->
<g id="edge8" class="edge"><title>Node0&#45;&gt;Node8</title>
<path fill="none" stroke="midnightblue" d="M279.802,-179.498C288.615,-170.107 299.055,-158.983 307.405,-150.085"/>
<polygon fill="midnightblue" stroke="midnightblue" points="310.089,-152.34 314.38,-142.652 304.985,-147.549 310.089,-152.34"/>
</g>
<!-- Node2 -->
<g id="node3" class="node"><title>Node2</title>
<g id="a_node3"><a xlink:href="_ivy_log_8hpp.html" target="_top" xlink:title=" ">
<polygon fill="white" stroke="black" points="108.5,-67.5 108.5,-86.5 186.5,-86.5 186.5,-67.5 108.5,-67.5"/>
<text text-anchor="middle" x="147.5" y="-74.5" font-family="Helvetica,sans-Serif" font-size="10.00">log/IvyLog.hpp</text>
</a>
</g>
</g>
<!-- Node1&#45;&gt;Node2 -->
<g id="edge2" class="edge"><title>Node1&#45;&gt;Node2</title>
<path fill="none" stroke="midnightblue" d="M181.73,-123.083C175.938,-115.455 167.442,-104.264 160.362,-94.9408"/>
<polygon fill="midnightblue" stroke="midnightblue" points="162.979,-92.5991 154.144,-86.7511 157.404,-96.8321 162.979,-92.5991"/>
</g>
<!-- Node6 -->
<g id="node7" class="node"><title>Node6</title>
<g id="a_node7"><a xlink:title=" ">
<polygon fill="white" stroke="#bfbfbf" points="205,-67.5 205,-86.5 254,-86.5 254,-67.5 205,-67.5"/>
<text text-anchor="middle" x="229.5" y="-74.5" font-family="Helvetica,sans-Serif" font-size="10.00">fstream</text>
</a>
</g>
</g>
<!-- Node1&#45;&gt;Node6 -->
<g id="edge6" class="edge"><title>Node1&#45;&gt;Node6</title>
<path fill="none" stroke="midnightblue" d="M195.27,-123.083C201.062,-115.455 209.558,-104.264 216.638,-94.9408"/>
<polygon fill="midnightblue" stroke="midnightblue" points="219.596,-96.8321 222.856,-86.7511 214.021,-92.5991 219.596,-96.8321"/>
</g>
<!-- Node3 -->
<g id="node4" class="node"><title>Node3</title>
<g id="a_node4"><a xlink:title=" ">
<polygon fill="white" stroke="#bfbfbf" points="0,-6 0,-25 85,-25 85,-6 0,-6"/>
<text text-anchor="middle" x="42.5" y="-13" font-family="Helvetica,sans-Serif" font-size="10.00">spdlog/spdlog.h</text>
</a>
</g>
</g>
<!-- Node2&#45;&gt;Node3 -->
<g id="edge3" class="edge"><title>Node2&#45;&gt;Node3</title>
<path fill="none" stroke="midnightblue" d="M132.456,-67.4751C115.225,-57.7106 86.7601,-41.5807 66.4661,-30.0808"/>
<polygon fill="midnightblue" stroke="midnightblue" points="67.9418,-26.8942 57.516,-25.0091 64.4907,-32.9843 67.9418,-26.8942"/>
</g>
<!-- Node4 -->
<g id="node5" class="node"><title>Node4</title>
<g id="a_node5"><a xlink:title=" ">
<polygon fill="white" stroke="#bfbfbf" points="103,-6 103,-25 192,-25 192,-6 103,-6"/>
<text text-anchor="middle" x="147.5" y="-13" font-family="Helvetica,sans-Serif" font-size="10.00">spdlog/fmt/ostr.h</text>
</a>
</g>
</g>
<!-- Node2&#45;&gt;Node4 -->
<g id="edge4" class="edge"><title>Node2&#45;&gt;Node4</title>
<path fill="none" stroke="midnightblue" d="M147.5,-67.4751C147.5,-59.0803 147.5,-45.9806 147.5,-35.1631"/>
<polygon fill="midnightblue" stroke="midnightblue" points="151,-35.0091 147.5,-25.0091 144,-35.0091 151,-35.0091"/>
</g>
<!-- Node5 -->
<g id="node6" class="node"><title>Node5</title>
<g id="a_node6"><a xlink:title=" ">
<polygon fill="white" stroke="#bfbfbf" points="210,-0.5 210,-30.5 311,-30.5 311,-0.5 210,-0.5"/>
<text text-anchor="start" x="218" y="-18.5" font-family="Helvetica,sans-Serif" font-size="10.00">spdlog/sinks/stdout</text>
<text text-anchor="middle" x="260.5" y="-7.5" font-family="Helvetica,sans-Serif" font-size="10.00">_color_sinks.h</text>
</a>
</g>
</g>
<!-- Node2&#45;&gt;Node5 -->
<g id="edge5" class="edge"><title>Node2&#45;&gt;Node5</title>
<path fill="none" stroke="midnightblue" d="M163.69,-67.4751C179.567,-59.1154 204.303,-46.0902 224.798,-35.2991"/>
<polygon fill="midnightblue" stroke="midnightblue" points="226.65,-38.279 233.868,-30.523 223.389,-32.0852 226.65,-38.279"/>
</g>
</g>
</svg>
