<?xml version="1.0" encoding="UTF-8" standalone="no"?>
<!DOCTYPE svg PUBLIC "-//W3C//DTD SVG 1.1//EN"
 "http://www.w3.org/Graphics/SVG/1.1/DTD/svg11.dtd">
<!-- Generated by graphviz version 2.38.0 (20140413.2041)
 -->
<!-- Title: C:/Users/osyri/Desktop/IVY&#45;Inventory&#45;Manager/src/ivy/produto/Produto.hpp Pages: 1 -->
<svg width="1099pt" height="518pt"
 viewBox="0.00 0.00 1098.50 518.00" xmlns="http://www.w3.org/2000/svg" xmlns:xlink="http://www.w3.org/1999/xlink">
<g id="graph0" class="graph" transform="scale(1 1) rotate(0) translate(4 514)">
<title>C:/Users/osyri/Desktop/IVY&#45;Inventory&#45;Manager/src/ivy/produto/Produto.hpp</title>
<polygon fill="white" stroke="none" points="-4,4 -4,-514 1094.5,-514 1094.5,4 -4,4"/>
<!-- Node6 -->
<g id="node1" class="node"><title>Node6</title>
<g id="a_node1"><a xlink:title=" ">
<polygon fill="#bfbfbf" stroke="black" points="677.5,-468.5 677.5,-509.5 815.5,-509.5 815.5,-468.5 677.5,-468.5"/>
<text text-anchor="start" x="685.5" y="-497.5" font-family="Helvetica,sans-Serif" font-size="10.00">C:/Users/osyri/Desktop</text>
<text text-anchor="start" x="685.5" y="-486.5" font-family="Helvetica,sans-Serif" font-size="10.00">/IVY&#45;Inventory&#45;Manager</text>
<text text-anchor="middle" x="746.5" y="-475.5" font-family="Helvetica,sans-Serif" font-size="10.00">/src/ivy/produto/Produto.hpp</text>
</a>
</g>
</g>
<!-- Node7 -->
<g id="node2" class="node"><title>Node7</title>
<g id="a_node2"><a xlink:href="_vetor_8hpp.html" target="_top" xlink:title=" ">
<polygon fill="white" stroke="black" points="537.5,-390.5 537.5,-431.5 655.5,-431.5 655.5,-390.5 537.5,-390.5"/>
<text text-anchor="start" x="545.5" y="-419.5" font-family="Helvetica,sans-Serif" font-size="10.00">C:/Users/osyri/Desktop</text>
<text text-anchor="start" x="545.5" y="-408.5" font-family="Helvetica,sans-Serif" font-size="10.00">/IVY&#45;Inventory&#45;Manager</text>
<text text-anchor="middle" x="596.5" y="-397.5" font-family="Helvetica,sans-Serif" font-size="10.00">/src/ivy/vetor/Vetor.hpp</text>
</a>
</g>
</g>
<!-- Node6&#45;&gt;Node7 -->
<g id="edge1" class="edge"><title>Node6&#45;&gt;Node7</title>
<path fill="none" stroke="midnightblue" d="M698.95,-463.908C678.325,-453.458 654.487,-441.38 634.998,-431.506"/>
<polygon fill="midnightblue" stroke="midnightblue" points="697.369,-467.031 707.871,-468.428 700.533,-460.786 697.369,-467.031"/>
</g>
<!-- Node8 -->
<g id="node3" class="node"><title>Node8</title>
<g id="a_node3"><a xlink:href="ivy_8hpp.html" target="_top" xlink:title=" ">
<polygon fill="white" stroke="black" points="584.5,-78.5 584.5,-119.5 702.5,-119.5 702.5,-78.5 584.5,-78.5"/>
<text text-anchor="start" x="592.5" y="-107.5" font-family="Helvetica,sans-Serif" font-size="10.00">C:/Users/osyri/Desktop</text>
<text text-anchor="start" x="592.5" y="-96.5" font-family="Helvetica,sans-Serif" font-size="10.00">/IVY&#45;Inventory&#45;Manager</text>
<text text-anchor="middle" x="643.5" y="-85.5" font-family="Helvetica,sans-Serif" font-size="10.00">/src/ivy/ivy.hpp</text>
</a>
</g>
</g>
<!-- Node6&#45;&gt;Node8 -->
<g id="edge20" class="edge"><title>Node6&#45;&gt;Node8</title>
<path fill="none" stroke="midnightblue" d="M808.836,-464.071C860.153,-439.831 924.5,-396.897 924.5,-334 924.5,-334 924.5,-334 924.5,-254 924.5,-153.726 785.192,-118.311 702.75,-106.132"/>
<polygon fill="midnightblue" stroke="midnightblue" points="807.059,-461.035 799.424,-468.38 809.973,-467.4 807.059,-461.035"/>
</g>
<!-- Node10 -->
<g id="node5" class="node"><title>Node10</title>
<g id="a_node5"><a xlink:href="_ivy_manager_8hpp.html" target="_top" xlink:title=" ">
<polygon fill="white" stroke="black" points="296,-312.5 296,-353.5 471,-353.5 471,-312.5 296,-312.5"/>
<text text-anchor="start" x="304" y="-341.5" font-family="Helvetica,sans-Serif" font-size="10.00">C:/Users/osyri/Desktop</text>
<text text-anchor="start" x="304" y="-330.5" font-family="Helvetica,sans-Serif" font-size="10.00">/IVY&#45;Inventory&#45;Manager</text>
<text text-anchor="middle" x="383.5" y="-319.5" font-family="Helvetica,sans-Serif" font-size="10.00">/src/ivy/ivy_manager/IvyManager.hpp</text>
</a>
</g>
</g>
<!-- Node6&#45;&gt;Node10 -->
<g id="edge21" class="edge"><title>Node6&#45;&gt;Node10</title>
<path fill="none" stroke="midnightblue" d="M667.216,-474.461C624.868,-465.555 572.54,-451.82 528.5,-432 482.229,-411.176 434.622,-375.817 407.113,-353.748"/>
<polygon fill="midnightblue" stroke="midnightblue" points="666.699,-477.928 677.199,-476.51 668.107,-471.071 666.699,-477.928"/>
</g>
<!-- Node21 -->
<g id="node16" class="node"><title>Node21</title>
<g id="a_node16"><a xlink:href="_produto_8cpp.html" target="_top" xlink:title=" ">
<polygon fill="white" stroke="black" points="952.5,-390.5 952.5,-431.5 1090.5,-431.5 1090.5,-390.5 952.5,-390.5"/>
<text text-anchor="start" x="960.5" y="-419.5" font-family="Helvetica,sans-Serif" font-size="10.00">C:/Users/osyri/Desktop</text>
<text text-anchor="start" x="960.5" y="-408.5" font-family="Helvetica,sans-Serif" font-size="10.00">/IVY&#45;Inventory&#45;Manager</text>
<text text-anchor="middle" x="1021.5" y="-397.5" font-family="Helvetica,sans-Serif" font-size="10.00">/src/ivy/produto/Produto.cpp</text>
</a>
</g>
</g>
<!-- Node6&#45;&gt;Node21 -->
<g id="edge22" class="edge"><title>Node6&#45;&gt;Node21</title>
<path fill="none" stroke="midnightblue" d="M825.289,-466.226C865.422,-455.134 913.771,-441.772 952.432,-431.088"/>
<polygon fill="midnightblue" stroke="midnightblue" points="824.245,-462.883 815.539,-468.92 826.11,-469.63 824.245,-462.883"/>
</g>
<!-- Node7&#45;&gt;Node8 -->
<g id="edge2" class="edge"><title>Node7&#45;&gt;Node8</title>
<path fill="none" stroke="midnightblue" d="M554.782,-383.946C544.622,-375.612 534.86,-365.514 528.5,-354 502.622,-307.154 501.892,-284.876 518.5,-234 534.84,-183.947 582.295,-142.606 613.806,-119.633"/>
<polygon fill="midnightblue" stroke="midnightblue" points="552.901,-386.915 562.959,-390.245 557.173,-381.37 552.901,-386.915"/>
</g>
<!-- Node7&#45;&gt;Node10 -->
<g id="edge4" class="edge"><title>Node7&#45;&gt;Node10</title>
<path fill="none" stroke="midnightblue" d="M532.113,-387.026C502.128,-376.328 466.834,-363.734 438.167,-353.506"/>
<polygon fill="midnightblue" stroke="midnightblue" points="531.053,-390.364 541.647,-390.428 533.405,-383.771 531.053,-390.364"/>
</g>
<!-- Node16 -->
<g id="node11" class="node"><title>Node16</title>
<g id="a_node11"><a xlink:href="_locadora_8hpp.html" target="_top" xlink:title=" ">
<polygon fill="white" stroke="black" points="683,-312.5 683,-353.5 832,-353.5 832,-312.5 683,-312.5"/>
<text text-anchor="start" x="691" y="-341.5" font-family="Helvetica,sans-Serif" font-size="10.00">C:/Users/osyri/Desktop</text>
<text text-anchor="start" x="691" y="-330.5" font-family="Helvetica,sans-Serif" font-size="10.00">/IVY&#45;Inventory&#45;Manager</text>
<text text-anchor="middle" x="757.5" y="-319.5" font-family="Helvetica,sans-Serif" font-size="10.00">/src/ivy/locadora/Locadora.hpp</text>
</a>
</g>
</g>
<!-- Node7&#45;&gt;Node16 -->
<g id="edge12" class="edge"><title>Node7&#45;&gt;Node16</title>
<path fill="none" stroke="midnightblue" d="M647.239,-386.049C669.445,-375.566 695.167,-363.424 716.179,-353.506"/>
<polygon fill="midnightblue" stroke="midnightblue" points="645.511,-382.994 637.962,-390.428 648.499,-389.324 645.511,-382.994"/>
</g>
<!-- Node20 -->
<g id="node15" class="node"><title>Node20</title>
<g id="a_node15"><a xlink:href="_vetor_8cpp.html" target="_top" xlink:title=" ">
<polygon fill="white" stroke="black" points="537.5,-312.5 537.5,-353.5 655.5,-353.5 655.5,-312.5 537.5,-312.5"/>
<text text-anchor="start" x="545.5" y="-341.5" font-family="Helvetica,sans-Serif" font-size="10.00">C:/Users/osyri/Desktop</text>
<text text-anchor="start" x="545.5" y="-330.5" font-family="Helvetica,sans-Serif" font-size="10.00">/IVY&#45;Inventory&#45;Manager</text>
<text text-anchor="middle" x="596.5" y="-319.5" font-family="Helvetica,sans-Serif" font-size="10.00">/src/ivy/vetor/Vetor.cpp</text>
</a>
</g>
</g>
<!-- Node7&#45;&gt;Node20 -->
<g id="edge19" class="edge"><title>Node7&#45;&gt;Node20</title>
<path fill="none" stroke="midnightblue" d="M596.5,-380.297C596.5,-371.301 596.5,-361.653 596.5,-353.506"/>
<polygon fill="midnightblue" stroke="midnightblue" points="593,-380.428 596.5,-390.428 600,-380.428 593,-380.428"/>
</g>
<!-- Node9 -->
<g id="node4" class="node"><title>Node9</title>
<g id="a_node4"><a xlink:href="main_8cpp.html" target="_top" xlink:title=" ">
<polygon fill="white" stroke="black" points="584.5,-0.5 584.5,-41.5 702.5,-41.5 702.5,-0.5 584.5,-0.5"/>
<text text-anchor="start" x="592.5" y="-29.5" font-family="Helvetica,sans-Serif" font-size="10.00">C:/Users/osyri/Desktop</text>
<text text-anchor="start" x="592.5" y="-18.5" font-family="Helvetica,sans-Serif" font-size="10.00">/IVY&#45;Inventory&#45;Manager</text>
<text text-anchor="middle" x="643.5" y="-7.5" font-family="Helvetica,sans-Serif" font-size="10.00">/src/main.cpp</text>
</a>
</g>
</g>
<!-- Node8&#45;&gt;Node9 -->
<g id="edge3" class="edge"><title>Node8&#45;&gt;Node9</title>
<path fill="none" stroke="midnightblue" d="M643.5,-68.2965C643.5,-59.3009 643.5,-49.6532 643.5,-41.5056"/>
<polygon fill="midnightblue" stroke="midnightblue" points="640,-68.4281 643.5,-78.4281 647,-68.4281 640,-68.4281"/>
</g>
<!-- Node10&#45;&gt;Node8 -->
<g id="edge10" class="edge"><title>Node10&#45;&gt;Node8</title>
<path fill="none" stroke="midnightblue" d="M393.2,-302.676C407.476,-263.846 437.741,-195.665 485.5,-156 513.709,-132.572 552.425,-118.64 584.472,-110.531"/>
<polygon fill="midnightblue" stroke="midnightblue" points="389.815,-301.747 389.754,-312.341 396.409,-304.097 389.815,-301.747"/>
</g>
<!-- Node11 -->
<g id="node6" class="node"><title>Node11</title>
<g id="a_node6"><a xlink:href="_interface_c_l_i_8hpp.html" target="_top" xlink:title=" ">
<polygon fill="white" stroke="black" points="273.5,-156.5 273.5,-197.5 433.5,-197.5 433.5,-156.5 273.5,-156.5"/>
<text text-anchor="start" x="281.5" y="-185.5" font-family="Helvetica,sans-Serif" font-size="10.00">C:/Users/osyri/Desktop</text>
<text text-anchor="start" x="281.5" y="-174.5" font-family="Helvetica,sans-Serif" font-size="10.00">/IVY&#45;Inventory&#45;Manager</text>
<text text-anchor="middle" x="353.5" y="-163.5" font-family="Helvetica,sans-Serif" font-size="10.00">/src/ivy/interface/InterfaceCLI.hpp</text>
</a>
</g>
</g>
<!-- Node10&#45;&gt;Node11 -->
<g id="edge5" class="edge"><title>Node10&#45;&gt;Node11</title>
<path fill="none" stroke="midnightblue" d="M377.782,-302.406C374.02,-282.96 368.981,-256.963 364.5,-234 362.147,-221.942 359.492,-208.426 357.381,-197.694"/>
<polygon fill="midnightblue" stroke="midnightblue" points="374.394,-303.32 379.729,-312.474 381.267,-301.991 374.394,-303.32"/>
</g>
<!-- Node13 -->
<g id="node8" class="node"><title>Node13</title>
<g id="a_node8"><a xlink:href="_interface_g_u_i_8hpp.html" target="_top" xlink:title=" ">
<polygon fill="white" stroke="black" points="193.5,-234.5 193.5,-275.5 355.5,-275.5 355.5,-234.5 193.5,-234.5"/>
<text text-anchor="start" x="201.5" y="-263.5" font-family="Helvetica,sans-Serif" font-size="10.00">C:/Users/osyri/Desktop</text>
<text text-anchor="start" x="201.5" y="-252.5" font-family="Helvetica,sans-Serif" font-size="10.00">/IVY&#45;Inventory&#45;Manager</text>
<text text-anchor="middle" x="274.5" y="-241.5" font-family="Helvetica,sans-Serif" font-size="10.00">/src/ivy/interface/InterfaceGUI.hpp</text>
</a>
</g>
</g>
<!-- Node10&#45;&gt;Node13 -->
<g id="edge8" class="edge"><title>Node10&#45;&gt;Node13</title>
<path fill="none" stroke="midnightblue" d="M347.122,-306.635C332.567,-296.487 316.066,-284.982 302.475,-275.506"/>
<polygon fill="midnightblue" stroke="midnightblue" points="345.225,-309.58 355.43,-312.428 349.229,-303.838 345.225,-309.58"/>
</g>
<!-- Node15 -->
<g id="node10" class="node"><title>Node15</title>
<g id="a_node10"><a xlink:href="_ivy_manager_8cpp.html" target="_top" xlink:title=" ">
<polygon fill="white" stroke="black" points="0,-234.5 0,-275.5 175,-275.5 175,-234.5 0,-234.5"/>
<text text-anchor="start" x="8" y="-263.5" font-family="Helvetica,sans-Serif" font-size="10.00">C:/Users/osyri/Desktop</text>
<text text-anchor="start" x="8" y="-252.5" font-family="Helvetica,sans-Serif" font-size="10.00">/IVY&#45;Inventory&#45;Manager</text>
<text text-anchor="middle" x="87.5" y="-241.5" font-family="Helvetica,sans-Serif" font-size="10.00">/src/ivy/ivy_manager/IvyManager.cpp</text>
</a>
</g>
</g>
<!-- Node10&#45;&gt;Node15 -->
<g id="edge11" class="edge"><title>Node10&#45;&gt;Node15</title>
<path fill="none" stroke="midnightblue" d="M297.524,-309.925C255.122,-299.038 204.428,-286.022 163.469,-275.506"/>
<polygon fill="midnightblue" stroke="midnightblue" points="296.716,-313.331 307.273,-312.428 298.457,-306.551 296.716,-313.331"/>
</g>
<!-- Node11&#45;&gt;Node8 -->
<g id="edge7" class="edge"><title>Node11&#45;&gt;Node8</title>
<path fill="none" stroke="midnightblue" d="M438.019,-153.85C484.888,-141.567 542.028,-126.593 584.145,-115.555"/>
<polygon fill="midnightblue" stroke="midnightblue" points="436.968,-150.507 428.182,-156.428 438.743,-157.279 436.968,-150.507"/>
</g>
<!-- Node12 -->
<g id="node7" class="node"><title>Node12</title>
<g id="a_node7"><a xlink:href="_interface_c_l_i_8cpp.html" target="_top" xlink:title=" ">
<polygon fill="white" stroke="black" points="273.5,-78.5 273.5,-119.5 433.5,-119.5 433.5,-78.5 273.5,-78.5"/>
<text text-anchor="start" x="281.5" y="-107.5" font-family="Helvetica,sans-Serif" font-size="10.00">C:/Users/osyri/Desktop</text>
<text text-anchor="start" x="281.5" y="-96.5" font-family="Helvetica,sans-Serif" font-size="10.00">/IVY&#45;Inventory&#45;Manager</text>
<text text-anchor="middle" x="353.5" y="-85.5" font-family="Helvetica,sans-Serif" font-size="10.00">/src/ivy/interface/InterfaceCLI.cpp</text>
</a>
</g>
</g>
<!-- Node11&#45;&gt;Node12 -->
<g id="edge6" class="edge"><title>Node11&#45;&gt;Node12</title>
<path fill="none" stroke="midnightblue" d="M353.5,-146.297C353.5,-137.301 353.5,-127.653 353.5,-119.506"/>
<polygon fill="midnightblue" stroke="midnightblue" points="350,-146.428 353.5,-156.428 357,-146.428 350,-146.428"/>
</g>
<!-- Node14 -->
<g id="node9" class="node"><title>Node14</title>
<g id="a_node9"><a xlink:href="_interface_g_u_i_8cpp.html" target="_top" xlink:title=" ">
<polygon fill="white" stroke="black" points="93.5,-156.5 93.5,-197.5 255.5,-197.5 255.5,-156.5 93.5,-156.5"/>
<text text-anchor="start" x="101.5" y="-185.5" font-family="Helvetica,sans-Serif" font-size="10.00">C:/Users/osyri/Desktop</text>
<text text-anchor="start" x="101.5" y="-174.5" font-family="Helvetica,sans-Serif" font-size="10.00">/IVY&#45;Inventory&#45;Manager</text>
<text text-anchor="middle" x="174.5" y="-163.5" font-family="Helvetica,sans-Serif" font-size="10.00">/src/ivy/interface/InterfaceGUI.cpp</text>
</a>
</g>
</g>
<!-- Node13&#45;&gt;Node14 -->
<g id="edge9" class="edge"><title>Node13&#45;&gt;Node14</title>
<path fill="none" stroke="midnightblue" d="M240.75,-228.35C227.489,-218.272 212.517,-206.893 200.165,-197.506"/>
<polygon fill="midnightblue" stroke="midnightblue" points="238.668,-231.164 248.748,-234.428 242.904,-225.591 238.668,-231.164"/>
</g>
<!-- Node16&#45;&gt;Node8 -->
<g id="edge13" class="edge"><title>Node16&#45;&gt;Node8</title>
<path fill="none" stroke="midnightblue" d="M832.327,-307.52C845.925,-299.622 858.361,-289.332 866.5,-276 876.227,-260.068 874.111,-251.045 866.5,-234 837.22,-168.424 758.287,-132.614 702.675,-114.892"/>
<polygon fill="midnightblue" stroke="midnightblue" points="830.423,-304.569 823.257,-312.372 833.725,-310.741 830.423,-304.569"/>
</g>
<!-- Node17 -->
<g id="node12" class="node"><title>Node17</title>
<g id="a_node12"><a xlink:href="_locadora_c_l_i_8hpp.html" target="_top" xlink:title=" ">
<polygon fill="white" stroke="black" points="695,-234.5 695,-275.5 858,-275.5 858,-234.5 695,-234.5"/>
<text text-anchor="start" x="703" y="-263.5" font-family="Helvetica,sans-Serif" font-size="10.00">C:/Users/osyri/Desktop</text>
<text text-anchor="start" x="703" y="-252.5" font-family="Helvetica,sans-Serif" font-size="10.00">/IVY&#45;Inventory&#45;Manager</text>
<text text-anchor="middle" x="776.5" y="-241.5" font-family="Helvetica,sans-Serif" font-size="10.00">/src/ivy/locadora/LocadoraCLI.hpp</text>
</a>
</g>
</g>
<!-- Node16&#45;&gt;Node17 -->
<g id="edge14" class="edge"><title>Node16&#45;&gt;Node17</title>
<path fill="none" stroke="midnightblue" d="M764.853,-302.59C767.122,-293.511 769.565,-283.742 771.624,-275.506"/>
<polygon fill="midnightblue" stroke="midnightblue" points="761.423,-301.878 762.393,-312.428 768.214,-303.576 761.423,-301.878"/>
</g>
<!-- Node19 -->
<g id="node14" class="node"><title>Node19</title>
<g id="a_node14"><a xlink:href="_locadora_8cpp.html" target="_top" xlink:title=" ">
<polygon fill="white" stroke="black" points="528,-234.5 528,-275.5 677,-275.5 677,-234.5 528,-234.5"/>
<text text-anchor="start" x="536" y="-263.5" font-family="Helvetica,sans-Serif" font-size="10.00">C:/Users/osyri/Desktop</text>
<text text-anchor="start" x="536" y="-252.5" font-family="Helvetica,sans-Serif" font-size="10.00">/IVY&#45;Inventory&#45;Manager</text>
<text text-anchor="middle" x="602.5" y="-241.5" font-family="Helvetica,sans-Serif" font-size="10.00">/src/ivy/locadora/Locadora.cpp</text>
</a>
</g>
</g>
<!-- Node16&#45;&gt;Node19 -->
<g id="edge18" class="edge"><title>Node16&#45;&gt;Node19</title>
<path fill="none" stroke="midnightblue" d="M708.365,-307.908C687.053,-297.458 662.42,-285.38 642.281,-275.506"/>
<polygon fill="midnightblue" stroke="midnightblue" points="707.064,-311.168 717.584,-312.428 710.146,-304.883 707.064,-311.168"/>
</g>
<!-- Node17&#45;&gt;Node8 -->
<g id="edge16" class="edge"><title>Node17&#45;&gt;Node8</title>
<path fill="none" stroke="midnightblue" d="M777.063,-224.253C775.994,-203.221 771.45,-175.423 756.5,-156 743.011,-138.476 722.577,-126.063 702.777,-117.456"/>
<polygon fill="midnightblue" stroke="midnightblue" points="773.564,-224.362 777.34,-234.261 780.562,-224.168 773.564,-224.362"/>
</g>
<!-- Node17&#45;&gt;Node11 -->
<g id="edge15" class="edge"><title>Node17&#45;&gt;Node11</title>
<path fill="none" stroke="midnightblue" d="M684.658,-233.88C592.805,-216.209 498.53,-200.672 433.528,-190.366"/>
<polygon fill="midnightblue" stroke="midnightblue" points="684.204,-237.357 694.687,-235.82 685.534,-230.484 684.204,-237.357"/>
</g>
<!-- Node18 -->
<g id="node13" class="node"><title>Node18</title>
<g id="a_node13"><a xlink:href="_locadora_c_l_i_8cpp.html" target="_top" xlink:title=" ">
<polygon fill="white" stroke="black" points="585,-156.5 585,-197.5 748,-197.5 748,-156.5 585,-156.5"/>
<text text-anchor="start" x="593" y="-185.5" font-family="Helvetica,sans-Serif" font-size="10.00">C:/Users/osyri/Desktop</text>
<text text-anchor="start" x="593" y="-174.5" font-family="Helvetica,sans-Serif" font-size="10.00">/IVY&#45;Inventory&#45;Manager</text>
<text text-anchor="middle" x="666.5" y="-163.5" font-family="Helvetica,sans-Serif" font-size="10.00">/src/ivy/locadora/LocadoraCLI.cpp</text>
</a>
</g>
</g>
<!-- Node17&#45;&gt;Node18 -->
<g id="edge17" class="edge"><title>Node17&#45;&gt;Node18</title>
<path fill="none" stroke="midnightblue" d="M739.788,-228.635C725.099,-218.487 708.447,-206.982 694.732,-197.506"/>
<polygon fill="midnightblue" stroke="midnightblue" points="737.955,-231.623 748.172,-234.428 741.934,-225.864 737.955,-231.623"/>
</g>
</g>
</svg>
