<?xml version="1.0" encoding="UTF-8" standalone="no"?>
<!DOCTYPE svg PUBLIC "-//W3C//DTD SVG 1.1//EN"
 "http://www.w3.org/Graphics/SVG/1.1/DTD/svg11.dtd">
<!-- Generated by graphviz version 2.38.0 (20140413.2041)
 -->
<!-- Title: C:/Users/osyri/Desktop/IVY&#45;Inventory&#45;Manager/src/ivy/vetor/Vetor.cpp Pages: 1 -->
<svg width="319pt" height="285pt"
 viewBox="0.00 0.00 319.00 285.00" xmlns="http://www.w3.org/2000/svg" xmlns:xlink="http://www.w3.org/1999/xlink">
<g id="graph0" class="graph" transform="scale(1 1) rotate(0) translate(4 281)">
<title>C:/Users/osyri/Desktop/IVY&#45;Inventory&#45;Manager/src/ivy/vetor/Vetor.cpp</title>
<polygon fill="white" stroke="none" points="-4,4 -4,-281 315,-281 315,4 -4,4"/>
<!-- Node0 -->
<g id="node1" class="node"><title>Node0</title>
<g id="a_node1"><a xlink:title=" ">
<polygon fill="#bfbfbf" stroke="black" points="87.5,-235.5 87.5,-276.5 205.5,-276.5 205.5,-235.5 87.5,-235.5"/>
<text text-anchor="start" x="95.5" y="-264.5" font-family="Helvetica,sans-Serif" font-size="10.00">C:/Users/osyri/Desktop</text>
<text text-anchor="start" x="95.5" y="-253.5" font-family="Helvetica,sans-Serif" font-size="10.00">/IVY&#45;Inventory&#45;Manager</text>
<text text-anchor="middle" x="146.5" y="-242.5" font-family="Helvetica,sans-Serif" font-size="10.00">/src/ivy/vetor/Vetor.cpp</text>
</a>
</g>
</g>
<!-- Node1 -->
<g id="node2" class="node"><title>Node1</title>
<g id="a_node2"><a xlink:href="_vetor_8hpp.html" target="_top" xlink:title=" ">
<polygon fill="white" stroke="black" points="117,-179.5 117,-198.5 176,-198.5 176,-179.5 117,-179.5"/>
<text text-anchor="middle" x="146.5" y="-186.5" font-family="Helvetica,sans-Serif" font-size="10.00">Vetor.hpp</text>
</a>
</g>
</g>
<!-- Node0&#45;&gt;Node1 -->
<g id="edge1" class="edge"><title>Node0&#45;&gt;Node1</title>
<path fill="none" stroke="midnightblue" d="M146.5,-235.498C146.5,-227.065 146.5,-217.235 146.5,-208.874"/>
<polygon fill="midnightblue" stroke="midnightblue" points="150,-208.652 146.5,-198.652 143,-208.653 150,-208.652"/>
</g>
<!-- Node2 -->
<g id="node3" class="node"><title>Node2</title>
<g id="a_node3"><a xlink:href="_produto_8hpp.html" target="_top" xlink:title=" ">
<polygon fill="white" stroke="black" points="14.5,-123.5 14.5,-142.5 118.5,-142.5 118.5,-123.5 14.5,-123.5"/>
<text text-anchor="middle" x="66.5" y="-130.5" font-family="Helvetica,sans-Serif" font-size="10.00">produto/Produto.hpp</text>
</a>
</g>
</g>
<!-- Node1&#45;&gt;Node2 -->
<g id="edge2" class="edge"><title>Node1&#45;&gt;Node2</title>
<path fill="none" stroke="midnightblue" d="M133.647,-179.324C121.284,-170.979 102.37,-158.212 87.7628,-148.352"/>
<polygon fill="midnightblue" stroke="midnightblue" points="89.5682,-145.348 79.3215,-142.655 85.6518,-151.15 89.5682,-145.348"/>
</g>
<!-- Node3 -->
<g id="node4" class="node"><title>Node3</title>
<g id="a_node4"><a xlink:href="_ivy_log_8hpp.html" target="_top" xlink:title=" ">
<polygon fill="white" stroke="black" points="108.5,-67.5 108.5,-86.5 186.5,-86.5 186.5,-67.5 108.5,-67.5"/>
<text text-anchor="middle" x="147.5" y="-74.5" font-family="Helvetica,sans-Serif" font-size="10.00">log/IvyLog.hpp</text>
</a>
</g>
</g>
<!-- Node1&#45;&gt;Node3 -->
<g id="edge8" class="edge"><title>Node1&#45;&gt;Node3</title>
<path fill="none" stroke="midnightblue" d="M146.578,-179.368C146.74,-161.617 147.112,-120.666 147.331,-96.5974"/>
<polygon fill="midnightblue" stroke="midnightblue" points="150.831,-96.6229 147.422,-86.5914 143.831,-96.5592 150.831,-96.6229"/>
</g>
<!-- Node8 -->
<g id="node9" class="node"><title>Node8</title>
<g id="a_node9"><a xlink:href="_jogo_8hpp.html" target="_top" xlink:title=" ">
<polygon fill="white" stroke="black" points="174.5,-123.5 174.5,-142.5 290.5,-142.5 290.5,-123.5 174.5,-123.5"/>
<text text-anchor="middle" x="232.5" y="-130.5" font-family="Helvetica,sans-Serif" font-size="10.00">locadora/jogo/Jogo.hpp</text>
</a>
</g>
</g>
<!-- Node1&#45;&gt;Node8 -->
<g id="edge9" class="edge"><title>Node1&#45;&gt;Node8</title>
<path fill="none" stroke="midnightblue" d="M160.317,-179.324C173.733,-170.9 194.324,-157.971 210.086,-148.074"/>
<polygon fill="midnightblue" stroke="midnightblue" points="212.109,-150.936 218.717,-142.655 208.387,-145.008 212.109,-150.936"/>
</g>
<!-- Node2&#45;&gt;Node3 -->
<g id="edge3" class="edge"><title>Node2&#45;&gt;Node3</title>
<path fill="none" stroke="midnightblue" d="M79.5141,-123.324C92.0316,-114.979 111.182,-102.212 125.971,-92.3524"/>
<polygon fill="midnightblue" stroke="midnightblue" points="128.139,-95.1137 134.518,-86.6545 124.256,-89.2894 128.139,-95.1137"/>
</g>
<!-- Node7 -->
<g id="node8" class="node"><title>Node7</title>
<g id="a_node8"><a xlink:title=" ">
<polygon fill="white" stroke="#bfbfbf" points="41,-67.5 41,-86.5 90,-86.5 90,-67.5 41,-67.5"/>
<text text-anchor="middle" x="65.5" y="-74.5" font-family="Helvetica,sans-Serif" font-size="10.00">fstream</text>
</a>
</g>
</g>
<!-- Node2&#45;&gt;Node7 -->
<g id="edge7" class="edge"><title>Node2&#45;&gt;Node7</title>
<path fill="none" stroke="midnightblue" d="M66.3349,-123.083C66.2038,-116.006 66.0159,-105.861 65.8516,-96.9865"/>
<polygon fill="midnightblue" stroke="midnightblue" points="69.3467,-96.6845 65.6621,-86.7511 62.3479,-96.8142 69.3467,-96.6845"/>
</g>
<!-- Node4 -->
<g id="node5" class="node"><title>Node4</title>
<g id="a_node5"><a xlink:title=" ">
<polygon fill="white" stroke="#bfbfbf" points="0,-6 0,-25 85,-25 85,-6 0,-6"/>
<text text-anchor="middle" x="42.5" y="-13" font-family="Helvetica,sans-Serif" font-size="10.00">spdlog/spdlog.h</text>
</a>
</g>
</g>
<!-- Node3&#45;&gt;Node4 -->
<g id="edge4" class="edge"><title>Node3&#45;&gt;Node4</title>
<path fill="none" stroke="midnightblue" d="M132.456,-67.4751C115.225,-57.7106 86.7601,-41.5807 66.4661,-30.0808"/>
<polygon fill="midnightblue" stroke="midnightblue" points="67.9418,-26.8942 57.516,-25.0091 64.4907,-32.9843 67.9418,-26.8942"/>
</g>
<!-- Node5 -->
<g id="node6" class="node"><title>Node5</title>
<g id="a_node6"><a xlink:title=" ">
<polygon fill="white" stroke="#bfbfbf" points="103,-6 103,-25 192,-25 192,-6 103,-6"/>
<text text-anchor="middle" x="147.5" y="-13" font-family="Helvetica,sans-Serif" font-size="10.00">spdlog/fmt/ostr.h</text>
</a>
</g>
</g>
<!-- Node3&#45;&gt;Node5 -->
<g id="edge5" class="edge"><title>Node3&#45;&gt;Node5</title>
<path fill="none" stroke="midnightblue" d="M147.5,-67.4751C147.5,-59.0803 147.5,-45.9806 147.5,-35.1631"/>
<polygon fill="midnightblue" stroke="midnightblue" points="151,-35.0091 147.5,-25.0091 144,-35.0091 151,-35.0091"/>
</g>
<!-- Node6 -->
<g id="node7" class="node"><title>Node6</title>
<g id="a_node7"><a xlink:title=" ">
<polygon fill="white" stroke="#bfbfbf" points="210,-0.5 210,-30.5 311,-30.5 311,-0.5 210,-0.5"/>
<text text-anchor="start" x="218" y="-18.5" font-family="Helvetica,sans-Serif" font-size="10.00">spdlog/sinks/stdout</text>
<text text-anchor="middle" x="260.5" y="-7.5" font-family="Helvetica,sans-Serif" font-size="10.00">_color_sinks.h</text>
</a>
</g>
</g>
<!-- Node3&#45;&gt;Node6 -->
<g id="edge6" class="edge"><title>Node3&#45;&gt;Node6</title>
<path fill="none" stroke="midnightblue" d="M163.69,-67.4751C179.567,-59.1154 204.303,-46.0902 224.798,-35.2991"/>
<polygon fill="midnightblue" stroke="midnightblue" points="226.65,-38.279 233.868,-30.523 223.389,-32.0852 226.65,-38.279"/>
</g>
<!-- Node8&#45;&gt;Node3 -->
<g id="edge11" class="edge"><title>Node8&#45;&gt;Node3</title>
<path fill="none" stroke="midnightblue" d="M218.843,-123.324C205.584,-114.9 185.232,-101.971 169.654,-92.0741"/>
<polygon fill="midnightblue" stroke="midnightblue" points="171.44,-89.0626 161.123,-86.6545 167.687,-94.9711 171.44,-89.0626"/>
</g>
<!-- Node9 -->
<g id="node10" class="node"><title>Node9</title>
<g id="a_node10"><a xlink:title=" ">
<polygon fill="white" stroke="#bfbfbf" points="212,-67.5 212,-86.5 253,-86.5 253,-67.5 212,-67.5"/>
<text text-anchor="middle" x="232.5" y="-74.5" font-family="Helvetica,sans-Serif" font-size="10.00">string</text>
</a>
</g>
</g>
<!-- Node8&#45;&gt;Node9 -->
<g id="edge10" class="edge"><title>Node8&#45;&gt;Node9</title>
<path fill="none" stroke="midnightblue" d="M232.5,-123.083C232.5,-116.006 232.5,-105.861 232.5,-96.9865"/>
<polygon fill="midnightblue" stroke="midnightblue" points="236,-96.751 232.5,-86.7511 229,-96.7511 236,-96.751"/>
</g>
</g>
</svg>
