<?xml version="1.0" encoding="UTF-8" standalone="no"?>
<!DOCTYPE svg PUBLIC "-//W3C//DTD SVG 1.1//EN"
 "http://www.w3.org/Graphics/SVG/1.1/DTD/svg11.dtd">
<!-- Generated by graphviz version 2.38.0 (20140413.2041)
 -->
<!-- Title: C:/Users/osyri/Desktop/IVY&#45;Inventory&#45;Manager/src/ivy/vetor/Vetor.hpp Pages: 1 -->
<svg width="985pt" height="440pt"
 viewBox="0.00 0.00 984.72 440.00" xmlns="http://www.w3.org/2000/svg" xmlns:xlink="http://www.w3.org/1999/xlink">
<g id="graph0" class="graph" transform="scale(1 1) rotate(0) translate(4 436)">
<title>C:/Users/osyri/Desktop/IVY&#45;Inventory&#45;Manager/src/ivy/vetor/Vetor.hpp</title>
<polygon fill="white" stroke="none" points="-4,4 -4,-436 980.722,-436 980.722,4 -4,4"/>
<!-- Node9 -->
<g id="node1" class="node"><title>Node9</title>
<g id="a_node1"><a xlink:title=" ">
<polygon fill="#bfbfbf" stroke="black" points="596,-390.5 596,-431.5 714,-431.5 714,-390.5 596,-390.5"/>
<text text-anchor="start" x="604" y="-419.5" font-family="Helvetica,sans-Serif" font-size="10.00">C:/Users/osyri/Desktop</text>
<text text-anchor="start" x="604" y="-408.5" font-family="Helvetica,sans-Serif" font-size="10.00">/IVY&#45;Inventory&#45;Manager</text>
<text text-anchor="middle" x="655" y="-397.5" font-family="Helvetica,sans-Serif" font-size="10.00">/src/ivy/vetor/Vetor.hpp</text>
</a>
</g>
</g>
<!-- Node10 -->
<g id="node2" class="node"><title>Node10</title>
<g id="a_node2"><a xlink:href="ivy_8hpp.html" target="_top" xlink:title=" ">
<polygon fill="white" stroke="black" points="565,-78.5 565,-119.5 683,-119.5 683,-78.5 565,-78.5"/>
<text text-anchor="start" x="573" y="-107.5" font-family="Helvetica,sans-Serif" font-size="10.00">C:/Users/osyri/Desktop</text>
<text text-anchor="start" x="573" y="-96.5" font-family="Helvetica,sans-Serif" font-size="10.00">/IVY&#45;Inventory&#45;Manager</text>
<text text-anchor="middle" x="624" y="-85.5" font-family="Helvetica,sans-Serif" font-size="10.00">/src/ivy/ivy.hpp</text>
</a>
</g>
</g>
<!-- Node9&#45;&gt;Node10 -->
<g id="edge1" class="edge"><title>Node9&#45;&gt;Node10</title>
<path fill="none" stroke="midnightblue" d="M637.538,-381.501C633.05,-372.943 628.723,-363.34 626,-354 601.439,-269.751 613.854,-163 620.6,-119.639"/>
<polygon fill="midnightblue" stroke="midnightblue" points="634.508,-383.253 642.405,-390.316 640.636,-379.87 634.508,-383.253"/>
</g>
<!-- Node12 -->
<g id="node4" class="node"><title>Node12</title>
<g id="a_node4"><a xlink:href="_ivy_manager_8hpp.html" target="_top" xlink:title=" ">
<polygon fill="white" stroke="black" points="296.5,-234.5 296.5,-275.5 471.5,-275.5 471.5,-234.5 296.5,-234.5"/>
<text text-anchor="start" x="304.5" y="-263.5" font-family="Helvetica,sans-Serif" font-size="10.00">C:/Users/osyri/Desktop</text>
<text text-anchor="start" x="304.5" y="-252.5" font-family="Helvetica,sans-Serif" font-size="10.00">/IVY&#45;Inventory&#45;Manager</text>
<text text-anchor="middle" x="384" y="-241.5" font-family="Helvetica,sans-Serif" font-size="10.00">/src/ivy/ivy_manager/IvyManager.hpp</text>
</a>
</g>
</g>
<!-- Node9&#45;&gt;Node12 -->
<g id="edge3" class="edge"><title>Node9&#45;&gt;Node12</title>
<path fill="none" stroke="midnightblue" d="M611.75,-385.422C558.095,-354.932 467.696,-303.562 418.471,-275.588"/>
<polygon fill="midnightblue" stroke="midnightblue" points="610.254,-388.598 620.678,-390.496 613.713,-382.512 610.254,-388.598"/>
</g>
<!-- Node18 -->
<g id="node10" class="node"><title>Node18</title>
<g id="a_node10"><a xlink:href="_locadora_8hpp.html" target="_top" xlink:title=" ">
<polygon fill="white" stroke="black" points="635.5,-312.5 635.5,-353.5 784.5,-353.5 784.5,-312.5 635.5,-312.5"/>
<text text-anchor="start" x="643.5" y="-341.5" font-family="Helvetica,sans-Serif" font-size="10.00">C:/Users/osyri/Desktop</text>
<text text-anchor="start" x="643.5" y="-330.5" font-family="Helvetica,sans-Serif" font-size="10.00">/IVY&#45;Inventory&#45;Manager</text>
<text text-anchor="middle" x="710" y="-319.5" font-family="Helvetica,sans-Serif" font-size="10.00">/src/ivy/locadora/Locadora.hpp</text>
</a>
</g>
</g>
<!-- Node9&#45;&gt;Node18 -->
<g id="edge11" class="edge"><title>Node9&#45;&gt;Node18</title>
<path fill="none" stroke="midnightblue" d="M675.229,-382.048C682.091,-372.566 689.603,-362.185 695.884,-353.506"/>
<polygon fill="midnightblue" stroke="midnightblue" points="672.191,-380.275 669.164,-390.428 677.862,-384.379 672.191,-380.275"/>
</g>
<!-- Node22 -->
<g id="node14" class="node"><title>Node22</title>
<g id="a_node14"><a xlink:href="_vetor_8cpp.html" target="_top" xlink:title=" ">
<polygon fill="white" stroke="black" points="803,-312.5 803,-353.5 921,-353.5 921,-312.5 803,-312.5"/>
<text text-anchor="start" x="811" y="-341.5" font-family="Helvetica,sans-Serif" font-size="10.00">C:/Users/osyri/Desktop</text>
<text text-anchor="start" x="811" y="-330.5" font-family="Helvetica,sans-Serif" font-size="10.00">/IVY&#45;Inventory&#45;Manager</text>
<text text-anchor="middle" x="862" y="-319.5" font-family="Helvetica,sans-Serif" font-size="10.00">/src/ivy/vetor/Vetor.cpp</text>
</a>
</g>
</g>
<!-- Node9&#45;&gt;Node22 -->
<g id="edge18" class="edge"><title>Node9&#45;&gt;Node22</title>
<path fill="none" stroke="midnightblue" d="M717.952,-386.887C747.01,-376.219 781.134,-363.69 808.873,-353.506"/>
<polygon fill="midnightblue" stroke="midnightblue" points="716.489,-383.696 708.308,-390.428 718.901,-390.267 716.489,-383.696"/>
</g>
<!-- Node11 -->
<g id="node3" class="node"><title>Node11</title>
<g id="a_node3"><a xlink:href="main_8cpp.html" target="_top" xlink:title=" ">
<polygon fill="white" stroke="black" points="565,-0.5 565,-41.5 683,-41.5 683,-0.5 565,-0.5"/>
<text text-anchor="start" x="573" y="-29.5" font-family="Helvetica,sans-Serif" font-size="10.00">C:/Users/osyri/Desktop</text>
<text text-anchor="start" x="573" y="-18.5" font-family="Helvetica,sans-Serif" font-size="10.00">/IVY&#45;Inventory&#45;Manager</text>
<text text-anchor="middle" x="624" y="-7.5" font-family="Helvetica,sans-Serif" font-size="10.00">/src/main.cpp</text>
</a>
</g>
</g>
<!-- Node10&#45;&gt;Node11 -->
<g id="edge2" class="edge"><title>Node10&#45;&gt;Node11</title>
<path fill="none" stroke="midnightblue" d="M624,-68.2965C624,-59.3009 624,-49.6532 624,-41.5056"/>
<polygon fill="midnightblue" stroke="midnightblue" points="620.5,-68.4281 624,-78.4281 627.5,-68.4281 620.5,-68.4281"/>
</g>
<!-- Node12&#45;&gt;Node10 -->
<g id="edge9" class="edge"><title>Node12&#45;&gt;Node10</title>
<path fill="none" stroke="midnightblue" d="M381.798,-224.252C381.882,-202.558 385.764,-173.932 403,-156 451.409,-105.636 488.465,-137.862 556,-120 558.855,-119.245 561.773,-118.455 564.716,-117.645"/>
<polygon fill="midnightblue" stroke="midnightblue" points="378.299,-224.348 382.02,-234.268 385.298,-224.192 378.299,-224.348"/>
</g>
<!-- Node13 -->
<g id="node5" class="node"><title>Node13</title>
<g id="a_node5"><a xlink:href="_interface_c_l_i_8hpp.html" target="_top" xlink:title=" ">
<polygon fill="white" stroke="black" points="412,-156.5 412,-197.5 572,-197.5 572,-156.5 412,-156.5"/>
<text text-anchor="start" x="420" y="-185.5" font-family="Helvetica,sans-Serif" font-size="10.00">C:/Users/osyri/Desktop</text>
<text text-anchor="start" x="420" y="-174.5" font-family="Helvetica,sans-Serif" font-size="10.00">/IVY&#45;Inventory&#45;Manager</text>
<text text-anchor="middle" x="492" y="-163.5" font-family="Helvetica,sans-Serif" font-size="10.00">/src/ivy/interface/InterfaceCLI.hpp</text>
</a>
</g>
</g>
<!-- Node12&#45;&gt;Node13 -->
<g id="edge4" class="edge"><title>Node12&#45;&gt;Node13</title>
<path fill="none" stroke="midnightblue" d="M420.045,-228.635C434.466,-218.487 450.816,-206.982 464.282,-197.506"/>
<polygon fill="midnightblue" stroke="midnightblue" points="417.977,-225.811 411.813,-234.428 422.005,-231.535 417.977,-225.811"/>
</g>
<!-- Node15 -->
<g id="node7" class="node"><title>Node15</title>
<g id="a_node7"><a xlink:href="_interface_g_u_i_8hpp.html" target="_top" xlink:title=" ">
<polygon fill="white" stroke="black" points="0,-156.5 0,-197.5 162,-197.5 162,-156.5 0,-156.5"/>
<text text-anchor="start" x="8" y="-185.5" font-family="Helvetica,sans-Serif" font-size="10.00">C:/Users/osyri/Desktop</text>
<text text-anchor="start" x="8" y="-174.5" font-family="Helvetica,sans-Serif" font-size="10.00">/IVY&#45;Inventory&#45;Manager</text>
<text text-anchor="middle" x="81" y="-163.5" font-family="Helvetica,sans-Serif" font-size="10.00">/src/ivy/interface/InterfaceGUI.hpp</text>
</a>
</g>
</g>
<!-- Node12&#45;&gt;Node15 -->
<g id="edge7" class="edge"><title>Node12&#45;&gt;Node15</title>
<path fill="none" stroke="midnightblue" d="M296.264,-231.994C252.805,-221.093 200.782,-208.044 158.766,-197.506"/>
<polygon fill="midnightblue" stroke="midnightblue" points="295.419,-235.39 305.97,-234.428 297.122,-228.6 295.419,-235.39"/>
</g>
<!-- Node17 -->
<g id="node9" class="node"><title>Node17</title>
<g id="a_node9"><a xlink:href="_ivy_manager_8cpp.html" target="_top" xlink:title=" ">
<polygon fill="white" stroke="black" points="180.5,-156.5 180.5,-197.5 355.5,-197.5 355.5,-156.5 180.5,-156.5"/>
<text text-anchor="start" x="188.5" y="-185.5" font-family="Helvetica,sans-Serif" font-size="10.00">C:/Users/osyri/Desktop</text>
<text text-anchor="start" x="188.5" y="-174.5" font-family="Helvetica,sans-Serif" font-size="10.00">/IVY&#45;Inventory&#45;Manager</text>
<text text-anchor="middle" x="268" y="-163.5" font-family="Helvetica,sans-Serif" font-size="10.00">/src/ivy/ivy_manager/IvyManager.cpp</text>
</a>
</g>
</g>
<!-- Node12&#45;&gt;Node17 -->
<g id="edge10" class="edge"><title>Node12&#45;&gt;Node17</title>
<path fill="none" stroke="midnightblue" d="M345.719,-228.919C330.124,-218.702 312.37,-207.07 297.772,-197.506"/>
<polygon fill="midnightblue" stroke="midnightblue" points="343.844,-231.875 354.127,-234.428 347.681,-226.02 343.844,-231.875"/>
</g>
<!-- Node13&#45;&gt;Node10 -->
<g id="edge6" class="edge"><title>Node13&#45;&gt;Node10</title>
<path fill="none" stroke="midnightblue" d="M535.069,-151.203C552.933,-140.918 573.356,-129.159 590.122,-119.506"/>
<polygon fill="midnightblue" stroke="midnightblue" points="532.913,-148.405 525.993,-156.428 536.406,-154.472 532.913,-148.405"/>
</g>
<!-- Node14 -->
<g id="node6" class="node"><title>Node14</title>
<g id="a_node6"><a xlink:href="_interface_c_l_i_8cpp.html" target="_top" xlink:title=" ">
<polygon fill="white" stroke="black" points="387,-78.5 387,-119.5 547,-119.5 547,-78.5 387,-78.5"/>
<text text-anchor="start" x="395" y="-107.5" font-family="Helvetica,sans-Serif" font-size="10.00">C:/Users/osyri/Desktop</text>
<text text-anchor="start" x="395" y="-96.5" font-family="Helvetica,sans-Serif" font-size="10.00">/IVY&#45;Inventory&#45;Manager</text>
<text text-anchor="middle" x="467" y="-85.5" font-family="Helvetica,sans-Serif" font-size="10.00">/src/ivy/interface/InterfaceCLI.cpp</text>
</a>
</g>
</g>
<!-- Node13&#45;&gt;Node14 -->
<g id="edge5" class="edge"><title>Node13&#45;&gt;Node14</title>
<path fill="none" stroke="midnightblue" d="M482.422,-146.882C479.408,-137.721 476.155,-127.83 473.416,-119.506"/>
<polygon fill="midnightblue" stroke="midnightblue" points="479.112,-148.023 485.562,-156.428 485.762,-145.835 479.112,-148.023"/>
</g>
<!-- Node16 -->
<g id="node8" class="node"><title>Node16</title>
<g id="a_node8"><a xlink:href="_interface_g_u_i_8cpp.html" target="_top" xlink:title=" ">
<polygon fill="white" stroke="black" points="0,-78.5 0,-119.5 162,-119.5 162,-78.5 0,-78.5"/>
<text text-anchor="start" x="8" y="-107.5" font-family="Helvetica,sans-Serif" font-size="10.00">C:/Users/osyri/Desktop</text>
<text text-anchor="start" x="8" y="-96.5" font-family="Helvetica,sans-Serif" font-size="10.00">/IVY&#45;Inventory&#45;Manager</text>
<text text-anchor="middle" x="81" y="-85.5" font-family="Helvetica,sans-Serif" font-size="10.00">/src/ivy/interface/InterfaceGUI.cpp</text>
</a>
</g>
</g>
<!-- Node15&#45;&gt;Node16 -->
<g id="edge8" class="edge"><title>Node15&#45;&gt;Node16</title>
<path fill="none" stroke="midnightblue" d="M81,-146.297C81,-137.301 81,-127.653 81,-119.506"/>
<polygon fill="midnightblue" stroke="midnightblue" points="77.5001,-146.428 81,-156.428 84.5001,-146.428 77.5001,-146.428"/>
</g>
<!-- Node18&#45;&gt;Node10 -->
<g id="edge12" class="edge"><title>Node18&#45;&gt;Node10</title>
<path fill="none" stroke="midnightblue" d="M794.492,-312.065C886.015,-294.396 1010.43,-303.895 968,-234 908.627,-136.206 764.806,-109.641 683.168,-102.519"/>
<polygon fill="midnightblue" stroke="midnightblue" points="793.71,-308.653 784.628,-314.11 795.131,-315.507 793.71,-308.653"/>
</g>
<!-- Node19 -->
<g id="node11" class="node"><title>Node19</title>
<g id="a_node11"><a xlink:href="_locadora_c_l_i_8hpp.html" target="_top" xlink:title=" ">
<polygon fill="white" stroke="black" points="628.5,-234.5 628.5,-275.5 791.5,-275.5 791.5,-234.5 628.5,-234.5"/>
<text text-anchor="start" x="636.5" y="-263.5" font-family="Helvetica,sans-Serif" font-size="10.00">C:/Users/osyri/Desktop</text>
<text text-anchor="start" x="636.5" y="-252.5" font-family="Helvetica,sans-Serif" font-size="10.00">/IVY&#45;Inventory&#45;Manager</text>
<text text-anchor="middle" x="710" y="-241.5" font-family="Helvetica,sans-Serif" font-size="10.00">/src/ivy/locadora/LocadoraCLI.hpp</text>
</a>
</g>
</g>
<!-- Node18&#45;&gt;Node19 -->
<g id="edge13" class="edge"><title>Node18&#45;&gt;Node19</title>
<path fill="none" stroke="midnightblue" d="M710,-302.297C710,-293.301 710,-283.653 710,-275.506"/>
<polygon fill="midnightblue" stroke="midnightblue" points="706.5,-302.428 710,-312.428 713.5,-302.428 706.5,-302.428"/>
</g>
<!-- Node21 -->
<g id="node13" class="node"><title>Node21</title>
<g id="a_node13"><a xlink:href="_locadora_8cpp.html" target="_top" xlink:title=" ">
<polygon fill="white" stroke="black" points="809.5,-234.5 809.5,-275.5 958.5,-275.5 958.5,-234.5 809.5,-234.5"/>
<text text-anchor="start" x="817.5" y="-263.5" font-family="Helvetica,sans-Serif" font-size="10.00">C:/Users/osyri/Desktop</text>
<text text-anchor="start" x="817.5" y="-252.5" font-family="Helvetica,sans-Serif" font-size="10.00">/IVY&#45;Inventory&#45;Manager</text>
<text text-anchor="middle" x="884" y="-241.5" font-family="Helvetica,sans-Serif" font-size="10.00">/src/ivy/locadora/Locadora.cpp</text>
</a>
</g>
</g>
<!-- Node18&#45;&gt;Node21 -->
<g id="edge17" class="edge"><title>Node18&#45;&gt;Node21</title>
<path fill="none" stroke="midnightblue" d="M764.194,-308.329C788.338,-297.783 816.431,-285.513 839.343,-275.506"/>
<polygon fill="midnightblue" stroke="midnightblue" points="762.572,-305.218 754.809,-312.428 765.374,-311.633 762.572,-305.218"/>
</g>
<!-- Node19&#45;&gt;Node10 -->
<g id="edge15" class="edge"><title>Node19&#45;&gt;Node10</title>
<path fill="none" stroke="midnightblue" d="M769.162,-229.123C781.487,-221.068 792.884,-210.809 800,-198 809.065,-181.682 811.018,-171.068 800,-156 773.503,-119.763 723.35,-106.412 683.34,-101.753"/>
<polygon fill="midnightblue" stroke="midnightblue" points="767.265,-226.18 760.522,-234.352 770.889,-232.169 767.265,-226.18"/>
</g>
<!-- Node19&#45;&gt;Node13 -->
<g id="edge14" class="edge"><title>Node19&#45;&gt;Node13</title>
<path fill="none" stroke="midnightblue" d="M644.102,-231.026C613.413,-220.328 577.291,-207.734 547.95,-197.506"/>
<polygon fill="midnightblue" stroke="midnightblue" points="643.265,-234.441 653.86,-234.428 645.569,-227.831 643.265,-234.441"/>
</g>
<!-- Node20 -->
<g id="node12" class="node"><title>Node20</title>
<g id="a_node12"><a xlink:href="_locadora_c_l_i_8cpp.html" target="_top" xlink:title=" ">
<polygon fill="white" stroke="black" points="628.5,-156.5 628.5,-197.5 791.5,-197.5 791.5,-156.5 628.5,-156.5"/>
<text text-anchor="start" x="636.5" y="-185.5" font-family="Helvetica,sans-Serif" font-size="10.00">C:/Users/osyri/Desktop</text>
<text text-anchor="start" x="636.5" y="-174.5" font-family="Helvetica,sans-Serif" font-size="10.00">/IVY&#45;Inventory&#45;Manager</text>
<text text-anchor="middle" x="710" y="-163.5" font-family="Helvetica,sans-Serif" font-size="10.00">/src/ivy/locadora/LocadoraCLI.cpp</text>
</a>
</g>
</g>
<!-- Node19&#45;&gt;Node20 -->
<g id="edge16" class="edge"><title>Node19&#45;&gt;Node20</title>
<path fill="none" stroke="midnightblue" d="M710,-224.297C710,-215.301 710,-205.653 710,-197.506"/>
<polygon fill="midnightblue" stroke="midnightblue" points="706.5,-224.428 710,-234.428 713.5,-224.428 706.5,-224.428"/>
</g>
</g>
</svg>
