<?xml version="1.0" encoding="UTF-8" standalone="no"?>
<!DOCTYPE svg PUBLIC "-//W3C//DTD SVG 1.1//EN"
 "http://www.w3.org/Graphics/SVG/1.1/DTD/svg11.dtd">
<!-- Generated by graphviz version 2.38.0 (20140413.2041)
 -->
<!-- Title: ivy::Vetor&lt; _Tipo &gt; Pages: 1 -->
<svg width="272pt" height="380pt"
 viewBox="0.00 0.00 272.00 380.00" xmlns="http://www.w3.org/2000/svg" xmlns:xlink="http://www.w3.org/1999/xlink">
<g id="graph0" class="graph" transform="scale(1 1) rotate(0) translate(4 376)">
<title>ivy::Vetor&lt; _Tipo &gt;</title>
<polygon fill="white" stroke="none" points="-4,4 -4,-376 268,-376 268,4 -4,4"/>
<!-- Node0 -->
<g id="node1" class="node"><title>Node0</title>
<g id="a_node1"><a xlink:title="Classe Vetor para manipulacao de vetores.">
<polygon fill="#bfbfbf" stroke="black" points="81,-215.5 81,-371.5 179,-371.5 179,-215.5 81,-215.5"/>
<text text-anchor="middle" x="130" y="-359.5" font-family="Helvetica,sans-Serif" font-size="10.00">ivy::Vetor&lt; _Tipo &gt;</text>
<polyline fill="none" stroke="black" points="81,-352.5 179,-352.5 "/>
<text text-anchor="start" x="89" y="-340.5" font-family="Helvetica,sans-Serif" font-size="10.00">&#45; m_capacidade</text>
<text text-anchor="start" x="89" y="-329.5" font-family="Helvetica,sans-Serif" font-size="10.00">&#45; m_tamanho</text>
<text text-anchor="start" x="89" y="-318.5" font-family="Helvetica,sans-Serif" font-size="10.00">&#45; m_dados</text>
<polyline fill="none" stroke="black" points="81,-311.5 179,-311.5 "/>
<text text-anchor="start" x="89" y="-299.5" font-family="Helvetica,sans-Serif" font-size="10.00">+ Vetor()</text>
<text text-anchor="start" x="89" y="-288.5" font-family="Helvetica,sans-Serif" font-size="10.00">+ ~Vetor()</text>
<text text-anchor="start" x="89" y="-277.5" font-family="Helvetica,sans-Serif" font-size="10.00">+ adicionar()</text>
<text text-anchor="start" x="89" y="-266.5" font-family="Helvetica,sans-Serif" font-size="10.00">+ remover()</text>
<text text-anchor="start" x="89" y="-255.5" font-family="Helvetica,sans-Serif" font-size="10.00">+ get()</text>
<text text-anchor="start" x="89" y="-244.5" font-family="Helvetica,sans-Serif" font-size="10.00">+ get_tamanho()</text>
<text text-anchor="start" x="89" y="-233.5" font-family="Helvetica,sans-Serif" font-size="10.00">+ operator=()</text>
<text text-anchor="start" x="89" y="-222.5" font-family="Helvetica,sans-Serif" font-size="10.00">&#45; expandir()</text>
</a>
</g>
</g>
<!-- Node1 -->
<g id="node2" class="node"><title>Node1</title>
<g id="a_node2"><a xlink:href="classivy_1_1_vetor.html" target="_top" xlink:title=" ">
<polygon fill="white" stroke="black" points="0,-0.5 0,-167.5 120,-167.5 120,-0.5 0,-0.5"/>
<text text-anchor="start" x="8" y="-155.5" font-family="Helvetica,sans-Serif" font-size="10.00">ivy::Vetor&lt; ivy::locadora</text>
<text text-anchor="middle" x="60" y="-144.5" font-family="Helvetica,sans-Serif" font-size="10.00">::Jogo &gt;</text>
<polyline fill="none" stroke="black" points="0,-137.5 120,-137.5 "/>
<text text-anchor="start" x="8" y="-125.5" font-family="Helvetica,sans-Serif" font-size="10.00">&#45; m_capacidade</text>
<text text-anchor="start" x="8" y="-114.5" font-family="Helvetica,sans-Serif" font-size="10.00">&#45; m_tamanho</text>
<text text-anchor="start" x="8" y="-103.5" font-family="Helvetica,sans-Serif" font-size="10.00">&#45; m_dados</text>
<polyline fill="none" stroke="black" points="0,-96.5 120,-96.5 "/>
<text text-anchor="start" x="8" y="-84.5" font-family="Helvetica,sans-Serif" font-size="10.00">+ Vetor()</text>
<text text-anchor="start" x="8" y="-73.5" font-family="Helvetica,sans-Serif" font-size="10.00">+ ~Vetor()</text>
<text text-anchor="start" x="8" y="-62.5" font-family="Helvetica,sans-Serif" font-size="10.00">+ adicionar()</text>
<text text-anchor="start" x="8" y="-51.5" font-family="Helvetica,sans-Serif" font-size="10.00">+ remover()</text>
<text text-anchor="start" x="8" y="-40.5" font-family="Helvetica,sans-Serif" font-size="10.00">+ get()</text>
<text text-anchor="start" x="8" y="-29.5" font-family="Helvetica,sans-Serif" font-size="10.00">+ get_tamanho()</text>
<text text-anchor="start" x="8" y="-18.5" font-family="Helvetica,sans-Serif" font-size="10.00">+ operator=()</text>
<text text-anchor="start" x="8" y="-7.5" font-family="Helvetica,sans-Serif" font-size="10.00">&#45; expandir()</text>
</a>
</g>
</g>
<!-- Node0&#45;&gt;Node1 -->
<g id="edge1" class="edge"><title>Node0&#45;&gt;Node1</title>
<path fill="none" stroke="orange" d="M80.277,-205.898C79.1055,-202.926 78.0079,-199.956 77,-197 73.8261,-187.693 71.2435,-177.749 69.1423,-167.772"/>
<polygon fill="orange" stroke="orange" points="77.1555,-207.505 84.2508,-215.373 83.6108,-204.797 77.1555,-207.505"/>
<text text-anchor="middle" x="128" y="-189" font-family="Helvetica,sans-Serif" font-size="10.00"> &lt; ivy::locadora::Jogo &gt;</text>
</g>
<!-- Node2 -->
<g id="node3" class="node"><title>Node2</title>
<g id="a_node3"><a xlink:href="classivy_1_1_vetor.html" target="_top" xlink:title=" ">
<polygon fill="white" stroke="black" points="138,-6 138,-162 264,-162 264,-6 138,-6"/>
<text text-anchor="middle" x="201" y="-150" font-family="Helvetica,sans-Serif" font-size="10.00">ivy::Vetor&lt; ivy::Produto &gt;</text>
<polyline fill="none" stroke="black" points="138,-143 264,-143 "/>
<text text-anchor="start" x="146" y="-131" font-family="Helvetica,sans-Serif" font-size="10.00">&#45; m_capacidade</text>
<text text-anchor="start" x="146" y="-120" font-family="Helvetica,sans-Serif" font-size="10.00">&#45; m_tamanho</text>
<text text-anchor="start" x="146" y="-109" font-family="Helvetica,sans-Serif" font-size="10.00">&#45; m_dados</text>
<polyline fill="none" stroke="black" points="138,-102 264,-102 "/>
<text text-anchor="start" x="146" y="-90" font-family="Helvetica,sans-Serif" font-size="10.00">+ Vetor()</text>
<text text-anchor="start" x="146" y="-79" font-family="Helvetica,sans-Serif" font-size="10.00">+ ~Vetor()</text>
<text text-anchor="start" x="146" y="-68" font-family="Helvetica,sans-Serif" font-size="10.00">+ adicionar()</text>
<text text-anchor="start" x="146" y="-57" font-family="Helvetica,sans-Serif" font-size="10.00">+ remover()</text>
<text text-anchor="start" x="146" y="-46" font-family="Helvetica,sans-Serif" font-size="10.00">+ get()</text>
<text text-anchor="start" x="146" y="-35" font-family="Helvetica,sans-Serif" font-size="10.00">+ get_tamanho()</text>
<text text-anchor="start" x="146" y="-24" font-family="Helvetica,sans-Serif" font-size="10.00">+ operator=()</text>
<text text-anchor="start" x="146" y="-13" font-family="Helvetica,sans-Serif" font-size="10.00">&#45; expandir()</text>
</a>
</g>
</g>
<!-- Node0&#45;&gt;Node2 -->
<g id="edge2" class="edge"><title>Node0&#45;&gt;Node2</title>
<path fill="none" stroke="orange" d="M175.725,-205.879C176.883,-202.907 177.979,-199.942 179,-197 182.833,-185.955 186.068,-174.052 188.776,-162.273"/>
<polygon fill="orange" stroke="orange" points="172.386,-204.796 171.836,-215.377 178.864,-207.448 172.386,-204.796"/>
<text text-anchor="middle" x="217.5" y="-189" font-family="Helvetica,sans-Serif" font-size="10.00"> &lt; ivy::Produto &gt;</text>
</g>
</g>
</svg>
