<?xml version="1.0" encoding="UTF-8" standalone="no"?>
<!DOCTYPE svg PUBLIC "-//W3C//DTD SVG 1.1//EN"
 "http://www.w3.org/Graphics/SVG/1.1/DTD/svg11.dtd">
<!-- Generated by graphviz version 2.38.0 (20140413.2041)
 -->
<!-- Title: ivy::locadora::LocadoraCLI Pages: 1 -->
<svg width="246pt" height="876pt"
 viewBox="0.00 0.00 245.50 876.00" xmlns="http://www.w3.org/2000/svg" xmlns:xlink="http://www.w3.org/1999/xlink">
<g id="graph0" class="graph" transform="scale(1 1) rotate(0) translate(4 872)">
<title>ivy::locadora::LocadoraCLI</title>
<polygon fill="white" stroke="none" points="-4,4 -4,-872 241.5,-872 241.5,4 -4,4"/>
<!-- Node1 -->
<g id="node1" class="node"><title>Node1</title>
<g id="a_node1"><a xlink:title="Classe LocadoraCLI Realiza a interacao com o usuario.">
<polygon fill="#bfbfbf" stroke="black" points="41,-0.5 41,-178.5 172,-178.5 172,-0.5 41,-0.5"/>
<text text-anchor="middle" x="106.5" y="-166.5" font-family="Helvetica,sans-Serif" font-size="10.00">ivy::locadora::LocadoraCLI</text>
<polyline fill="none" stroke="black" points="41,-159.5 172,-159.5 "/>
<text text-anchor="start" x="49" y="-147.5" font-family="Helvetica,sans-Serif" font-size="10.00">&#45; sair</text>
<text text-anchor="start" x="49" y="-136.5" font-family="Helvetica,sans-Serif" font-size="10.00">&#45; opt</text>
<polyline fill="none" stroke="black" points="41,-129.5 172,-129.5 "/>
<text text-anchor="start" x="49" y="-117.5" font-family="Helvetica,sans-Serif" font-size="10.00">+ LocadoraCLI()</text>
<text text-anchor="start" x="49" y="-106.5" font-family="Helvetica,sans-Serif" font-size="10.00">+ ~LocadoraCLI()</text>
<text text-anchor="start" x="49" y="-95.5" font-family="Helvetica,sans-Serif" font-size="10.00">+ run()</text>
<text text-anchor="start" x="49" y="-84.5" font-family="Helvetica,sans-Serif" font-size="10.00">+ logo()</text>
<text text-anchor="start" x="49" y="-73.5" font-family="Helvetica,sans-Serif" font-size="10.00">+ menu()</text>
<text text-anchor="start" x="49" y="-62.5" font-family="Helvetica,sans-Serif" font-size="10.00">+ option_handler()</text>
<text text-anchor="start" x="49" y="-51.5" font-family="Helvetica,sans-Serif" font-size="10.00">+ ajuda()</text>
<text text-anchor="start" x="49" y="-40.5" font-family="Helvetica,sans-Serif" font-size="10.00">+ cadastrar()</text>
<text text-anchor="start" x="49" y="-29.5" font-family="Helvetica,sans-Serif" font-size="10.00">+ editar()</text>
<text text-anchor="start" x="49" y="-18.5" font-family="Helvetica,sans-Serif" font-size="10.00">+ buscar()</text>
<text text-anchor="start" x="49" y="-7.5" font-family="Helvetica,sans-Serif" font-size="10.00">and 9 more...</text>
</a>
</g>
</g>
<!-- Node2 -->
<g id="node2" class="node"><title>Node2</title>
<g id="a_node2"><a xlink:href="classivy_1_1locadora_1_1_locadora.html" target="_top" xlink:title="Classe Locadora Responsavel por gerenciar o estoque da locadora de jogos.">
<polygon fill="white" stroke="black" points="48.5,-226.5 48.5,-393.5 164.5,-393.5 164.5,-226.5 48.5,-226.5"/>
<text text-anchor="middle" x="106.5" y="-381.5" font-family="Helvetica,sans-Serif" font-size="10.00">ivy::locadora::Locadora</text>
<polyline fill="none" stroke="black" points="48.5,-374.5 164.5,-374.5 "/>
<text text-anchor="middle" x="106.5" y="-362.5" font-family="Helvetica,sans-Serif" font-size="10.00"> </text>
<polyline fill="none" stroke="black" points="48.5,-355.5 164.5,-355.5 "/>
<text text-anchor="start" x="56.5" y="-343.5" font-family="Helvetica,sans-Serif" font-size="10.00">+ Locadora()</text>
<text text-anchor="start" x="56.5" y="-332.5" font-family="Helvetica,sans-Serif" font-size="10.00">+ ~Locadora()</text>
<text text-anchor="start" x="56.5" y="-321.5" font-family="Helvetica,sans-Serif" font-size="10.00">+ get_estoque()</text>
<text text-anchor="start" x="56.5" y="-310.5" font-family="Helvetica,sans-Serif" font-size="10.00">+ cadastrar()</text>
<text text-anchor="start" x="56.5" y="-299.5" font-family="Helvetica,sans-Serif" font-size="10.00">+ buscar_faixaEtaria()</text>
<text text-anchor="start" x="56.5" y="-288.5" font-family="Helvetica,sans-Serif" font-size="10.00">+ buscar_alugado()</text>
<text text-anchor="start" x="56.5" y="-277.5" font-family="Helvetica,sans-Serif" font-size="10.00">+ buscar_genero()</text>
<text text-anchor="start" x="56.5" y="-266.5" font-family="Helvetica,sans-Serif" font-size="10.00">+ buscar_id()</text>
<text text-anchor="start" x="56.5" y="-255.5" font-family="Helvetica,sans-Serif" font-size="10.00">+ buscar_nome()</text>
<text text-anchor="start" x="56.5" y="-244.5" font-family="Helvetica,sans-Serif" font-size="10.00">+ editar()</text>
<text text-anchor="start" x="56.5" y="-233.5" font-family="Helvetica,sans-Serif" font-size="10.00">and 9 more...</text>
</a>
</g>
</g>
<!-- Node2&#45;&gt;Node1 -->
<g id="edge1" class="edge"><title>Node2&#45;&gt;Node1</title>
<path fill="none" stroke="#404040" d="M106.5,-226.395C106.5,-214.824 106.5,-202.829 106.5,-190.973"/>
<polygon fill="none" stroke="#404040" points="106.5,-190.691 102.5,-184.691 106.5,-178.691 110.5,-184.691 106.5,-190.691"/>
<text text-anchor="middle" x="135" y="-200" font-family="Helvetica,sans-Serif" font-size="10.00"> &#45;m_locadora</text>
</g>
<!-- Node3 -->
<g id="node3" class="node"><title>Node3</title>
<g id="a_node3"><a xlink:href="classivy_1_1_vetor.html" target="_top" xlink:title=" ">
<polygon fill="white" stroke="black" points="46.5,-441.5 46.5,-597.5 166.5,-597.5 166.5,-441.5 46.5,-441.5"/>
<text text-anchor="start" x="54.5" y="-585.5" font-family="Helvetica,sans-Serif" font-size="10.00">ivy::Vetor&lt; ivy::locadora</text>
<text text-anchor="middle" x="106.5" y="-574.5" font-family="Helvetica,sans-Serif" font-size="10.00">::Jogo &gt;</text>
<polyline fill="none" stroke="black" points="46.5,-567.5 166.5,-567.5 "/>
<text text-anchor="start" x="54.5" y="-555.5" font-family="Helvetica,sans-Serif" font-size="10.00">&#45; m_capacidade</text>
<text text-anchor="start" x="54.5" y="-544.5" font-family="Helvetica,sans-Serif" font-size="10.00">&#45; m_tamanho</text>
<polyline fill="none" stroke="black" points="46.5,-537.5 166.5,-537.5 "/>
<text text-anchor="start" x="54.5" y="-525.5" font-family="Helvetica,sans-Serif" font-size="10.00">+ Vetor()</text>
<text text-anchor="start" x="54.5" y="-514.5" font-family="Helvetica,sans-Serif" font-size="10.00">+ ~Vetor()</text>
<text text-anchor="start" x="54.5" y="-503.5" font-family="Helvetica,sans-Serif" font-size="10.00">+ adicionar()</text>
<text text-anchor="start" x="54.5" y="-492.5" font-family="Helvetica,sans-Serif" font-size="10.00">+ remover()</text>
<text text-anchor="start" x="54.5" y="-481.5" font-family="Helvetica,sans-Serif" font-size="10.00">+ get()</text>
<text text-anchor="start" x="54.5" y="-470.5" font-family="Helvetica,sans-Serif" font-size="10.00">+ get_tamanho()</text>
<text text-anchor="start" x="54.5" y="-459.5" font-family="Helvetica,sans-Serif" font-size="10.00">+ operator=()</text>
<text text-anchor="start" x="54.5" y="-448.5" font-family="Helvetica,sans-Serif" font-size="10.00">&#45; expandir()</text>
</a>
</g>
</g>
<!-- Node3&#45;&gt;Node2 -->
<g id="edge2" class="edge"><title>Node3&#45;&gt;Node2</title>
<path fill="none" stroke="#404040" d="M106.5,-441.235C106.5,-429.69 106.5,-417.676 106.5,-405.819"/>
<polygon fill="none" stroke="#404040" points="106.5,-405.545 102.5,-399.545 106.5,-393.545 110.5,-399.545 106.5,-405.545"/>
<text text-anchor="middle" x="134" y="-415" font-family="Helvetica,sans-Serif" font-size="10.00"> &#45;m_estoque</text>
</g>
<!-- Node4 -->
<g id="node4" class="node"><title>Node4</title>
<g id="a_node4"><a xlink:href="classivy_1_1locadora_1_1_jogo.html" target="_top" xlink:title="Classe Jogo, define um jogo para o sistema de estoque Ivy.">
<polygon fill="white" stroke="black" points="0,-645.5 0,-867.5 97,-867.5 97,-645.5 0,-645.5"/>
<text text-anchor="middle" x="48.5" y="-855.5" font-family="Helvetica,sans-Serif" font-size="10.00">ivy::locadora::Jogo</text>
<polyline fill="none" stroke="black" points="0,-848.5 97,-848.5 "/>
<text text-anchor="start" x="8" y="-836.5" font-family="Helvetica,sans-Serif" font-size="10.00">&#45; m_jogoID</text>
<text text-anchor="start" x="8" y="-825.5" font-family="Helvetica,sans-Serif" font-size="10.00">&#45; m_nome</text>
<text text-anchor="start" x="8" y="-814.5" font-family="Helvetica,sans-Serif" font-size="10.00">&#45; m_genero</text>
<text text-anchor="start" x="8" y="-803.5" font-family="Helvetica,sans-Serif" font-size="10.00">&#45; m_valor</text>
<text text-anchor="start" x="8" y="-792.5" font-family="Helvetica,sans-Serif" font-size="10.00">&#45; m_disponivel</text>
<text text-anchor="start" x="8" y="-781.5" font-family="Helvetica,sans-Serif" font-size="10.00">&#45; m_faixaEtaria</text>
<polyline fill="none" stroke="black" points="0,-774.5 97,-774.5 "/>
<text text-anchor="start" x="8" y="-762.5" font-family="Helvetica,sans-Serif" font-size="10.00">+ Jogo()</text>
<text text-anchor="start" x="8" y="-751.5" font-family="Helvetica,sans-Serif" font-size="10.00">+ Jogo()</text>
<text text-anchor="start" x="8" y="-740.5" font-family="Helvetica,sans-Serif" font-size="10.00">+ ~Jogo()</text>
<text text-anchor="start" x="8" y="-729.5" font-family="Helvetica,sans-Serif" font-size="10.00">+ get_jogoID()</text>
<text text-anchor="start" x="8" y="-718.5" font-family="Helvetica,sans-Serif" font-size="10.00">+ set_jogoID()</text>
<text text-anchor="start" x="8" y="-707.5" font-family="Helvetica,sans-Serif" font-size="10.00">+ get_nome()</text>
<text text-anchor="start" x="8" y="-696.5" font-family="Helvetica,sans-Serif" font-size="10.00">+ set_nome()</text>
<text text-anchor="start" x="8" y="-685.5" font-family="Helvetica,sans-Serif" font-size="10.00">+ get_genero()</text>
<text text-anchor="start" x="8" y="-674.5" font-family="Helvetica,sans-Serif" font-size="10.00">+ set_genero()</text>
<text text-anchor="start" x="8" y="-663.5" font-family="Helvetica,sans-Serif" font-size="10.00">+ get_faixaEtaria()</text>
<text text-anchor="start" x="8" y="-652.5" font-family="Helvetica,sans-Serif" font-size="10.00">and 6 more...</text>
</a>
</g>
</g>
<!-- Node4&#45;&gt;Node3 -->
<g id="edge3" class="edge"><title>Node4&#45;&gt;Node3</title>
<path fill="none" stroke="#404040" d="M75.7168,-645.225C78.6658,-633.277 81.6395,-621.228 84.5152,-609.576"/>
<polygon fill="none" stroke="#404040" points="84.596,-609.249 82.1502,-602.465 87.4715,-597.598 89.9172,-604.382 84.596,-609.249"/>
<text text-anchor="middle" x="106.5" y="-619" font-family="Helvetica,sans-Serif" font-size="10.00"> &#45;m_dados</text>
</g>
<!-- Node5 -->
<g id="node5" class="node"><title>Node5</title>
<g id="a_node5"><a xlink:href="classivy_1_1_vetor.html" target="_top" xlink:title="Classe Vetor para manipulacao de vetores.">
<polygon fill="white" stroke="black" points="115.5,-678.5 115.5,-834.5 213.5,-834.5 213.5,-678.5 115.5,-678.5"/>
<text text-anchor="middle" x="164.5" y="-822.5" font-family="Helvetica,sans-Serif" font-size="10.00">ivy::Vetor&lt; _Tipo &gt;</text>
<polyline fill="none" stroke="black" points="115.5,-815.5 213.5,-815.5 "/>
<text text-anchor="start" x="123.5" y="-803.5" font-family="Helvetica,sans-Serif" font-size="10.00">&#45; m_capacidade</text>
<text text-anchor="start" x="123.5" y="-792.5" font-family="Helvetica,sans-Serif" font-size="10.00">&#45; m_tamanho</text>
<text text-anchor="start" x="123.5" y="-781.5" font-family="Helvetica,sans-Serif" font-size="10.00">&#45; m_dados</text>
<polyline fill="none" stroke="black" points="115.5,-774.5 213.5,-774.5 "/>
<text text-anchor="start" x="123.5" y="-762.5" font-family="Helvetica,sans-Serif" font-size="10.00">+ Vetor()</text>
<text text-anchor="start" x="123.5" y="-751.5" font-family="Helvetica,sans-Serif" font-size="10.00">+ ~Vetor()</text>
<text text-anchor="start" x="123.5" y="-740.5" font-family="Helvetica,sans-Serif" font-size="10.00">+ adicionar()</text>
<text text-anchor="start" x="123.5" y="-729.5" font-family="Helvetica,sans-Serif" font-size="10.00">+ remover()</text>
<text text-anchor="start" x="123.5" y="-718.5" font-family="Helvetica,sans-Serif" font-size="10.00">+ get()</text>
<text text-anchor="start" x="123.5" y="-707.5" font-family="Helvetica,sans-Serif" font-size="10.00">+ get_tamanho()</text>
<text text-anchor="start" x="123.5" y="-696.5" font-family="Helvetica,sans-Serif" font-size="10.00">+ operator=()</text>
<text text-anchor="start" x="123.5" y="-685.5" font-family="Helvetica,sans-Serif" font-size="10.00">&#45; expandir()</text>
</a>
</g>
</g>
<!-- Node5&#45;&gt;Node3 -->
<g id="edge4" class="edge"><title>Node5&#45;&gt;Node3</title>
<path fill="none" stroke="orange" d="M145.879,-668.106C141.966,-650.797 137.736,-632.791 133.5,-616 131.983,-609.986 130.358,-603.774 128.687,-597.54"/>
<polygon fill="orange" stroke="orange" points="142.54,-669.211 148.145,-678.203 149.371,-667.679 142.54,-669.211"/>
<text text-anchor="middle" x="186.5" y="-619" font-family="Helvetica,sans-Serif" font-size="10.00"> &lt; ivy::locadora::Jogo &gt;</text>
</g>
</g>
</svg>
