<?xml version="1.0" encoding="UTF-8" standalone="no"?>
<!DOCTYPE svg PUBLIC "-//W3C//DTD SVG 1.1//EN"
 "http://www.w3.org/Graphics/SVG/1.1/DTD/svg11.dtd">
<!-- Generated by graphviz version 2.38.0 (20140413.2041)
 -->
<!-- Title: ivy::InterfaceGUI Pages: 1 -->
<!--zoomable 788 -->
<svg id="main" version="1.1" xmlns="http://www.w3.org/2000/svg" xmlns:xlink="http://www.w3.org/1999/xlink" xml:space="preserve" onload="init(evt)">
<style type="text/css"><![CDATA[
.edge:hover path { stroke: red; }
.edge:hover polygon { stroke: red; fill: red; }
]]></style>
<script type="text/javascript"><![CDATA[
var edges = document.getElementsByTagName('g');
if (edges && edges.length) {
  for (var i=0;i<edges.length;i++) {
    if (edges[i].id.substr(0,4)=='edge') {
      edges[i].setAttribute('class','edge');
    }
  }
}
]]></script>
        <defs>
                <circle id="rim" cx="0" cy="0" r="7"/>
                <circle id="rim2" cx="0" cy="0" r="3.5"/>
                <g id="zoomPlus">
                        <use xlink:href="#rim" fill="#404040">
                                <set attributeName="fill" to="#808080" begin="zoomplus.mouseover" end="zoomplus.mouseout"/>
                        </use>
                        <path d="M-4,0h8M0,-4v8" fill="none" stroke="white" stroke-width="1.5" pointer-events="none"/>
                </g>
                <g id="zoomMin">
                        <use xlink:href="#rim" fill="#404040">
                                <set attributeName="fill" to="#808080" begin="zoomminus.mouseover" end="zoomminus.mouseout"/>
                        </use>
                        <path d="M-4,0h8" fill="none" stroke="white" stroke-width="1.5" pointer-events="none"/>
                </g>
                <g id="dirArrow">
                        <path fill="none" stroke="white" stroke-width="1.5" d="M0,-3.0v7 M-2.5,-0.5L0,-3.0L2.5,-0.5"/>
                </g>
               <g id="resetDef">
                       <use xlink:href="#rim2" fill="#404040">
                               <set attributeName="fill" to="#808080" begin="reset.mouseover" end="reset.mouseout"/>
                       </use>
               </g>
        </defs>

<script type="text/javascript">
var viewWidth = 222;
var viewHeight = 788;
var sectionId = 'dynsection-0';
</script>
<script xlink:href="svgpan.js"/>
<svg id="graph" class="graph">
<g id="viewport">
<title>ivy::InterfaceGUI</title>
<polygon fill="white" stroke="none" points="-4,4 -4,-784 218,-784 218,4 -4,4"/>
<!-- Node1 -->
<g id="node1" class="node"><title>Node1</title>
<g id="a_node1"><a xlink:title="Classe InterfaceGUI Gerencia a interface grafica.">
<polygon fill="#bfbfbf" stroke="black" points="60.5,-0.5 60.5,-101.5 153.5,-101.5 153.5,-0.5 60.5,-0.5"/>
<text text-anchor="middle" x="107" y="-89.5" font-family="Helvetica,sans-Serif" font-size="10.00">ivy::InterfaceGUI</text>
<polyline fill="none" stroke="black" points="60.5,-82.5 153.5,-82.5 "/>
<text text-anchor="start" x="68.5" y="-70.5" font-family="Helvetica,sans-Serif" font-size="10.00">&#45; m_screenWidth</text>
<text text-anchor="start" x="68.5" y="-59.5" font-family="Helvetica,sans-Serif" font-size="10.00">&#45; m_screenHeight</text>
<text text-anchor="start" x="68.5" y="-48.5" font-family="Helvetica,sans-Serif" font-size="10.00">&#45; m_title</text>
<polyline fill="none" stroke="black" points="60.5,-41.5 153.5,-41.5 "/>
<text text-anchor="start" x="68.5" y="-29.5" font-family="Helvetica,sans-Serif" font-size="10.00">+ InterfaceGUI()</text>
<text text-anchor="start" x="68.5" y="-18.5" font-family="Helvetica,sans-Serif" font-size="10.00">+ ~InterfaceGUI()</text>
<text text-anchor="start" x="68.5" y="-7.5" font-family="Helvetica,sans-Serif" font-size="10.00">+ run()</text>
</a>
</g>
</g>
<!-- Node2 -->
<g id="node2" class="node"><title>Node2</title>
<g id="a_node2"><a xlink:href="classivy_1_1_ivy_manager.html" target="_top" xlink:title="Classe IvyManager Responsavel por gerenciar o estoque da loja de informatica.">
<polygon fill="white" stroke="black" points="50.5,-149.5 50.5,-316.5 163.5,-316.5 163.5,-149.5 50.5,-149.5"/>
<text text-anchor="middle" x="107" y="-304.5" font-family="Helvetica,sans-Serif" font-size="10.00">ivy::IvyManager</text>
<polyline fill="none" stroke="black" points="50.5,-297.5 163.5,-297.5 "/>
<text text-anchor="middle" x="107" y="-285.5" font-family="Helvetica,sans-Serif" font-size="10.00"> </text>
<polyline fill="none" stroke="black" points="50.5,-278.5 163.5,-278.5 "/>
<text text-anchor="start" x="58.5" y="-266.5" font-family="Helvetica,sans-Serif" font-size="10.00">+ IvyManager()</text>
<text text-anchor="start" x="58.5" y="-255.5" font-family="Helvetica,sans-Serif" font-size="10.00">+ ~IvyManager()</text>
<text text-anchor="start" x="58.5" y="-244.5" font-family="Helvetica,sans-Serif" font-size="10.00">+ get_estoque()</text>
<text text-anchor="start" x="58.5" y="-233.5" font-family="Helvetica,sans-Serif" font-size="10.00">+ cadastrar()</text>
<text text-anchor="start" x="58.5" y="-222.5" font-family="Helvetica,sans-Serif" font-size="10.00">+ editar()</text>
<text text-anchor="start" x="58.5" y="-211.5" font-family="Helvetica,sans-Serif" font-size="10.00">+ buscar_nome()</text>
<text text-anchor="start" x="58.5" y="-200.5" font-family="Helvetica,sans-Serif" font-size="10.00">+ buscar_marca()</text>
<text text-anchor="start" x="58.5" y="-189.5" font-family="Helvetica,sans-Serif" font-size="10.00">+ buscar_valor()</text>
<text text-anchor="start" x="58.5" y="-178.5" font-family="Helvetica,sans-Serif" font-size="10.00">+ buscar_quantidade()</text>
<text text-anchor="start" x="58.5" y="-167.5" font-family="Helvetica,sans-Serif" font-size="10.00">+ buscar_id()</text>
<text text-anchor="start" x="58.5" y="-156.5" font-family="Helvetica,sans-Serif" font-size="10.00">and 9 more...</text>
</a>
</g>
</g>
<!-- Node2&#45;&gt;Node1 -->
<g id="edge1" class="edge"><title>Node2&#45;&gt;Node1</title>
<path fill="none" stroke="#404040" d="M107,-149.375C107,-137.362 107,-125.173 107,-113.671"/>
<polygon fill="none" stroke="#404040" points="107,-113.5 103,-107.5 107,-101.5 111,-107.5 107,-113.5"/>
<text text-anchor="middle" x="143" y="-123" font-family="Helvetica,sans-Serif" font-size="10.00"> +m_ivyManager</text>
</g>
<!-- Node3 -->
<g id="node3" class="node"><title>Node3</title>
<g id="a_node3"><a xlink:href="classivy_1_1_vetor.html" target="_top" xlink:title=" ">
<polygon fill="white" stroke="black" points="44,-364.5 44,-509.5 170,-509.5 170,-364.5 44,-364.5"/>
<text text-anchor="middle" x="107" y="-497.5" font-family="Helvetica,sans-Serif" font-size="10.00">ivy::Vetor&lt; ivy::Produto &gt;</text>
<polyline fill="none" stroke="black" points="44,-490.5 170,-490.5 "/>
<text text-anchor="start" x="52" y="-478.5" font-family="Helvetica,sans-Serif" font-size="10.00">&#45; m_capacidade</text>
<text text-anchor="start" x="52" y="-467.5" font-family="Helvetica,sans-Serif" font-size="10.00">&#45; m_tamanho</text>
<polyline fill="none" stroke="black" points="44,-460.5 170,-460.5 "/>
<text text-anchor="start" x="52" y="-448.5" font-family="Helvetica,sans-Serif" font-size="10.00">+ Vetor()</text>
<text text-anchor="start" x="52" y="-437.5" font-family="Helvetica,sans-Serif" font-size="10.00">+ ~Vetor()</text>
<text text-anchor="start" x="52" y="-426.5" font-family="Helvetica,sans-Serif" font-size="10.00">+ adicionar()</text>
<text text-anchor="start" x="52" y="-415.5" font-family="Helvetica,sans-Serif" font-size="10.00">+ remover()</text>
<text text-anchor="start" x="52" y="-404.5" font-family="Helvetica,sans-Serif" font-size="10.00">+ get()</text>
<text text-anchor="start" x="52" y="-393.5" font-family="Helvetica,sans-Serif" font-size="10.00">+ get_tamanho()</text>
<text text-anchor="start" x="52" y="-382.5" font-family="Helvetica,sans-Serif" font-size="10.00">+ operator=()</text>
<text text-anchor="start" x="52" y="-371.5" font-family="Helvetica,sans-Serif" font-size="10.00">&#45; expandir()</text>
</a>
</g>
</g>
<!-- Node3&#45;&gt;Node2 -->
<g id="edge2" class="edge"><title>Node3&#45;&gt;Node2</title>
<path fill="none" stroke="#404040" d="M107,-364.498C107,-353.042 107,-341.031 107,-329.13"/>
<polygon fill="none" stroke="#404040" points="107,-328.794 103,-322.794 107,-316.794 111,-322.794 107,-328.794"/>
<text text-anchor="middle" x="134.5" y="-338" font-family="Helvetica,sans-Serif" font-size="10.00"> &#45;m_estoque</text>
</g>
<!-- Node4 -->
<g id="node4" class="node"><title>Node4</title>
<g id="a_node4"><a xlink:href="classivy_1_1_produto.html" target="_top" xlink:title="Classe Produto, define um produto para o sistema de estoque Ivy.">
<polygon fill="white" stroke="black" points="0,-557.5 0,-779.5 98,-779.5 98,-557.5 0,-557.5"/>
<text text-anchor="middle" x="49" y="-767.5" font-family="Helvetica,sans-Serif" font-size="10.00">ivy::Produto</text>
<polyline fill="none" stroke="black" points="0,-760.5 98,-760.5 "/>
<text text-anchor="start" x="8" y="-748.5" font-family="Helvetica,sans-Serif" font-size="10.00">&#45; m_nome</text>
<text text-anchor="start" x="8" y="-737.5" font-family="Helvetica,sans-Serif" font-size="10.00">&#45; m_marca</text>
<text text-anchor="start" x="8" y="-726.5" font-family="Helvetica,sans-Serif" font-size="10.00">&#45; m_valor</text>
<text text-anchor="start" x="8" y="-715.5" font-family="Helvetica,sans-Serif" font-size="10.00">&#45; m_id</text>
<text text-anchor="start" x="8" y="-704.5" font-family="Helvetica,sans-Serif" font-size="10.00">&#45; m_quantidade</text>
<text text-anchor="start" x="8" y="-693.5" font-family="Helvetica,sans-Serif" font-size="10.00">&#45; m_garantia</text>
<polyline fill="none" stroke="black" points="0,-686.5 98,-686.5 "/>
<text text-anchor="start" x="8" y="-674.5" font-family="Helvetica,sans-Serif" font-size="10.00">+ Produto()</text>
<text text-anchor="start" x="8" y="-663.5" font-family="Helvetica,sans-Serif" font-size="10.00">+ Produto()</text>
<text text-anchor="start" x="8" y="-652.5" font-family="Helvetica,sans-Serif" font-size="10.00">+ ~Produto()</text>
<text text-anchor="start" x="8" y="-641.5" font-family="Helvetica,sans-Serif" font-size="10.00">+ get_id()</text>
<text text-anchor="start" x="8" y="-630.5" font-family="Helvetica,sans-Serif" font-size="10.00">+ set_id()</text>
<text text-anchor="start" x="8" y="-619.5" font-family="Helvetica,sans-Serif" font-size="10.00">+ get_nome()</text>
<text text-anchor="start" x="8" y="-608.5" font-family="Helvetica,sans-Serif" font-size="10.00">+ set_nome()</text>
<text text-anchor="start" x="8" y="-597.5" font-family="Helvetica,sans-Serif" font-size="10.00">+ get_marca()</text>
<text text-anchor="start" x="8" y="-586.5" font-family="Helvetica,sans-Serif" font-size="10.00">+ set_marca()</text>
<text text-anchor="start" x="8" y="-575.5" font-family="Helvetica,sans-Serif" font-size="10.00">+ get_quantidade()</text>
<text text-anchor="start" x="8" y="-564.5" font-family="Helvetica,sans-Serif" font-size="10.00">and 7 more...</text>
</a>
</g>
</g>
<!-- Node4&#45;&gt;Node3 -->
<g id="edge3" class="edge"><title>Node4&#45;&gt;Node3</title>
<path fill="none" stroke="#404040" d="M76.8108,-557.455C79.8533,-545.417 82.9132,-533.309 85.8564,-521.663"/>
<polygon fill="none" stroke="#404040" points="85.9352,-521.351 83.5273,-514.554 88.8755,-509.717 91.2835,-516.514 85.9352,-521.351"/>
<text text-anchor="middle" x="107" y="-531" font-family="Helvetica,sans-Serif" font-size="10.00"> &#45;m_dados</text>
</g>
<!-- Node5 -->
<g id="node5" class="node"><title>Node5</title>
<g id="a_node5"><a xlink:href="classivy_1_1_vetor.html" target="_top" xlink:title="Classe Vetor para manipulacao de vetores.">
<polygon fill="white" stroke="black" points="116,-590.5 116,-746.5 214,-746.5 214,-590.5 116,-590.5"/>
<text text-anchor="middle" x="165" y="-734.5" font-family="Helvetica,sans-Serif" font-size="10.00">ivy::Vetor&lt; _Tipo &gt;</text>
<polyline fill="none" stroke="black" points="116,-727.5 214,-727.5 "/>
<text text-anchor="start" x="124" y="-715.5" font-family="Helvetica,sans-Serif" font-size="10.00">&#45; m_capacidade</text>
<text text-anchor="start" x="124" y="-704.5" font-family="Helvetica,sans-Serif" font-size="10.00">&#45; m_tamanho</text>
<text text-anchor="start" x="124" y="-693.5" font-family="Helvetica,sans-Serif" font-size="10.00">&#45; m_dados</text>
<polyline fill="none" stroke="black" points="116,-686.5 214,-686.5 "/>
<text text-anchor="start" x="124" y="-674.5" font-family="Helvetica,sans-Serif" font-size="10.00">+ Vetor()</text>
<text text-anchor="start" x="124" y="-663.5" font-family="Helvetica,sans-Serif" font-size="10.00">+ ~Vetor()</text>
<text text-anchor="start" x="124" y="-652.5" font-family="Helvetica,sans-Serif" font-size="10.00">+ adicionar()</text>
<text text-anchor="start" x="124" y="-641.5" font-family="Helvetica,sans-Serif" font-size="10.00">+ remover()</text>
<text text-anchor="start" x="124" y="-630.5" font-family="Helvetica,sans-Serif" font-size="10.00">+ get()</text>
<text text-anchor="start" x="124" y="-619.5" font-family="Helvetica,sans-Serif" font-size="10.00">+ get_tamanho()</text>
<text text-anchor="start" x="124" y="-608.5" font-family="Helvetica,sans-Serif" font-size="10.00">+ operator=()</text>
<text text-anchor="start" x="124" y="-597.5" font-family="Helvetica,sans-Serif" font-size="10.00">&#45; expandir()</text>
</a>
</g>
</g>
<!-- Node5&#45;&gt;Node3 -->
<g id="edge4" class="edge"><title>Node5&#45;&gt;Node3</title>
<path fill="none" stroke="orange" d="M146.591,-580.052C142.661,-562.747 138.369,-544.757 134,-528 132.436,-522.002 130.741,-515.801 128.989,-509.59"/>
<polygon fill="orange" stroke="orange" points="143.253,-581.159 148.862,-590.147 150.082,-579.623 143.253,-581.159"/>
<text text-anchor="middle" x="171.5" y="-531" font-family="Helvetica,sans-Serif" font-size="10.00"> &lt; ivy::Produto &gt;</text>
</g>
</g>
</svg>
        <g id="navigator" transform="translate(0 0)" fill="#404254">
                <rect fill="#f2f5e9" fill-opacity="0.5" stroke="#606060" stroke-width=".5" x="0" y="0" width="60" height="60"/>
                <use id="zoomplus" xlink:href="#zoomPlus" x="17" y="9" onmousedown="handleZoom(evt,'in')"/>
                <use id="zoomminus" xlink:href="#zoomMin" x="42" y="9" onmousedown="handleZoom(evt,'out')"/>
                <use id="reset" xlink:href="#resetDef" x="30" y="36" onmousedown="handleReset()"/>
                <g id="arrowUp" xlink:href="#dirArrow" transform="translate(30 24)" onmousedown="handlePan(0,-1)">
                  <use xlink:href="#rim" fill="#404040">
                        <set attributeName="fill" to="#808080" begin="arrowUp.mouseover" end="arrowUp.mouseout"/>
                  </use>
                  <path fill="none" stroke="white" stroke-width="1.5" d="M0,-3.0v7 M-2.5,-0.5L0,-3.0L2.5,-0.5"/>
                </g>
                <g id="arrowRight" xlink:href="#dirArrow" transform="rotate(90) translate(36 -43)" onmousedown="handlePan(1,0)">
                  <use xlink:href="#rim" fill="#404040">
                        <set attributeName="fill" to="#808080" begin="arrowRight.mouseover" end="arrowRight.mouseout"/>
                  </use>
                  <path fill="none" stroke="white" stroke-width="1.5" d="M0,-3.0v7 M-2.5,-0.5L0,-3.0L2.5,-0.5"/>
                </g>
                <g id="arrowDown" xlink:href="#dirArrow" transform="rotate(180) translate(-30 -48)" onmousedown="handlePan(0,1)">
                  <use xlink:href="#rim" fill="#404040">
                        <set attributeName="fill" to="#808080" begin="arrowDown.mouseover" end="arrowDown.mouseout"/>
                  </use>
                  <path fill="none" stroke="white" stroke-width="1.5" d="M0,-3.0v7 M-2.5,-0.5L0,-3.0L2.5,-0.5"/>
                </g>
                <g id="arrowLeft" xlink:href="#dirArrow" transform="rotate(270) translate(-36 17)" onmousedown="handlePan(-1,0)">
                  <use xlink:href="#rim" fill="#404040">
                        <set attributeName="fill" to="#808080" begin="arrowLeft.mouseover" end="arrowLeft.mouseout"/>
                  </use>
                  <path fill="none" stroke="white" stroke-width="1.5" d="M0,-3.0v7 M-2.5,-0.5L0,-3.0L2.5,-0.5"/>
                </g>
        </g>
        <svg viewBox="0 0 15 15" width="100%" height="30px" preserveAspectRatio="xMaxYMin meet">
         <g id="arrow_out" transform="scale(0.3 0.3)">
          <a xlink:href="classivy_1_1_interface_g_u_i__coll__graph_org.svg" target="_base">
           <rect id="button" ry="5" rx="5" y="6" x="6" height="38" width="38"
                fill="#f2f5e9" fill-opacity="0.5" stroke="#606060" stroke-width="1.0"/>
           <path id="arrow"
             d="M 11.500037,31.436501 C 11.940474,20.09759 22.043105,11.32322 32.158766,21.979434 L 37.068811,17.246167 C 37.068811,17.246167 37.088388,32 37.088388,32 L 22.160133,31.978069 C 22.160133,31.978069 26.997745,27.140456 26.997745,27.140456 C 18.528582,18.264221 13.291696,25.230495 11.500037,31.436501 z"
             style="fill:#404040;"/>
          </a>
         </g>
        </svg>
</svg>
