<?xml version="1.0" encoding="UTF-8" standalone="no"?>
<!DOCTYPE svg PUBLIC "-//W3C//DTD SVG 1.1//EN"
 "http://www.w3.org/Graphics/SVG/1.1/DTD/svg11.dtd">
<!-- Generated by graphviz version 2.38.0 (20140413.2041)
 -->
<!-- Title: ivy::IvyManager Pages: 1 -->
<svg width="222pt" height="639pt"
 viewBox="0.00 0.00 222.00 639.00" xmlns="http://www.w3.org/2000/svg" xmlns:xlink="http://www.w3.org/1999/xlink">
<g id="graph0" class="graph" transform="scale(1 1) rotate(0) translate(4 635)">
<title>ivy::IvyManager</title>
<polygon fill="white" stroke="none" points="-4,4 -4,-635 218,-635 218,4 -4,4"/>
<!-- Node1 -->
<g id="node1" class="node"><title>Node1</title>
<g id="a_node1"><a xlink:title="Classe IvyManager Responsavel por gerenciar o estoque da loja de informatica.">
<polygon fill="#bfbfbf" stroke="black" points="50.5,-0.5 50.5,-167.5 163.5,-167.5 163.5,-0.5 50.5,-0.5"/>
<text text-anchor="middle" x="107" y="-155.5" font-family="Helvetica,sans-Serif" font-size="10.00">ivy::IvyManager</text>
<polyline fill="none" stroke="black" points="50.5,-148.5 163.5,-148.5 "/>
<text text-anchor="middle" x="107" y="-136.5" font-family="Helvetica,sans-Serif" font-size="10.00"> </text>
<polyline fill="none" stroke="black" points="50.5,-129.5 163.5,-129.5 "/>
<text text-anchor="start" x="58.5" y="-117.5" font-family="Helvetica,sans-Serif" font-size="10.00">+ IvyManager()</text>
<text text-anchor="start" x="58.5" y="-106.5" font-family="Helvetica,sans-Serif" font-size="10.00">+ ~IvyManager()</text>
<text text-anchor="start" x="58.5" y="-95.5" font-family="Helvetica,sans-Serif" font-size="10.00">+ get_estoque()</text>
<text text-anchor="start" x="58.5" y="-84.5" font-family="Helvetica,sans-Serif" font-size="10.00">+ cadastrar()</text>
<text text-anchor="start" x="58.5" y="-73.5" font-family="Helvetica,sans-Serif" font-size="10.00">+ editar()</text>
<text text-anchor="start" x="58.5" y="-62.5" font-family="Helvetica,sans-Serif" font-size="10.00">+ buscar_nome()</text>
<text text-anchor="start" x="58.5" y="-51.5" font-family="Helvetica,sans-Serif" font-size="10.00">+ buscar_marca()</text>
<text text-anchor="start" x="58.5" y="-40.5" font-family="Helvetica,sans-Serif" font-size="10.00">+ buscar_valor()</text>
<text text-anchor="start" x="58.5" y="-29.5" font-family="Helvetica,sans-Serif" font-size="10.00">+ buscar_quantidade()</text>
<text text-anchor="start" x="58.5" y="-18.5" font-family="Helvetica,sans-Serif" font-size="10.00">+ buscar_id()</text>
<text text-anchor="start" x="58.5" y="-7.5" font-family="Helvetica,sans-Serif" font-size="10.00">and 9 more...</text>
</a>
</g>
</g>
<!-- Node2 -->
<g id="node2" class="node"><title>Node2</title>
<g id="a_node2"><a xlink:href="classivy_1_1_vetor.html" target="_top" xlink:title=" ">
<polygon fill="white" stroke="black" points="44,-215.5 44,-360.5 170,-360.5 170,-215.5 44,-215.5"/>
<text text-anchor="middle" x="107" y="-348.5" font-family="Helvetica,sans-Serif" font-size="10.00">ivy::Vetor&lt; ivy::Produto &gt;</text>
<polyline fill="none" stroke="black" points="44,-341.5 170,-341.5 "/>
<text text-anchor="start" x="52" y="-329.5" font-family="Helvetica,sans-Serif" font-size="10.00">&#45; m_capacidade</text>
<text text-anchor="start" x="52" y="-318.5" font-family="Helvetica,sans-Serif" font-size="10.00">&#45; m_tamanho</text>
<polyline fill="none" stroke="black" points="44,-311.5 170,-311.5 "/>
<text text-anchor="start" x="52" y="-299.5" font-family="Helvetica,sans-Serif" font-size="10.00">+ Vetor()</text>
<text text-anchor="start" x="52" y="-288.5" font-family="Helvetica,sans-Serif" font-size="10.00">+ ~Vetor()</text>
<text text-anchor="start" x="52" y="-277.5" font-family="Helvetica,sans-Serif" font-size="10.00">+ adicionar()</text>
<text text-anchor="start" x="52" y="-266.5" font-family="Helvetica,sans-Serif" font-size="10.00">+ remover()</text>
<text text-anchor="start" x="52" y="-255.5" font-family="Helvetica,sans-Serif" font-size="10.00">+ get()</text>
<text text-anchor="start" x="52" y="-244.5" font-family="Helvetica,sans-Serif" font-size="10.00">+ get_tamanho()</text>
<text text-anchor="start" x="52" y="-233.5" font-family="Helvetica,sans-Serif" font-size="10.00">+ operator=()</text>
<text text-anchor="start" x="52" y="-222.5" font-family="Helvetica,sans-Serif" font-size="10.00">&#45; expandir()</text>
</a>
</g>
</g>
<!-- Node2&#45;&gt;Node1 -->
<g id="edge1" class="edge"><title>Node2&#45;&gt;Node1</title>
<path fill="none" stroke="#404040" d="M107,-215.498C107,-204.042 107,-192.031 107,-180.13"/>
<polygon fill="none" stroke="#404040" points="107,-179.794 103,-173.794 107,-167.794 111,-173.794 107,-179.794"/>
<text text-anchor="middle" x="134.5" y="-189" font-family="Helvetica,sans-Serif" font-size="10.00"> &#45;m_estoque</text>
</g>
<!-- Node3 -->
<g id="node3" class="node"><title>Node3</title>
<g id="a_node3"><a xlink:href="classivy_1_1_produto.html" target="_top" xlink:title="Classe Produto, define um produto para o sistema de estoque Ivy.">
<polygon fill="white" stroke="black" points="0,-408.5 0,-630.5 98,-630.5 98,-408.5 0,-408.5"/>
<text text-anchor="middle" x="49" y="-618.5" font-family="Helvetica,sans-Serif" font-size="10.00">ivy::Produto</text>
<polyline fill="none" stroke="black" points="0,-611.5 98,-611.5 "/>
<text text-anchor="start" x="8" y="-599.5" font-family="Helvetica,sans-Serif" font-size="10.00">&#45; m_nome</text>
<text text-anchor="start" x="8" y="-588.5" font-family="Helvetica,sans-Serif" font-size="10.00">&#45; m_marca</text>
<text text-anchor="start" x="8" y="-577.5" font-family="Helvetica,sans-Serif" font-size="10.00">&#45; m_valor</text>
<text text-anchor="start" x="8" y="-566.5" font-family="Helvetica,sans-Serif" font-size="10.00">&#45; m_id</text>
<text text-anchor="start" x="8" y="-555.5" font-family="Helvetica,sans-Serif" font-size="10.00">&#45; m_quantidade</text>
<text text-anchor="start" x="8" y="-544.5" font-family="Helvetica,sans-Serif" font-size="10.00">&#45; m_garantia</text>
<polyline fill="none" stroke="black" points="0,-537.5 98,-537.5 "/>
<text text-anchor="start" x="8" y="-525.5" font-family="Helvetica,sans-Serif" font-size="10.00">+ Produto()</text>
<text text-anchor="start" x="8" y="-514.5" font-family="Helvetica,sans-Serif" font-size="10.00">+ Produto()</text>
<text text-anchor="start" x="8" y="-503.5" font-family="Helvetica,sans-Serif" font-size="10.00">+ ~Produto()</text>
<text text-anchor="start" x="8" y="-492.5" font-family="Helvetica,sans-Serif" font-size="10.00">+ get_id()</text>
<text text-anchor="start" x="8" y="-481.5" font-family="Helvetica,sans-Serif" font-size="10.00">+ set_id()</text>
<text text-anchor="start" x="8" y="-470.5" font-family="Helvetica,sans-Serif" font-size="10.00">+ get_nome()</text>
<text text-anchor="start" x="8" y="-459.5" font-family="Helvetica,sans-Serif" font-size="10.00">+ set_nome()</text>
<text text-anchor="start" x="8" y="-448.5" font-family="Helvetica,sans-Serif" font-size="10.00">+ get_marca()</text>
<text text-anchor="start" x="8" y="-437.5" font-family="Helvetica,sans-Serif" font-size="10.00">+ set_marca()</text>
<text text-anchor="start" x="8" y="-426.5" font-family="Helvetica,sans-Serif" font-size="10.00">+ get_quantidade()</text>
<text text-anchor="start" x="8" y="-415.5" font-family="Helvetica,sans-Serif" font-size="10.00">and 7 more...</text>
</a>
</g>
</g>
<!-- Node3&#45;&gt;Node2 -->
<g id="edge2" class="edge"><title>Node3&#45;&gt;Node2</title>
<path fill="none" stroke="#404040" d="M76.8108,-408.455C79.8533,-396.417 82.9132,-384.309 85.8564,-372.663"/>
<polygon fill="none" stroke="#404040" points="85.9352,-372.351 83.5273,-365.554 88.8755,-360.717 91.2835,-367.514 85.9352,-372.351"/>
<text text-anchor="middle" x="107" y="-382" font-family="Helvetica,sans-Serif" font-size="10.00"> &#45;m_dados</text>
</g>
<!-- Node4 -->
<g id="node4" class="node"><title>Node4</title>
<g id="a_node4"><a xlink:href="classivy_1_1_vetor.html" target="_top" xlink:title="Classe Vetor para manipulacao de vetores.">
<polygon fill="white" stroke="black" points="116,-441.5 116,-597.5 214,-597.5 214,-441.5 116,-441.5"/>
<text text-anchor="middle" x="165" y="-585.5" font-family="Helvetica,sans-Serif" font-size="10.00">ivy::Vetor&lt; _Tipo &gt;</text>
<polyline fill="none" stroke="black" points="116,-578.5 214,-578.5 "/>
<text text-anchor="start" x="124" y="-566.5" font-family="Helvetica,sans-Serif" font-size="10.00">&#45; m_capacidade</text>
<text text-anchor="start" x="124" y="-555.5" font-family="Helvetica,sans-Serif" font-size="10.00">&#45; m_tamanho</text>
<text text-anchor="start" x="124" y="-544.5" font-family="Helvetica,sans-Serif" font-size="10.00">&#45; m_dados</text>
<polyline fill="none" stroke="black" points="116,-537.5 214,-537.5 "/>
<text text-anchor="start" x="124" y="-525.5" font-family="Helvetica,sans-Serif" font-size="10.00">+ Vetor()</text>
<text text-anchor="start" x="124" y="-514.5" font-family="Helvetica,sans-Serif" font-size="10.00">+ ~Vetor()</text>
<text text-anchor="start" x="124" y="-503.5" font-family="Helvetica,sans-Serif" font-size="10.00">+ adicionar()</text>
<text text-anchor="start" x="124" y="-492.5" font-family="Helvetica,sans-Serif" font-size="10.00">+ remover()</text>
<text text-anchor="start" x="124" y="-481.5" font-family="Helvetica,sans-Serif" font-size="10.00">+ get()</text>
<text text-anchor="start" x="124" y="-470.5" font-family="Helvetica,sans-Serif" font-size="10.00">+ get_tamanho()</text>
<text text-anchor="start" x="124" y="-459.5" font-family="Helvetica,sans-Serif" font-size="10.00">+ operator=()</text>
<text text-anchor="start" x="124" y="-448.5" font-family="Helvetica,sans-Serif" font-size="10.00">&#45; expandir()</text>
</a>
</g>
</g>
<!-- Node4&#45;&gt;Node2 -->
<g id="edge3" class="edge"><title>Node4&#45;&gt;Node2</title>
<path fill="none" stroke="orange" d="M146.591,-431.052C142.661,-413.747 138.369,-395.757 134,-379 132.436,-373.002 130.741,-366.801 128.989,-360.59"/>
<polygon fill="orange" stroke="orange" points="143.253,-432.159 148.862,-441.147 150.082,-430.623 143.253,-432.159"/>
<text text-anchor="middle" x="171.5" y="-382" font-family="Helvetica,sans-Serif" font-size="10.00"> &lt; ivy::Produto &gt;</text>
</g>
</g>
</svg>
