<?xml version="1.0" encoding="UTF-8" standalone="no"?>
<!DOCTYPE svg PUBLIC "-//W3C//DTD SVG 1.1//EN"
 "http://www.w3.org/Graphics/SVG/1.1/DTD/svg11.dtd">
<!-- Generated by graphviz version 2.38.0 (20140413.2041)
 -->
<!-- Title: ivy::locadora::Locadora Pages: 1 -->
<svg width="246pt" height="650pt"
 viewBox="0.00 0.00 245.50 650.00" xmlns="http://www.w3.org/2000/svg" xmlns:xlink="http://www.w3.org/1999/xlink">
<g id="graph0" class="graph" transform="scale(1 1) rotate(0) translate(4 646)">
<title>ivy::locadora::Locadora</title>
<polygon fill="white" stroke="none" points="-4,4 -4,-646 241.5,-646 241.5,4 -4,4"/>
<!-- Node1 -->
<g id="node1" class="node"><title>Node1</title>
<g id="a_node1"><a xlink:title="Classe Locadora Responsavel por gerenciar o estoque da locadora de jogos.">
<polygon fill="#bfbfbf" stroke="black" points="48.5,-0.5 48.5,-167.5 164.5,-167.5 164.5,-0.5 48.5,-0.5"/>
<text text-anchor="middle" x="106.5" y="-155.5" font-family="Helvetica,sans-Serif" font-size="10.00">ivy::locadora::Locadora</text>
<polyline fill="none" stroke="black" points="48.5,-148.5 164.5,-148.5 "/>
<text text-anchor="middle" x="106.5" y="-136.5" font-family="Helvetica,sans-Serif" font-size="10.00"> </text>
<polyline fill="none" stroke="black" points="48.5,-129.5 164.5,-129.5 "/>
<text text-anchor="start" x="56.5" y="-117.5" font-family="Helvetica,sans-Serif" font-size="10.00">+ Locadora()</text>
<text text-anchor="start" x="56.5" y="-106.5" font-family="Helvetica,sans-Serif" font-size="10.00">+ ~Locadora()</text>
<text text-anchor="start" x="56.5" y="-95.5" font-family="Helvetica,sans-Serif" font-size="10.00">+ get_estoque()</text>
<text text-anchor="start" x="56.5" y="-84.5" font-family="Helvetica,sans-Serif" font-size="10.00">+ cadastrar()</text>
<text text-anchor="start" x="56.5" y="-73.5" font-family="Helvetica,sans-Serif" font-size="10.00">+ buscar_faixaEtaria()</text>
<text text-anchor="start" x="56.5" y="-62.5" font-family="Helvetica,sans-Serif" font-size="10.00">+ buscar_alugado()</text>
<text text-anchor="start" x="56.5" y="-51.5" font-family="Helvetica,sans-Serif" font-size="10.00">+ buscar_genero()</text>
<text text-anchor="start" x="56.5" y="-40.5" font-family="Helvetica,sans-Serif" font-size="10.00">+ buscar_id()</text>
<text text-anchor="start" x="56.5" y="-29.5" font-family="Helvetica,sans-Serif" font-size="10.00">+ buscar_nome()</text>
<text text-anchor="start" x="56.5" y="-18.5" font-family="Helvetica,sans-Serif" font-size="10.00">+ editar()</text>
<text text-anchor="start" x="56.5" y="-7.5" font-family="Helvetica,sans-Serif" font-size="10.00">and 9 more...</text>
</a>
</g>
</g>
<!-- Node2 -->
<g id="node2" class="node"><title>Node2</title>
<g id="a_node2"><a xlink:href="classivy_1_1_vetor.html" target="_top" xlink:title=" ">
<polygon fill="white" stroke="black" points="46.5,-215.5 46.5,-371.5 166.5,-371.5 166.5,-215.5 46.5,-215.5"/>
<text text-anchor="start" x="54.5" y="-359.5" font-family="Helvetica,sans-Serif" font-size="10.00">ivy::Vetor&lt; ivy::locadora</text>
<text text-anchor="middle" x="106.5" y="-348.5" font-family="Helvetica,sans-Serif" font-size="10.00">::Jogo &gt;</text>
<polyline fill="none" stroke="black" points="46.5,-341.5 166.5,-341.5 "/>
<text text-anchor="start" x="54.5" y="-329.5" font-family="Helvetica,sans-Serif" font-size="10.00">&#45; m_capacidade</text>
<text text-anchor="start" x="54.5" y="-318.5" font-family="Helvetica,sans-Serif" font-size="10.00">&#45; m_tamanho</text>
<polyline fill="none" stroke="black" points="46.5,-311.5 166.5,-311.5 "/>
<text text-anchor="start" x="54.5" y="-299.5" font-family="Helvetica,sans-Serif" font-size="10.00">+ Vetor()</text>
<text text-anchor="start" x="54.5" y="-288.5" font-family="Helvetica,sans-Serif" font-size="10.00">+ ~Vetor()</text>
<text text-anchor="start" x="54.5" y="-277.5" font-family="Helvetica,sans-Serif" font-size="10.00">+ adicionar()</text>
<text text-anchor="start" x="54.5" y="-266.5" font-family="Helvetica,sans-Serif" font-size="10.00">+ remover()</text>
<text text-anchor="start" x="54.5" y="-255.5" font-family="Helvetica,sans-Serif" font-size="10.00">+ get()</text>
<text text-anchor="start" x="54.5" y="-244.5" font-family="Helvetica,sans-Serif" font-size="10.00">+ get_tamanho()</text>
<text text-anchor="start" x="54.5" y="-233.5" font-family="Helvetica,sans-Serif" font-size="10.00">+ operator=()</text>
<text text-anchor="start" x="54.5" y="-222.5" font-family="Helvetica,sans-Serif" font-size="10.00">&#45; expandir()</text>
</a>
</g>
</g>
<!-- Node2&#45;&gt;Node1 -->
<g id="edge1" class="edge"><title>Node2&#45;&gt;Node1</title>
<path fill="none" stroke="#404040" d="M106.5,-215.235C106.5,-203.69 106.5,-191.676 106.5,-179.819"/>
<polygon fill="none" stroke="#404040" points="106.5,-179.545 102.5,-173.545 106.5,-167.545 110.5,-173.545 106.5,-179.545"/>
<text text-anchor="middle" x="134" y="-189" font-family="Helvetica,sans-Serif" font-size="10.00"> &#45;m_estoque</text>
</g>
<!-- Node3 -->
<g id="node3" class="node"><title>Node3</title>
<g id="a_node3"><a xlink:href="classivy_1_1locadora_1_1_jogo.html" target="_top" xlink:title="Classe Jogo, define um jogo para o sistema de estoque Ivy.">
<polygon fill="white" stroke="black" points="0,-419.5 0,-641.5 97,-641.5 97,-419.5 0,-419.5"/>
<text text-anchor="middle" x="48.5" y="-629.5" font-family="Helvetica,sans-Serif" font-size="10.00">ivy::locadora::Jogo</text>
<polyline fill="none" stroke="black" points="0,-622.5 97,-622.5 "/>
<text text-anchor="start" x="8" y="-610.5" font-family="Helvetica,sans-Serif" font-size="10.00">&#45; m_jogoID</text>
<text text-anchor="start" x="8" y="-599.5" font-family="Helvetica,sans-Serif" font-size="10.00">&#45; m_nome</text>
<text text-anchor="start" x="8" y="-588.5" font-family="Helvetica,sans-Serif" font-size="10.00">&#45; m_genero</text>
<text text-anchor="start" x="8" y="-577.5" font-family="Helvetica,sans-Serif" font-size="10.00">&#45; m_valor</text>
<text text-anchor="start" x="8" y="-566.5" font-family="Helvetica,sans-Serif" font-size="10.00">&#45; m_disponivel</text>
<text text-anchor="start" x="8" y="-555.5" font-family="Helvetica,sans-Serif" font-size="10.00">&#45; m_faixaEtaria</text>
<polyline fill="none" stroke="black" points="0,-548.5 97,-548.5 "/>
<text text-anchor="start" x="8" y="-536.5" font-family="Helvetica,sans-Serif" font-size="10.00">+ Jogo()</text>
<text text-anchor="start" x="8" y="-525.5" font-family="Helvetica,sans-Serif" font-size="10.00">+ Jogo()</text>
<text text-anchor="start" x="8" y="-514.5" font-family="Helvetica,sans-Serif" font-size="10.00">+ ~Jogo()</text>
<text text-anchor="start" x="8" y="-503.5" font-family="Helvetica,sans-Serif" font-size="10.00">+ get_jogoID()</text>
<text text-anchor="start" x="8" y="-492.5" font-family="Helvetica,sans-Serif" font-size="10.00">+ set_jogoID()</text>
<text text-anchor="start" x="8" y="-481.5" font-family="Helvetica,sans-Serif" font-size="10.00">+ get_nome()</text>
<text text-anchor="start" x="8" y="-470.5" font-family="Helvetica,sans-Serif" font-size="10.00">+ set_nome()</text>
<text text-anchor="start" x="8" y="-459.5" font-family="Helvetica,sans-Serif" font-size="10.00">+ get_genero()</text>
<text text-anchor="start" x="8" y="-448.5" font-family="Helvetica,sans-Serif" font-size="10.00">+ set_genero()</text>
<text text-anchor="start" x="8" y="-437.5" font-family="Helvetica,sans-Serif" font-size="10.00">+ get_faixaEtaria()</text>
<text text-anchor="start" x="8" y="-426.5" font-family="Helvetica,sans-Serif" font-size="10.00">and 6 more...</text>
</a>
</g>
</g>
<!-- Node3&#45;&gt;Node2 -->
<g id="edge2" class="edge"><title>Node3&#45;&gt;Node2</title>
<path fill="none" stroke="#404040" d="M75.7168,-419.225C78.6658,-407.277 81.6395,-395.228 84.5152,-383.576"/>
<polygon fill="none" stroke="#404040" points="84.596,-383.249 82.1502,-376.465 87.4715,-371.598 89.9172,-378.382 84.596,-383.249"/>
<text text-anchor="middle" x="106.5" y="-393" font-family="Helvetica,sans-Serif" font-size="10.00"> &#45;m_dados</text>
</g>
<!-- Node4 -->
<g id="node4" class="node"><title>Node4</title>
<g id="a_node4"><a xlink:href="classivy_1_1_vetor.html" target="_top" xlink:title="Classe Vetor para manipulacao de vetores.">
<polygon fill="white" stroke="black" points="115.5,-452.5 115.5,-608.5 213.5,-608.5 213.5,-452.5 115.5,-452.5"/>
<text text-anchor="middle" x="164.5" y="-596.5" font-family="Helvetica,sans-Serif" font-size="10.00">ivy::Vetor&lt; _Tipo &gt;</text>
<polyline fill="none" stroke="black" points="115.5,-589.5 213.5,-589.5 "/>
<text text-anchor="start" x="123.5" y="-577.5" font-family="Helvetica,sans-Serif" font-size="10.00">&#45; m_capacidade</text>
<text text-anchor="start" x="123.5" y="-566.5" font-family="Helvetica,sans-Serif" font-size="10.00">&#45; m_tamanho</text>
<text text-anchor="start" x="123.5" y="-555.5" font-family="Helvetica,sans-Serif" font-size="10.00">&#45; m_dados</text>
<polyline fill="none" stroke="black" points="115.5,-548.5 213.5,-548.5 "/>
<text text-anchor="start" x="123.5" y="-536.5" font-family="Helvetica,sans-Serif" font-size="10.00">+ Vetor()</text>
<text text-anchor="start" x="123.5" y="-525.5" font-family="Helvetica,sans-Serif" font-size="10.00">+ ~Vetor()</text>
<text text-anchor="start" x="123.5" y="-514.5" font-family="Helvetica,sans-Serif" font-size="10.00">+ adicionar()</text>
<text text-anchor="start" x="123.5" y="-503.5" font-family="Helvetica,sans-Serif" font-size="10.00">+ remover()</text>
<text text-anchor="start" x="123.5" y="-492.5" font-family="Helvetica,sans-Serif" font-size="10.00">+ get()</text>
<text text-anchor="start" x="123.5" y="-481.5" font-family="Helvetica,sans-Serif" font-size="10.00">+ get_tamanho()</text>
<text text-anchor="start" x="123.5" y="-470.5" font-family="Helvetica,sans-Serif" font-size="10.00">+ operator=()</text>
<text text-anchor="start" x="123.5" y="-459.5" font-family="Helvetica,sans-Serif" font-size="10.00">&#45; expandir()</text>
</a>
</g>
</g>
<!-- Node4&#45;&gt;Node2 -->
<g id="edge3" class="edge"><title>Node4&#45;&gt;Node2</title>
<path fill="none" stroke="orange" d="M145.879,-442.106C141.966,-424.797 137.736,-406.791 133.5,-390 131.983,-383.986 130.358,-377.774 128.687,-371.54"/>
<polygon fill="orange" stroke="orange" points="142.54,-443.211 148.145,-452.203 149.371,-441.679 142.54,-443.211"/>
<text text-anchor="middle" x="186.5" y="-393" font-family="Helvetica,sans-Serif" font-size="10.00"> &lt; ivy::locadora::Jogo &gt;</text>
</g>
</g>
</svg>
