<?xml version="1.0" encoding="UTF-8" standalone="no"?>
<!DOCTYPE svg PUBLIC "-//W3C//DTD SVG 1.1//EN"
 "http://www.w3.org/Graphics/SVG/1.1/DTD/svg11.dtd">
<!-- Generated by graphviz version 2.38.0 (20140413.2041)
 -->
<!-- Title: ivy::InterfaceGUI Pages: 1 -->
<svg width="222pt" height="788pt"
 viewBox="0.00 0.00 222.00 788.00" xmlns="http://www.w3.org/2000/svg" xmlns:xlink="http://www.w3.org/1999/xlink">
<g id="graph0" class="graph" transform="scale(1 1) rotate(0) translate(4 784)">
<title>ivy::InterfaceGUI</title>
<polygon fill="white" stroke="none" points="-4,4 -4,-784 218,-784 218,4 -4,4"/>
<!-- Node1 -->
<g id="node1" class="node"><title>Node1</title>
<g id="a_node1"><a xlink:title="Classe InterfaceGUI Gerencia a interface grafica.">
<polygon fill="#bfbfbf" stroke="black" points="60.5,-0.5 60.5,-101.5 153.5,-101.5 153.5,-0.5 60.5,-0.5"/>
<text text-anchor="middle" x="107" y="-89.5" font-family="Helvetica,sans-Serif" font-size="10.00">ivy::InterfaceGUI</text>
<polyline fill="none" stroke="black" points="60.5,-82.5 153.5,-82.5 "/>
<text text-anchor="start" x="68.5" y="-70.5" font-family="Helvetica,sans-Serif" font-size="10.00">&#45; m_screenWidth</text>
<text text-anchor="start" x="68.5" y="-59.5" font-family="Helvetica,sans-Serif" font-size="10.00">&#45; m_screenHeight</text>
<text text-anchor="start" x="68.5" y="-48.5" font-family="Helvetica,sans-Serif" font-size="10.00">&#45; m_title</text>
<polyline fill="none" stroke="black" points="60.5,-41.5 153.5,-41.5 "/>
<text text-anchor="start" x="68.5" y="-29.5" font-family="Helvetica,sans-Serif" font-size="10.00">+ InterfaceGUI()</text>
<text text-anchor="start" x="68.5" y="-18.5" font-family="Helvetica,sans-Serif" font-size="10.00">+ ~InterfaceGUI()</text>
<text text-anchor="start" x="68.5" y="-7.5" font-family="Helvetica,sans-Serif" font-size="10.00">+ run()</text>
</a>
</g>
</g>
<!-- Node2 -->
<g id="node2" class="node"><title>Node2</title>
<g id="a_node2"><a xlink:href="classivy_1_1_ivy_manager.html" target="_top" xlink:title="Classe IvyManager Responsavel por gerenciar o estoque da loja de informatica.">
<polygon fill="white" stroke="black" points="50.5,-149.5 50.5,-316.5 163.5,-316.5 163.5,-149.5 50.5,-149.5"/>
<text text-anchor="middle" x="107" y="-304.5" font-family="Helvetica,sans-Serif" font-size="10.00">ivy::IvyManager</text>
<polyline fill="none" stroke="black" points="50.5,-297.5 163.5,-297.5 "/>
<text text-anchor="middle" x="107" y="-285.5" font-family="Helvetica,sans-Serif" font-size="10.00"> </text>
<polyline fill="none" stroke="black" points="50.5,-278.5 163.5,-278.5 "/>
<text text-anchor="start" x="58.5" y="-266.5" font-family="Helvetica,sans-Serif" font-size="10.00">+ IvyManager()</text>
<text text-anchor="start" x="58.5" y="-255.5" font-family="Helvetica,sans-Serif" font-size="10.00">+ ~IvyManager()</text>
<text text-anchor="start" x="58.5" y="-244.5" font-family="Helvetica,sans-Serif" font-size="10.00">+ get_estoque()</text>
<text text-anchor="start" x="58.5" y="-233.5" font-family="Helvetica,sans-Serif" font-size="10.00">+ cadastrar()</text>
<text text-anchor="start" x="58.5" y="-222.5" font-family="Helvetica,sans-Serif" font-size="10.00">+ editar()</text>
<text text-anchor="start" x="58.5" y="-211.5" font-family="Helvetica,sans-Serif" font-size="10.00">+ buscar_nome()</text>
<text text-anchor="start" x="58.5" y="-200.5" font-family="Helvetica,sans-Serif" font-size="10.00">+ buscar_marca()</text>
<text text-anchor="start" x="58.5" y="-189.5" font-family="Helvetica,sans-Serif" font-size="10.00">+ buscar_valor()</text>
<text text-anchor="start" x="58.5" y="-178.5" font-family="Helvetica,sans-Serif" font-size="10.00">+ buscar_quantidade()</text>
<text text-anchor="start" x="58.5" y="-167.5" font-family="Helvetica,sans-Serif" font-size="10.00">+ buscar_id()</text>
<text text-anchor="start" x="58.5" y="-156.5" font-family="Helvetica,sans-Serif" font-size="10.00">and 9 more...</text>
</a>
</g>
</g>
<!-- Node2&#45;&gt;Node1 -->
<g id="edge1" class="edge"><title>Node2&#45;&gt;Node1</title>
<path fill="none" stroke="#404040" d="M107,-149.375C107,-137.362 107,-125.173 107,-113.671"/>
<polygon fill="none" stroke="#404040" points="107,-113.5 103,-107.5 107,-101.5 111,-107.5 107,-113.5"/>
<text text-anchor="middle" x="143" y="-123" font-family="Helvetica,sans-Serif" font-size="10.00"> +m_ivyManager</text>
</g>
<!-- Node3 -->
<g id="node3" class="node"><title>Node3</title>
<g id="a_node3"><a xlink:href="classivy_1_1_vetor.html" target="_top" xlink:title=" ">
<polygon fill="white" stroke="black" points="44,-364.5 44,-509.5 170,-509.5 170,-364.5 44,-364.5"/>
<text text-anchor="middle" x="107" y="-497.5" font-family="Helvetica,sans-Serif" font-size="10.00">ivy::Vetor&lt; ivy::Produto &gt;</text>
<polyline fill="none" stroke="black" points="44,-490.5 170,-490.5 "/>
<text text-anchor="start" x="52" y="-478.5" font-family="Helvetica,sans-Serif" font-size="10.00">&#45; m_capacidade</text>
<text text-anchor="start" x="52" y="-467.5" font-family="Helvetica,sans-Serif" font-size="10.00">&#45; m_tamanho</text>
<polyline fill="none" stroke="black" points="44,-460.5 170,-460.5 "/>
<text text-anchor="start" x="52" y="-448.5" font-family="Helvetica,sans-Serif" font-size="10.00">+ Vetor()</text>
<text text-anchor="start" x="52" y="-437.5" font-family="Helvetica,sans-Serif" font-size="10.00">+ ~Vetor()</text>
<text text-anchor="start" x="52" y="-426.5" font-family="Helvetica,sans-Serif" font-size="10.00">+ adicionar()</text>
<text text-anchor="start" x="52" y="-415.5" font-family="Helvetica,sans-Serif" font-size="10.00">+ remover()</text>
<text text-anchor="start" x="52" y="-404.5" font-family="Helvetica,sans-Serif" font-size="10.00">+ get()</text>
<text text-anchor="start" x="52" y="-393.5" font-family="Helvetica,sans-Serif" font-size="10.00">+ get_tamanho()</text>
<text text-anchor="start" x="52" y="-382.5" font-family="Helvetica,sans-Serif" font-size="10.00">+ operator=()</text>
<text text-anchor="start" x="52" y="-371.5" font-family="Helvetica,sans-Serif" font-size="10.00">&#45; expandir()</text>
</a>
</g>
</g>
<!-- Node3&#45;&gt;Node2 -->
<g id="edge2" class="edge"><title>Node3&#45;&gt;Node2</title>
<path fill="none" stroke="#404040" d="M107,-364.498C107,-353.042 107,-341.031 107,-329.13"/>
<polygon fill="none" stroke="#404040" points="107,-328.794 103,-322.794 107,-316.794 111,-322.794 107,-328.794"/>
<text text-anchor="middle" x="134.5" y="-338" font-family="Helvetica,sans-Serif" font-size="10.00"> &#45;m_estoque</text>
</g>
<!-- Node4 -->
<g id="node4" class="node"><title>Node4</title>
<g id="a_node4"><a xlink:href="classivy_1_1_produto.html" target="_top" xlink:title="Classe Produto, define um produto para o sistema de estoque Ivy.">
<polygon fill="white" stroke="black" points="0,-557.5 0,-779.5 98,-779.5 98,-557.5 0,-557.5"/>
<text text-anchor="middle" x="49" y="-767.5" font-family="Helvetica,sans-Serif" font-size="10.00">ivy::Produto</text>
<polyline fill="none" stroke="black" points="0,-760.5 98,-760.5 "/>
<text text-anchor="start" x="8" y="-748.5" font-family="Helvetica,sans-Serif" font-size="10.00">&#45; m_nome</text>
<text text-anchor="start" x="8" y="-737.5" font-family="Helvetica,sans-Serif" font-size="10.00">&#45; m_marca</text>
<text text-anchor="start" x="8" y="-726.5" font-family="Helvetica,sans-Serif" font-size="10.00">&#45; m_valor</text>
<text text-anchor="start" x="8" y="-715.5" font-family="Helvetica,sans-Serif" font-size="10.00">&#45; m_id</text>
<text text-anchor="start" x="8" y="-704.5" font-family="Helvetica,sans-Serif" font-size="10.00">&#45; m_quantidade</text>
<text text-anchor="start" x="8" y="-693.5" font-family="Helvetica,sans-Serif" font-size="10.00">&#45; m_garantia</text>
<polyline fill="none" stroke="black" points="0,-686.5 98,-686.5 "/>
<text text-anchor="start" x="8" y="-674.5" font-family="Helvetica,sans-Serif" font-size="10.00">+ Produto()</text>
<text text-anchor="start" x="8" y="-663.5" font-family="Helvetica,sans-Serif" font-size="10.00">+ Produto()</text>
<text text-anchor="start" x="8" y="-652.5" font-family="Helvetica,sans-Serif" font-size="10.00">+ ~Produto()</text>
<text text-anchor="start" x="8" y="-641.5" font-family="Helvetica,sans-Serif" font-size="10.00">+ get_id()</text>
<text text-anchor="start" x="8" y="-630.5" font-family="Helvetica,sans-Serif" font-size="10.00">+ set_id()</text>
<text text-anchor="start" x="8" y="-619.5" font-family="Helvetica,sans-Serif" font-size="10.00">+ get_nome()</text>
<text text-anchor="start" x="8" y="-608.5" font-family="Helvetica,sans-Serif" font-size="10.00">+ set_nome()</text>
<text text-anchor="start" x="8" y="-597.5" font-family="Helvetica,sans-Serif" font-size="10.00">+ get_marca()</text>
<text text-anchor="start" x="8" y="-586.5" font-family="Helvetica,sans-Serif" font-size="10.00">+ set_marca()</text>
<text text-anchor="start" x="8" y="-575.5" font-family="Helvetica,sans-Serif" font-size="10.00">+ get_quantidade()</text>
<text text-anchor="start" x="8" y="-564.5" font-family="Helvetica,sans-Serif" font-size="10.00">and 7 more...</text>
</a>
</g>
</g>
<!-- Node4&#45;&gt;Node3 -->
<g id="edge3" class="edge"><title>Node4&#45;&gt;Node3</title>
<path fill="none" stroke="#404040" d="M76.8108,-557.455C79.8533,-545.417 82.9132,-533.309 85.8564,-521.663"/>
<polygon fill="none" stroke="#404040" points="85.9352,-521.351 83.5273,-514.554 88.8755,-509.717 91.2835,-516.514 85.9352,-521.351"/>
<text text-anchor="middle" x="107" y="-531" font-family="Helvetica,sans-Serif" font-size="10.00"> &#45;m_dados</text>
</g>
<!-- Node5 -->
<g id="node5" class="node"><title>Node5</title>
<g id="a_node5"><a xlink:href="classivy_1_1_vetor.html" target="_top" xlink:title="Classe Vetor para manipulacao de vetores.">
<polygon fill="white" stroke="black" points="116,-590.5 116,-746.5 214,-746.5 214,-590.5 116,-590.5"/>
<text text-anchor="middle" x="165" y="-734.5" font-family="Helvetica,sans-Serif" font-size="10.00">ivy::Vetor&lt; _Tipo &gt;</text>
<polyline fill="none" stroke="black" points="116,-727.5 214,-727.5 "/>
<text text-anchor="start" x="124" y="-715.5" font-family="Helvetica,sans-Serif" font-size="10.00">&#45; m_capacidade</text>
<text text-anchor="start" x="124" y="-704.5" font-family="Helvetica,sans-Serif" font-size="10.00">&#45; m_tamanho</text>
<text text-anchor="start" x="124" y="-693.5" font-family="Helvetica,sans-Serif" font-size="10.00">&#45; m_dados</text>
<polyline fill="none" stroke="black" points="116,-686.5 214,-686.5 "/>
<text text-anchor="start" x="124" y="-674.5" font-family="Helvetica,sans-Serif" font-size="10.00">+ Vetor()</text>
<text text-anchor="start" x="124" y="-663.5" font-family="Helvetica,sans-Serif" font-size="10.00">+ ~Vetor()</text>
<text text-anchor="start" x="124" y="-652.5" font-family="Helvetica,sans-Serif" font-size="10.00">+ adicionar()</text>
<text text-anchor="start" x="124" y="-641.5" font-family="Helvetica,sans-Serif" font-size="10.00">+ remover()</text>
<text text-anchor="start" x="124" y="-630.5" font-family="Helvetica,sans-Serif" font-size="10.00">+ get()</text>
<text text-anchor="start" x="124" y="-619.5" font-family="Helvetica,sans-Serif" font-size="10.00">+ get_tamanho()</text>
<text text-anchor="start" x="124" y="-608.5" font-family="Helvetica,sans-Serif" font-size="10.00">+ operator=()</text>
<text text-anchor="start" x="124" y="-597.5" font-family="Helvetica,sans-Serif" font-size="10.00">&#45; expandir()</text>
</a>
</g>
</g>
<!-- Node5&#45;&gt;Node3 -->
<g id="edge4" class="edge"><title>Node5&#45;&gt;Node3</title>
<path fill="none" stroke="orange" d="M146.591,-580.052C142.661,-562.747 138.369,-544.757 134,-528 132.436,-522.002 130.741,-515.801 128.989,-509.59"/>
<polygon fill="orange" stroke="orange" points="143.253,-581.159 148.862,-590.147 150.082,-579.623 143.253,-581.159"/>
<text text-anchor="middle" x="171.5" y="-531" font-family="Helvetica,sans-Serif" font-size="10.00"> &lt; ivy::Produto &gt;</text>
</g>
</g>
</svg>
