<?xml version="1.0" encoding="UTF-8" standalone="no"?>
<!DOCTYPE svg PUBLIC "-//W3C//DTD SVG 1.1//EN"
 "http://www.w3.org/Graphics/SVG/1.1/DTD/svg11.dtd">
<!-- Generated by graphviz version 2.38.0 (20140413.2041)
 -->
<!-- Title: C:/Users/osyri/Desktop/IVY&#45;Inventory&#45;Manager/src/ivy/ivy_manager Pages: 1 -->
<svg width="142pt" height="295pt"
 viewBox="0.00 0.00 142.00 295.00" xmlns="http://www.w3.org/2000/svg" xmlns:xlink="http://www.w3.org/1999/xlink">
<g id="graph0" class="graph" transform="scale(1 1) rotate(0) translate(4 291)">
<title>C:/Users/osyri/Desktop/IVY&#45;Inventory&#45;Manager/src/ivy/ivy_manager</title>
<polygon fill="white" stroke="none" points="-4,4 -4,-291 138,-291 138,4 -4,4"/>
<g id="clust1" class="cluster"><title>clusterdir_16b145e7aeea667233de288c350ffa04</title>
<g id="a_clust1"><a xlink:href="dir_16b145e7aeea667233de288c350ffa04.html" target="_top" xlink:title="ivy">
<polygon fill="#ddddee" stroke="black" points="8,-208 8,-279 96,-279 96,-208 8,-208"/>
<text text-anchor="middle" x="52" y="-267" font-family="Helvetica,sans-Serif" font-size="10.00">ivy</text>
</a>
</g>
</g>
<!-- dir_8f1a3adb73dd530071d9e32275209325 -->
<g id="node1" class="node"><title>dir_8f1a3adb73dd530071d9e32275209325</title>
<g id="a_node1"><a xlink:href="dir_8f1a3adb73dd530071d9e32275209325.html" target="_top" xlink:title="ivy_manager">
<polygon fill="#eeeeff" stroke="black" points="87.5,-252 16.5,-252 16.5,-216 87.5,-216 87.5,-252"/>
<text text-anchor="middle" x="52" y="-231.5" font-family="Helvetica,sans-Serif" font-size="10.00">ivy_manager</text>
</a>
</g>
</g>
<!-- dir_1ea6d1698d64767405e39a7faf1018d7 -->
<g id="node2" class="node"><title>dir_1ea6d1698d64767405e39a7faf1018d7</title>
<g id="a_node2"><a xlink:href="dir_1ea6d1698d64767405e39a7faf1018d7.html" target="_top" xlink:title="produto">
<polygon fill="none" stroke="black" points="88,-108 34,-108 34,-72 88,-72 88,-108"/>
<text text-anchor="middle" x="61" y="-87.5" font-family="Helvetica,sans-Serif" font-size="10.00">produto</text>
</a>
</g>
</g>
<!-- dir_8f1a3adb73dd530071d9e32275209325&#45;&gt;dir_1ea6d1698d64767405e39a7faf1018d7 -->
<g id="edge2" class="edge"><title>dir_8f1a3adb73dd530071d9e32275209325&#45;&gt;dir_1ea6d1698d64767405e39a7faf1018d7</title>
<path fill="none" stroke="black" d="M53.0856,-215.871C54.6195,-191.67 57.4373,-147.211 59.2638,-118.393"/>
<polygon fill="black" stroke="black" points="62.7709,-118.391 59.9105,-108.189 55.7849,-117.948 62.7709,-118.391"/>
<g id="a_edge2&#45;headlabel"><a xlink:href="dir_000005_000009.html" target="_top" xlink:title="1">
<text text-anchor="middle" x="65.3772" y="-119.658" font-family="Helvetica,sans-Serif" font-size="10.00">1</text>
</a>
</g>
</g>
<!-- dir_c7df54893aced96becb22c9111f69826 -->
<g id="node3" class="node"><title>dir_c7df54893aced96becb22c9111f69826</title>
<g id="a_node3"><a xlink:href="dir_c7df54893aced96becb22c9111f69826.html" target="_top" xlink:title="log">
<polygon fill="none" stroke="black" points="88,-36 34,-36 34,-0 88,-0 88,-36"/>
<text text-anchor="middle" x="61" y="-15.5" font-family="Helvetica,sans-Serif" font-size="10.00">log</text>
</a>
</g>
</g>
<!-- dir_8f1a3adb73dd530071d9e32275209325&#45;&gt;dir_c7df54893aced96becb22c9111f69826 -->
<g id="edge3" class="edge"><title>dir_8f1a3adb73dd530071d9e32275209325&#45;&gt;dir_c7df54893aced96becb22c9111f69826</title>
<path fill="none" stroke="black" d="M43.982,-215.736C31.2414,-185.884 9.33899,-122.929 25,-72 28.0089,-62.2153 33.507,-52.6161 39.3157,-44.3336"/>
<polygon fill="black" stroke="black" points="42.1948,-46.3279 45.3901,-36.2264 36.5928,-42.1306 42.1948,-46.3279"/>
<g id="a_edge3&#45;headlabel"><a xlink:href="dir_000005_000008.html" target="_top" xlink:title="1">
<text text-anchor="middle" x="42.3117" y="-48.4071" font-family="Helvetica,sans-Serif" font-size="10.00">1</text>
</a>
</g>
</g>
<!-- dir_8da52e5709445158212dcc8c0c3b1866 -->
<g id="node4" class="node"><title>dir_8da52e5709445158212dcc8c0c3b1866</title>
<g id="a_node4"><a xlink:href="dir_8da52e5709445158212dcc8c0c3b1866.html" target="_top" xlink:title="vetor">
<polygon fill="none" stroke="black" points="134,-180 80,-180 80,-144 134,-144 134,-180"/>
<text text-anchor="middle" x="107" y="-159.5" font-family="Helvetica,sans-Serif" font-size="10.00">vetor</text>
</a>
</g>
</g>
<!-- dir_8f1a3adb73dd530071d9e32275209325&#45;&gt;dir_8da52e5709445158212dcc8c0c3b1866 -->
<g id="edge4" class="edge"><title>dir_8f1a3adb73dd530071d9e32275209325&#45;&gt;dir_8da52e5709445158212dcc8c0c3b1866</title>
<path fill="none" stroke="black" d="M65.5955,-215.697C72.1227,-207.389 80.068,-197.277 87.2466,-188.141"/>
<polygon fill="black" stroke="black" points="90.1347,-190.13 93.5609,-180.104 84.6305,-185.805 90.1347,-190.13"/>
<g id="a_edge4&#45;headlabel"><a xlink:href="dir_000005_000010.html" target="_top" xlink:title="1">
<text text-anchor="middle" x="90.1465" y="-192.211" font-family="Helvetica,sans-Serif" font-size="10.00">1</text>
</a>
</g>
</g>
<!-- dir_1ea6d1698d64767405e39a7faf1018d7&#45;&gt;dir_c7df54893aced96becb22c9111f69826 -->
<g id="edge1" class="edge"><title>dir_1ea6d1698d64767405e39a7faf1018d7&#45;&gt;dir_c7df54893aced96becb22c9111f69826</title>
<path fill="none" stroke="black" d="M61,-71.6966C61,-63.9827 61,-54.7125 61,-46.1124"/>
<polygon fill="black" stroke="black" points="64.5001,-46.1043 61,-36.1043 57.5001,-46.1044 64.5001,-46.1043"/>
<g id="a_edge1&#45;headlabel"><a xlink:href="dir_000009_000008.html" target="_top" xlink:title="1">
<text text-anchor="middle" x="67.3393" y="-47.199" font-family="Helvetica,sans-Serif" font-size="10.00">1</text>
</a>
</g>
</g>
<!-- dir_8da52e5709445158212dcc8c0c3b1866&#45;&gt;dir_1ea6d1698d64767405e39a7faf1018d7 -->
<g id="edge5" class="edge"><title>dir_8da52e5709445158212dcc8c0c3b1866&#45;&gt;dir_1ea6d1698d64767405e39a7faf1018d7</title>
<path fill="none" stroke="black" d="M95.6292,-143.697C90.2815,-135.559 83.7957,-125.689 77.8894,-116.701"/>
<polygon fill="black" stroke="black" points="80.6568,-114.539 72.24,-108.104 74.8068,-118.384 80.6568,-114.539"/>
<g id="a_edge5&#45;headlabel"><a xlink:href="dir_000010_000009.html" target="_top" xlink:title="1">
<text text-anchor="middle" x="85.0036" y="-113.484" font-family="Helvetica,sans-Serif" font-size="10.00">1</text>
</a>
</g>
</g>
<!-- dir_8da52e5709445158212dcc8c0c3b1866&#45;&gt;dir_c7df54893aced96becb22c9111f69826 -->
<g id="edge6" class="edge"><title>dir_8da52e5709445158212dcc8c0c3b1866&#45;&gt;dir_c7df54893aced96becb22c9111f69826</title>
<path fill="none" stroke="black" d="M107.481,-143.708C107.442,-125.352 105.792,-95.7703 97,-72 93.4487,-62.3988 87.7982,-52.8512 82.0168,-44.5595"/>
<polygon fill="black" stroke="black" points="84.7743,-42.4016 76.027,-36.4237 79.1372,-46.5517 84.7743,-42.4016"/>
<g id="a_edge6&#45;headlabel"><a xlink:href="dir_000010_000008.html" target="_top" xlink:title="1">
<text text-anchor="middle" x="89.1919" y="-41.1129" font-family="Helvetica,sans-Serif" font-size="10.00">1</text>
</a>
</g>
</g>
</g>
</svg>
