<?xml version="1.0" encoding="UTF-8" standalone="no"?>
<!DOCTYPE svg PUBLIC "-//W3C//DTD SVG 1.1//EN"
 "http://www.w3.org/Graphics/SVG/1.1/DTD/svg11.dtd">
<!-- Generated by graphviz version 2.38.0 (20140413.2041)
 -->
<!-- Title: C:/Users/osyri/Desktop/IVY&#45;Inventory&#45;Manager/src/ivy/locadora Pages: 1 -->
<svg width="164pt" height="231pt"
 viewBox="0.00 0.00 164.00 231.00" xmlns="http://www.w3.org/2000/svg" xmlns:xlink="http://www.w3.org/1999/xlink">
<g id="graph0" class="graph" transform="scale(1 1) rotate(0) translate(4 227)">
<title>C:/Users/osyri/Desktop/IVY&#45;Inventory&#45;Manager/src/ivy/locadora</title>
<polygon fill="white" stroke="none" points="-4,4 -4,-227 160,-227 160,4 -4,4"/>
<g id="clust1" class="cluster"><title>clusterdir_16b145e7aeea667233de288c350ffa04</title>
<g id="a_clust1"><a xlink:href="dir_16b145e7aeea667233de288c350ffa04.html" target="_top" xlink:title="ivy">
<polygon fill="#ddddee" stroke="black" points="8,-56 8,-215 94,-215 94,-56 8,-56"/>
<text text-anchor="middle" x="51" y="-203" font-family="Helvetica,sans-Serif" font-size="10.00">ivy</text>
</a>
</g>
</g>
<g id="clust2" class="cluster"><title>clusterdir_b36e81e0ba3e5b4bdff5320a17072adf</title>
<g id="a_clust2"><a xlink:href="dir_b36e81e0ba3e5b4bdff5320a17072adf.html" target="_top">
<polygon fill="#eeeeff" stroke="black" points="16,-64 16,-188 86,-188 86,-64 16,-64"/>
</a>
</g>
</g>
<!-- dir_b36e81e0ba3e5b4bdff5320a17072adf -->
<g id="node1" class="node"><title>dir_b36e81e0ba3e5b4bdff5320a17072adf</title>
<text text-anchor="middle" x="51" y="-159.5" font-family="Helvetica,sans-Serif" font-size="10.00">locadora</text>
</g>
<!-- dir_95cc7ba2cf92b7268fd41d4734971606 -->
<g id="node2" class="node"><title>dir_95cc7ba2cf92b7268fd41d4734971606</title>
<g id="a_node2"><a xlink:href="dir_95cc7ba2cf92b7268fd41d4734971606.html" target="_top" xlink:title="jogo">
<polygon fill="white" stroke="black" points="78,-108 24,-108 24,-72 78,-72 78,-108"/>
<text text-anchor="middle" x="51" y="-87.5" font-family="Helvetica,sans-Serif" font-size="10.00">jogo</text>
</a>
</g>
</g>
<!-- dir_b36e81e0ba3e5b4bdff5320a17072adf&#45;&gt;dir_95cc7ba2cf92b7268fd41d4734971606 -->
<g id="edge2" class="edge"><title>dir_b36e81e0ba3e5b4bdff5320a17072adf&#45;&gt;dir_95cc7ba2cf92b7268fd41d4734971606</title>
<path fill="none" stroke="black" d="M51,-143.697C51,-135.983 51,-126.712 51,-118.112"/>
<polygon fill="black" stroke="black" points="54.5001,-118.104 51,-108.104 47.5001,-118.104 54.5001,-118.104"/>
<g id="a_edge2&#45;headlabel"><a xlink:href="dir_000006_000007.html" target="_top" xlink:title="1">
<text text-anchor="middle" x="57.3393" y="-119.199" font-family="Helvetica,sans-Serif" font-size="10.00">1</text>
</a>
</g>
</g>
<!-- dir_8da52e5709445158212dcc8c0c3b1866 -->
<g id="node4" class="node"><title>dir_8da52e5709445158212dcc8c0c3b1866</title>
<g id="a_node4"><a xlink:href="dir_8da52e5709445158212dcc8c0c3b1866.html" target="_top" xlink:title="vetor">
<polygon fill="none" stroke="black" points="156,-180 102,-180 102,-144 156,-144 156,-180"/>
<text text-anchor="middle" x="129" y="-159.5" font-family="Helvetica,sans-Serif" font-size="10.00">vetor</text>
</a>
</g>
</g>
<!-- dir_b36e81e0ba3e5b4bdff5320a17072adf&#45;&gt;dir_8da52e5709445158212dcc8c0c3b1866 -->
<g id="edge1" class="edge"><title>dir_b36e81e0ba3e5b4bdff5320a17072adf&#45;&gt;dir_8da52e5709445158212dcc8c0c3b1866</title>
<path fill="none" stroke="black" d="M78.1172,-162C82.7135,-162 87.3099,-162 91.9062,-162"/>
<polygon fill="black" stroke="black" points="91.9685,-165.5 101.969,-162 91.9685,-158.5 91.9685,-165.5"/>
<g id="a_edge1&#45;headlabel"><a xlink:href="dir_000006_000010.html" target="_top" xlink:title="1">
<text text-anchor="middle" x="88.3739" y="-165.839" font-family="Helvetica,sans-Serif" font-size="10.00">1</text>
</a>
</g>
</g>
<!-- dir_c7df54893aced96becb22c9111f69826 -->
<g id="node3" class="node"><title>dir_c7df54893aced96becb22c9111f69826</title>
<g id="a_node3"><a xlink:href="dir_c7df54893aced96becb22c9111f69826.html" target="_top" xlink:title="log">
<polygon fill="none" stroke="black" points="112,-36 58,-36 58,-0 112,-0 112,-36"/>
<text text-anchor="middle" x="85" y="-15.5" font-family="Helvetica,sans-Serif" font-size="10.00">log</text>
</a>
</g>
</g>
<!-- dir_95cc7ba2cf92b7268fd41d4734971606&#45;&gt;dir_c7df54893aced96becb22c9111f69826 -->
<g id="edge6" class="edge"><title>dir_95cc7ba2cf92b7268fd41d4734971606&#45;&gt;dir_c7df54893aced96becb22c9111f69826</title>
<path fill="none" stroke="black" d="M59.4045,-71.6966C63.2748,-63.7284 67.9517,-54.0995 72.2431,-45.2641"/>
<polygon fill="black" stroke="black" points="75.4714,-46.6286 76.6922,-36.1043 69.1748,-43.5702 75.4714,-46.6286"/>
<g id="a_edge6&#45;headlabel"><a xlink:href="dir_000007_000008.html" target="_top" xlink:title="1">
<text text-anchor="middle" x="76.4549" y="-48.6025" font-family="Helvetica,sans-Serif" font-size="10.00">1</text>
</a>
</g>
</g>
<!-- dir_8da52e5709445158212dcc8c0c3b1866&#45;&gt;dir_b36e81e0ba3e5b4bdff5320a17072adf -->
<g id="edge4" class="edge"><title>dir_8da52e5709445158212dcc8c0c3b1866&#45;&gt;dir_b36e81e0ba3e5b4bdff5320a17072adf</title>
<path fill="none" stroke="black" d="M101.969,-162C97.3722,-162 92.7758,-162 88.1795,-162"/>
<polygon fill="black" stroke="black" points="88.1172,-158.5 78.1172,-162 88.1172,-165.5 88.1172,-158.5"/>
<g id="a_edge4&#45;headlabel"><a xlink:href="dir_000010_000006.html" target="_top" xlink:title="1">
<text text-anchor="middle" x="91.7118" y="-153.161" font-family="Helvetica,sans-Serif" font-size="10.00">1</text>
</a>
</g>
</g>
<!-- dir_8da52e5709445158212dcc8c0c3b1866&#45;&gt;dir_95cc7ba2cf92b7268fd41d4734971606 -->
<g id="edge5" class="edge"><title>dir_8da52e5709445158212dcc8c0c3b1866&#45;&gt;dir_95cc7ba2cf92b7268fd41d4734971606</title>
<path fill="none" stroke="black" d="M109.719,-143.697C100.085,-135.05 88.2712,-124.449 77.773,-115.027"/>
<polygon fill="black" stroke="black" points="79.8393,-112.179 70.0591,-108.104 75.1639,-117.388 79.8393,-112.179"/>
<g id="a_edge5&#45;headlabel"><a xlink:href="dir_000010_000007.html" target="_top" xlink:title="1">
<text text-anchor="middle" x="84.4109" y="-109.966" font-family="Helvetica,sans-Serif" font-size="10.00">1</text>
</a>
</g>
</g>
<!-- dir_8da52e5709445158212dcc8c0c3b1866&#45;&gt;dir_c7df54893aced96becb22c9111f69826 -->
<g id="edge3" class="edge"><title>dir_8da52e5709445158212dcc8c0c3b1866&#45;&gt;dir_c7df54893aced96becb22c9111f69826</title>
<path fill="none" stroke="black" d="M123.693,-143.871C116.161,-119.564 102.296,-74.8187 93.3703,-46.0132"/>
<polygon fill="black" stroke="black" points="96.6293,-44.7053 90.3263,-36.1893 89.9429,-46.7772 96.6293,-44.7053"/>
<g id="a_edge3&#45;headlabel"><a xlink:href="dir_000010_000008.html" target="_top" xlink:title="1">
<text text-anchor="middle" x="100.405" y="-44.7985" font-family="Helvetica,sans-Serif" font-size="10.00">1</text>
</a>
</g>
</g>
</g>
</svg>
