<?xml version="1.0" encoding="UTF-8" standalone="no"?>
<!DOCTYPE svg PUBLIC "-//W3C//DTD SVG 1.1//EN"
 "http://www.w3.org/Graphics/SVG/1.1/DTD/svg11.dtd">
<!-- Generated by graphviz version 2.38.0 (20140413.2041)
 -->
<!-- Title: C:/Users/osyri/Desktop/IVY&#45;Inventory&#45;Manager/src/ivy Pages: 1 -->
<svg width="242pt" height="399pt"
 viewBox="0.00 0.00 242.00 399.00" xmlns="http://www.w3.org/2000/svg" xmlns:xlink="http://www.w3.org/1999/xlink">
<g id="graph0" class="graph" transform="scale(1 1) rotate(0) translate(4 395)">
<title>C:/Users/osyri/Desktop/IVY&#45;Inventory&#45;Manager/src/ivy</title>
<polygon fill="white" stroke="none" points="-4,4 -4,-395 238,-395 238,4 -4,4"/>
<g id="clust1" class="cluster"><title>clusterdir_68267d1309a1af8e8297ef4c3efbcdba</title>
<g id="a_clust1"><a xlink:href="dir_68267d1309a1af8e8297ef4c3efbcdba.html" target="_top" xlink:title="src">
<polygon fill="#ddddee" stroke="black" points="8,-8 8,-383 226,-383 226,-8 8,-8"/>
<text text-anchor="middle" x="117" y="-371" font-family="Helvetica,sans-Serif" font-size="10.00">src</text>
</a>
</g>
</g>
<g id="clust2" class="cluster"><title>clusterdir_16b145e7aeea667233de288c350ffa04</title>
<g id="a_clust2"><a xlink:href="dir_16b145e7aeea667233de288c350ffa04.html" target="_top">
<polygon fill="#eeeeff" stroke="black" points="16,-16 16,-356 218,-356 218,-16 16,-16"/>
</a>
</g>
</g>
<!-- dir_16b145e7aeea667233de288c350ffa04 -->
<g id="node1" class="node"><title>dir_16b145e7aeea667233de288c350ffa04</title>
<text text-anchor="middle" x="181" y="-255.5" font-family="Helvetica,sans-Serif" font-size="10.00">ivy</text>
</g>
<!-- dir_1ea6d1698d64767405e39a7faf1018d7 -->
<g id="node6" class="node"><title>dir_1ea6d1698d64767405e39a7faf1018d7</title>
<g id="a_node6"><a xlink:href="dir_1ea6d1698d64767405e39a7faf1018d7.html" target="_top" xlink:title="produto">
<polygon fill="white" stroke="black" points="210,-132 156,-132 156,-96 210,-96 210,-132"/>
<text text-anchor="middle" x="183" y="-111.5" font-family="Helvetica,sans-Serif" font-size="10.00">produto</text>
</a>
</g>
</g>
<!-- dir_16b145e7aeea667233de288c350ffa04&#45;&gt;dir_1ea6d1698d64767405e39a7faf1018d7 -->
<g id="edge10" class="edge"><title>dir_16b145e7aeea667233de288c350ffa04&#45;&gt;dir_1ea6d1698d64767405e39a7faf1018d7</title>
<path fill="none" stroke="black" d="M181.241,-239.871C181.582,-215.67 182.208,-171.211 182.614,-142.393"/>
<polygon fill="black" stroke="black" points="186.117,-142.238 182.758,-132.189 179.117,-142.139 186.117,-142.238"/>
<g id="a_edge10&#45;headlabel"><a xlink:href="dir_000002_000009.html" target="_top" xlink:title="3">
<text text-anchor="middle" x="188.905" y="-143.372" font-family="Helvetica,sans-Serif" font-size="10.00">3</text>
</a>
</g>
</g>
<!-- dir_8da52e5709445158212dcc8c0c3b1866 -->
<g id="node7" class="node"><title>dir_8da52e5709445158212dcc8c0c3b1866</title>
<g id="a_node7"><a xlink:href="dir_8da52e5709445158212dcc8c0c3b1866.html" target="_top" xlink:title="vetor">
<polygon fill="white" stroke="black" points="140,-204 86,-204 86,-168 140,-168 140,-204"/>
<text text-anchor="middle" x="113" y="-183.5" font-family="Helvetica,sans-Serif" font-size="10.00">vetor</text>
</a>
</g>
</g>
<!-- dir_16b145e7aeea667233de288c350ffa04&#45;&gt;dir_8da52e5709445158212dcc8c0c3b1866 -->
<g id="edge11" class="edge"><title>dir_16b145e7aeea667233de288c350ffa04&#45;&gt;dir_8da52e5709445158212dcc8c0c3b1866</title>
<path fill="none" stroke="black" d="M164.191,-239.697C155.874,-231.135 145.695,-220.656 136.61,-211.304"/>
<polygon fill="black" stroke="black" points="139.094,-208.838 129.616,-204.104 134.073,-213.716 139.094,-208.838"/>
<g id="a_edge11&#45;headlabel"><a xlink:href="dir_000002_000010.html" target="_top" xlink:title="3">
<text text-anchor="middle" x="143.635" y="-206.938" font-family="Helvetica,sans-Serif" font-size="10.00">3</text>
</a>
</g>
</g>
<!-- dir_1ffd8d4c7a3948904b5456faad2babff -->
<g id="node2" class="node"><title>dir_1ffd8d4c7a3948904b5456faad2babff</title>
<g id="a_node2"><a xlink:href="dir_1ffd8d4c7a3948904b5456faad2babff.html" target="_top" xlink:title="interface">
<polygon fill="white" stroke="red" points="78,-348 24,-348 24,-312 78,-312 78,-348"/>
<text text-anchor="middle" x="51" y="-327.5" font-family="Helvetica,sans-Serif" font-size="10.00">interface</text>
</a>
</g>
</g>
<!-- dir_8f1a3adb73dd530071d9e32275209325 -->
<g id="node3" class="node"><title>dir_8f1a3adb73dd530071d9e32275209325</title>
<g id="a_node3"><a xlink:href="dir_8f1a3adb73dd530071d9e32275209325.html" target="_top" xlink:title="ivy_manager">
<polygon fill="white" stroke="black" points="135.5,-276 64.5,-276 64.5,-240 135.5,-240 135.5,-276"/>
<text text-anchor="middle" x="100" y="-255.5" font-family="Helvetica,sans-Serif" font-size="10.00">ivy_manager</text>
</a>
</g>
</g>
<!-- dir_1ffd8d4c7a3948904b5456faad2babff&#45;&gt;dir_8f1a3adb73dd530071d9e32275209325 -->
<g id="edge14" class="edge"><title>dir_1ffd8d4c7a3948904b5456faad2babff&#45;&gt;dir_8f1a3adb73dd530071d9e32275209325</title>
<path fill="none" stroke="black" d="M63.1124,-311.697C68.8681,-303.474 75.8617,-293.483 82.2055,-284.421"/>
<polygon fill="black" stroke="black" points="85.1596,-286.304 88.027,-276.104 79.425,-282.29 85.1596,-286.304"/>
<g id="a_edge14&#45;headlabel"><a xlink:href="dir_000003_000005.html" target="_top" xlink:title="2">
<text text-anchor="middle" x="85.4243" y="-288.377" font-family="Helvetica,sans-Serif" font-size="10.00">2</text>
</a>
</g>
</g>
<!-- dir_b36e81e0ba3e5b4bdff5320a17072adf -->
<g id="node4" class="node"><title>dir_b36e81e0ba3e5b4bdff5320a17072adf</title>
<g id="a_node4"><a xlink:href="dir_b36e81e0ba3e5b4bdff5320a17072adf.html" target="_top" xlink:title="locadora">
<polygon fill="white" stroke="red" points="118,-132 64,-132 64,-96 118,-96 118,-132"/>
<text text-anchor="middle" x="91" y="-111.5" font-family="Helvetica,sans-Serif" font-size="10.00">locadora</text>
</a>
</g>
</g>
<!-- dir_1ffd8d4c7a3948904b5456faad2babff&#45;&gt;dir_b36e81e0ba3e5b4bdff5320a17072adf -->
<g id="edge13" class="edge"><title>dir_1ffd8d4c7a3948904b5456faad2babff&#45;&gt;dir_b36e81e0ba3e5b4bdff5320a17072adf</title>
<path fill="none" stroke="black" d="M50.5806,-311.815C50.4182,-293.798 50.9422,-264.726 55,-240 60.6895,-205.331 72.7582,-166.638 81.352,-141.614"/>
<polygon fill="black" stroke="black" points="84.6834,-142.69 84.6804,-132.095 78.0757,-140.38 84.6834,-142.69"/>
<g id="a_edge13&#45;headlabel"><a xlink:href="dir_000003_000006.html" target="_top" xlink:title="1">
<text text-anchor="middle" x="86.1771" y="-144.521" font-family="Helvetica,sans-Serif" font-size="10.00">1</text>
</a>
</g>
</g>
<!-- dir_c7df54893aced96becb22c9111f69826 -->
<g id="node5" class="node"><title>dir_c7df54893aced96becb22c9111f69826</title>
<g id="a_node5"><a xlink:href="dir_c7df54893aced96becb22c9111f69826.html" target="_top" xlink:title="log">
<polygon fill="white" stroke="black" points="118,-60 64,-60 64,-24 118,-24 118,-60"/>
<text text-anchor="middle" x="91" y="-39.5" font-family="Helvetica,sans-Serif" font-size="10.00">log</text>
</a>
</g>
</g>
<!-- dir_1ffd8d4c7a3948904b5456faad2babff&#45;&gt;dir_c7df54893aced96becb22c9111f69826 -->
<g id="edge12" class="edge"><title>dir_1ffd8d4c7a3948904b5456faad2babff&#45;&gt;dir_c7df54893aced96becb22c9111f69826</title>
<path fill="none" stroke="black" d="M46.7019,-311.948C37.6013,-272.503 19.3879,-172.488 47,-96 50.7542,-85.6004 57.5356,-75.7998 64.6679,-67.5218"/>
<polygon fill="black" stroke="black" points="67.3217,-69.8069 71.5263,-60.082 62.1749,-65.0623 67.3217,-69.8069"/>
<g id="a_edge12&#45;headlabel"><a xlink:href="dir_000003_000008.html" target="_top" xlink:title="2">
<text text-anchor="middle" x="66.9729" y="-71.8742" font-family="Helvetica,sans-Serif" font-size="10.00">2</text>
</a>
</g>
</g>
<!-- dir_8f1a3adb73dd530071d9e32275209325&#45;&gt;dir_c7df54893aced96becb22c9111f69826 -->
<g id="edge5" class="edge"><title>dir_8f1a3adb73dd530071d9e32275209325&#45;&gt;dir_c7df54893aced96becb22c9111f69826</title>
<path fill="none" stroke="black" d="M88.767,-239.995C70.749,-210.534 38.9627,-148.153 55,-96 58.0089,-86.2153 63.507,-76.6161 69.3157,-68.3336"/>
<polygon fill="black" stroke="black" points="72.1948,-70.3279 75.3901,-60.2264 66.5928,-66.1306 72.1948,-70.3279"/>
<g id="a_edge5&#45;headlabel"><a xlink:href="dir_000005_000008.html" target="_top" xlink:title="1">
<text text-anchor="middle" x="72.3117" y="-72.4071" font-family="Helvetica,sans-Serif" font-size="10.00">1</text>
</a>
</g>
</g>
<!-- dir_8f1a3adb73dd530071d9e32275209325&#45;&gt;dir_1ea6d1698d64767405e39a7faf1018d7 -->
<g id="edge4" class="edge"><title>dir_8f1a3adb73dd530071d9e32275209325&#45;&gt;dir_1ea6d1698d64767405e39a7faf1018d7</title>
<path fill="none" stroke="black" d="M119.111,-239.788C129.052,-230.049 140.805,-217.202 149,-204 161.016,-184.644 169.944,-160.353 175.629,-142.041"/>
<polygon fill="black" stroke="black" points="179.032,-142.875 178.526,-132.292 172.322,-140.881 179.032,-142.875"/>
<g id="a_edge4&#45;headlabel"><a xlink:href="dir_000005_000009.html" target="_top" xlink:title="1">
<text text-anchor="middle" x="180.73" y="-144.629" font-family="Helvetica,sans-Serif" font-size="10.00">1</text>
</a>
</g>
</g>
<!-- dir_8f1a3adb73dd530071d9e32275209325&#45;&gt;dir_8da52e5709445158212dcc8c0c3b1866 -->
<g id="edge6" class="edge"><title>dir_8f1a3adb73dd530071d9e32275209325&#45;&gt;dir_8da52e5709445158212dcc8c0c3b1866</title>
<path fill="none" stroke="black" d="M103.213,-239.697C104.646,-231.983 106.368,-222.712 107.965,-214.112"/>
<polygon fill="black" stroke="black" points="111.439,-214.575 109.823,-204.104 104.556,-213.297 111.439,-214.575"/>
<g id="a_edge6&#45;headlabel"><a xlink:href="dir_000005_000010.html" target="_top" xlink:title="1">
<text text-anchor="middle" x="113.574" y="-216.128" font-family="Helvetica,sans-Serif" font-size="10.00">1</text>
</a>
</g>
</g>
<!-- dir_b36e81e0ba3e5b4bdff5320a17072adf&#45;&gt;dir_c7df54893aced96becb22c9111f69826 -->
<g id="edge2" class="edge"><title>dir_b36e81e0ba3e5b4bdff5320a17072adf&#45;&gt;dir_c7df54893aced96becb22c9111f69826</title>
<path fill="none" stroke="black" d="M91,-95.6966C91,-87.9827 91,-78.7125 91,-70.1124"/>
<polygon fill="black" stroke="black" points="94.5001,-70.1043 91,-60.1043 87.5001,-70.1044 94.5001,-70.1043"/>
<g id="a_edge2&#45;headlabel"><a xlink:href="dir_000006_000008.html" target="_top" xlink:title="3">
<text text-anchor="middle" x="97.3393" y="-71.199" font-family="Helvetica,sans-Serif" font-size="10.00">3</text>
</a>
</g>
</g>
<!-- dir_b36e81e0ba3e5b4bdff5320a17072adf&#45;&gt;dir_8da52e5709445158212dcc8c0c3b1866 -->
<g id="edge3" class="edge"><title>dir_b36e81e0ba3e5b4bdff5320a17072adf&#45;&gt;dir_8da52e5709445158212dcc8c0c3b1866</title>
<path fill="none" stroke="black" d="M102.271,-132.104C105.527,-139.876 108.709,-149.257 111.091,-157.949"/>
<polygon fill="black" stroke="black" points="107.7,-158.816 113.478,-167.697 114.499,-157.151 107.7,-158.816"/>
<g id="a_edge3&#45;headlabel"><a xlink:href="dir_000006_000010.html" target="_top" xlink:title="1">
<text text-anchor="middle" x="104.087" y="-153.499" font-family="Helvetica,sans-Serif" font-size="10.00">1</text>
</a>
</g>
</g>
<!-- dir_1ea6d1698d64767405e39a7faf1018d7&#45;&gt;dir_c7df54893aced96becb22c9111f69826 -->
<g id="edge1" class="edge"><title>dir_1ea6d1698d64767405e39a7faf1018d7&#45;&gt;dir_c7df54893aced96becb22c9111f69826</title>
<path fill="none" stroke="black" d="M160.258,-95.6966C148.56,-86.796 134.139,-75.8232 121.49,-66.1989"/>
<polygon fill="black" stroke="black" points="123.558,-63.3742 113.48,-60.1043 119.319,-68.945 123.558,-63.3742"/>
<g id="a_edge1&#45;headlabel"><a xlink:href="dir_000009_000008.html" target="_top" xlink:title="1">
<text text-anchor="middle" x="128.138" y="-60.7912" font-family="Helvetica,sans-Serif" font-size="10.00">1</text>
</a>
</g>
</g>
<!-- dir_8da52e5709445158212dcc8c0c3b1866&#45;&gt;dir_b36e81e0ba3e5b4bdff5320a17072adf -->
<g id="edge9" class="edge"><title>dir_8da52e5709445158212dcc8c0c3b1866&#45;&gt;dir_b36e81e0ba3e5b4bdff5320a17072adf</title>
<path fill="none" stroke="black" d="M101.646,-167.697C98.3906,-159.898 95.217,-150.509 92.8482,-141.829"/>
<polygon fill="black" stroke="black" points="96.2469,-140.993 90.4806,-132.104 89.4455,-142.648 96.2469,-140.993"/>
<g id="a_edge9&#45;headlabel"><a xlink:href="dir_000010_000006.html" target="_top" xlink:title="1">
<text text-anchor="middle" x="99.8558" y="-141.314" font-family="Helvetica,sans-Serif" font-size="10.00">1</text>
</a>
</g>
</g>
<!-- dir_8da52e5709445158212dcc8c0c3b1866&#45;&gt;dir_c7df54893aced96becb22c9111f69826 -->
<g id="edge8" class="edge"><title>dir_8da52e5709445158212dcc8c0c3b1866&#45;&gt;dir_c7df54893aced96becb22c9111f69826</title>
<path fill="none" stroke="black" d="M120.167,-167.945C126.769,-149.787 134.494,-120.369 127,-96 123.991,-86.2153 118.493,-76.6161 112.684,-68.3336"/>
<polygon fill="black" stroke="black" points="115.407,-66.1306 106.61,-60.2264 109.805,-70.3279 115.407,-66.1306"/>
<g id="a_edge8&#45;headlabel"><a xlink:href="dir_000010_000008.html" target="_top" xlink:title="1">
<text text-anchor="middle" x="119.835" y="-64.8048" font-family="Helvetica,sans-Serif" font-size="10.00">1</text>
</a>
</g>
</g>
<!-- dir_8da52e5709445158212dcc8c0c3b1866&#45;&gt;dir_1ea6d1698d64767405e39a7faf1018d7 -->
<g id="edge7" class="edge"><title>dir_8da52e5709445158212dcc8c0c3b1866&#45;&gt;dir_1ea6d1698d64767405e39a7faf1018d7</title>
<path fill="none" stroke="black" d="M130.303,-167.697C138.865,-159.135 149.344,-148.656 158.696,-139.304"/>
<polygon fill="black" stroke="black" points="161.299,-141.65 165.896,-132.104 156.35,-136.701 161.299,-141.65"/>
<g id="a_edge7&#45;headlabel"><a xlink:href="dir_000010_000009.html" target="_top" xlink:title="1">
<text text-anchor="middle" x="160.765" y="-143.7" font-family="Helvetica,sans-Serif" font-size="10.00">1</text>
</a>
</g>
</g>
</g>
</svg>
