<?xml version="1.0" encoding="UTF-8" standalone="no"?>
<!DOCTYPE svg PUBLIC "-//W3C//DTD SVG 1.1//EN"
 "http://www.w3.org/Graphics/SVG/1.1/DTD/svg11.dtd">
<!-- Generated by graphviz version 2.38.0 (20140413.2041)
 -->
<!-- Title: C:/Users/osyri/Desktop/IVY&#45;Inventory&#45;Manager/src/ivy/interface Pages: 1 -->
<svg width="286pt" height="231pt"
 viewBox="0.00 0.00 285.50 231.00" xmlns="http://www.w3.org/2000/svg" xmlns:xlink="http://www.w3.org/1999/xlink">
<g id="graph0" class="graph" transform="scale(1 1) rotate(0) translate(4 227)">
<title>C:/Users/osyri/Desktop/IVY&#45;Inventory&#45;Manager/src/ivy/interface</title>
<polygon fill="white" stroke="none" points="-4,4 -4,-227 281.5,-227 281.5,4 -4,4"/>
<g id="clust1" class="cluster"><title>clusterdir_16b145e7aeea667233de288c350ffa04</title>
<g id="a_clust1"><a xlink:href="dir_16b145e7aeea667233de288c350ffa04.html" target="_top" xlink:title="ivy">
<polygon fill="#ddddee" stroke="black" points="8,-56 8,-215 94,-215 94,-56 8,-56"/>
<text text-anchor="middle" x="51" y="-203" font-family="Helvetica,sans-Serif" font-size="10.00">ivy</text>
</a>
</g>
</g>
<g id="clust2" class="cluster"><title>clusterdir_1ffd8d4c7a3948904b5456faad2babff</title>
<g id="a_clust2"><a xlink:href="dir_1ffd8d4c7a3948904b5456faad2babff.html" target="_top">
<polygon fill="#eeeeff" stroke="black" points="16,-64 16,-188 86,-188 86,-64 16,-64"/>
</a>
</g>
</g>
<!-- dir_1ffd8d4c7a3948904b5456faad2babff -->
<g id="node1" class="node"><title>dir_1ffd8d4c7a3948904b5456faad2babff</title>
<text text-anchor="middle" x="51" y="-159.5" font-family="Helvetica,sans-Serif" font-size="10.00">interface</text>
</g>
<!-- dir_860f94c7b5e8321f74959c125d1c916e -->
<g id="node2" class="node"><title>dir_860f94c7b5e8321f74959c125d1c916e</title>
<g id="a_node2"><a xlink:href="dir_860f94c7b5e8321f74959c125d1c916e.html" target="_top" xlink:title="forms">
<polygon fill="white" stroke="black" points="78,-108 24,-108 24,-72 78,-72 78,-108"/>
<text text-anchor="middle" x="51" y="-87.5" font-family="Helvetica,sans-Serif" font-size="10.00">forms</text>
</a>
</g>
</g>
<!-- dir_1ffd8d4c7a3948904b5456faad2babff&#45;&gt;dir_860f94c7b5e8321f74959c125d1c916e -->
<g id="edge6" class="edge"><title>dir_1ffd8d4c7a3948904b5456faad2babff&#45;&gt;dir_860f94c7b5e8321f74959c125d1c916e</title>
<path fill="none" stroke="black" d="M51,-143.697C51,-135.983 51,-126.712 51,-118.112"/>
<polygon fill="black" stroke="black" points="54.5001,-118.104 51,-108.104 47.5001,-118.104 54.5001,-118.104"/>
<g id="a_edge6&#45;headlabel"><a xlink:href="dir_000003_000004.html" target="_top" xlink:title="1">
<text text-anchor="middle" x="57.3393" y="-119.199" font-family="Helvetica,sans-Serif" font-size="10.00">1</text>
</a>
</g>
</g>
<!-- dir_c7df54893aced96becb22c9111f69826 -->
<g id="node3" class="node"><title>dir_c7df54893aced96becb22c9111f69826</title>
<g id="a_node3"><a xlink:href="dir_c7df54893aced96becb22c9111f69826.html" target="_top" xlink:title="log">
<polygon fill="none" stroke="black" points="188,-36 134,-36 134,-0 188,-0 188,-36"/>
<text text-anchor="middle" x="161" y="-15.5" font-family="Helvetica,sans-Serif" font-size="10.00">log</text>
</a>
</g>
</g>
<!-- dir_1ffd8d4c7a3948904b5456faad2babff&#45;&gt;dir_c7df54893aced96becb22c9111f69826 -->
<g id="edge3" class="edge"><title>dir_1ffd8d4c7a3948904b5456faad2babff&#45;&gt;dir_c7df54893aced96becb22c9111f69826</title>
<path fill="none" stroke="black" d="M62.7258,-143.666C80.1044,-118.098 112.038,-71.6156 125,-56 128.418,-51.8817 132.201,-47.6713 135.992,-43.6359"/>
<polygon fill="black" stroke="black" points="138.777,-45.7899 143.198,-36.1617 133.738,-40.9312 138.777,-45.7899"/>
<g id="a_edge3&#45;headlabel"><a xlink:href="dir_000003_000008.html" target="_top" xlink:title="2">
<text text-anchor="middle" x="138.326" y="-47.8483" font-family="Helvetica,sans-Serif" font-size="10.00">2</text>
</a>
</g>
</g>
<!-- dir_b36e81e0ba3e5b4bdff5320a17072adf -->
<g id="node4" class="node"><title>dir_b36e81e0ba3e5b4bdff5320a17072adf</title>
<g id="a_node4"><a xlink:href="dir_b36e81e0ba3e5b4bdff5320a17072adf.html" target="_top" xlink:title="locadora">
<polygon fill="white" stroke="red" points="188,-108 134,-108 134,-72 188,-72 188,-108"/>
<text text-anchor="middle" x="161" y="-87.5" font-family="Helvetica,sans-Serif" font-size="10.00">locadora</text>
</a>
</g>
</g>
<!-- dir_1ffd8d4c7a3948904b5456faad2babff&#45;&gt;dir_b36e81e0ba3e5b4bdff5320a17072adf -->
<g id="edge4" class="edge"><title>dir_1ffd8d4c7a3948904b5456faad2babff&#45;&gt;dir_b36e81e0ba3e5b4bdff5320a17072adf</title>
<path fill="none" stroke="black" d="M77.909,-143.876C92.1584,-134.808 109.846,-123.552 125.236,-113.759"/>
<polygon fill="black" stroke="black" points="127.43,-116.511 133.988,-108.19 123.672,-110.606 127.43,-116.511"/>
<g id="a_edge4&#45;headlabel"><a xlink:href="dir_000003_000006.html" target="_top" xlink:title="1">
<text text-anchor="middle" x="125.922" y="-118.337" font-family="Helvetica,sans-Serif" font-size="10.00">1</text>
</a>
</g>
</g>
<!-- dir_8f1a3adb73dd530071d9e32275209325 -->
<g id="node5" class="node"><title>dir_8f1a3adb73dd530071d9e32275209325</title>
<g id="a_node5"><a xlink:href="dir_8f1a3adb73dd530071d9e32275209325.html" target="_top" xlink:title="ivy_manager">
<polygon fill="none" stroke="black" points="277.5,-108 206.5,-108 206.5,-72 277.5,-72 277.5,-108"/>
<text text-anchor="middle" x="242" y="-87.5" font-family="Helvetica,sans-Serif" font-size="10.00">ivy_manager</text>
</a>
</g>
</g>
<!-- dir_1ffd8d4c7a3948904b5456faad2babff&#45;&gt;dir_8f1a3adb73dd530071d9e32275209325 -->
<g id="edge5" class="edge"><title>dir_1ffd8d4c7a3948904b5456faad2babff&#45;&gt;dir_8f1a3adb73dd530071d9e32275209325</title>
<path fill="none" stroke="black" d="M78.2161,-151.239C105.734,-141.344 149.718,-125.458 196.718,-108.083"/>
<polygon fill="black" stroke="black" points="197.992,-111.344 206.154,-104.59 195.561,-104.779 197.992,-111.344"/>
<g id="a_edge5&#45;headlabel"><a xlink:href="dir_000003_000005.html" target="_top" xlink:title="2">
<text text-anchor="middle" x="195.606" y="-112.754" font-family="Helvetica,sans-Serif" font-size="10.00">2</text>
</a>
</g>
</g>
<!-- dir_b36e81e0ba3e5b4bdff5320a17072adf&#45;&gt;dir_c7df54893aced96becb22c9111f69826 -->
<g id="edge1" class="edge"><title>dir_b36e81e0ba3e5b4bdff5320a17072adf&#45;&gt;dir_c7df54893aced96becb22c9111f69826</title>
<path fill="none" stroke="black" d="M161,-71.6966C161,-63.9827 161,-54.7125 161,-46.1124"/>
<polygon fill="black" stroke="black" points="164.5,-46.1043 161,-36.1043 157.5,-46.1044 164.5,-46.1043"/>
<g id="a_edge1&#45;headlabel"><a xlink:href="dir_000006_000008.html" target="_top" xlink:title="3">
<text text-anchor="middle" x="167.339" y="-47.199" font-family="Helvetica,sans-Serif" font-size="10.00">3</text>
</a>
</g>
</g>
<!-- dir_8f1a3adb73dd530071d9e32275209325&#45;&gt;dir_c7df54893aced96becb22c9111f69826 -->
<g id="edge2" class="edge"><title>dir_8f1a3adb73dd530071d9e32275209325&#45;&gt;dir_c7df54893aced96becb22c9111f69826</title>
<path fill="none" stroke="black" d="M221.978,-71.6966C211.874,-62.9655 199.464,-52.2405 188.482,-42.7503"/>
<polygon fill="black" stroke="black" points="190.647,-39.9948 180.792,-36.1043 186.07,-45.2912 190.647,-39.9948"/>
<g id="a_edge2&#45;headlabel"><a xlink:href="dir_000005_000008.html" target="_top" xlink:title="1">
<text text-anchor="middle" x="195.223" y="-37.697" font-family="Helvetica,sans-Serif" font-size="10.00">1</text>
</a>
</g>
</g>
</g>
</svg>
