<?xml version="1.0" encoding="UTF-8" standalone="no"?>
<!DOCTYPE svg PUBLIC "-//W3C//DTD SVG 1.1//EN"
 "http://www.w3.org/Graphics/SVG/1.1/DTD/svg11.dtd">
<!-- Generated by graphviz version 2.38.0 (20140413.2041)
 -->
<!-- Title: C:/Users/osyri/Desktop/IVY&#45;Inventory&#45;Manager/src/ivy/vetor Pages: 1 -->
<svg width="172pt" height="223pt"
 viewBox="0.00 0.00 172.00 223.00" xmlns="http://www.w3.org/2000/svg" xmlns:xlink="http://www.w3.org/1999/xlink">
<g id="graph0" class="graph" transform="scale(1 1) rotate(0) translate(4 219)">
<title>C:/Users/osyri/Desktop/IVY&#45;Inventory&#45;Manager/src/ivy/vetor</title>
<polygon fill="white" stroke="none" points="-4,4 -4,-219 168,-219 168,4 -4,4"/>
<g id="clust1" class="cluster"><title>clusterdir_16b145e7aeea667233de288c350ffa04</title>
<g id="a_clust1"><a xlink:href="dir_16b145e7aeea667233de288c350ffa04.html" target="_top" xlink:title="ivy">
<polygon fill="#ddddee" stroke="black" points="47,-136 47,-207 117,-207 117,-136 47,-136"/>
<text text-anchor="middle" x="82" y="-195" font-family="Helvetica,sans-Serif" font-size="10.00">ivy</text>
</a>
</g>
</g>
<!-- dir_8da52e5709445158212dcc8c0c3b1866 -->
<g id="node1" class="node"><title>dir_8da52e5709445158212dcc8c0c3b1866</title>
<g id="a_node1"><a xlink:href="dir_8da52e5709445158212dcc8c0c3b1866.html" target="_top" xlink:title="vetor">
<polygon fill="#eeeeff" stroke="black" points="109,-180 55,-180 55,-144 109,-144 109,-180"/>
<text text-anchor="middle" x="82" y="-159.5" font-family="Helvetica,sans-Serif" font-size="10.00">vetor</text>
</a>
</g>
</g>
<!-- dir_1ea6d1698d64767405e39a7faf1018d7 -->
<g id="node2" class="node"><title>dir_1ea6d1698d64767405e39a7faf1018d7</title>
<g id="a_node2"><a xlink:href="dir_1ea6d1698d64767405e39a7faf1018d7.html" target="_top" xlink:title="produto">
<polygon fill="none" stroke="black" points="54,-108 0,-108 0,-72 54,-72 54,-108"/>
<text text-anchor="middle" x="27" y="-87.5" font-family="Helvetica,sans-Serif" font-size="10.00">produto</text>
</a>
</g>
</g>
<!-- dir_8da52e5709445158212dcc8c0c3b1866&#45;&gt;dir_1ea6d1698d64767405e39a7faf1018d7 -->
<g id="edge4" class="edge"><title>dir_8da52e5709445158212dcc8c0c3b1866&#45;&gt;dir_1ea6d1698d64767405e39a7faf1018d7</title>
<path fill="none" stroke="black" d="M68.4045,-143.697C61.8773,-135.389 53.932,-125.277 46.7534,-116.141"/>
<polygon fill="black" stroke="black" points="49.3695,-113.805 40.4391,-108.104 43.8653,-118.13 49.3695,-113.805"/>
<g id="a_edge4&#45;headlabel"><a xlink:href="dir_000010_000009.html" target="_top" xlink:title="1">
<text text-anchor="middle" x="53.8229" y="-112.377" font-family="Helvetica,sans-Serif" font-size="10.00">1</text>
</a>
</g>
</g>
<!-- dir_c7df54893aced96becb22c9111f69826 -->
<g id="node3" class="node"><title>dir_c7df54893aced96becb22c9111f69826</title>
<g id="a_node3"><a xlink:href="dir_c7df54893aced96becb22c9111f69826.html" target="_top" xlink:title="log">
<polygon fill="none" stroke="black" points="109,-36 55,-36 55,-0 109,-0 109,-36"/>
<text text-anchor="middle" x="82" y="-15.5" font-family="Helvetica,sans-Serif" font-size="10.00">log</text>
</a>
</g>
</g>
<!-- dir_8da52e5709445158212dcc8c0c3b1866&#45;&gt;dir_c7df54893aced96becb22c9111f69826 -->
<g id="edge5" class="edge"><title>dir_8da52e5709445158212dcc8c0c3b1866&#45;&gt;dir_c7df54893aced96becb22c9111f69826</title>
<path fill="none" stroke="black" d="M82,-143.871C82,-119.67 82,-75.2108 82,-46.3932"/>
<polygon fill="black" stroke="black" points="85.5001,-46.1892 82,-36.1893 78.5001,-46.1893 85.5001,-46.1892"/>
<g id="a_edge5&#45;headlabel"><a xlink:href="dir_000010_000008.html" target="_top" xlink:title="1">
<text text-anchor="middle" x="88.3393" y="-47.2839" font-family="Helvetica,sans-Serif" font-size="10.00">1</text>
</a>
</g>
</g>
<!-- dir_b36e81e0ba3e5b4bdff5320a17072adf -->
<g id="node4" class="node"><title>dir_b36e81e0ba3e5b4bdff5320a17072adf</title>
<g id="a_node4"><a xlink:href="dir_b36e81e0ba3e5b4bdff5320a17072adf.html" target="_top" xlink:title="locadora">
<polygon fill="white" stroke="red" points="164,-108 110,-108 110,-72 164,-72 164,-108"/>
<text text-anchor="middle" x="137" y="-87.5" font-family="Helvetica,sans-Serif" font-size="10.00">locadora</text>
</a>
</g>
</g>
<!-- dir_8da52e5709445158212dcc8c0c3b1866&#45;&gt;dir_b36e81e0ba3e5b4bdff5320a17072adf -->
<g id="edge6" class="edge"><title>dir_8da52e5709445158212dcc8c0c3b1866&#45;&gt;dir_b36e81e0ba3e5b4bdff5320a17072adf</title>
<path fill="none" stroke="black" d="M89.6798,-143.697C95.4079,-135.305 103.257,-125.07 110.974,-115.861"/>
<polygon fill="black" stroke="black" points="113.784,-117.962 117.666,-108.104 108.484,-113.39 113.784,-117.962"/>
<g id="a_edge6&#45;headlabel"><a xlink:href="dir_000010_000006.html" target="_top" xlink:title="1">
<text text-anchor="middle" x="113.586" y="-120.039" font-family="Helvetica,sans-Serif" font-size="10.00">1</text>
</a>
</g>
</g>
<!-- dir_1ea6d1698d64767405e39a7faf1018d7&#45;&gt;dir_c7df54893aced96becb22c9111f69826 -->
<g id="edge1" class="edge"><title>dir_1ea6d1698d64767405e39a7faf1018d7&#45;&gt;dir_c7df54893aced96becb22c9111f69826</title>
<path fill="none" stroke="black" d="M40.5955,-71.6966C47.1227,-63.3893 55.068,-53.2771 62.2466,-44.1407"/>
<polygon fill="black" stroke="black" points="65.1347,-46.1299 68.5609,-36.1043 59.6305,-41.8051 65.1347,-46.1299"/>
<g id="a_edge1&#45;headlabel"><a xlink:href="dir_000009_000008.html" target="_top" xlink:title="1">
<text text-anchor="middle" x="65.1465" y="-48.2106" font-family="Helvetica,sans-Serif" font-size="10.00">1</text>
</a>
</g>
</g>
<!-- dir_b36e81e0ba3e5b4bdff5320a17072adf&#45;&gt;dir_8da52e5709445158212dcc8c0c3b1866 -->
<g id="edge3" class="edge"><title>dir_b36e81e0ba3e5b4bdff5320a17072adf&#45;&gt;dir_8da52e5709445158212dcc8c0c3b1866</title>
<path fill="none" stroke="black" d="M129.456,-108.104C123.762,-116.467 115.928,-126.694 108.209,-135.92"/>
<polygon fill="black" stroke="black" points="105.385,-133.835 101.511,-143.697 110.689,-138.403 105.385,-133.835"/>
<g id="a_edge3&#45;headlabel"><a xlink:href="dir_000006_000010.html" target="_top" xlink:title="1">
<text text-anchor="middle" x="105.579" y="-126.759" font-family="Helvetica,sans-Serif" font-size="10.00">1</text>
</a>
</g>
</g>
<!-- dir_b36e81e0ba3e5b4bdff5320a17072adf&#45;&gt;dir_c7df54893aced96becb22c9111f69826 -->
<g id="edge2" class="edge"><title>dir_b36e81e0ba3e5b4bdff5320a17072adf&#45;&gt;dir_c7df54893aced96becb22c9111f69826</title>
<path fill="none" stroke="black" d="M123.404,-71.6966C116.877,-63.3893 108.932,-53.2771 101.753,-44.1407"/>
<polygon fill="black" stroke="black" points="104.369,-41.8051 95.4391,-36.1043 98.8653,-46.1299 104.369,-41.8051"/>
<g id="a_edge2&#45;headlabel"><a xlink:href="dir_000006_000008.html" target="_top" xlink:title="3">
<text text-anchor="middle" x="108.823" y="-40.3775" font-family="Helvetica,sans-Serif" font-size="10.00">3</text>
</a>
</g>
</g>
</g>
</svg>
