<?xml version="1.0" encoding="UTF-8" standalone="no"?>
<!DOCTYPE svg PUBLIC "-//W3C//DTD SVG 1.1//EN"
 "http://www.w3.org/Graphics/SVG/1.1/DTD/svg11.dtd">
<!-- Generated by graphviz version 2.38.0 (20140413.2041)
 -->
<!-- Title: C:/Users/osyri/Desktop/IVY&#45;Inventory&#45;Manager/src/ivy/interface/forms/include_nana.hpp Pages: 1 -->
<svg width="170pt" height="217pt"
 viewBox="0.00 0.00 170.00 217.00" xmlns="http://www.w3.org/2000/svg" xmlns:xlink="http://www.w3.org/1999/xlink">
<g id="graph0" class="graph" transform="scale(1 1) rotate(0) translate(4 213)">
<title>C:/Users/osyri/Desktop/IVY&#45;Inventory&#45;Manager/src/ivy/interface/forms/include_nana.hpp</title>
<polygon fill="white" stroke="none" points="-4,4 -4,-213 166,-213 166,4 -4,4"/>
<!-- Node12 -->
<g id="node1" class="node"><title>Node12</title>
<g id="a_node1"><a xlink:title=" ">
<polygon fill="#bfbfbf" stroke="black" points="22,-156.5 22,-208.5 140,-208.5 140,-156.5 22,-156.5"/>
<text text-anchor="start" x="30" y="-196.5" font-family="Helvetica,sans-Serif" font-size="10.00">C:/Users/osyri/Desktop</text>
<text text-anchor="start" x="30" y="-185.5" font-family="Helvetica,sans-Serif" font-size="10.00">/IVY&#45;Inventory&#45;Manager</text>
<text text-anchor="start" x="30" y="-174.5" font-family="Helvetica,sans-Serif" font-size="10.00">/src/ivy/interface/forms</text>
<text text-anchor="middle" x="81" y="-163.5" font-family="Helvetica,sans-Serif" font-size="10.00">/include_nana.hpp</text>
</a>
</g>
</g>
<!-- Node13 -->
<g id="node2" class="node"><title>Node13</title>
<g id="a_node2"><a xlink:href="_interface_g_u_i_8hpp.html" target="_top" xlink:title=" ">
<polygon fill="white" stroke="black" points="0,-78.5 0,-119.5 162,-119.5 162,-78.5 0,-78.5"/>
<text text-anchor="start" x="8" y="-107.5" font-family="Helvetica,sans-Serif" font-size="10.00">C:/Users/osyri/Desktop</text>
<text text-anchor="start" x="8" y="-96.5" font-family="Helvetica,sans-Serif" font-size="10.00">/IVY&#45;Inventory&#45;Manager</text>
<text text-anchor="middle" x="81" y="-85.5" font-family="Helvetica,sans-Serif" font-size="10.00">/src/ivy/interface/InterfaceGUI.hpp</text>
</a>
</g>
</g>
<!-- Node12&#45;&gt;Node13 -->
<g id="edge1" class="edge"><title>Node12&#45;&gt;Node13</title>
<path fill="none" stroke="midnightblue" d="M81,-146.147C81,-137.055 81,-127.597 81,-119.628"/>
<polygon fill="midnightblue" stroke="midnightblue" points="77.5001,-146.16 81,-156.16 84.5001,-146.16 77.5001,-146.16"/>
</g>
<!-- Node14 -->
<g id="node3" class="node"><title>Node14</title>
<g id="a_node3"><a xlink:href="_interface_g_u_i_8cpp.html" target="_top" xlink:title=" ">
<polygon fill="white" stroke="black" points="0,-0.5 0,-41.5 162,-41.5 162,-0.5 0,-0.5"/>
<text text-anchor="start" x="8" y="-29.5" font-family="Helvetica,sans-Serif" font-size="10.00">C:/Users/osyri/Desktop</text>
<text text-anchor="start" x="8" y="-18.5" font-family="Helvetica,sans-Serif" font-size="10.00">/IVY&#45;Inventory&#45;Manager</text>
<text text-anchor="middle" x="81" y="-7.5" font-family="Helvetica,sans-Serif" font-size="10.00">/src/ivy/interface/InterfaceGUI.cpp</text>
</a>
</g>
</g>
<!-- Node13&#45;&gt;Node14 -->
<g id="edge2" class="edge"><title>Node13&#45;&gt;Node14</title>
<path fill="none" stroke="midnightblue" d="M81,-68.2965C81,-59.3009 81,-49.6532 81,-41.5056"/>
<polygon fill="midnightblue" stroke="midnightblue" points="77.5001,-68.4281 81,-78.4281 84.5001,-68.4281 77.5001,-68.4281"/>
</g>
</g>
</svg>
