<?xml version="1.0" encoding="UTF-8" standalone="no"?>
<!DOCTYPE svg PUBLIC "-//W3C//DTD SVG 1.1//EN"
 "http://www.w3.org/Graphics/SVG/1.1/DTD/svg11.dtd">
<!-- Generated by graphviz version 2.38.0 (20140413.2041)
 -->
<!-- Title: C:/Users/osyri/Desktop/IVY&#45;Inventory&#45;Manager/src/ivy/interface/forms/include_nana.hpp Pages: 1 -->
<svg width="1593pt" height="117pt"
 viewBox="0.00 0.00 1593.00 117.00" xmlns="http://www.w3.org/2000/svg" xmlns:xlink="http://www.w3.org/1999/xlink">
<g id="graph0" class="graph" transform="scale(1 1) rotate(0) translate(4 113)">
<title>C:/Users/osyri/Desktop/IVY&#45;Inventory&#45;Manager/src/ivy/interface/forms/include_nana.hpp</title>
<polygon fill="white" stroke="none" points="-4,4 -4,-113 1589,-113 1589,4 -4,4"/>
<!-- Node0 -->
<g id="node1" class="node"><title>Node0</title>
<g id="a_node1"><a xlink:title=" ">
<polygon fill="#bfbfbf" stroke="black" points="687,-56.5 687,-108.5 805,-108.5 805,-56.5 687,-56.5"/>
<text text-anchor="start" x="695" y="-96.5" font-family="Helvetica,sans-Serif" font-size="10.00">C:/Users/osyri/Desktop</text>
<text text-anchor="start" x="695" y="-85.5" font-family="Helvetica,sans-Serif" font-size="10.00">/IVY&#45;Inventory&#45;Manager</text>
<text text-anchor="start" x="695" y="-74.5" font-family="Helvetica,sans-Serif" font-size="10.00">/src/ivy/interface/forms</text>
<text text-anchor="middle" x="746" y="-63.5" font-family="Helvetica,sans-Serif" font-size="10.00">/include_nana.hpp</text>
</a>
</g>
</g>
<!-- Node1 -->
<g id="node2" class="node"><title>Node1</title>
<g id="a_node2"><a xlink:title=" ">
<polygon fill="white" stroke="#bfbfbf" points="0,-0.5 0,-19.5 88,-19.5 88,-0.5 0,-0.5"/>
<text text-anchor="middle" x="44" y="-7.5" font-family="Helvetica,sans-Serif" font-size="10.00">nana/gui/wvl.hpp</text>
</a>
</g>
</g>
<!-- Node0&#45;&gt;Node1 -->
<g id="edge1" class="edge"><title>Node0&#45;&gt;Node1</title>
<path fill="none" stroke="midnightblue" d="M686.776,-77.357C574.134,-69.1571 321.107,-49.2032 98.1333,-20.0636"/>
<polygon fill="midnightblue" stroke="midnightblue" points="98.5807,-16.5924 88.2095,-18.7579 97.6675,-23.5326 98.5807,-16.5924"/>
</g>
<!-- Node2 -->
<g id="node3" class="node"><title>Node2</title>
<g id="a_node3"><a xlink:title=" ">
<polygon fill="white" stroke="#bfbfbf" points="106.5,-0.5 106.5,-19.5 241.5,-19.5 241.5,-0.5 106.5,-0.5"/>
<text text-anchor="middle" x="174" y="-7.5" font-family="Helvetica,sans-Serif" font-size="10.00">nana/gui/widgets/group.hpp</text>
</a>
</g>
</g>
<!-- Node0&#45;&gt;Node2 -->
<g id="edge2" class="edge"><title>Node0&#45;&gt;Node2</title>
<path fill="none" stroke="midnightblue" d="M686.94,-74.2208C583.036,-61.4145 367.6,-34.8616 251.743,-20.582"/>
<polygon fill="midnightblue" stroke="midnightblue" points="251.884,-17.073 241.531,-19.3233 251.028,-24.0204 251.884,-17.073"/>
</g>
<!-- Node3 -->
<g id="node4" class="node"><title>Node3</title>
<g id="a_node4"><a xlink:title=" ">
<polygon fill="white" stroke="#bfbfbf" points="260,-0.5 260,-19.5 358,-19.5 358,-0.5 260,-0.5"/>
<text text-anchor="middle" x="309" y="-7.5" font-family="Helvetica,sans-Serif" font-size="10.00">nana/gui/place.hpp</text>
</a>
</g>
</g>
<!-- Node0&#45;&gt;Node3 -->
<g id="edge3" class="edge"><title>Node0&#45;&gt;Node3</title>
<path fill="none" stroke="midnightblue" d="M686.609,-71.9187C603.049,-58.4381 451.681,-34.0183 368.215,-20.553"/>
<polygon fill="midnightblue" stroke="midnightblue" points="368.565,-17.0643 358.135,-18.9269 367.45,-23.975 368.565,-17.0643"/>
</g>
<!-- Node4 -->
<g id="node5" class="node"><title>Node4</title>
<g id="a_node5"><a xlink:title=" ">
<polygon fill="white" stroke="#bfbfbf" points="376,-0.5 376,-19.5 514,-19.5 514,-0.5 376,-0.5"/>
<text text-anchor="middle" x="445" y="-7.5" font-family="Helvetica,sans-Serif" font-size="10.00">nana/gui/widgets/button.hpp</text>
</a>
</g>
</g>
<!-- Node0&#45;&gt;Node4 -->
<g id="edge4" class="edge"><title>Node0&#45;&gt;Node4</title>
<path fill="none" stroke="midnightblue" d="M686.891,-67.6556C629.75,-54.272 544.321,-34.2629 491.764,-21.9529"/>
<polygon fill="midnightblue" stroke="midnightblue" points="492.243,-18.4706 481.709,-19.5979 490.647,-25.2862 492.243,-18.4706"/>
</g>
<!-- Node5 -->
<g id="node6" class="node"><title>Node5</title>
<g id="a_node6"><a xlink:title=" ">
<polygon fill="white" stroke="#bfbfbf" points="532,-0.5 532,-19.5 662,-19.5 662,-0.5 532,-0.5"/>
<text text-anchor="middle" x="597" y="-7.5" font-family="Helvetica,sans-Serif" font-size="10.00">nana/gui/widgets/form.hpp</text>
</a>
</g>
</g>
<!-- Node0&#45;&gt;Node5 -->
<g id="edge5" class="edge"><title>Node0&#45;&gt;Node5</title>
<path fill="none" stroke="midnightblue" d="M693.049,-56.4458C669.721,-45.4083 643.31,-32.9116 624.095,-23.82"/>
<polygon fill="midnightblue" stroke="midnightblue" points="625.558,-20.6402 615.022,-19.527 622.564,-26.9677 625.558,-20.6402"/>
</g>
<!-- Node6 -->
<g id="node7" class="node"><title>Node6</title>
<g id="a_node7"><a xlink:title=" ">
<polygon fill="white" stroke="#bfbfbf" points="680.5,-0.5 680.5,-19.5 811.5,-19.5 811.5,-0.5 680.5,-0.5"/>
<text text-anchor="middle" x="746" y="-7.5" font-family="Helvetica,sans-Serif" font-size="10.00">nana/gui/widgets/label.hpp</text>
</a>
</g>
</g>
<!-- Node0&#45;&gt;Node6 -->
<g id="edge6" class="edge"><title>Node0&#45;&gt;Node6</title>
<path fill="none" stroke="midnightblue" d="M746,-56.4458C746,-47.7301 746,-38.1045 746,-29.9641"/>
<polygon fill="midnightblue" stroke="midnightblue" points="749.5,-29.6954 746,-19.6955 742.5,-29.6955 749.5,-29.6954"/>
</g>
<!-- Node7 -->
<g id="node8" class="node"><title>Node7</title>
<g id="a_node8"><a xlink:title=" ">
<polygon fill="white" stroke="#bfbfbf" points="829.5,-0.5 829.5,-19.5 972.5,-19.5 972.5,-0.5 829.5,-0.5"/>
<text text-anchor="middle" x="901" y="-7.5" font-family="Helvetica,sans-Serif" font-size="10.00">nana/gui/widgets/textbox.hpp</text>
</a>
</g>
</g>
<!-- Node0&#45;&gt;Node7 -->
<g id="edge7" class="edge"><title>Node0&#45;&gt;Node7</title>
<path fill="none" stroke="midnightblue" d="M801.084,-56.4458C825.461,-45.3579 853.077,-32.7974 873.088,-23.6957"/>
<polygon fill="midnightblue" stroke="midnightblue" points="874.599,-26.8532 882.253,-19.527 871.701,-20.4813 874.599,-26.8532"/>
</g>
<!-- Node8 -->
<g id="node9" class="node"><title>Node8</title>
<g id="a_node9"><a xlink:title=" ">
<polygon fill="white" stroke="#bfbfbf" points="991,-0.5 991,-19.5 1137,-19.5 1137,-0.5 991,-0.5"/>
<text text-anchor="middle" x="1064" y="-7.5" font-family="Helvetica,sans-Serif" font-size="10.00">nana/gui/widgets/combox.hpp</text>
</a>
</g>
</g>
<!-- Node0&#45;&gt;Node8 -->
<g id="edge8" class="edge"><title>Node0&#45;&gt;Node8</title>
<path fill="none" stroke="midnightblue" d="M805.068,-68.4047C865.603,-54.9843 958.637,-34.3588 1015.16,-21.8287"/>
<polygon fill="midnightblue" stroke="midnightblue" points="1016.26,-25.1684 1025.27,-19.5868 1014.75,-18.3343 1016.26,-25.1684"/>
</g>
<!-- Node9 -->
<g id="node10" class="node"><title>Node9</title>
<g id="a_node10"><a xlink:title=" ">
<polygon fill="white" stroke="#bfbfbf" points="1155,-0.5 1155,-19.5 1289,-19.5 1289,-0.5 1155,-0.5"/>
<text text-anchor="middle" x="1222" y="-7.5" font-family="Helvetica,sans-Serif" font-size="10.00">nana/gui/widgets/scroll.hpp</text>
</a>
</g>
</g>
<!-- Node0&#45;&gt;Node9 -->
<g id="edge9" class="edge"><title>Node0&#45;&gt;Node9</title>
<path fill="none" stroke="midnightblue" d="M805.323,-72.7137C894.172,-59.5543 1061.31,-34.7993 1154.64,-20.9772"/>
<polygon fill="midnightblue" stroke="midnightblue" points="1155.16,-24.4384 1164.54,-19.5109 1154.13,-17.5139 1155.16,-24.4384"/>
</g>
<!-- Node10 -->
<g id="node11" class="node"><title>Node10</title>
<g id="a_node11"><a xlink:title=" ">
<polygon fill="white" stroke="#bfbfbf" points="1307,-0.5 1307,-19.5 1427,-19.5 1427,-0.5 1307,-0.5"/>
<text text-anchor="middle" x="1367" y="-7.5" font-family="Helvetica,sans-Serif" font-size="10.00">nana/paint/graphics.hpp</text>
</a>
</g>
</g>
<!-- Node0&#45;&gt;Node10 -->
<g id="edge10" class="edge"><title>Node0&#45;&gt;Node10</title>
<path fill="none" stroke="midnightblue" d="M805.266,-75.2654C904.617,-64.733 1111.32,-42.4743 1296.86,-20.12"/>
<polygon fill="midnightblue" stroke="midnightblue" points="1297.29,-23.5935 1306.8,-18.92 1296.45,-16.644 1297.29,-23.5935"/>
</g>
<!-- Node11 -->
<g id="node12" class="node"><title>Node11</title>
<g id="a_node12"><a xlink:title=" ">
<polygon fill="white" stroke="#bfbfbf" points="1445,-0.5 1445,-19.5 1585,-19.5 1585,-0.5 1445,-0.5"/>
<text text-anchor="middle" x="1515" y="-7.5" font-family="Helvetica,sans-Serif" font-size="10.00">nana/gui/widgets/listbox.hpp</text>
</a>
</g>
</g>
<!-- Node0&#45;&gt;Node11 -->
<g id="edge11" class="edge"><title>Node0&#45;&gt;Node11</title>
<path fill="none" stroke="midnightblue" d="M805.118,-76.7229C922.828,-67.1039 1195.1,-44.319 1434.85,-20.0962"/>
<polygon fill="midnightblue" stroke="midnightblue" points="1435.2,-23.5784 1444.8,-19.0881 1434.5,-16.614 1435.2,-23.5784"/>
</g>
</g>
</svg>
