<?xml version="1.0" encoding="UTF-8" standalone="no"?>
<!DOCTYPE svg PUBLIC "-//W3C//DTD SVG 1.1//EN"
 "http://www.w3.org/Graphics/SVG/1.1/DTD/svg11.dtd">
<!-- Generated by graphviz version 2.38.0 (20140413.2041)
 -->
<!-- Title: C:/Users/osyri/Desktop/IVY&#45;Inventory&#45;Manager/src/ivy/ivy.hpp Pages: 1 -->
<!--zoomable 453 -->
<svg id="main" version="1.1" xmlns="http://www.w3.org/2000/svg" xmlns:xlink="http://www.w3.org/1999/xlink" xml:space="preserve" onload="init(evt)">
<style type="text/css"><![CDATA[
.edge:hover path { stroke: red; }
.edge:hover polygon { stroke: red; fill: red; }
]]></style>
<script type="text/javascript"><![CDATA[
var edges = document.getElementsByTagName('g');
if (edges && edges.length) {
  for (var i=0;i<edges.length;i++) {
    if (edges[i].id.substr(0,4)=='edge') {
      edges[i].setAttribute('class','edge');
    }
  }
}
]]></script>
        <defs>
                <circle id="rim" cx="0" cy="0" r="7"/>
                <circle id="rim2" cx="0" cy="0" r="3.5"/>
                <g id="zoomPlus">
                        <use xlink:href="#rim" fill="#404040">
                                <set attributeName="fill" to="#808080" begin="zoomplus.mouseover" end="zoomplus.mouseout"/>
                        </use>
                        <path d="M-4,0h8M0,-4v8" fill="none" stroke="white" stroke-width="1.5" pointer-events="none"/>
                </g>
                <g id="zoomMin">
                        <use xlink:href="#rim" fill="#404040">
                                <set attributeName="fill" to="#808080" begin="zoomminus.mouseover" end="zoomminus.mouseout"/>
                        </use>
                        <path d="M-4,0h8" fill="none" stroke="white" stroke-width="1.5" pointer-events="none"/>
                </g>
                <g id="dirArrow">
                        <path fill="none" stroke="white" stroke-width="1.5" d="M0,-3.0v7 M-2.5,-0.5L0,-3.0L2.5,-0.5"/>
                </g>
               <g id="resetDef">
                       <use xlink:href="#rim2" fill="#404040">
                               <set attributeName="fill" to="#808080" begin="reset.mouseover" end="reset.mouseout"/>
                       </use>
               </g>
        </defs>

<script type="text/javascript">
var viewWidth = 721;
var viewHeight = 453;
var sectionId = 'dynsection-0';
</script>
<script xlink:href="svgpan.js"/>
<svg id="graph" class="graph">
<g id="viewport">
<title>C:/Users/osyri/Desktop/IVY&#45;Inventory&#45;Manager/src/ivy/ivy.hpp</title>
<polygon fill="white" stroke="none" points="-4,4 -4,-449 716.803,-449 716.803,4 -4,4"/>
<!-- Node0 -->
<g id="node1" class="node"><title>Node0</title>
<g id="a_node1"><a xlink:title=" ">
<polygon fill="#bfbfbf" stroke="black" points="217.303,-403.5 217.303,-444.5 335.303,-444.5 335.303,-403.5 217.303,-403.5"/>
<text text-anchor="start" x="225.303" y="-432.5" font-family="Helvetica,sans-Serif" font-size="10.00">C:/Users/osyri/Desktop</text>
<text text-anchor="start" x="225.303" y="-421.5" font-family="Helvetica,sans-Serif" font-size="10.00">/IVY&#45;Inventory&#45;Manager</text>
<text text-anchor="middle" x="276.303" y="-410.5" font-family="Helvetica,sans-Serif" font-size="10.00">/src/ivy/ivy.hpp</text>
</a>
</g>
</g>
<!-- Node1 -->
<g id="node2" class="node"><title>Node1</title>
<g id="a_node2"><a xlink:href="_vetor_8hpp.html" target="_top" xlink:title=" ">
<polygon fill="white" stroke="black" points="167.303,-179.5 167.303,-198.5 249.303,-198.5 249.303,-179.5 167.303,-179.5"/>
<text text-anchor="middle" x="208.303" y="-186.5" font-family="Helvetica,sans-Serif" font-size="10.00">vetor/Vetor.hpp</text>
</a>
</g>
</g>
<!-- Node0&#45;&gt;Node1 -->
<g id="edge1" class="edge"><title>Node0&#45;&gt;Node1</title>
<path fill="none" stroke="midnightblue" d="M270.506,-403.135C257.505,-358.59 226.185,-251.27 213.635,-208.27"/>
<polygon fill="midnightblue" stroke="midnightblue" points="216.971,-207.205 210.809,-198.586 210.251,-209.166 216.971,-207.205"/>
</g>
<!-- Node2 -->
<g id="node3" class="node"><title>Node2</title>
<g id="a_node3"><a xlink:href="_produto_8hpp.html" target="_top" xlink:title=" ">
<polygon fill="white" stroke="black" points="30.3033,-123.5 30.3033,-142.5 134.303,-142.5 134.303,-123.5 30.3033,-123.5"/>
<text text-anchor="middle" x="82.3033" y="-130.5" font-family="Helvetica,sans-Serif" font-size="10.00">produto/Produto.hpp</text>
</a>
</g>
</g>
<!-- Node0&#45;&gt;Node2 -->
<g id="edge12" class="edge"><title>Node0&#45;&gt;Node2</title>
<path fill="none" stroke="midnightblue" d="M217.055,-418.088C147.147,-408.673 40.3033,-381.31 40.3033,-302 40.3033,-302 40.3033,-302 40.3033,-244 40.3033,-209.412 58.6512,-172.492 71.0929,-151.432"/>
<polygon fill="midnightblue" stroke="midnightblue" points="74.21,-153.045 76.4634,-142.692 68.2459,-149.38 74.21,-153.045"/>
</g>
<!-- Node3 -->
<g id="node4" class="node"><title>Node3</title>
<g id="a_node4"><a xlink:href="_ivy_log_8hpp.html" target="_top" xlink:title=" ">
<polygon fill="white" stroke="black" points="211.303,-67.5 211.303,-86.5 289.303,-86.5 289.303,-67.5 211.303,-67.5"/>
<text text-anchor="middle" x="250.303" y="-74.5" font-family="Helvetica,sans-Serif" font-size="10.00">log/IvyLog.hpp</text>
</a>
</g>
</g>
<!-- Node0&#45;&gt;Node3 -->
<g id="edge35" class="edge"><title>Node0&#45;&gt;Node3</title>
<path fill="none" stroke="midnightblue" d="M236.365,-403.352C144.624,-355.702 -66.7427,-230.031 21.3033,-123 43.6283,-95.861 140.841,-84.8394 201.204,-80.5536"/>
<polygon fill="midnightblue" stroke="midnightblue" points="201.546,-84.0386 211.289,-79.8755 201.076,-77.0543 201.546,-84.0386"/>
</g>
<!-- Node8 -->
<g id="node9" class="node"><title>Node8</title>
<g id="a_node9"><a xlink:href="_jogo_8hpp.html" target="_top" xlink:title=" ">
<polygon fill="white" stroke="black" points="343.303,-123.5 343.303,-142.5 459.303,-142.5 459.303,-123.5 343.303,-123.5"/>
<text text-anchor="middle" x="401.303" y="-130.5" font-family="Helvetica,sans-Serif" font-size="10.00">locadora/jogo/Jogo.hpp</text>
</a>
</g>
</g>
<!-- Node0&#45;&gt;Node8 -->
<g id="edge36" class="edge"><title>Node0&#45;&gt;Node8</title>
<path fill="none" stroke="midnightblue" d="M335.483,-414.692C432.229,-399.683 616.962,-364.549 651.303,-311 706.809,-224.449 535.871,-167.672 448.873,-145.064"/>
<polygon fill="midnightblue" stroke="midnightblue" points="449.508,-141.614 438.954,-142.54 447.782,-148.398 449.508,-141.614"/>
</g>
<!-- Node10 -->
<g id="node11" class="node"><title>Node10</title>
<g id="a_node11"><a xlink:href="_ivy_manager_8hpp.html" target="_top" xlink:title=" ">
<polygon fill="white" stroke="black" points="68.8033,-235.5 68.8033,-254.5 209.803,-254.5 209.803,-235.5 68.8033,-235.5"/>
<text text-anchor="middle" x="139.303" y="-242.5" font-family="Helvetica,sans-Serif" font-size="10.00">ivy_manager/IvyManager.hpp</text>
</a>
</g>
</g>
<!-- Node0&#45;&gt;Node10 -->
<g id="edge13" class="edge"><title>Node0&#45;&gt;Node10</title>
<path fill="none" stroke="midnightblue" d="M256.846,-403.375C246.773,-392.89 234.486,-379.582 224.303,-367 195.772,-331.746 166.141,-287.527 150.514,-263.504"/>
<polygon fill="midnightblue" stroke="midnightblue" points="153.259,-261.302 144.893,-254.801 147.379,-265.1 153.259,-261.302"/>
</g>
<!-- Node11 -->
<g id="node12" class="node"><title>Node11</title>
<g id="a_node12"><a xlink:href="_interface_c_l_i_8hpp.html" target="_top" xlink:title=" ">
<polygon fill="white" stroke="black" points="364.303,-347.5 364.303,-366.5 490.303,-366.5 490.303,-347.5 364.303,-347.5"/>
<text text-anchor="middle" x="427.303" y="-354.5" font-family="Helvetica,sans-Serif" font-size="10.00">interface/InterfaceCLI.hpp</text>
</a>
</g>
</g>
<!-- Node0&#45;&gt;Node11 -->
<g id="edge17" class="edge"><title>Node0&#45;&gt;Node11</title>
<path fill="none" stroke="midnightblue" d="M321.608,-403.498C346.318,-392.861 376.193,-380.001 397.869,-370.67"/>
<polygon fill="midnightblue" stroke="midnightblue" points="399.402,-373.821 407.203,-366.652 396.634,-367.392 399.402,-373.821"/>
</g>
<!-- Node15 -->
<g id="node16" class="node"><title>Node15</title>
<g id="a_node16"><a xlink:href="_locadora_c_l_i_8hpp.html" target="_top" xlink:title=" ">
<polygon fill="white" stroke="black" points="512.803,-291.5 512.803,-310.5 641.803,-310.5 641.803,-291.5 512.803,-291.5"/>
<text text-anchor="middle" x="577.303" y="-298.5" font-family="Helvetica,sans-Serif" font-size="10.00">locadora/LocadoraCLI.hpp</text>
</a>
</g>
</g>
<!-- Node0&#45;&gt;Node15 -->
<g id="edge38" class="edge"><title>Node0&#45;&gt;Node15</title>
<path fill="none" stroke="midnightblue" d="M335.664,-415.498C382.127,-407.914 447.353,-393.414 499.303,-367 523.963,-354.462 547.701,-332.869 562.381,-318.034"/>
<polygon fill="midnightblue" stroke="midnightblue" points="565.136,-320.219 569.552,-310.589 560.094,-315.363 565.136,-320.219"/>
</g>
<!-- Node16 -->
<g id="node17" class="node"><title>Node16</title>
<g id="a_node17"><a xlink:href="_locadora_8hpp.html" target="_top" xlink:title=" ">
<polygon fill="white" stroke="black" points="304.803,-235.5 304.803,-254.5 379.803,-254.5 379.803,-235.5 304.803,-235.5"/>
<text text-anchor="middle" x="342.303" y="-242.5" font-family="Helvetica,sans-Serif" font-size="10.00">Locadora.hpp</text>
</a>
</g>
</g>
<!-- Node0&#45;&gt;Node16 -->
<g id="edge37" class="edge"><title>Node0&#45;&gt;Node16</title>
<path fill="none" stroke="midnightblue" d="M283.619,-403.382C296.52,-368.783 323.128,-297.425 335.589,-264.006"/>
<polygon fill="midnightblue" stroke="midnightblue" points="338.888,-265.176 339.103,-254.584 332.329,-262.731 338.888,-265.176"/>
</g>
<!-- Node1&#45;&gt;Node2 -->
<g id="edge2" class="edge"><title>Node1&#45;&gt;Node2</title>
<path fill="none" stroke="midnightblue" d="M188.338,-179.444C167.694,-170.596 135.241,-156.687 111.672,-146.586"/>
<polygon fill="midnightblue" stroke="midnightblue" points="112.745,-143.239 102.175,-142.516 109.988,-149.673 112.745,-143.239"/>
</g>
<!-- Node1&#45;&gt;Node3 -->
<g id="edge8" class="edge"><title>Node1&#45;&gt;Node3</title>
<path fill="none" stroke="midnightblue" d="M211.599,-179.368C218.438,-161.456 234.296,-119.923 243.45,-95.9482"/>
<polygon fill="midnightblue" stroke="midnightblue" points="246.726,-97.1821 247.023,-86.5914 240.186,-94.6851 246.726,-97.1821"/>
</g>
<!-- Node1&#45;&gt;Node8 -->
<g id="edge9" class="edge"><title>Node1&#45;&gt;Node8</title>
<path fill="none" stroke="midnightblue" d="M238.885,-179.444C271.918,-170.201 324.691,-155.436 361.069,-145.257"/>
<polygon fill="midnightblue" stroke="midnightblue" points="362.178,-148.582 370.865,-142.516 360.292,-141.84 362.178,-148.582"/>
</g>
<!-- Node2&#45;&gt;Node3 -->
<g id="edge3" class="edge"><title>Node2&#45;&gt;Node3</title>
<path fill="none" stroke="midnightblue" d="M108.923,-123.444C137.309,-114.32 182.44,-99.8133 214.056,-89.6509"/>
<polygon fill="midnightblue" stroke="midnightblue" points="215.358,-92.9087 223.808,-86.5164 213.216,-86.2445 215.358,-92.9087"/>
</g>
<!-- Node7 -->
<g id="node8" class="node"><title>Node7</title>
<g id="a_node8"><a xlink:title=" ">
<polygon fill="white" stroke="#bfbfbf" points="57.8033,-67.5 57.8033,-86.5 106.803,-86.5 106.803,-67.5 57.8033,-67.5"/>
<text text-anchor="middle" x="82.3033" y="-74.5" font-family="Helvetica,sans-Serif" font-size="10.00">fstream</text>
</a>
</g>
</g>
<!-- Node2&#45;&gt;Node7 -->
<g id="edge7" class="edge"><title>Node2&#45;&gt;Node7</title>
<path fill="none" stroke="midnightblue" d="M82.3033,-123.083C82.3033,-116.006 82.3033,-105.861 82.3033,-96.9865"/>
<polygon fill="midnightblue" stroke="midnightblue" points="85.8034,-96.751 82.3033,-86.7511 78.8034,-96.7511 85.8034,-96.751"/>
</g>
<!-- Node4 -->
<g id="node5" class="node"><title>Node4</title>
<g id="a_node5"><a xlink:title=" ">
<polygon fill="white" stroke="#bfbfbf" points="102.803,-6 102.803,-25 187.803,-25 187.803,-6 102.803,-6"/>
<text text-anchor="middle" x="145.303" y="-13" font-family="Helvetica,sans-Serif" font-size="10.00">spdlog/spdlog.h</text>
</a>
</g>
</g>
<!-- Node3&#45;&gt;Node4 -->
<g id="edge4" class="edge"><title>Node3&#45;&gt;Node4</title>
<path fill="none" stroke="midnightblue" d="M235.259,-67.4751C218.028,-57.7106 189.563,-41.5807 169.269,-30.0808"/>
<polygon fill="midnightblue" stroke="midnightblue" points="170.745,-26.8942 160.319,-25.0091 167.294,-32.9843 170.745,-26.8942"/>
</g>
<!-- Node5 -->
<g id="node6" class="node"><title>Node5</title>
<g id="a_node6"><a xlink:title=" ">
<polygon fill="white" stroke="#bfbfbf" points="205.803,-6 205.803,-25 294.803,-25 294.803,-6 205.803,-6"/>
<text text-anchor="middle" x="250.303" y="-13" font-family="Helvetica,sans-Serif" font-size="10.00">spdlog/fmt/ostr.h</text>
</a>
</g>
</g>
<!-- Node3&#45;&gt;Node5 -->
<g id="edge5" class="edge"><title>Node3&#45;&gt;Node5</title>
<path fill="none" stroke="midnightblue" d="M250.303,-67.4751C250.303,-59.0803 250.303,-45.9806 250.303,-35.1631"/>
<polygon fill="midnightblue" stroke="midnightblue" points="253.803,-35.0091 250.303,-25.0091 246.803,-35.0091 253.803,-35.0091"/>
</g>
<!-- Node6 -->
<g id="node7" class="node"><title>Node6</title>
<g id="a_node7"><a xlink:title=" ">
<polygon fill="white" stroke="#bfbfbf" points="312.803,-0.5 312.803,-30.5 413.803,-30.5 413.803,-0.5 312.803,-0.5"/>
<text text-anchor="start" x="320.803" y="-18.5" font-family="Helvetica,sans-Serif" font-size="10.00">spdlog/sinks/stdout</text>
<text text-anchor="middle" x="363.303" y="-7.5" font-family="Helvetica,sans-Serif" font-size="10.00">_color_sinks.h</text>
</a>
</g>
</g>
<!-- Node3&#45;&gt;Node6 -->
<g id="edge6" class="edge"><title>Node3&#45;&gt;Node6</title>
<path fill="none" stroke="midnightblue" d="M266.493,-67.4751C282.37,-59.1154 307.107,-46.0902 327.601,-35.2991"/>
<polygon fill="midnightblue" stroke="midnightblue" points="329.454,-38.279 336.671,-30.523 326.192,-32.0852 329.454,-38.279"/>
</g>
<!-- Node8&#45;&gt;Node3 -->
<g id="edge11" class="edge"><title>Node8&#45;&gt;Node3</title>
<path fill="none" stroke="midnightblue" d="M377.377,-123.444C352.085,-114.399 312.001,-100.064 283.624,-89.9158"/>
<polygon fill="midnightblue" stroke="midnightblue" points="284.712,-86.5882 274.118,-86.5164 282.355,-93.1794 284.712,-86.5882"/>
</g>
<!-- Node9 -->
<g id="node10" class="node"><title>Node9</title>
<g id="a_node10"><a xlink:title=" ">
<polygon fill="white" stroke="#bfbfbf" points="671.803,-67.5 671.803,-86.5 712.803,-86.5 712.803,-67.5 671.803,-67.5"/>
<text text-anchor="middle" x="692.303" y="-74.5" font-family="Helvetica,sans-Serif" font-size="10.00">string</text>
</a>
</g>
</g>
<!-- Node8&#45;&gt;Node9 -->
<g id="edge10" class="edge"><title>Node8&#45;&gt;Node9</title>
<path fill="none" stroke="midnightblue" d="M447.413,-123.444C507.261,-112.338 610.083,-93.2573 661.353,-83.7433"/>
<polygon fill="midnightblue" stroke="midnightblue" points="662.284,-87.1304 671.477,-81.8646 661.007,-80.2479 662.284,-87.1304"/>
</g>
<!-- Node10&#45;&gt;Node1 -->
<g id="edge15" class="edge"><title>Node10&#45;&gt;Node1</title>
<path fill="none" stroke="midnightblue" d="M150.389,-235.324C160.789,-227.185 176.564,-214.839 189.025,-205.087"/>
<polygon fill="midnightblue" stroke="midnightblue" points="191.298,-207.753 197.016,-198.834 186.983,-202.241 191.298,-207.753"/>
</g>
<!-- Node10&#45;&gt;Node2 -->
<g id="edge14" class="edge"><title>Node10&#45;&gt;Node2</title>
<path fill="none" stroke="midnightblue" d="M134.831,-235.368C125.507,-217.376 103.834,-175.55 91.4371,-151.627"/>
<polygon fill="midnightblue" stroke="midnightblue" points="94.4636,-149.86 86.7552,-142.591 88.2485,-153.081 94.4636,-149.86"/>
</g>
<!-- Node10&#45;&gt;Node3 -->
<g id="edge16" class="edge"><title>Node10&#45;&gt;Node3</title>
<path fill="none" stroke="midnightblue" d="M140.593,-235.094C142.758,-222.091 147.943,-197.453 158.303,-179 177.796,-144.281 211.285,-111.665 232.032,-93.3239"/>
<polygon fill="midnightblue" stroke="midnightblue" points="234.543,-95.7793 239.811,-86.5874 229.96,-90.4874 234.543,-95.7793"/>
</g>
<!-- Node11&#45;&gt;Node3 -->
<g id="edge23" class="edge"><title>Node11&#45;&gt;Node3</title>
<path fill="none" stroke="midnightblue" d="M409.26,-347.284C380.547,-332.46 324.706,-299.555 295.303,-255 262.028,-204.577 253.357,-131.163 251.099,-96.9123"/>
<polygon fill="midnightblue" stroke="midnightblue" points="254.572,-96.3291 250.537,-86.5328 247.582,-96.7072 254.572,-96.3291"/>
</g>
<!-- Node11&#45;&gt;Node9 -->
<g id="edge19" class="edge"><title>Node11&#45;&gt;Node9</title>
<path fill="none" stroke="midnightblue" d="M490.382,-350.777C548.321,-344.695 628.537,-332.605 651.303,-311 711.598,-253.78 702.184,-141.411 695.596,-96.8509"/>
<polygon fill="midnightblue" stroke="midnightblue" points="699.029,-96.1553 693.987,-86.8369 692.118,-97.2655 699.029,-96.1553"/>
</g>
<!-- Node11&#45;&gt;Node10 -->
<g id="edge22" class="edge"><title>Node11&#45;&gt;Node10</title>
<path fill="none" stroke="midnightblue" d="M404.704,-347.368C353.811,-327.93 230.087,-280.674 171.318,-258.228"/>
<polygon fill="midnightblue" stroke="midnightblue" points="172.388,-254.89 161.797,-254.591 169.89,-261.429 172.388,-254.89"/>
</g>
<!-- Node12 -->
<g id="node13" class="node"><title>Node12</title>
<g id="a_node13"><a xlink:title=" ">
<polygon fill="white" stroke="#bfbfbf" points="381.303,-179.5 381.303,-198.5 435.303,-198.5 435.303,-179.5 381.303,-179.5"/>
<text text-anchor="middle" x="408.303" y="-186.5" font-family="Helvetica,sans-Serif" font-size="10.00">iostream</text>
</a>
</g>
</g>
<!-- Node11&#45;&gt;Node12 -->
<g id="edge18" class="edge"><title>Node11&#45;&gt;Node12</title>
<path fill="none" stroke="midnightblue" d="M426.282,-347.075C423.291,-320.945 414.508,-244.211 410.43,-208.577"/>
<polygon fill="midnightblue" stroke="midnightblue" points="413.899,-208.105 409.284,-198.568 406.944,-208.901 413.899,-208.105"/>
</g>
<!-- Node13 -->
<g id="node14" class="node"><title>Node13</title>
<g id="a_node14"><a xlink:title=" ">
<polygon fill="white" stroke="#bfbfbf" points="436.303,-235.5 436.303,-254.5 492.303,-254.5 492.303,-235.5 436.303,-235.5"/>
<text text-anchor="middle" x="464.303" y="-242.5" font-family="Helvetica,sans-Serif" font-size="10.00">algorithm</text>
</a>
</g>
</g>
<!-- Node11&#45;&gt;Node13 -->
<g id="edge20" class="edge"><title>Node11&#45;&gt;Node13</title>
<path fill="none" stroke="midnightblue" d="M430.207,-347.368C436.205,-329.537 450.077,-288.295 458.157,-264.272"/>
<polygon fill="midnightblue" stroke="midnightblue" points="461.543,-265.185 461.413,-254.591 454.908,-262.954 461.543,-265.185"/>
</g>
<!-- Node14 -->
<g id="node15" class="node"><title>Node14</title>
<g id="a_node15"><a xlink:title=" ">
<polygon fill="white" stroke="#bfbfbf" points="510.303,-235.5 510.303,-254.5 550.303,-254.5 550.303,-235.5 510.303,-235.5"/>
<text text-anchor="middle" x="530.303" y="-242.5" font-family="Helvetica,sans-Serif" font-size="10.00">limits</text>
</a>
</g>
</g>
<!-- Node11&#45;&gt;Node14 -->
<g id="edge21" class="edge"><title>Node11&#45;&gt;Node14</title>
<path fill="none" stroke="midnightblue" d="M435.386,-347.368C452.609,-328.974 493.157,-285.671 515.273,-262.052"/>
<polygon fill="midnightblue" stroke="midnightblue" points="517.978,-264.283 522.259,-254.591 512.869,-259.499 517.978,-264.283"/>
</g>
<!-- Node11&#45;&gt;Node15 -->
<g id="edge24" class="edge"><title>Node11&#45;&gt;Node15</title>
<path fill="none" stroke="midnightblue" d="M451.071,-347.444C476.196,-338.399 516.014,-324.064 544.204,-313.916"/>
<polygon fill="midnightblue" stroke="midnightblue" points="545.423,-317.197 553.647,-310.516 543.052,-310.611 545.423,-317.197"/>
</g>
<!-- Node15&#45;&gt;Node3 -->
<g id="edge34" class="edge"><title>Node15&#45;&gt;Node3</title>
<path fill="none" stroke="midnightblue" d="M579.773,-291.184C582.907,-278.293 587.038,-253.793 579.303,-235 552.629,-170.192 529.917,-156.398 468.303,-123 415.239,-94.2362 345.778,-83.82 299.68,-80.0702"/>
<polygon fill="midnightblue" stroke="midnightblue" points="299.87,-76.5747 289.639,-79.3287 299.354,-83.5557 299.87,-76.5747"/>
</g>
<!-- Node15&#45;&gt;Node9 -->
<g id="edge26" class="edge"><title>Node15&#45;&gt;Node9</title>
<path fill="none" stroke="midnightblue" d="M591.294,-291.242C603.178,-283.152 619.915,-270.123 630.303,-255 665.417,-203.882 682.601,-130.849 689.098,-96.808"/>
<polygon fill="midnightblue" stroke="midnightblue" points="692.564,-97.3102 690.902,-86.8465 685.676,-96.0628 692.564,-97.3102"/>
</g>
<!-- Node15&#45;&gt;Node12 -->
<g id="edge25" class="edge"><title>Node15&#45;&gt;Node12</title>
<path fill="none" stroke="midnightblue" d="M577.413,-291.118C577.088,-277.232 574.389,-250.383 559.303,-235 529.361,-204.469 479.68,-194.445 445.532,-191.268"/>
<polygon fill="midnightblue" stroke="midnightblue" points="445.713,-187.772 435.472,-190.487 445.171,-194.751 445.713,-187.772"/>
</g>
<!-- Node15&#45;&gt;Node13 -->
<g id="edge27" class="edge"><title>Node15&#45;&gt;Node13</title>
<path fill="none" stroke="midnightblue" d="M559.398,-291.444C541.049,-282.675 512.298,-268.935 491.21,-258.858"/>
<polygon fill="midnightblue" stroke="midnightblue" points="492.657,-255.67 482.125,-254.516 489.638,-261.986 492.657,-255.67"/>
</g>
<!-- Node15&#45;&gt;Node14 -->
<g id="edge28" class="edge"><title>Node15&#45;&gt;Node14</title>
<path fill="none" stroke="midnightblue" d="M569.542,-291.083C562.767,-283.298 552.76,-271.801 544.548,-262.367"/>
<polygon fill="midnightblue" stroke="midnightblue" points="547.125,-259.996 537.92,-254.751 541.845,-264.592 547.125,-259.996"/>
</g>
<!-- Node15&#45;&gt;Node16 -->
<g id="edge29" class="edge"><title>Node15&#45;&gt;Node16</title>
<path fill="none" stroke="midnightblue" d="M540.067,-291.444C499.244,-282.063 433.66,-266.993 389.319,-256.804"/>
<polygon fill="midnightblue" stroke="midnightblue" points="389.895,-253.345 379.366,-254.516 388.328,-260.167 389.895,-253.345"/>
</g>
<!-- Node16&#45;&gt;Node1 -->
<g id="edge31" class="edge"><title>Node16&#45;&gt;Node1</title>
<path fill="none" stroke="midnightblue" d="M321.071,-235.444C298.92,-226.517 263.985,-212.439 238.867,-202.317"/>
<polygon fill="midnightblue" stroke="midnightblue" points="240.02,-199.008 229.437,-198.516 237.404,-205.501 240.02,-199.008"/>
</g>
<!-- Node16&#45;&gt;Node3 -->
<g id="edge32" class="edge"><title>Node16&#45;&gt;Node3</title>
<path fill="none" stroke="midnightblue" d="M339.764,-235.298C333.522,-214.704 316.111,-161.796 291.303,-123 284.486,-112.339 275.077,-101.806 266.992,-93.6143"/>
<polygon fill="midnightblue" stroke="midnightblue" points="269.368,-91.0428 259.773,-86.5496 264.472,-96.0456 269.368,-91.0428"/>
</g>
<!-- Node16&#45;&gt;Node8 -->
<g id="edge30" class="edge"><title>Node16&#45;&gt;Node8</title>
<path fill="none" stroke="midnightblue" d="M345.817,-235.399C351.075,-222.777 361.53,-198.607 372.303,-179 377.506,-169.531 383.964,-159.382 389.464,-151.124"/>
<polygon fill="midnightblue" stroke="midnightblue" points="392.433,-152.981 395.149,-142.74 386.64,-149.052 392.433,-152.981"/>
</g>
<!-- Node16&#45;&gt;Node12 -->
<g id="edge33" class="edge"><title>Node16&#45;&gt;Node12</title>
<path fill="none" stroke="midnightblue" d="M352.907,-235.324C362.759,-227.263 377.654,-215.077 389.518,-205.369"/>
<polygon fill="midnightblue" stroke="midnightblue" points="391.983,-207.875 397.506,-198.834 387.55,-202.457 391.983,-207.875"/>
</g>
</g>
</svg>
        <g id="navigator" transform="translate(0 0)" fill="#404254">
                <rect fill="#f2f5e9" fill-opacity="0.5" stroke="#606060" stroke-width=".5" x="0" y="0" width="60" height="60"/>
                <use id="zoomplus" xlink:href="#zoomPlus" x="17" y="9" onmousedown="handleZoom(evt,'in')"/>
                <use id="zoomminus" xlink:href="#zoomMin" x="42" y="9" onmousedown="handleZoom(evt,'out')"/>
                <use id="reset" xlink:href="#resetDef" x="30" y="36" onmousedown="handleReset()"/>
                <g id="arrowUp" xlink:href="#dirArrow" transform="translate(30 24)" onmousedown="handlePan(0,-1)">
                  <use xlink:href="#rim" fill="#404040">
                        <set attributeName="fill" to="#808080" begin="arrowUp.mouseover" end="arrowUp.mouseout"/>
                  </use>
                  <path fill="none" stroke="white" stroke-width="1.5" d="M0,-3.0v7 M-2.5,-0.5L0,-3.0L2.5,-0.5"/>
                </g>
                <g id="arrowRight" xlink:href="#dirArrow" transform="rotate(90) translate(36 -43)" onmousedown="handlePan(1,0)">
                  <use xlink:href="#rim" fill="#404040">
                        <set attributeName="fill" to="#808080" begin="arrowRight.mouseover" end="arrowRight.mouseout"/>
                  </use>
                  <path fill="none" stroke="white" stroke-width="1.5" d="M0,-3.0v7 M-2.5,-0.5L0,-3.0L2.5,-0.5"/>
                </g>
                <g id="arrowDown" xlink:href="#dirArrow" transform="rotate(180) translate(-30 -48)" onmousedown="handlePan(0,1)">
                  <use xlink:href="#rim" fill="#404040">
                        <set attributeName="fill" to="#808080" begin="arrowDown.mouseover" end="arrowDown.mouseout"/>
                  </use>
                  <path fill="none" stroke="white" stroke-width="1.5" d="M0,-3.0v7 M-2.5,-0.5L0,-3.0L2.5,-0.5"/>
                </g>
                <g id="arrowLeft" xlink:href="#dirArrow" transform="rotate(270) translate(-36 17)" onmousedown="handlePan(-1,0)">
                  <use xlink:href="#rim" fill="#404040">
                        <set attributeName="fill" to="#808080" begin="arrowLeft.mouseover" end="arrowLeft.mouseout"/>
                  </use>
                  <path fill="none" stroke="white" stroke-width="1.5" d="M0,-3.0v7 M-2.5,-0.5L0,-3.0L2.5,-0.5"/>
                </g>
        </g>
        <svg viewBox="0 0 15 15" width="100%" height="30px" preserveAspectRatio="xMaxYMin meet">
         <g id="arrow_out" transform="scale(0.3 0.3)">
          <a xlink:href="ivy_8hpp__incl_org.svg" target="_base">
           <rect id="button" ry="5" rx="5" y="6" x="6" height="38" width="38"
                fill="#f2f5e9" fill-opacity="0.5" stroke="#606060" stroke-width="1.0"/>
           <path id="arrow"
             d="M 11.500037,31.436501 C 11.940474,20.09759 22.043105,11.32322 32.158766,21.979434 L 37.068811,17.246167 C 37.068811,17.246167 37.088388,32 37.088388,32 L 22.160133,31.978069 C 22.160133,31.978069 26.997745,27.140456 26.997745,27.140456 C 18.528582,18.264221 13.291696,25.230495 11.500037,31.436501 z"
             style="fill:#404040;"/>
          </a>
         </g>
        </svg>
</svg>
