<?xml version="1.0" encoding="UTF-8" standalone="no"?>
<!DOCTYPE svg PUBLIC "-//W3C//DTD SVG 1.1//EN"
 "http://www.w3.org/Graphics/SVG/1.1/DTD/svg11.dtd">
<!-- Generated by graphviz version 2.38.0 (20140413.2041)
 -->
<!-- Title: C:/Users/osyri/Desktop/IVY&#45;Inventory&#45;Manager/src/main.cpp Pages: 1 -->
<svg width="720pt" height="509pt"
 viewBox="0.00 0.00 720.16 509.00" xmlns="http://www.w3.org/2000/svg" xmlns:xlink="http://www.w3.org/1999/xlink">
<g id="graph0" class="graph" transform="scale(1 1) rotate(0) translate(4 505)">
<title>C:/Users/osyri/Desktop/IVY&#45;Inventory&#45;Manager/src/main.cpp</title>
<polygon fill="white" stroke="none" points="-4,4 -4,-505 716.158,-505 716.158,4 -4,4"/>
<!-- Node0 -->
<g id="node1" class="node"><title>Node0</title>
<g id="a_node1"><a xlink:title=" ">
<polygon fill="#bfbfbf" stroke="black" points="177.658,-459.5 177.658,-500.5 295.658,-500.5 295.658,-459.5 177.658,-459.5"/>
<text text-anchor="start" x="185.658" y="-488.5" font-family="Helvetica,sans-Serif" font-size="10.00">C:/Users/osyri/Desktop</text>
<text text-anchor="start" x="185.658" y="-477.5" font-family="Helvetica,sans-Serif" font-size="10.00">/IVY&#45;Inventory&#45;Manager</text>
<text text-anchor="middle" x="236.658" y="-466.5" font-family="Helvetica,sans-Serif" font-size="10.00">/src/main.cpp</text>
</a>
</g>
</g>
<!-- Node1 -->
<g id="node2" class="node"><title>Node1</title>
<g id="a_node2"><a xlink:title=" ">
<polygon fill="white" stroke="#bfbfbf" points="168.658,-403.5 168.658,-422.5 226.658,-422.5 226.658,-403.5 168.658,-403.5"/>
<text text-anchor="middle" x="197.658" y="-410.5" font-family="Helvetica,sans-Serif" font-size="10.00">cli/cli.hpp</text>
</a>
</g>
</g>
<!-- Node0&#45;&gt;Node1 -->
<g id="edge1" class="edge"><title>Node0&#45;&gt;Node1</title>
<path fill="none" stroke="midnightblue" d="M224.957,-459.498C219.61,-450.586 213.326,-440.113 208.136,-431.464"/>
<polygon fill="midnightblue" stroke="midnightblue" points="210.996,-429.427 202.85,-422.652 204.993,-433.028 210.996,-429.427"/>
</g>
<!-- Node2 -->
<g id="node3" class="node"><title>Node2</title>
<g id="a_node3"><a xlink:href="ivy_8hpp.html" target="_top" xlink:title=" ">
<polygon fill="white" stroke="black" points="245.158,-403.5 245.158,-422.5 306.158,-422.5 306.158,-403.5 245.158,-403.5"/>
<text text-anchor="middle" x="275.658" y="-410.5" font-family="Helvetica,sans-Serif" font-size="10.00">ivy/ivy.hpp</text>
</a>
</g>
</g>
<!-- Node0&#45;&gt;Node2 -->
<g id="edge2" class="edge"><title>Node0&#45;&gt;Node2</title>
<path fill="none" stroke="midnightblue" d="M248.359,-459.498C253.706,-450.586 259.99,-440.113 265.18,-431.464"/>
<polygon fill="midnightblue" stroke="midnightblue" points="268.323,-433.028 270.467,-422.652 262.32,-429.427 268.323,-433.028"/>
</g>
<!-- Node3 -->
<g id="node4" class="node"><title>Node3</title>
<g id="a_node4"><a xlink:href="_vetor_8hpp.html" target="_top" xlink:title=" ">
<polygon fill="white" stroke="black" points="166.658,-179.5 166.658,-198.5 248.658,-198.5 248.658,-179.5 166.658,-179.5"/>
<text text-anchor="middle" x="207.658" y="-186.5" font-family="Helvetica,sans-Serif" font-size="10.00">vetor/Vetor.hpp</text>
</a>
</g>
</g>
<!-- Node2&#45;&gt;Node3 -->
<g id="edge3" class="edge"><title>Node2&#45;&gt;Node3</title>
<path fill="none" stroke="midnightblue" d="M272.992,-403.297C262.966,-370.563 227.377,-254.375 213.376,-208.666"/>
<polygon fill="midnightblue" stroke="midnightblue" points="216.655,-207.42 210.379,-198.884 209.962,-209.47 216.655,-207.42"/>
</g>
<!-- Node4 -->
<g id="node5" class="node"><title>Node4</title>
<g id="a_node5"><a xlink:href="_produto_8hpp.html" target="_top" xlink:title=" ">
<polygon fill="white" stroke="black" points="29.6581,-123.5 29.6581,-142.5 133.658,-142.5 133.658,-123.5 29.6581,-123.5"/>
<text text-anchor="middle" x="81.6581" y="-130.5" font-family="Helvetica,sans-Serif" font-size="10.00">produto/Produto.hpp</text>
</a>
</g>
</g>
<!-- Node2&#45;&gt;Node4 -->
<g id="edge14" class="edge"><title>Node2&#45;&gt;Node4</title>
<path fill="none" stroke="midnightblue" d="M244.805,-404.511C180.835,-388.081 39.6581,-346.752 39.6581,-302 39.6581,-302 39.6581,-302 39.6581,-244 39.6581,-209.412 58.006,-172.492 70.4477,-151.432"/>
<polygon fill="midnightblue" stroke="midnightblue" points="73.5648,-153.045 75.8182,-142.692 67.6007,-149.38 73.5648,-153.045"/>
</g>
<!-- Node5 -->
<g id="node6" class="node"><title>Node5</title>
<g id="a_node6"><a xlink:href="_ivy_log_8hpp.html" target="_top" xlink:title=" ">
<polygon fill="white" stroke="black" points="210.658,-67.5 210.658,-86.5 288.658,-86.5 288.658,-67.5 210.658,-67.5"/>
<text text-anchor="middle" x="249.658" y="-74.5" font-family="Helvetica,sans-Serif" font-size="10.00">log/IvyLog.hpp</text>
</a>
</g>
</g>
<!-- Node2&#45;&gt;Node5 -->
<g id="edge37" class="edge"><title>Node2&#45;&gt;Node5</title>
<path fill="none" stroke="midnightblue" d="M256.9,-403.442C183.843,-369.007 -73.0737,-236.943 20.6581,-123 42.9831,-95.861 140.196,-84.8394 200.559,-80.5536"/>
<polygon fill="midnightblue" stroke="midnightblue" points="200.901,-84.0386 210.643,-79.8755 200.431,-77.0543 200.901,-84.0386"/>
</g>
<!-- Node10 -->
<g id="node11" class="node"><title>Node10</title>
<g id="a_node11"><a xlink:href="_jogo_8hpp.html" target="_top" xlink:title=" ">
<polygon fill="white" stroke="black" points="342.658,-123.5 342.658,-142.5 458.658,-142.5 458.658,-123.5 342.658,-123.5"/>
<text text-anchor="middle" x="400.658" y="-130.5" font-family="Helvetica,sans-Serif" font-size="10.00">locadora/jogo/Jogo.hpp</text>
</a>
</g>
</g>
<!-- Node2&#45;&gt;Node10 -->
<g id="edge38" class="edge"><title>Node2&#45;&gt;Node10</title>
<path fill="none" stroke="midnightblue" d="M306.263,-408.898C388.87,-399.789 612.714,-369.968 650.658,-311 706.297,-224.534 535.291,-167.714 448.252,-145.079"/>
<polygon fill="midnightblue" stroke="midnightblue" points="448.882,-141.628 438.328,-142.552 447.155,-148.412 448.882,-141.628"/>
</g>
<!-- Node12 -->
<g id="node13" class="node"><title>Node12</title>
<g id="a_node13"><a xlink:href="_ivy_manager_8hpp.html" target="_top" xlink:title=" ">
<polygon fill="white" stroke="black" points="68.1581,-235.5 68.1581,-254.5 209.158,-254.5 209.158,-235.5 68.1581,-235.5"/>
<text text-anchor="middle" x="138.658" y="-242.5" font-family="Helvetica,sans-Serif" font-size="10.00">ivy_manager/IvyManager.hpp</text>
</a>
</g>
</g>
<!-- Node2&#45;&gt;Node12 -->
<g id="edge15" class="edge"><title>Node2&#45;&gt;Node12</title>
<path fill="none" stroke="midnightblue" d="M264.192,-403.418C253.15,-394.856 236.306,-380.995 223.658,-367 193.097,-333.186 164.043,-288.077 149.105,-263.602"/>
<polygon fill="midnightblue" stroke="midnightblue" points="151.926,-261.503 143.767,-254.745 145.931,-265.116 151.926,-261.503"/>
</g>
<!-- Node13 -->
<g id="node14" class="node"><title>Node13</title>
<g id="a_node14"><a xlink:href="_interface_c_l_i_8hpp.html" target="_top" xlink:title=" ">
<polygon fill="white" stroke="black" points="363.658,-347.5 363.658,-366.5 489.658,-366.5 489.658,-347.5 363.658,-347.5"/>
<text text-anchor="middle" x="426.658" y="-354.5" font-family="Helvetica,sans-Serif" font-size="10.00">interface/InterfaceCLI.hpp</text>
</a>
</g>
</g>
<!-- Node2&#45;&gt;Node13 -->
<g id="edge19" class="edge"><title>Node2&#45;&gt;Node13</title>
<path fill="none" stroke="midnightblue" d="M299.584,-403.444C324.877,-394.399 364.96,-380.064 393.338,-369.916"/>
<polygon fill="midnightblue" stroke="midnightblue" points="394.606,-373.179 402.844,-366.516 392.249,-366.588 394.606,-373.179"/>
</g>
<!-- Node17 -->
<g id="node18" class="node"><title>Node17</title>
<g id="a_node18"><a xlink:href="_locadora_c_l_i_8hpp.html" target="_top" xlink:title=" ">
<polygon fill="white" stroke="black" points="512.158,-291.5 512.158,-310.5 641.158,-310.5 641.158,-291.5 512.158,-291.5"/>
<text text-anchor="middle" x="576.658" y="-298.5" font-family="Helvetica,sans-Serif" font-size="10.00">locadora/LocadoraCLI.hpp</text>
</a>
</g>
</g>
<!-- Node2&#45;&gt;Node17 -->
<g id="edge40" class="edge"><title>Node2&#45;&gt;Node17</title>
<path fill="none" stroke="midnightblue" d="M306.37,-410.555C350.813,-407.436 434.727,-397.641 498.658,-367 523.605,-355.044 547.278,-333.319 561.865,-318.296"/>
<polygon fill="midnightblue" stroke="midnightblue" points="564.671,-320.421 568.984,-310.744 559.577,-315.62 564.671,-320.421"/>
</g>
<!-- Node18 -->
<g id="node19" class="node"><title>Node18</title>
<g id="a_node19"><a xlink:href="_locadora_8hpp.html" target="_top" xlink:title=" ">
<polygon fill="white" stroke="black" points="304.158,-235.5 304.158,-254.5 379.158,-254.5 379.158,-235.5 304.158,-235.5"/>
<text text-anchor="middle" x="341.658" y="-242.5" font-family="Helvetica,sans-Serif" font-size="10.00">Locadora.hpp</text>
</a>
</g>
</g>
<!-- Node2&#45;&gt;Node18 -->
<g id="edge39" class="edge"><title>Node2&#45;&gt;Node18</title>
<path fill="none" stroke="midnightblue" d="M279.207,-403.075C289.64,-376.832 320.369,-299.545 334.455,-264.117"/>
<polygon fill="midnightblue" stroke="midnightblue" points="337.809,-265.154 338.251,-254.568 331.304,-262.567 337.809,-265.154"/>
</g>
<!-- Node3&#45;&gt;Node4 -->
<g id="edge4" class="edge"><title>Node3&#45;&gt;Node4</title>
<path fill="none" stroke="midnightblue" d="M187.693,-179.444C167.049,-170.596 134.596,-156.687 111.026,-146.586"/>
<polygon fill="midnightblue" stroke="midnightblue" points="112.1,-143.239 101.53,-142.516 109.342,-149.673 112.1,-143.239"/>
</g>
<!-- Node3&#45;&gt;Node5 -->
<g id="edge10" class="edge"><title>Node3&#45;&gt;Node5</title>
<path fill="none" stroke="midnightblue" d="M210.954,-179.368C217.793,-161.456 233.651,-119.923 242.805,-95.9482"/>
<polygon fill="midnightblue" stroke="midnightblue" points="246.08,-97.1821 246.378,-86.5914 239.541,-94.6851 246.08,-97.1821"/>
</g>
<!-- Node3&#45;&gt;Node10 -->
<g id="edge11" class="edge"><title>Node3&#45;&gt;Node10</title>
<path fill="none" stroke="midnightblue" d="M238.239,-179.444C271.273,-170.201 324.046,-155.436 360.424,-145.257"/>
<polygon fill="midnightblue" stroke="midnightblue" points="361.533,-148.582 370.22,-142.516 359.646,-141.84 361.533,-148.582"/>
</g>
<!-- Node4&#45;&gt;Node5 -->
<g id="edge5" class="edge"><title>Node4&#45;&gt;Node5</title>
<path fill="none" stroke="midnightblue" d="M108.278,-123.444C136.664,-114.32 181.795,-99.8133 213.411,-89.6509"/>
<polygon fill="midnightblue" stroke="midnightblue" points="214.713,-92.9087 223.163,-86.5164 212.571,-86.2445 214.713,-92.9087"/>
</g>
<!-- Node9 -->
<g id="node10" class="node"><title>Node9</title>
<g id="a_node10"><a xlink:title=" ">
<polygon fill="white" stroke="#bfbfbf" points="57.1581,-67.5 57.1581,-86.5 106.158,-86.5 106.158,-67.5 57.1581,-67.5"/>
<text text-anchor="middle" x="81.6581" y="-74.5" font-family="Helvetica,sans-Serif" font-size="10.00">fstream</text>
</a>
</g>
</g>
<!-- Node4&#45;&gt;Node9 -->
<g id="edge9" class="edge"><title>Node4&#45;&gt;Node9</title>
<path fill="none" stroke="midnightblue" d="M81.6581,-123.083C81.6581,-116.006 81.6581,-105.861 81.6581,-96.9865"/>
<polygon fill="midnightblue" stroke="midnightblue" points="85.1582,-96.751 81.6581,-86.7511 78.1582,-96.7511 85.1582,-96.751"/>
</g>
<!-- Node6 -->
<g id="node7" class="node"><title>Node6</title>
<g id="a_node7"><a xlink:title=" ">
<polygon fill="white" stroke="#bfbfbf" points="102.158,-6 102.158,-25 187.158,-25 187.158,-6 102.158,-6"/>
<text text-anchor="middle" x="144.658" y="-13" font-family="Helvetica,sans-Serif" font-size="10.00">spdlog/spdlog.h</text>
</a>
</g>
</g>
<!-- Node5&#45;&gt;Node6 -->
<g id="edge6" class="edge"><title>Node5&#45;&gt;Node6</title>
<path fill="none" stroke="midnightblue" d="M234.614,-67.4751C217.383,-57.7106 188.918,-41.5807 168.624,-30.0808"/>
<polygon fill="midnightblue" stroke="midnightblue" points="170.1,-26.8942 159.674,-25.0091 166.649,-32.9843 170.1,-26.8942"/>
</g>
<!-- Node7 -->
<g id="node8" class="node"><title>Node7</title>
<g id="a_node8"><a xlink:title=" ">
<polygon fill="white" stroke="#bfbfbf" points="205.158,-6 205.158,-25 294.158,-25 294.158,-6 205.158,-6"/>
<text text-anchor="middle" x="249.658" y="-13" font-family="Helvetica,sans-Serif" font-size="10.00">spdlog/fmt/ostr.h</text>
</a>
</g>
</g>
<!-- Node5&#45;&gt;Node7 -->
<g id="edge7" class="edge"><title>Node5&#45;&gt;Node7</title>
<path fill="none" stroke="midnightblue" d="M249.658,-67.4751C249.658,-59.0803 249.658,-45.9806 249.658,-35.1631"/>
<polygon fill="midnightblue" stroke="midnightblue" points="253.158,-35.0091 249.658,-25.0091 246.158,-35.0091 253.158,-35.0091"/>
</g>
<!-- Node8 -->
<g id="node9" class="node"><title>Node8</title>
<g id="a_node9"><a xlink:title=" ">
<polygon fill="white" stroke="#bfbfbf" points="312.158,-0.5 312.158,-30.5 413.158,-30.5 413.158,-0.5 312.158,-0.5"/>
<text text-anchor="start" x="320.158" y="-18.5" font-family="Helvetica,sans-Serif" font-size="10.00">spdlog/sinks/stdout</text>
<text text-anchor="middle" x="362.658" y="-7.5" font-family="Helvetica,sans-Serif" font-size="10.00">_color_sinks.h</text>
</a>
</g>
</g>
<!-- Node5&#45;&gt;Node8 -->
<g id="edge8" class="edge"><title>Node5&#45;&gt;Node8</title>
<path fill="none" stroke="midnightblue" d="M265.848,-67.4751C281.725,-59.1154 306.462,-46.0902 326.956,-35.2991"/>
<polygon fill="midnightblue" stroke="midnightblue" points="328.809,-38.279 336.026,-30.523 325.547,-32.0852 328.809,-38.279"/>
</g>
<!-- Node10&#45;&gt;Node5 -->
<g id="edge13" class="edge"><title>Node10&#45;&gt;Node5</title>
<path fill="none" stroke="midnightblue" d="M376.732,-123.444C351.439,-114.399 311.356,-100.064 282.978,-89.9158"/>
<polygon fill="midnightblue" stroke="midnightblue" points="284.067,-86.5882 273.473,-86.5164 281.71,-93.1794 284.067,-86.5882"/>
</g>
<!-- Node11 -->
<g id="node12" class="node"><title>Node11</title>
<g id="a_node12"><a xlink:title=" ">
<polygon fill="white" stroke="#bfbfbf" points="671.158,-67.5 671.158,-86.5 712.158,-86.5 712.158,-67.5 671.158,-67.5"/>
<text text-anchor="middle" x="691.658" y="-74.5" font-family="Helvetica,sans-Serif" font-size="10.00">string</text>
</a>
</g>
</g>
<!-- Node10&#45;&gt;Node11 -->
<g id="edge12" class="edge"><title>Node10&#45;&gt;Node11</title>
<path fill="none" stroke="midnightblue" d="M446.768,-123.444C506.616,-112.338 609.438,-93.2573 660.708,-83.7433"/>
<polygon fill="midnightblue" stroke="midnightblue" points="661.639,-87.1304 670.832,-81.8646 660.362,-80.2479 661.639,-87.1304"/>
</g>
<!-- Node12&#45;&gt;Node3 -->
<g id="edge17" class="edge"><title>Node12&#45;&gt;Node3</title>
<path fill="none" stroke="midnightblue" d="M149.744,-235.324C160.144,-227.185 175.919,-214.839 188.38,-205.087"/>
<polygon fill="midnightblue" stroke="midnightblue" points="190.652,-207.753 196.37,-198.834 186.338,-202.241 190.652,-207.753"/>
</g>
<!-- Node12&#45;&gt;Node4 -->
<g id="edge16" class="edge"><title>Node12&#45;&gt;Node4</title>
<path fill="none" stroke="midnightblue" d="M134.185,-235.368C124.862,-217.376 103.189,-175.55 90.7919,-151.627"/>
<polygon fill="midnightblue" stroke="midnightblue" points="93.8184,-149.86 86.11,-142.591 87.6033,-153.081 93.8184,-149.86"/>
</g>
<!-- Node12&#45;&gt;Node5 -->
<g id="edge18" class="edge"><title>Node12&#45;&gt;Node5</title>
<path fill="none" stroke="midnightblue" d="M139.948,-235.094C142.113,-222.091 147.298,-197.453 157.658,-179 177.151,-144.281 210.639,-111.665 231.386,-93.3239"/>
<polygon fill="midnightblue" stroke="midnightblue" points="233.897,-95.7793 239.166,-86.5874 229.315,-90.4874 233.897,-95.7793"/>
</g>
<!-- Node13&#45;&gt;Node5 -->
<g id="edge25" class="edge"><title>Node13&#45;&gt;Node5</title>
<path fill="none" stroke="midnightblue" d="M408.615,-347.284C379.902,-332.46 324.061,-299.555 294.658,-255 261.383,-204.577 252.712,-131.163 250.453,-96.9123"/>
<polygon fill="midnightblue" stroke="midnightblue" points="253.927,-96.3291 249.892,-86.5328 246.937,-96.7072 253.927,-96.3291"/>
</g>
<!-- Node13&#45;&gt;Node11 -->
<g id="edge21" class="edge"><title>Node13&#45;&gt;Node11</title>
<path fill="none" stroke="midnightblue" d="M489.736,-350.777C547.676,-344.695 627.892,-332.605 650.658,-311 710.953,-253.78 701.539,-141.411 694.951,-96.8509"/>
<polygon fill="midnightblue" stroke="midnightblue" points="698.384,-96.1553 693.342,-86.8369 691.472,-97.2655 698.384,-96.1553"/>
</g>
<!-- Node13&#45;&gt;Node12 -->
<g id="edge24" class="edge"><title>Node13&#45;&gt;Node12</title>
<path fill="none" stroke="midnightblue" d="M404.059,-347.368C353.166,-327.93 229.442,-280.674 170.673,-258.228"/>
<polygon fill="midnightblue" stroke="midnightblue" points="171.743,-254.89 161.152,-254.591 169.245,-261.429 171.743,-254.89"/>
</g>
<!-- Node14 -->
<g id="node15" class="node"><title>Node14</title>
<g id="a_node15"><a xlink:title=" ">
<polygon fill="white" stroke="#bfbfbf" points="380.658,-179.5 380.658,-198.5 434.658,-198.5 434.658,-179.5 380.658,-179.5"/>
<text text-anchor="middle" x="407.658" y="-186.5" font-family="Helvetica,sans-Serif" font-size="10.00">iostream</text>
</a>
</g>
</g>
<!-- Node13&#45;&gt;Node14 -->
<g id="edge20" class="edge"><title>Node13&#45;&gt;Node14</title>
<path fill="none" stroke="midnightblue" d="M425.637,-347.075C422.646,-320.945 413.863,-244.211 409.784,-208.577"/>
<polygon fill="midnightblue" stroke="midnightblue" points="413.253,-208.105 408.639,-198.568 406.299,-208.901 413.253,-208.105"/>
</g>
<!-- Node15 -->
<g id="node16" class="node"><title>Node15</title>
<g id="a_node16"><a xlink:title=" ">
<polygon fill="white" stroke="#bfbfbf" points="435.658,-235.5 435.658,-254.5 491.658,-254.5 491.658,-235.5 435.658,-235.5"/>
<text text-anchor="middle" x="463.658" y="-242.5" font-family="Helvetica,sans-Serif" font-size="10.00">algorithm</text>
</a>
</g>
</g>
<!-- Node13&#45;&gt;Node15 -->
<g id="edge22" class="edge"><title>Node13&#45;&gt;Node15</title>
<path fill="none" stroke="midnightblue" d="M429.561,-347.368C435.559,-329.537 449.431,-288.295 457.512,-264.272"/>
<polygon fill="midnightblue" stroke="midnightblue" points="460.897,-265.185 460.768,-254.591 454.263,-262.954 460.897,-265.185"/>
</g>
<!-- Node16 -->
<g id="node17" class="node"><title>Node16</title>
<g id="a_node17"><a xlink:title=" ">
<polygon fill="white" stroke="#bfbfbf" points="509.658,-235.5 509.658,-254.5 549.658,-254.5 549.658,-235.5 509.658,-235.5"/>
<text text-anchor="middle" x="529.658" y="-242.5" font-family="Helvetica,sans-Serif" font-size="10.00">limits</text>
</a>
</g>
</g>
<!-- Node13&#45;&gt;Node16 -->
<g id="edge23" class="edge"><title>Node13&#45;&gt;Node16</title>
<path fill="none" stroke="midnightblue" d="M434.74,-347.368C451.964,-328.974 492.511,-285.671 514.628,-262.052"/>
<polygon fill="midnightblue" stroke="midnightblue" points="517.333,-264.283 521.613,-254.591 512.224,-259.499 517.333,-264.283"/>
</g>
<!-- Node13&#45;&gt;Node17 -->
<g id="edge26" class="edge"><title>Node13&#45;&gt;Node17</title>
<path fill="none" stroke="midnightblue" d="M450.426,-347.444C475.551,-338.399 515.369,-324.064 543.558,-313.916"/>
<polygon fill="midnightblue" stroke="midnightblue" points="544.778,-317.197 553.001,-310.516 542.407,-310.611 544.778,-317.197"/>
</g>
<!-- Node17&#45;&gt;Node5 -->
<g id="edge36" class="edge"><title>Node17&#45;&gt;Node5</title>
<path fill="none" stroke="midnightblue" d="M578.903,-291.187C581.729,-278.299 585.348,-253.803 577.658,-235 551.249,-170.421 528.922,-156.388 467.658,-123 414.659,-94.1162 345.184,-83.7264 299.065,-80.0155"/>
<polygon fill="midnightblue" stroke="midnightblue" points="299.247,-76.5195 289.019,-79.283 298.738,-83.501 299.247,-76.5195"/>
</g>
<!-- Node17&#45;&gt;Node11 -->
<g id="edge28" class="edge"><title>Node17&#45;&gt;Node11</title>
<path fill="none" stroke="midnightblue" d="M590.649,-291.242C602.533,-283.152 619.27,-270.123 629.658,-255 664.772,-203.882 681.956,-130.849 688.453,-96.808"/>
<polygon fill="midnightblue" stroke="midnightblue" points="691.919,-97.3102 690.257,-86.8465 685.031,-96.0628 691.919,-97.3102"/>
</g>
<!-- Node17&#45;&gt;Node14 -->
<g id="edge27" class="edge"><title>Node17&#45;&gt;Node14</title>
<path fill="none" stroke="midnightblue" d="M576.767,-291.118C576.443,-277.232 573.744,-250.383 558.658,-235 528.716,-204.469 479.034,-194.445 444.887,-191.268"/>
<polygon fill="midnightblue" stroke="midnightblue" points="445.068,-187.772 434.827,-190.487 444.526,-194.751 445.068,-187.772"/>
</g>
<!-- Node17&#45;&gt;Node15 -->
<g id="edge29" class="edge"><title>Node17&#45;&gt;Node15</title>
<path fill="none" stroke="midnightblue" d="M558.753,-291.444C540.404,-282.675 511.653,-268.935 490.564,-258.858"/>
<polygon fill="midnightblue" stroke="midnightblue" points="492.011,-255.67 481.479,-254.516 488.993,-261.986 492.011,-255.67"/>
</g>
<!-- Node17&#45;&gt;Node16 -->
<g id="edge30" class="edge"><title>Node17&#45;&gt;Node16</title>
<path fill="none" stroke="midnightblue" d="M568.897,-291.083C562.121,-283.298 552.115,-271.801 543.903,-262.367"/>
<polygon fill="midnightblue" stroke="midnightblue" points="546.48,-259.996 537.275,-254.751 541.2,-264.592 546.48,-259.996"/>
</g>
<!-- Node17&#45;&gt;Node18 -->
<g id="edge31" class="edge"><title>Node17&#45;&gt;Node18</title>
<path fill="none" stroke="midnightblue" d="M539.422,-291.444C498.598,-282.063 433.015,-266.993 388.674,-256.804"/>
<polygon fill="midnightblue" stroke="midnightblue" points="389.25,-253.345 378.72,-254.516 387.682,-260.167 389.25,-253.345"/>
</g>
<!-- Node18&#45;&gt;Node3 -->
<g id="edge33" class="edge"><title>Node18&#45;&gt;Node3</title>
<path fill="none" stroke="midnightblue" d="M320.425,-235.444C298.275,-226.517 263.339,-212.439 238.222,-202.317"/>
<polygon fill="midnightblue" stroke="midnightblue" points="239.375,-199.008 228.791,-198.516 236.758,-205.501 239.375,-199.008"/>
</g>
<!-- Node18&#45;&gt;Node5 -->
<g id="edge34" class="edge"><title>Node18&#45;&gt;Node5</title>
<path fill="none" stroke="midnightblue" d="M339.119,-235.298C332.877,-214.704 315.465,-161.796 290.658,-123 283.841,-112.339 274.432,-101.806 266.346,-93.6143"/>
<polygon fill="midnightblue" stroke="midnightblue" points="268.723,-91.0428 259.128,-86.5496 263.827,-96.0456 268.723,-91.0428"/>
</g>
<!-- Node18&#45;&gt;Node10 -->
<g id="edge32" class="edge"><title>Node18&#45;&gt;Node10</title>
<path fill="none" stroke="midnightblue" d="M345.172,-235.399C350.43,-222.777 360.885,-198.607 371.658,-179 376.861,-169.531 383.319,-159.382 388.819,-151.124"/>
<polygon fill="midnightblue" stroke="midnightblue" points="391.788,-152.981 394.503,-142.74 385.994,-149.052 391.788,-152.981"/>
</g>
<!-- Node18&#45;&gt;Node14 -->
<g id="edge35" class="edge"><title>Node18&#45;&gt;Node14</title>
<path fill="none" stroke="midnightblue" d="M352.262,-235.324C362.114,-227.263 377.009,-215.077 388.873,-205.369"/>
<polygon fill="midnightblue" stroke="midnightblue" points="391.338,-207.875 396.861,-198.834 386.905,-202.457 391.338,-207.875"/>
</g>
</g>
</svg>
